<svg width="1512" height="13" viewBox="0 0 1512 13" fill="none" xmlns="http://www.w3.org/2000/svg">
<g opacity="1">
<line x1="-48" y1="12.5" x2="1525" y2="12.5" stroke="#A7904A"/>
<line x1="33.5" y1="13" x2="33.5" y2="7" stroke="#A7904A"/>
<line x1="69.5" y1="13" x2="69.5" y2="7" stroke="#A7904A"/>
<line x1="105.5" y1="13" x2="105.5" y2="7" stroke="#A7904A"/>
<line x1="141.5" y1="13" x2="141.5" y2="2.18558e-08" stroke="#A7904A"/>
<line x1="177.5" y1="13" x2="177.5" y2="7" stroke="#A7904A"/>
<line x1="213.5" y1="13" x2="213.5" y2="7" stroke="#A7904A"/>
<line x1="249.5" y1="13" x2="249.5" y2="7" stroke="#A7904A"/>
<line x1="285.5" y1="13" x2="285.5" y2="7" stroke="#A7904A"/>
<line x1="321.5" y1="13" x2="321.5" y2="2.18558e-08" stroke="#A7904A"/>
<line x1="357.5" y1="13" x2="357.5" y2="7" stroke="#A7904A"/>
<line x1="393.5" y1="13" x2="393.5" y2="7" stroke="#A7904A"/>
<line x1="429.5" y1="13" x2="429.5" y2="7" stroke="#A7904A"/>
<line x1="465.5" y1="13" x2="465.5" y2="7" stroke="#A7904A"/>
<line x1="501.5" y1="13" x2="501.5" y2="2.18558e-08" stroke="#A7904A"/>
<line x1="537.5" y1="13" x2="537.5" y2="7" stroke="#A7904A"/>
<line x1="573.5" y1="13" x2="573.5" y2="7" stroke="#A7904A"/>
<line x1="609.5" y1="13" x2="609.5" y2="7" stroke="#A7904A"/>
<line x1="645.5" y1="13" x2="645.5" y2="7" stroke="#A7904A"/>
<line x1="681.5" y1="13" x2="681.5" y2="2.18558e-08" stroke="#A7904A"/>
<line x1="717.5" y1="13" x2="717.5" y2="7" stroke="#A7904A"/>
<line x1="753.5" y1="13" x2="753.5" y2="7" stroke="#A7904A"/>
<line x1="789.5" y1="13" x2="789.5" y2="7" stroke="#A7904A"/>
<line x1="825.5" y1="13" x2="825.5" y2="7" stroke="#A7904A"/>
<line x1="861.5" y1="13" x2="861.5" y2="2.18558e-08" stroke="#A7904A"/>
<line x1="897.5" y1="13" x2="897.5" y2="7" stroke="#A7904A"/>
<line x1="933.5" y1="13" x2="933.5" y2="7" stroke="#A7904A"/>
<line x1="969.5" y1="13" x2="969.5" y2="7" stroke="#A7904A"/>
<line x1="1005.5" y1="13" x2="1005.5" y2="7" stroke="#A7904A"/>
<line x1="1041.5" y1="13" x2="1041.5" y2="2.18558e-08" stroke="#A7904A"/>
<line x1="1077.5" y1="13" x2="1077.5" y2="7" stroke="#A7904A"/>
<line x1="1113.5" y1="13" x2="1113.5" y2="7" stroke="#A7904A"/>
<line x1="1149.5" y1="13" x2="1149.5" y2="7" stroke="#A7904A"/>
<line x1="1185.5" y1="13" x2="1185.5" y2="7" stroke="#A7904A"/>
<line x1="1221.5" y1="13" x2="1221.5" y2="2.18558e-08" stroke="#A7904A"/>
<line x1="1257.5" y1="13" x2="1257.5" y2="7" stroke="#A7904A"/>
<line x1="1293.5" y1="13" x2="1293.5" y2="7" stroke="#A7904A"/>
<line x1="1329.5" y1="13" x2="1329.5" y2="7" stroke="#A7904A"/>
<line x1="1365.5" y1="13" x2="1365.5" y2="7" stroke="#A7904A"/>
<line x1="1401.5" y1="13" x2="1401.5" y2="2.18558e-08" stroke="#A7904A"/>
<line x1="1437.5" y1="13" x2="1437.5" y2="7" stroke="#A7904A"/>
<line x1="1473.5" y1="13" x2="1473.5" y2="7" stroke="#A7904A"/>
<line x1="1509.5" y1="13" x2="1509.5" y2="7" stroke="#A7904A"/>
<line x1="15.5" y1="13" x2="15.5" y2="7" stroke="#A7904A"/>
<line x1="51.5" y1="13" x2="51.5" y2="2.18558e-08" stroke="#A7904A"/>
<line x1="87.5" y1="13" x2="87.5" y2="7" stroke="#A7904A"/>
<line x1="123.5" y1="13" x2="123.5" y2="7" stroke="#A7904A"/>
<line x1="159.5" y1="13" x2="159.5" y2="7" stroke="#A7904A"/>
<line x1="195.5" y1="13" x2="195.5" y2="7" stroke="#A7904A"/>
<line x1="231.5" y1="13" x2="231.5" y2="2.18558e-08" stroke="#A7904A"/>
<line x1="267.5" y1="13" x2="267.5" y2="7" stroke="#A7904A"/>
<line x1="303.5" y1="13" x2="303.5" y2="7" stroke="#A7904A"/>
<line x1="339.5" y1="13" x2="339.5" y2="7" stroke="#A7904A"/>
<line x1="375.5" y1="13" x2="375.5" y2="7" stroke="#A7904A"/>
<line x1="411.5" y1="13" x2="411.5" y2="2.18558e-08" stroke="#A7904A"/>
<line x1="447.5" y1="13" x2="447.5" y2="7" stroke="#A7904A"/>
<line x1="483.5" y1="13" x2="483.5" y2="7" stroke="#A7904A"/>
<line x1="519.5" y1="13" x2="519.5" y2="7" stroke="#A7904A"/>
<line x1="555.5" y1="13" x2="555.5" y2="7" stroke="#A7904A"/>
<line x1="591.5" y1="13" x2="591.5" y2="2.18558e-08" stroke="#A7904A"/>
<line x1="627.5" y1="13" x2="627.5" y2="7" stroke="#A7904A"/>
<line x1="663.5" y1="13" x2="663.5" y2="7" stroke="#A7904A"/>
<line x1="699.5" y1="13" x2="699.5" y2="7" stroke="#A7904A"/>
<line x1="735.5" y1="13" x2="735.5" y2="7" stroke="#A7904A"/>
<line x1="771.5" y1="13" x2="771.5" y2="2.18558e-08" stroke="#A7904A"/>
<line x1="807.5" y1="13" x2="807.5" y2="7" stroke="#A7904A"/>
<line x1="843.5" y1="13" x2="843.5" y2="7" stroke="#A7904A"/>
<line x1="879.5" y1="13" x2="879.5" y2="7" stroke="#A7904A"/>
<line x1="915.5" y1="13" x2="915.5" y2="7" stroke="#A7904A"/>
<line x1="951.5" y1="13" x2="951.5" y2="2.18558e-08" stroke="#A7904A"/>
<line x1="987.5" y1="13" x2="987.5" y2="7" stroke="#A7904A"/>
<line x1="1023.5" y1="13" x2="1023.5" y2="7" stroke="#A7904A"/>
<line x1="1059.5" y1="13" x2="1059.5" y2="7" stroke="#A7904A"/>
<line x1="1095.5" y1="13" x2="1095.5" y2="7" stroke="#A7904A"/>
<line x1="1131.5" y1="13" x2="1131.5" y2="2.18558e-08" stroke="#A7904A"/>
<line x1="1167.5" y1="13" x2="1167.5" y2="7" stroke="#A7904A"/>
<line x1="1203.5" y1="13" x2="1203.5" y2="7" stroke="#A7904A"/>
<line x1="1239.5" y1="13" x2="1239.5" y2="7" stroke="#A7904A"/>
<line x1="1275.5" y1="13" x2="1275.5" y2="7" stroke="#A7904A"/>
<line x1="1311.5" y1="13" x2="1311.5" y2="2.18558e-08" stroke="#A7904A"/>
<line x1="1347.5" y1="13" x2="1347.5" y2="7" stroke="#A7904A"/>
<line x1="1383.5" y1="13" x2="1383.5" y2="7" stroke="#A7904A"/>
<line x1="1419.5" y1="13" x2="1419.5" y2="7" stroke="#A7904A"/>
<line x1="1455.5" y1="13" x2="1455.5" y2="7" stroke="#A7904A"/>
<line x1="1491.5" y1="13" x2="1491.5" y2="2.18558e-08" stroke="#A7904A"/>
<line x1="6.5" y1="13" x2="6.5" y2="2.18558e-08" stroke="#A7904A"/>
<line x1="42.5" y1="13" x2="42.5" y2="7" stroke="#A7904A"/>
<line x1="78.5" y1="13" x2="78.5" y2="7" stroke="#A7904A"/>
<line x1="114.5" y1="13" x2="114.5" y2="7" stroke="#A7904A"/>
<line x1="150.5" y1="13" x2="150.5" y2="7" stroke="#A7904A"/>
<line x1="186.5" y1="13" x2="186.5" y2="2.18558e-08" stroke="#A7904A"/>
<line x1="222.5" y1="13" x2="222.5" y2="7" stroke="#A7904A"/>
<line x1="258.5" y1="13" x2="258.5" y2="7" stroke="#A7904A"/>
<line x1="294.5" y1="13" x2="294.5" y2="7" stroke="#A7904A"/>
<line x1="330.5" y1="13" x2="330.5" y2="7" stroke="#A7904A"/>
<line x1="366.5" y1="13" x2="366.5" y2="2.18558e-08" stroke="#A7904A"/>
<line x1="402.5" y1="13" x2="402.5" y2="7" stroke="#A7904A"/>
<line x1="438.5" y1="13" x2="438.5" y2="7" stroke="#A7904A"/>
<line x1="474.5" y1="13" x2="474.5" y2="7" stroke="#A7904A"/>
<line x1="510.5" y1="13" x2="510.5" y2="7" stroke="#A7904A"/>
<line x1="546.5" y1="13" x2="546.5" y2="2.18558e-08" stroke="#A7904A"/>
<line x1="582.5" y1="13" x2="582.5" y2="7" stroke="#A7904A"/>
<line x1="618.5" y1="13" x2="618.5" y2="7" stroke="#A7904A"/>
<line x1="654.5" y1="13" x2="654.5" y2="7" stroke="#A7904A"/>
<line x1="690.5" y1="13" x2="690.5" y2="7" stroke="#A7904A"/>
<line x1="726.5" y1="13" x2="726.5" y2="2.18558e-08" stroke="#A7904A"/>
<line x1="762.5" y1="13" x2="762.5" y2="7" stroke="#A7904A"/>
<line x1="798.5" y1="13" x2="798.5" y2="7" stroke="#A7904A"/>
<line x1="834.5" y1="13" x2="834.5" y2="7" stroke="#A7904A"/>
<line x1="870.5" y1="13" x2="870.5" y2="7" stroke="#A7904A"/>
<line x1="906.5" y1="13" x2="906.5" y2="2.18558e-08" stroke="#A7904A"/>
<line x1="942.5" y1="13" x2="942.5" y2="7" stroke="#A7904A"/>
<line x1="978.5" y1="13" x2="978.5" y2="7" stroke="#A7904A"/>
<line x1="1014.5" y1="13" x2="1014.5" y2="7" stroke="#A7904A"/>
<line x1="1050.5" y1="13" x2="1050.5" y2="7" stroke="#A7904A"/>
<line x1="1086.5" y1="13" x2="1086.5" y2="2.18558e-08" stroke="#A7904A"/>
<line x1="1122.5" y1="13" x2="1122.5" y2="7" stroke="#A7904A"/>
<line x1="1158.5" y1="13" x2="1158.5" y2="7" stroke="#A7904A"/>
<line x1="1194.5" y1="13" x2="1194.5" y2="7" stroke="#A7904A"/>
<line x1="1230.5" y1="13" x2="1230.5" y2="7" stroke="#A7904A"/>
<line x1="1266.5" y1="13" x2="1266.5" y2="2.18558e-08" stroke="#A7904A"/>
<line x1="1302.5" y1="13" x2="1302.5" y2="7" stroke="#A7904A"/>
<line x1="1338.5" y1="13" x2="1338.5" y2="7" stroke="#A7904A"/>
<line x1="1374.5" y1="13" x2="1374.5" y2="7" stroke="#A7904A"/>
<line x1="1410.5" y1="13" x2="1410.5" y2="7" stroke="#A7904A"/>
<line x1="1446.5" y1="13" x2="1446.5" y2="2.18558e-08" stroke="#A7904A"/>
<line x1="1482.5" y1="13" x2="1482.5" y2="7" stroke="#A7904A"/>
<line x1="24.5" y1="13" x2="24.5" y2="7" stroke="#A7904A"/>
<line x1="60.5" y1="13" x2="60.5" y2="7" stroke="#A7904A"/>
<line x1="96.5" y1="13" x2="96.5" y2="2.18558e-08" stroke="#A7904A"/>
<line x1="132.5" y1="13" x2="132.5" y2="7" stroke="#A7904A"/>
<line x1="168.5" y1="13" x2="168.5" y2="7" stroke="#A7904A"/>
<line x1="204.5" y1="13" x2="204.5" y2="7" stroke="#A7904A"/>
<line x1="240.5" y1="13" x2="240.5" y2="7" stroke="#A7904A"/>
<line x1="276.5" y1="13" x2="276.5" y2="2.18558e-08" stroke="#A7904A"/>
<line x1="312.5" y1="13" x2="312.5" y2="7" stroke="#A7904A"/>
<line x1="348.5" y1="13" x2="348.5" y2="7" stroke="#A7904A"/>
<line x1="384.5" y1="13" x2="384.5" y2="7" stroke="#A7904A"/>
<line x1="420.5" y1="13" x2="420.5" y2="7" stroke="#A7904A"/>
<line x1="456.5" y1="13" x2="456.5" y2="2.18558e-08" stroke="#A7904A"/>
<line x1="492.5" y1="13" x2="492.5" y2="7" stroke="#A7904A"/>
<line x1="528.5" y1="13" x2="528.5" y2="7" stroke="#A7904A"/>
<line x1="564.5" y1="13" x2="564.5" y2="7" stroke="#A7904A"/>
<line x1="600.5" y1="13" x2="600.5" y2="7" stroke="#A7904A"/>
<line x1="636.5" y1="13" x2="636.5" y2="2.18558e-08" stroke="#A7904A"/>
<line x1="672.5" y1="13" x2="672.5" y2="7" stroke="#A7904A"/>
<line x1="708.5" y1="13" x2="708.5" y2="7" stroke="#A7904A"/>
<line x1="744.5" y1="13" x2="744.5" y2="7" stroke="#A7904A"/>
<line x1="780.5" y1="13" x2="780.5" y2="7" stroke="#A7904A"/>
<line x1="816.5" y1="13" x2="816.5" y2="2.18558e-08" stroke="#A7904A"/>
<line x1="852.5" y1="13" x2="852.5" y2="7" stroke="#A7904A"/>
<line x1="888.5" y1="13" x2="888.5" y2="7" stroke="#A7904A"/>
<line x1="924.5" y1="13" x2="924.5" y2="7" stroke="#A7904A"/>
<line x1="960.5" y1="13" x2="960.5" y2="7" stroke="#A7904A"/>
<line x1="996.5" y1="13" x2="996.5" y2="2.18558e-08" stroke="#A7904A"/>
<line x1="1032.5" y1="13" x2="1032.5" y2="7" stroke="#A7904A"/>
<line x1="1068.5" y1="13" x2="1068.5" y2="7" stroke="#A7904A"/>
<line x1="1104.5" y1="13" x2="1104.5" y2="7" stroke="#A7904A"/>
<line x1="1140.5" y1="13" x2="1140.5" y2="7" stroke="#A7904A"/>
<line x1="1176.5" y1="13" x2="1176.5" y2="2.18558e-08" stroke="#A7904A"/>
<line x1="1212.5" y1="13" x2="1212.5" y2="7" stroke="#A7904A"/>
<line x1="1248.5" y1="13" x2="1248.5" y2="7" stroke="#A7904A"/>
<line x1="1284.5" y1="13" x2="1284.5" y2="7" stroke="#A7904A"/>
<line x1="1320.5" y1="13" x2="1320.5" y2="7" stroke="#A7904A"/>
<line x1="1356.5" y1="13" x2="1356.5" y2="2.18558e-08" stroke="#A7904A"/>
<line x1="1392.5" y1="13" x2="1392.5" y2="7" stroke="#A7904A"/>
<line x1="1428.5" y1="13" x2="1428.5" y2="7" stroke="#A7904A"/>
<line x1="1464.5" y1="13" x2="1464.5" y2="7" stroke="#A7904A"/>
<line x1="1500.5" y1="13" x2="1500.5" y2="7" stroke="#A7904A"/>
</g>
</svg>
