<svg width="25" height="25" viewBox="0 0 25 25" fill="none" xmlns="http://www.w3.org/2000/svg">
<path d="M1.22414 5.83329V5.33329H1.72414L8.12073 5.33329V4.66663L1.72414 4.66663C1.39411 4.66663 1.08086 4.79352 0.852491 5.01428C0.624697 5.23448 0.499991 5.52945 0.499991 5.83329L0.499991 24.5H8.12073V23.8333H1.72414H1.22414V23.3333L1.22414 5.83329Z" stroke="black"/>
<path d="M11.2068 23.8333C10.9307 23.8333 10.7068 23.6095 10.7068 23.3333L10.7068 1.76667C10.7068 1.68547 10.7234 1.6055 10.7551 1.53148C10.7868 1.45748 10.8328 1.39137 10.8896 1.33646C10.9464 1.2816 11.0128 1.23893 11.0848 1.2101C11.1568 1.18129 11.2333 1.16667 11.3103 1.16667L23.1724 1.16667C23.2493 1.16667 23.3259 1.18129 23.3979 1.21011C23.4698 1.23893 23.5363 1.28159 23.5931 1.33646C23.6499 1.39137 23.6959 1.45747 23.7276 1.53146L23.7276 1.53147C23.7593 1.6055 23.7759 1.68547 23.7759 1.76667L23.7759 23.3333C23.7759 23.6095 23.552 23.8333 23.2759 23.8333H20.6896C20.4135 23.8333 20.1896 23.6095 20.1896 23.3333V21.3333H14.293L14.293 23.3333C14.293 23.6095 14.0692 23.8333 13.793 23.8333H11.2068ZM23.1724 0.5L11.3103 0.5C10.9528 0.5 10.6132 0.637428 10.3655 0.87694C10.1183 1.11589 9.98267 1.4363 9.98267 1.76667L9.98267 24.5L24.5 24.5L24.5 1.76667C24.5 1.4363 24.3644 1.11589 24.1172 0.87694C23.8694 0.637428 23.5299 0.5 23.1724 0.5Z" stroke="black" stroke-linejoin="round"/>
<path d="M21.0518 4.66663H20.3276V5.33329H21.0518V4.66663Z" stroke="black"/>
<path d="M17.6034 4.66663H16.8792V5.33329H17.6034V4.66663Z" stroke="black"/>
<path d="M14.1553 4.66663H13.4311V5.33329H14.1553V4.66663Z" stroke="black"/>
<path d="M21.0518 8.83337H20.3276V9.50004H21.0518V8.83337Z" stroke="black"/>
<path d="M17.6034 8.83337H16.8792V9.50004H17.6034V8.83337Z" stroke="black"/>
<path d="M14.1553 8.83337H13.4311V9.50004H14.1553V8.83337Z" stroke="black"/>
<path d="M21.0518 13H20.3276V13.6667H21.0518V13Z" stroke="black"/>
<path d="M17.6034 13H16.8792V13.6667H17.6034V13Z" stroke="black"/>
<path d="M14.1553 13H13.4311V13.6667H14.1553V13Z" stroke="black"/>
<path d="M21.0518 17.1665H20.3276V17.8332H21.0518V17.1665Z" stroke="black"/>
<path d="M17.6034 17.1665H16.8792V17.8332H17.6034V17.1665Z" stroke="black"/>
<path d="M14.1553 17.1665H13.4311V17.8332H14.1553V17.1665Z" stroke="black"/>
<path d="M8.12073 8.83337H7.39658V9.50004H8.12073V8.83337Z" stroke="black"/>
<path d="M4.67236 8.83337H3.94822V9.50004H4.67236V8.83337Z" stroke="black"/>
<path d="M8.12073 13H7.39658V13.6667H8.12073V13Z" stroke="black"/>
<path d="M4.67236 13H3.94822V13.6667H4.67236V13Z" stroke="black"/>
<path d="M8.12073 17.1665H7.39658V17.8332H8.12073V17.1665Z" stroke="black"/>
<path d="M4.67236 17.1665H3.94822V17.8332H4.67236V17.1665Z" stroke="black"/>
</svg>
