<svg width="21" height="28" viewBox="0 0 21 28" fill="none" xmlns="http://www.w3.org/2000/svg">
<path d="M12.1999 1C12.7522 1 13.1999 1.44772 13.1999 2V8.2H18.7999C19.3522 8.2 19.7999 8.64772 19.7999 9.2V12.8C19.7999 13.3523 19.3522 13.8 18.7999 13.8H13.1999L13.1999 26C13.1999 26.5523 12.7522 27 12.1999 27H8.59993C8.04764 27 7.59993 26.5523 7.59993 26L7.59993 13.8H1.99993C1.44764 13.8 0.999928 13.3523 0.999928 12.8V9.2C0.999928 8.64772 1.44764 8.2 1.99993 8.2H7.59993V2C7.59993 1.44772 8.04764 1 8.59993 1L12.1999 1Z" stroke="black" stroke-width="1.8" stroke-linejoin="round"/>
</svg>
