<svg width="45" height="42" viewBox="0 0 45 42" fill="none" xmlns="http://www.w3.org/2000/svg">
<path d="M38.8078 1H17.1922C15.8151 1 14.4945 1.62455 13.5208 2.73626C12.547 3.84797 12 5.35577 12 6.92796V24.3746C12 25.9468 12.547 27.4546 13.5208 28.5663C14.4945 29.678 15.8151 30.3026 17.1922 30.3026H24.4462L35.4687 36V30.3039H38.8078C40.1849 30.3039 41.5055 29.6793 42.4792 28.5676C43.453 27.4559 44 25.9481 44 24.3759V6.92796C44 5.35577 43.453 3.84797 42.4792 2.73626C41.5055 1.62455 40.1849 1 38.8078 1Z" stroke="#A7904A" stroke-width="2" stroke-linecap="round" stroke-linejoin="round"/>
<path d="M23 30.3132V32.8357C23 35.1798 21.3267 37.071 19.2646 37.071H14.4569L6.97429 41V37.071H4.7354C2.67327 37.071 1 35.1798 1 32.8357V21.222C1 18.8912 2.67327 17 4.7354 17H11.7113" stroke="#A7904A" stroke-width="1.8" stroke-linecap="round" stroke-linejoin="round"/>
</svg>
