<svg width="27" height="27" viewBox="0 0 27 27" fill="none" xmlns="http://www.w3.org/2000/svg">
<path d="M13.5 26C7.6075 26 4.66125 26 2.83 24.1687C1 22.34 1 19.3925 1 13.5C1 7.6075 1 4.66125 2.83 2.83C4.6625 1 7.6075 1 13.5 1C19.3925 1 22.3387 1 24.1687 2.83C26 4.6625 26 7.6075 26 13.5C26 19.3925 26 22.3387 24.1687 24.1687C22.34 26 19.3925 26 13.5 26Z" stroke="black" stroke-width="1.8"/>
<path d="M5.375 9.44625C5.375 7.1975 7.33375 5.375 9.75 5.375C12.1662 5.375 14.125 7.1975 14.125 9.44625C14.125 11.6775 12.7288 14.2812 10.55 15.2125C10.297 15.3199 10.0249 15.3753 9.75 15.3753C9.47511 15.3753 9.20304 15.3199 8.95 15.2125C6.77125 14.2812 5.375 11.6775 5.375 9.44625Z" stroke="black" stroke-width="1.8"/>
<path d="M15.9999 16.0001L24.1249 24.1251M15.9999 16.0001L6.49365 25.5063M15.9999 16.0001L25.5087 6.49255" stroke="black" stroke-width="1.8" stroke-linecap="round"/>
<path d="M11 9.75C11 10.0815 10.8683 10.3995 10.6339 10.6339C10.3995 10.8683 10.0815 11 9.75 11C9.41848 11 9.10054 10.8683 8.86612 10.6339C8.6317 10.3995 8.5 10.0815 8.5 9.75C8.5 9.41848 8.6317 9.10054 8.86612 8.86612C9.10054 8.6317 9.41848 8.5 9.75 8.5C10.0815 8.5 10.3995 8.6317 10.6339 8.86612C10.8683 9.10054 11 9.41848 11 9.75Z" fill="black"/>
</svg>
