<svg width="27" height="27" viewBox="0 0 27 27" fill="none" xmlns="http://www.w3.org/2000/svg">
<path d="M20.9993 7.41058C21.8282 7.41058 22.6232 7.07288 23.2093 6.47177C23.7954 5.87066 24.1246 5.05538 24.1246 4.20529C24.1246 3.35519 23.7954 2.53992 23.2093 1.93881C22.6232 1.3377 21.8282 1 20.9993 1C20.1705 1 19.3755 1.3377 18.7894 1.93881C18.2033 2.53992 17.874 3.35519 17.874 4.20529C17.874 5.05538 18.2033 5.87066 18.7894 6.47177C19.3755 7.07288 20.1705 7.41058 20.9993 7.41058Z" stroke="black" stroke-width="1.8"/>
<path d="M5.998 8.54532L11.0004 6.76831L17.8742 10.1332L11.0004 15.388L17.8742 20.0292L13.5038 26M20.5745 11.6692L22.2509 12.6045L26 8.9915M9.02893 18.017L7.17249 20.5248L1 24.0762" stroke="black" stroke-width="1.8" stroke-linecap="round" stroke-linejoin="round"/>
</svg>
