<?xml version="1.0" encoding="UTF-8"?>
<svg id="Layer_1" data-name="Layer 1" xmlns="http://www.w3.org/2000/svg" viewBox="0 0 473.35 473.35">
  <defs>
    <style>
      .cls-1 {
        fill: none;
        stroke: #fff;
        stroke-linecap: round;
        stroke-linejoin: round;
        stroke-width: 2px;
      }

      .cls-2 {
        fill: #a79049;
      }

      .cls-2, .cls-3 {
        stroke-width: 0px;
      }

      .cls-3 {
        fill: #fff;
      }
    </style>
  </defs>
  <circle class="cls-2" cx="236.68" cy="236.68" r="236.68"/>
  <g>
    <path class="cls-3" d="m348.8,384.84l23.71,11.59-3.7,2.72-20.37-10.41-.03.02,3.73,22.66-3.5,2.58-4.02-26.08,4.19-3.08Z"/>
    <path class="cls-3" d="m321.08,401.72c2.33-1.19,4.36-2.09,6.11-2.68,1.75-.6,3.31-.79,4.68-.57,1.37.22,2.66.94,3.87,2.16,1.21,1.22,2.43,3.05,3.68,5.48,1.21,2.36,1.95,4.37,2.22,6.02.27,1.66.09,3.1-.54,4.34-.63,1.23-1.7,2.39-3.2,3.46-1.5,1.07-3.42,2.21-5.74,3.4-2.34,1.2-4.38,2.09-6.12,2.68-1.74.59-3.3.78-4.67.57-1.37-.21-2.65-.91-3.83-2.1-1.19-1.19-2.38-2.96-3.59-5.32-1.25-2.43-2.01-4.5-2.3-6.19-.29-1.69-.12-3.16.51-4.4.63-1.24,1.69-2.39,3.19-3.46,1.5-1.06,3.42-2.2,5.75-3.39Zm-3.68,15.66c.88,1.72,1.68,3.06,2.38,4s1.49,1.53,2.35,1.75c.86.22,1.96.1,3.3-.35s3.09-1.24,5.24-2.34c2.14-1.1,3.8-2.06,4.96-2.88,1.16-.82,1.9-1.65,2.22-2.47s.3-1.8-.05-2.93c-.36-1.13-.98-2.55-1.86-4.27-.91-1.78-1.73-3.17-2.46-4.15-.72-.98-1.52-1.59-2.38-1.82-.86-.23-1.97-.12-3.31.35-1.34.47-3.08,1.25-5.23,2.35-2.16,1.1-3.81,2.06-4.97,2.88s-1.89,1.64-2.21,2.48-.29,1.84.09,3c.38,1.16,1.02,2.63,1.93,4.42Z"/>
    <path class="cls-3" d="m304.83,409.57l7.89,20.63-3.64,1.39-7.89-20.63,3.64-1.39Zm9.74,25.48l1.39,3.64-3.64,1.39-1.39-3.64,3.64-1.39Z"/>
    <path class="cls-3" d="m296.45,412.77l6.67,22.42-3.74,1.11-.92-3.09c-.22.78-.47,1.46-.76,2.03s-.74,1.08-1.34,1.54c-.6.46-1.47.92-2.61,1.38-1.13.46-2.66.97-4.56,1.54l-.93-3.13c2.57-.76,4.53-1.45,5.88-2.05,1.35-.6,2.27-1.21,2.75-1.82.48-.62.67-1.33.57-2.13-.1-.8-.32-1.8-.67-2.98l-4.07-13.7,3.74-1.11Z"/>
    <path class="cls-3" d="m265.71,420.21l4.51,30.85-3.86.56-4.51-30.85,3.86-.56Z"/>
    <path class="cls-3" d="m229.69,429.74c-.06-1.74.16-3.13.65-4.14s1.26-1.77,2.31-2.27,2.41-.83,4.06-1.02c1.65-.18,3.62-.31,5.91-.39,2.61-.09,4.83-.03,6.66.18,1.83.2,3.31.7,4.46,1.48,1.14.78,2,1.98,2.56,3.6.56,1.62.89,3.8.98,6.53.09,2.65-.09,4.78-.53,6.4-.44,1.61-1.2,2.84-2.29,3.69s-2.52,1.44-4.32,1.77c-1.8.33-4,.54-6.61.62-2.99.1-5.47-.03-7.45-.38-1.97-.35-3.47-1.1-4.47-2.25-1.01-1.15-1.55-2.85-1.62-5.13l-.17-5.01,23.49-.78c-.07-1.73-.24-3.11-.5-4.15-.26-1.03-.75-1.8-1.46-2.31-.71-.5-1.75-.82-3.13-.94-1.38-.12-3.21-.15-5.5-.07-2.06.07-3.71.16-4.98.29-1.26.12-2.22.33-2.86.63-.65.3-1.08.73-1.29,1.29s-.3,1.31-.27,2.24l-3.63.12Zm13.72,13.2c2.21-.07,3.98-.21,5.32-.42,1.34-.21,2.35-.56,3.04-1.04.69-.49,1.14-1.2,1.36-2.13s.31-2.14.28-3.64l-19.76.65.06,1.95c.03.97.17,1.78.42,2.41.24.63.7,1.13,1.36,1.48.66.35,1.63.58,2.9.69s2.95.13,5.03.06Z"/>
    <path class="cls-3" d="m215.64,413.98l-6.05,30.59-3.82-.76.52-2.61c-1.22,1.1-2.72,1.66-4.49,1.7s-3.88-.19-6.33-.67c-2.58-.51-4.73-1.07-6.46-1.69-1.73-.62-3.07-1.44-4.02-2.45-.94-1.01-1.51-2.35-1.71-4.02-.2-1.67-.04-3.8.48-6.4.53-2.68,1.21-4.78,2.03-6.28s1.86-2.55,3.12-3.14,2.81-.83,4.65-.74c1.84.09,4.04.4,6.62.91,2.46.49,4.49,1.08,6.11,1.79,1.62.71,2.79,1.81,3.5,3.3l2.03-10.28,3.82.76Zm-28.06,14.44c-.38,1.9-.58,3.44-.61,4.62-.03,1.18.22,2.12.75,2.83.54.71,1.47,1.29,2.81,1.77s3.19.94,5.57,1.41c2.16.43,3.94.67,5.32.74,1.38.07,2.49-.12,3.32-.55.83-.44,1.49-1.2,1.98-2.29.49-1.09.92-2.58,1.3-4.48.39-1.96.57-3.56.54-4.8-.03-1.23-.35-2.22-.95-2.95-.6-.73-1.55-1.33-2.85-1.79-1.3-.46-3.04-.9-5.2-1.33-2.38-.47-4.27-.74-5.68-.82-1.41-.08-2.5.11-3.27.57-.77.46-1.36,1.26-1.79,2.41-.43,1.14-.83,2.7-1.22,4.66Z"/>
    <path class="cls-3" d="m182.33,414.52l-7.67,22.09-3.68-1.28,1.06-3.05c-.63.51-1.24.91-1.8,1.2-.57.29-1.23.45-1.99.47s-1.73-.11-2.92-.4c-1.19-.29-2.72-.76-4.6-1.42l1.07-3.09c2.53.88,4.52,1.47,5.97,1.77,1.45.3,2.55.34,3.3.12s1.32-.68,1.71-1.39c.39-.71.79-1.65,1.19-2.81l4.69-13.5,3.68,1.28Z"/>
    <path class="cls-3" d="m152.68,401.92c2.33,1.19,4.25,2.31,5.75,3.38,1.51,1.06,2.58,2.22,3.21,3.46.63,1.24.8,2.71.52,4.4-.28,1.69-1.05,3.76-2.29,6.19-1.2,2.36-2.4,4.14-3.58,5.33-1.18,1.19-2.46,1.89-3.83,2.1-1.37.21-2.93.03-4.68-.56-1.75-.59-3.79-1.47-6.12-2.66-2.34-1.19-4.26-2.32-5.76-3.39-1.5-1.07-2.56-2.22-3.2-3.45-.63-1.23-.81-2.68-.55-4.33.27-1.66,1-3.67,2.21-6.03,1.24-2.44,2.46-4.27,3.66-5.49,1.2-1.23,2.49-1.95,3.86-2.17,1.37-.22,2.93-.03,4.67.56,1.74.59,3.78,1.48,6.12,2.67Zm-14.84,6.2c-.88,1.72-1.49,3.15-1.85,4.28-.35,1.13-.37,2.1-.04,2.93s1.06,1.65,2.22,2.46c1.16.82,2.81,1.77,4.97,2.87,2.15,1.09,3.89,1.87,5.24,2.33s2.45.58,3.31.35c.86-.22,1.64-.81,2.34-1.76.7-.95,1.49-2.28,2.37-4.01.91-1.78,1.55-3.26,1.92-4.42.37-1.16.4-2.16.08-3-.32-.84-1.06-1.66-2.22-2.48-1.17-.81-2.82-1.77-4.97-2.86-2.16-1.1-3.91-1.88-5.24-2.34s-2.44-.57-3.3-.34c-.86.24-1.66.85-2.38,1.83s-1.54,2.37-2.45,4.15Z"/>
    <path class="cls-3" d="m118.94,414.28l-2.17,3.24-3.24-2.17,2.17-3.24,3.24,2.17Zm25.02-25.46l-1.81,2.7-2.44-1.64c-1.09-.73-2.01-1.05-2.75-.95-.74.1-1.59.86-2.55,2.29l-13.3,19.83-3.24-2.17,13.3-19.83c1.36-2.03,2.85-3.24,4.46-3.62,1.61-.38,3.57.21,5.88,1.76l2.44,1.64Z"/>
    <path class="cls-3" d="m101.17,374.37c1.13-1.33,2.23-2.2,3.27-2.62,1.05-.42,2.13-.46,3.24-.11,1.11.35,2.34,1.01,3.68,1.99,1.34.98,2.88,2.21,4.62,3.7,1.98,1.7,3.58,3.24,4.79,4.62,1.21,1.38,1.97,2.75,2.29,4.1.32,1.35.13,2.81-.54,4.38-.68,1.57-1.91,3.4-3.69,5.48-1.72,2.02-3.29,3.47-4.71,4.36-1.41.89-2.81,1.29-4.18,1.18-1.37-.1-2.83-.64-4.38-1.61-1.55-.97-3.31-2.3-5.3-4-2.27-1.94-4.02-3.71-5.23-5.31-1.22-1.59-1.81-3.15-1.78-4.68.03-1.52.79-3.15,2.26-4.88l3.26-3.81,17.86,15.29c1.12-1.32,1.93-2.46,2.43-3.4.5-.94.66-1.84.48-2.69-.18-.85-.74-1.79-1.67-2.81s-2.27-2.28-4.01-3.76c-1.56-1.34-2.85-2.39-3.87-3.15-1.01-.76-1.86-1.25-2.54-1.47-.68-.22-1.29-.19-1.82.08s-1.11.76-1.71,1.47l-2.76-2.36Zm1.21,19c1.68,1.43,3.08,2.53,4.21,3.28,1.13.75,2.11,1.18,2.95,1.28s1.65-.11,2.44-.65,1.68-1.37,2.66-2.5l-15.02-12.86-1.27,1.48c-.63.74-1.07,1.43-1.32,2.06-.25.63-.25,1.3,0,2.01.25.71.81,1.53,1.67,2.46.87.94,2.09,2.08,3.67,3.44Z"/>
    <path class="cls-3" d="m95.92,357.93c1.56,1.8,2.62,3.4,3.2,4.8.58,1.4.61,2.74.1,4.03-.51,1.29-1.6,2.66-3.28,4.11l-16.14,13.95-2.55-2.95,4.84-4.18-9.41-10.89,2.43-2.1,9.41,10.89,8.88-7.67c1.15-.99,1.91-1.84,2.29-2.53.38-.7.38-1.44,0-2.23-.38-.79-1.12-1.83-2.23-3.1-.98-1.14-1.79-2-2.42-2.59-.63-.59-1.24-.9-1.82-.94s-1.26.21-2.05.75c-.79.54-1.83,1.37-3.13,2.49l-2.26-2.61c1.7-1.47,3.15-2.54,4.36-3.22,1.21-.67,2.3-.97,3.29-.88.99.09,1.99.54,3,1.35,1.01.82,2.17,1.99,3.49,3.51Z"/>
  </g>
  <g>
    <path class="cls-3" d="m124.55,88.51l-23.71-11.59,3.69-2.72,20.37,10.41.03-.02-3.73-22.66,3.5-2.58,4.02,26.08-4.18,3.08Z"/>
    <path class="cls-3" d="m152.27,71.64c-2.33,1.19-4.36,2.09-6.11,2.68-1.75.6-3.31.79-4.68.57-1.37-.22-2.66-.94-3.87-2.16-1.21-1.22-2.43-3.05-3.68-5.48-1.21-2.36-1.95-4.37-2.22-6.02-.27-1.66-.09-3.1.54-4.34.63-1.23,1.7-2.39,3.2-3.46,1.5-1.07,3.42-2.21,5.74-3.4,2.34-1.2,4.38-2.09,6.12-2.68,1.74-.59,3.3-.78,4.67-.57,1.37.21,2.65.91,3.83,2.1,1.19,1.19,2.38,2.96,3.59,5.32,1.25,2.43,2.01,4.5,2.3,6.19.29,1.69.12,3.16-.51,4.4-.63,1.24-1.69,2.39-3.19,3.46-1.5,1.06-3.42,2.2-5.75,3.39Zm3.68-15.66c-.88-1.72-1.68-3.06-2.38-4s-1.49-1.53-2.35-1.75c-.86-.22-1.96-.1-3.3.35s-3.09,1.24-5.24,2.34c-2.14,1.1-3.8,2.06-4.96,2.88-1.16.82-1.9,1.65-2.22,2.47s-.3,1.8.05,2.93c.36,1.13.98,2.55,1.86,4.27.91,1.78,1.73,3.17,2.46,4.15.72.98,1.52,1.59,2.38,1.82.86.23,1.97.12,3.31-.35,1.34-.47,3.08-1.25,5.23-2.35,2.16-1.1,3.81-2.06,4.97-2.88s1.89-1.64,2.21-2.48.29-1.84-.09-3c-.38-1.16-1.02-2.63-1.93-4.42Z"/>
    <path class="cls-3" d="m158.78,38.3l-1.39-3.64,3.64-1.39,1.39,3.64-3.64,1.39Zm9.74,25.48l-7.89-20.63,3.64-1.39,7.89,20.63-3.64,1.39Z"/>
    <path class="cls-3" d="m176.89,60.59l-6.67-22.41,3.74-1.11.92,3.09c.22-.79.47-1.46.76-2.03.29-.57.74-1.08,1.34-1.54.6-.46,1.47-.92,2.61-1.38,1.13-.46,2.66-.97,4.56-1.54l.93,3.13c-2.57.76-4.53,1.45-5.88,2.05-1.35.6-2.27,1.21-2.75,1.82-.48.62-.67,1.33-.57,2.13.1.8.32,1.8.67,2.98l4.08,13.7-3.74,1.11Z"/>
    <path class="cls-3" d="m207.65,53.14l-4.51-30.85,3.86-.56,4.51,30.85-3.86.56Z"/>
    <path class="cls-3" d="m243.66,43.62c.06,1.74-.16,3.13-.65,4.14s-1.26,1.77-2.31,2.27-2.41.83-4.06,1.02c-1.65.18-3.62.31-5.91.39-2.61.09-4.83.03-6.66-.18-1.83-.2-3.31-.7-4.46-1.48-1.14-.78-2-1.98-2.56-3.6-.56-1.62-.89-3.8-.98-6.53-.09-2.65.09-4.78.53-6.4.44-1.61,1.2-2.84,2.29-3.69s2.52-1.44,4.32-1.77c1.8-.33,4-.54,6.61-.62,2.99-.1,5.47.03,7.45.38,1.97.35,3.47,1.1,4.47,2.25,1.01,1.15,1.55,2.85,1.62,5.13l.17,5.01-23.49.78c.07,1.73.24,3.11.5,4.15.26,1.03.75,1.8,1.46,2.31.71.5,1.75.82,3.13.94,1.38.12,3.21.15,5.5.07,2.06-.07,3.71-.16,4.98-.29,1.26-.12,2.22-.33,2.86-.63.65-.3,1.08-.73,1.29-1.29s.3-1.31.27-2.24l3.63-.12Zm-13.72-13.2c-2.21.07-3.98.21-5.32.42-1.34.21-2.35.56-3.04,1.04-.69.49-1.14,1.2-1.36,2.13s-.31,2.14-.28,3.64l19.76-.65-.06-1.95c-.03-.97-.17-1.78-.42-2.41-.24-.63-.7-1.13-1.36-1.48-.66-.35-1.63-.58-2.9-.69s-2.95-.13-5.03-.06Z"/>
    <path class="cls-3" d="m257.72,59.37l6.05-30.59,3.82.76-.52,2.61c1.22-1.1,2.72-1.66,4.49-1.7s3.88.19,6.33.67c2.58.51,4.73,1.07,6.46,1.69,1.73.62,3.07,1.44,4.02,2.45.94,1.01,1.51,2.35,1.71,4.02.2,1.67.04,3.8-.48,6.4-.53,2.68-1.21,4.78-2.03,6.28-.82,1.51-1.86,2.55-3.12,3.14s-2.81.83-4.65.74c-1.84-.09-4.04-.4-6.62-.91-2.46-.49-4.49-1.08-6.11-1.79-1.62-.71-2.79-1.81-3.5-3.3l-2.03,10.28-3.82-.76Zm28.06-14.44c.38-1.9.58-3.44.61-4.62.03-1.18-.22-2.12-.75-2.83-.54-.71-1.47-1.29-2.81-1.77s-3.19-.94-5.57-1.41c-2.16-.43-3.94-.67-5.32-.74-1.38-.07-2.49.12-3.32.55-.83.44-1.49,1.2-1.98,2.29-.49,1.09-.92,2.58-1.3,4.48-.39,1.96-.57,3.56-.54,4.8.03,1.23.35,2.22.95,2.95.6.73,1.55,1.33,2.85,1.79,1.3.46,3.04.9,5.2,1.33,2.38.47,4.27.74,5.68.82,1.41.08,2.5-.11,3.27-.57.77-.46,1.36-1.26,1.79-2.41.43-1.14.83-2.7,1.22-4.66Z"/>
    <path class="cls-3" d="m291.03,58.83l7.67-22.09,3.68,1.28-1.06,3.05c.63-.51,1.24-.91,1.8-1.2.57-.29,1.23-.45,1.99-.47.76-.02,1.73.11,2.92.4s2.72.76,4.6,1.42l-1.07,3.09c-2.53-.88-4.52-1.47-5.97-1.77-1.45-.3-2.55-.34-3.3-.12s-1.32.68-1.71,1.39c-.39.71-.79,1.65-1.19,2.81l-4.69,13.5-3.68-1.28Z"/>
    <path class="cls-3" d="m320.67,71.43c-2.33-1.19-4.25-2.31-5.75-3.38-1.51-1.06-2.58-2.22-3.21-3.46-.63-1.24-.8-2.71-.52-4.4.28-1.69,1.05-3.76,2.29-6.19,1.2-2.36,2.4-4.14,3.58-5.33,1.18-1.19,2.46-1.89,3.83-2.1,1.37-.21,2.93-.03,4.68.56,1.75.59,3.79,1.47,6.12,2.66,2.34,1.19,4.26,2.32,5.76,3.39,1.5,1.07,2.56,2.22,3.2,3.45.63,1.23.81,2.68.55,4.33-.27,1.66-1,3.67-2.21,6.03-1.24,2.44-2.46,4.27-3.66,5.49-1.2,1.23-2.49,1.95-3.86,2.17-1.37.22-2.93.03-4.67-.56-1.74-.59-3.78-1.48-6.12-2.67Zm14.84-6.2c.88-1.72,1.49-3.15,1.85-4.28.35-1.13.37-2.1.04-2.93s-1.06-1.65-2.22-2.46c-1.16-.82-2.81-1.77-4.97-2.87-2.15-1.09-3.89-1.87-5.24-2.33s-2.45-.58-3.31-.35c-.86.22-1.64.81-2.34,1.76-.7.95-1.49,2.28-2.37,4.01-.91,1.78-1.55,3.26-1.92,4.42-.37,1.16-.4,2.16-.08,3,.32.84,1.06,1.66,2.22,2.48,1.17.81,2.82,1.77,4.97,2.86,2.16,1.1,3.91,1.88,5.24,2.34s2.44.57,3.3.34c.86-.24,1.66-.85,2.38-1.83s1.54-2.37,2.45-4.15Z"/>
    <path class="cls-3" d="m329.39,84.53l1.81-2.7,2.44,1.64c1.09.73,2.01,1.05,2.75.95.74-.1,1.59-.86,2.55-2.29l13.3-19.83,3.24,2.17-13.3,19.83c-1.36,2.03-2.85,3.24-4.46,3.62-1.61.38-3.57-.21-5.88-1.76l-2.44-1.64Zm25.02-25.46l2.17-3.24,3.24,2.17-2.17,3.24-3.24-2.17Z"/>
    <path class="cls-3" d="m372.18,98.98c-1.13,1.33-2.23,2.2-3.27,2.62-1.05.42-2.13.46-3.24.11-1.11-.35-2.34-1.01-3.68-1.99-1.34-.98-2.88-2.21-4.62-3.7-1.98-1.7-3.58-3.24-4.79-4.62-1.21-1.38-1.97-2.75-2.29-4.1-.32-1.35-.13-2.81.54-4.38.68-1.57,1.91-3.4,3.69-5.48,1.72-2.02,3.29-3.47,4.71-4.36,1.41-.89,2.81-1.29,4.18-1.18,1.37.1,2.83.64,4.38,1.61,1.55.97,3.31,2.3,5.3,4,2.27,1.94,4.02,3.71,5.23,5.31,1.22,1.59,1.81,3.15,1.78,4.68-.03,1.52-.79,3.15-2.26,4.88l-3.26,3.81-17.86-15.29c-1.12,1.32-1.93,2.46-2.43,3.4-.5.94-.66,1.84-.48,2.69.18.85.74,1.79,1.67,2.81s2.27,2.28,4.01,3.76c1.56,1.34,2.85,2.39,3.87,3.15,1.01.76,1.86,1.25,2.54,1.47.68.22,1.29.19,1.82-.08s1.11-.76,1.71-1.47l2.76,2.36Zm-1.21-19c-1.68-1.43-3.08-2.53-4.21-3.28-1.13-.75-2.11-1.18-2.95-1.28s-1.65.11-2.44.65-1.68,1.37-2.66,2.5l15.02,12.86,1.27-1.48c.63-.74,1.07-1.43,1.32-2.06.25-.63.25-1.3,0-2.01-.25-.71-.81-1.53-1.67-2.46-.87-.94-2.09-2.08-3.67-3.44Z"/>
    <path class="cls-3" d="m377.43,115.42c-1.56-1.8-2.62-3.4-3.2-4.8-.58-1.4-.61-2.74-.1-4.03.51-1.29,1.6-2.66,3.28-4.11l16.14-13.95,2.55,2.95-4.84,4.18,9.41,10.89-2.43,2.1-9.41-10.89-8.88,7.67c-1.15.99-1.91,1.84-2.29,2.53-.38.7-.38,1.44,0,2.23.38.79,1.12,1.83,2.23,3.1.98,1.14,1.79,2,2.42,2.59.63.59,1.24.9,1.82.94s1.26-.21,2.05-.75c.79-.54,1.83-1.37,3.13-2.49l2.26,2.61c-1.7,1.47-3.15,2.54-4.36,3.22-1.21.67-2.3.97-3.29.88-.99-.09-1.99-.54-3-1.35-1.01-.82-2.17-1.99-3.49-3.51Z"/>
  </g>
  <path class="cls-1" d="m66.96,341.66c-19.51-31.54-29.85-67.9-29.85-104.99,0-53.66,21.64-105.11,59.99-142.64"/>
  <path class="cls-1" d="m406.39,130.86c19.51,31.54,29.85,67.9,29.85,104.99,0,53.66-21.64,105.11-59.99,142.64"/>
</svg>