<?xml version="1.0" standalone="no"?>
<!DOCTYPE svg PUBLIC "-//W3C//DTD SVG 20010904//EN"
 "http://www.w3.org/TR/2001/REC-SVG-20010904/DTD/svg10.dtd">
<svg version="1.0" xmlns="http://www.w3.org/2000/svg"
 width="1552.000000pt" height="1552.000000pt" viewBox="0 0 1552.000000 1552.000000"
 preserveAspectRatio="xMidYMid meet">
<metadata>
Created by potrace 1.14, written by Peter Selinger 2001-2017
</metadata>
<g transform="translate(0.000000,1552.000000) scale(0.100000,-0.100000)"
fill="#000000" stroke="none">
<path d="M17 10962 c-16 -3 -17 -229 -17 -3203 l0 -3199 33 -1 c93 -1 656 2
682 4 17 1 40 -1 52 -5 12 -4 25 -3 28 3 4 5 11 6 17 3 10 -6 80 -7 143 -1 17
1 40 -1 52 -5 12 -4 25 -3 28 3 4 5 11 6 17 3 10 -6 80 -7 143 -1 17 1 40 -1
52 -5 12 -4 25 -3 28 3 4 5 11 6 17 3 10 -6 80 -7 143 -1 17 1 40 -1 52 -5 12
-4 25 -3 28 3 4 5 11 6 17 3 10 -6 80 -7 143 -1 17 1 40 -1 52 -5 12 -4 25 -3
28 3 4 5 11 6 17 3 5 -4 34 -6 64 -5 30 1 60 1 67 2 6 0 160 -1 340 -2 181 0
331 1 334 4 3 3 16 2 29 -3 14 -6 26 -6 29 1 4 5 11 6 17 3 10 -6 80 -7 143
-1 17 1 40 -1 52 -5 12 -4 25 -3 28 3 4 5 11 6 17 3 10 -6 80 -7 143 -1 17 1
40 -1 52 -5 12 -4 25 -3 28 3 4 5 13 6 22 1 8 -5 32 -6 52 -2 21 4 47 3 59 -1
12 -5 24 -4 27 2 4 5 11 6 17 3 10 -6 80 -7 143 -1 17 1 40 -1 52 -5 12 -4 25
-3 28 3 4 5 11 6 17 3 10 -6 80 -7 143 -1 17 1 40 -1 52 -5 12 -4 25 -3 28 3
4 5 11 7 16 3 10 -6 719 -7 784 -1 17 1 40 -1 52 -5 12 -4 25 -3 28 3 4 5 11
6 17 3 5 -4 36 -6 67 -5 31 1 75 1 99 1 34 -1 42 3 43 17 0 27 0 2972 0 3019
l-1 41 -1712 1 c-942 0 -1718 1 -1723 1 -7 1 -10 75 -9 209 1 114 2 210 3 213
0 4 751 7 1669 7 917 1 1692 1 1722 1 l55 1 -2 1423 c-1 782 -3 1434 -4 1448
-3 24 -6 25 -36 19 -17 -4 -34 -5 -37 -3 -3 3 -30 5 -61 4 -30 -1 -61 -2 -67
-2 -7 0 -96 0 -198 0 -102 1 -198 0 -215 -2 -16 -1 -40 1 -52 5 -12 4 -25 3
-28 -3 -4 -5 -11 -6 -17 -3 -5 4 -34 6 -64 5 -30 -1 -60 -2 -66 -2 -7 0 -96 0
-198 0 -102 1 -198 0 -215 -2 -16 -1 -40 1 -52 5 -12 4 -25 3 -28 -3 -4 -5
-11 -6 -17 -3 -5 4 -34 6 -64 5 -30 -1 -60 -2 -66 -2 -7 0 -96 0 -198 0 -102
1 -198 0 -215 -2 -16 -1 -40 1 -52 5 -12 4 -25 3 -28 -3 -4 -5 -11 -6 -17 -3
-5 4 -34 6 -64 5 -30 -1 -60 -2 -66 -2 -7 0 -96 0 -198 0 -102 1 -198 0 -215
-2 -16 -1 -40 1 -52 5 -12 4 -25 3 -28 -3 -4 -5 -11 -6 -17 -3 -5 4 -34 6 -64
5 -30 -1 -60 -2 -66 -2 -7 0 -96 0 -198 0 -102 1 -198 0 -215 -2 -16 -1 -40 1
-52 5 -12 4 -25 3 -28 -3 -4 -5 -11 -6 -17 -3 -5 4 -34 6 -64 5 -30 -1 -60 -2
-66 -2 -7 0 -96 0 -198 0 -102 1 -198 0 -215 -2 -16 -1 -40 1 -52 5 -12 4 -25
3 -28 -3 -4 -5 -11 -6 -17 -3 -5 4 -34 6 -64 5 -30 -1 -60 -2 -66 -2 -7 0 -96
0 -198 0 -102 1 -198 0 -215 -2 -16 -1 -40 1 -52 5 -12 4 -25 3 -28 -3 -4 -5
-11 -6 -17 -3 -5 4 -36 6 -67 5 -56 -2 -103 -1 -172 2 -20 1 -43 1 -52 -1z
m443 -327 c5 -3 11 -1 15 5 4 6 11 7 17 4 8 -5 63 -7 131 -3 6 0 23 0 37 0 14
-1 39 0 55 2 17 1 40 -1 52 -5 12 -4 25 -3 28 3 4 5 11 6 17 3 8 -5 63 -7 131
-3 6 0 23 0 37 0 14 -1 39 0 55 2 17 1 40 -1 52 -5 12 -4 25 -3 28 3 4 5 11 6
17 3 8 -5 63 -7 131 -3 6 0 23 0 37 0 14 -1 39 0 55 2 17 1 40 -1 52 -5 12 -4
25 -3 28 3 4 5 11 6 17 3 8 -5 63 -7 131 -3 6 0 23 0 37 0 14 -1 39 0 55 2 17
1 40 -1 52 -5 12 -4 25 -3 28 3 4 5 11 6 17 3 8 -5 63 -7 131 -3 6 0 23 0 37
0 14 -1 39 0 55 2 17 1 40 -1 52 -5 12 -4 25 -3 28 3 4 5 11 6 17 3 8 -5 63
-7 131 -3 6 0 23 0 37 0 14 -1 39 0 55 2 17 1 40 -1 52 -5 12 -4 25 -3 28 3 4
5 11 6 17 3 8 -5 63 -7 131 -3 6 0 23 0 37 0 14 -1 39 0 55 2 17 1 40 -1 52
-5 12 -4 25 -3 28 3 4 5 11 6 17 3 8 -5 63 -7 131 -3 6 0 23 0 37 0 14 -1 39
0 55 2 17 1 40 -1 52 -5 12 -4 25 -3 28 3 4 5 11 6 17 3 8 -5 63 -7 131 -3 6
0 23 0 37 0 14 -1 39 0 55 2 17 1 40 -1 52 -5 12 -4 25 -3 28 3 4 5 11 6 17 3
8 -5 63 -7 131 -3 6 0 23 0 37 0 14 -1 39 0 55 2 17 1 40 -1 52 -5 12 -4 25
-3 28 3 4 5 11 6 17 3 8 -5 63 -7 131 -3 6 0 23 0 37 0 14 -1 39 0 55 2 17 1
40 -1 52 -5 12 -4 25 -3 28 3 4 5 11 6 17 3 8 -5 63 -7 131 -3 6 0 23 0 37 0
14 -1 39 0 55 2 17 1 40 -1 52 -5 12 -4 25 -3 28 3 4 5 11 6 17 3 5 -4 34 -6
64 -5 69 2 78 2 115 -1 l30 -3 0 -1119 c0 -615 -2 -1120 -4 -1123 -3 -2 -778
-5 -1723 -6 l-1719 -2 -1 -525 c0 -289 3 -529 7 -535 5 -7 590 -10 1723 -10
944 1 1716 -2 1716 -5 1 -7 1 -2356 0 -2398 l0 -33 -52 0 c-29 1 -69 1 -88 0
-19 0 -50 1 -67 4 -18 2 -33 1 -33 -4 0 -5 -6 -6 -13 -3 -22 8 -98 10 -103 3
-2 -4 -17 -4 -33 1 -16 4 -32 6 -35 3 -9 -9 -58 -9 -83 -1 -12 4 -25 3 -28 -3
-4 -5 -11 -6 -17 -3 -10 6 -80 7 -143 1 -16 -1 -40 1 -52 5 -12 4 -25 3 -28
-3 -4 -5 -13 -6 -22 -1 -8 5 -32 6 -52 2 -21 -4 -47 -3 -59 1 -12 5 -24 4 -27
-1 -4 -7 -13 -7 -24 0 -10 5 -20 7 -23 5 -2 -3 -33 -5 -69 -5 -35 0 -89 0
-119 0 -30 0 -68 -1 -85 -3 -16 -1 -40 1 -52 5 -12 4 -25 3 -28 -3 -4 -5 -11
-6 -17 -3 -5 4 -34 6 -64 5 -72 -1 -154 -2 -210 0 -25 0 -48 -2 -51 -5 -3 -2
-16 -1 -29 4 -14 6 -26 6 -29 -1 -4 -5 -13 -6 -22 -1 -8 5 -32 6 -52 2 -21 -4
-47 -3 -59 1 -12 5 -24 4 -27 -2 -4 -5 -11 -6 -17 -3 -5 4 -34 6 -64 5 -107
-3 -119 -3 -152 2 -17 2 -32 1 -32 -4 0 -5 -6 -6 -13 -3 -22 8 -98 10 -103 3
-2 -4 -17 -4 -33 1 -16 4 -32 6 -35 3 -9 -9 -58 -9 -83 -1 -12 4 -25 3 -28 -3
-4 -5 -11 -6 -17 -3 -10 6 -80 7 -143 1 -16 -1 -40 1 -52 5 -12 4 -25 3 -28
-3 -4 -5 -13 -6 -22 -1 -8 5 -32 6 -52 2 -21 -4 -47 -3 -59 1 -12 5 -24 4 -27
-1 -4 -7 -13 -7 -24 0 -10 5 -20 7 -23 5 -2 -3 -33 -5 -69 -5 -35 0 -89 0
-119 0 -30 0 -68 -1 -85 -3 -16 -1 -40 1 -52 5 -12 4 -25 3 -28 -3 -4 -5 -11
-6 -17 -3 -5 4 -34 6 -64 5 -72 -1 -154 -2 -210 0 -25 0 -48 -2 -51 -5 -3 -2
-16 -1 -29 4 -14 6 -26 6 -29 -1 -4 -5 -13 -6 -22 -1 -8 5 -32 6 -52 2 -21 -4
-47 -3 -59 1 -12 5 -24 4 -27 -2 -4 -5 -11 -6 -17 -3 -10 6 -80 7 -143 1 -16
-1 -40 1 -52 5 -12 4 -25 3 -28 -3 -4 -5 -11 -6 -17 -3 -13 9 -113 8 -127 0
-18 -11 -20 27 -20 306 0 153 -2 282 -6 288 -3 5 -3 10 2 10 4 0 8 25 8 55 0
30 -3 55 -6 55 -3 0 -3 20 1 43 3 24 4 52 0 61 -3 10 -3 42 0 72 3 31 2 57 -2
60 -5 3 -6 9 -3 14 3 5 5 136 5 292 0 156 0 292 0 303 0 79 -1 108 -6 116 -3
5 -2 9 3 9 7 0 9 93 2 110 -1 3 -1 8 0 12 1 8 1 82 0 108 0 8 0 144 1 302 1
158 -1 292 -5 298 -3 5 -3 10 2 10 4 0 8 25 8 55 0 30 -3 55 -6 55 -3 0 -3 20
1 43 3 24 4 52 0 61 -3 10 -3 42 0 72 3 31 2 57 -2 60 -5 3 -6 9 -3 14 3 5 5
136 5 292 0 156 0 292 0 303 0 79 -1 108 -6 116 -3 5 -2 9 3 9 7 0 9 93 2 110
-1 3 -1 8 0 12 1 8 1 82 0 108 0 8 0 144 1 302 1 158 -1 292 -5 298 -3 5 -3
10 2 10 4 0 8 25 8 55 0 30 -3 55 -6 55 -3 0 -3 20 1 43 3 24 4 52 0 61 -3 10
-3 42 0 72 3 31 2 57 -2 60 -5 3 -6 9 -3 14 3 5 5 136 5 292 0 156 0 292 0
303 0 79 -1 108 -6 116 -3 5 -2 9 3 9 8 0 9 97 1 106 -3 2 -2 21 2 42 3 20 3
50 -1 66 -7 26 -6 28 16 24 13 -3 29 -2 34 2 12 7 77 4 91 -5z"/>
<path d="M5308 10962 c-16 -3 -17 -231 -15 -3200 2 -2551 5 -3196 15 -3195 6
2 12 -1 12 -7 0 -6 9 -6 24 0 13 5 27 6 30 3 5 -6 77 -6 141 0 17 1 40 -1 52
-5 12 -4 25 -3 28 3 4 5 11 6 17 3 5 -4 34 -6 64 -5 30 1 60 1 67 2 6 0 160
-1 340 -2 181 0 331 1 334 4 3 3 16 2 29 -3 14 -6 26 -6 29 1 4 5 11 6 17 3
10 -6 80 -7 143 -1 17 1 40 -1 52 -5 12 -4 25 -3 28 3 4 5 11 6 17 3 10 -6 80
-7 143 -1 17 1 40 -1 52 -5 12 -4 25 -3 28 3 4 5 13 6 22 1 8 -5 32 -6 52 -2
21 4 47 3 59 -1 12 -5 24 -4 27 2 4 5 11 6 17 3 10 -6 80 -7 143 -1 17 1 40
-1 52 -5 12 -4 25 -3 28 3 4 5 11 6 17 3 10 -6 80 -7 143 -1 17 1 40 -1 52 -5
12 -4 25 -3 28 3 4 5 11 7 16 3 10 -6 719 -7 784 -1 17 1 40 -1 52 -5 12 -4
25 -3 28 3 4 5 11 6 17 3 10 -6 80 -7 143 -1 17 1 40 -1 52 -5 12 -4 25 -3 28
3 4 5 11 6 17 3 10 -6 80 -7 143 -1 17 1 40 -1 52 -5 12 -4 25 -3 28 3 4 5 11
6 17 3 10 -6 80 -7 143 -1 17 1 40 -1 52 -5 12 -4 25 -3 28 3 4 5 11 6 17 3
10 -6 80 -7 143 -1 17 1 40 -1 52 -5 12 -4 25 -3 28 3 4 5 11 6 17 3 5 -4 34
-6 64 -5 30 1 60 2 67 2 6 0 121 -1 255 -2 134 -1 246 1 249 5 4 4 8 2388 4
2551 l-1 30 -1682 -1 c-926 0 -1687 1 -1693 3 -6 2 -9 78 -8 206 1 111 2 220
3 242 l0 41 543 -1 c298 0 547 1 552 2 7 2 10 78 9 211 -1 114 -2 210 -3 214
0 4 -247 7 -547 7 -301 0 -549 2 -551 5 -7 6 -6 536 1 543 2 2 757 4 1678 4
920 0 1680 2 1688 4 13 4 15 142 14 1165 -1 638 -3 1163 -6 1166 -6 5 -188 6
-243 1 -16 -1 -40 1 -52 5 -12 4 -25 3 -28 -3 -4 -5 -11 -6 -17 -3 -10 6 -80
7 -143 1 -16 -1 -40 1 -52 5 -12 4 -25 3 -28 -3 -4 -5 -13 -6 -22 -1 -8 5 -32
6 -52 2 -21 -4 -47 -3 -59 1 -12 5 -24 4 -27 -2 -4 -5 -13 -6 -22 -1 -8 5 -32
6 -52 2 -21 -4 -47 -3 -59 1 -12 5 -24 4 -27 -2 -4 -5 -13 -6 -22 -1 -8 5 -32
6 -52 2 -21 -4 -47 -3 -59 1 -12 5 -24 4 -27 -2 -4 -5 -11 -6 -17 -3 -10 6
-80 7 -143 1 -16 -1 -40 1 -52 5 -12 4 -25 3 -28 -3 -4 -5 -11 -6 -17 -3 -5 4
-34 6 -64 5 -30 -1 -60 -2 -66 -2 -7 0 -60 0 -118 0 -58 1 -118 0 -135 -2 -16
-1 -40 1 -52 5 -12 4 -25 3 -28 -3 -4 -5 -11 -6 -17 -3 -5 4 -34 6 -64 5 -30
-1 -60 -2 -66 -2 -7 0 -60 0 -118 0 -58 1 -118 0 -135 -2 -16 -1 -40 1 -52 5
-12 4 -25 3 -28 -3 -4 -5 -11 -6 -17 -3 -10 6 -80 7 -143 1 -16 -1 -40 1 -52
5 -12 4 -25 3 -28 -3 -4 -5 -13 -6 -22 -1 -8 5 -32 6 -52 2 -21 -4 -47 -3 -59
1 -12 5 -24 4 -27 -2 -4 -5 -13 -6 -22 -1 -8 5 -32 6 -52 2 -21 -4 -47 -3 -59
1 -12 5 -24 4 -27 -2 -4 -5 -13 -6 -22 -1 -8 5 -32 6 -52 2 -21 -4 -47 -3 -59
1 -12 5 -24 4 -27 -2 -4 -5 -11 -6 -17 -3 -10 6 -80 7 -143 1 -16 -1 -40 1
-52 5 -12 4 -25 3 -28 -3 -4 -5 -11 -6 -17 -3 -5 4 -34 6 -64 5 -30 -1 -60 -2
-66 -2 -7 0 -60 0 -118 0 -58 1 -118 0 -135 -2 -16 -1 -40 1 -52 5 -12 4 -25
3 -28 -3 -4 -5 -11 -6 -17 -3 -5 4 -34 6 -64 5 -30 -1 -60 -2 -66 -2 -7 0 -60
0 -118 0 -58 1 -118 0 -135 -2 -16 -1 -40 1 -52 5 -12 4 -25 3 -28 -3 -4 -5
-11 -6 -17 -3 -10 6 -80 7 -143 1 -16 -1 -40 1 -52 5 -12 4 -25 3 -28 -3 -4
-5 -13 -6 -22 -1 -8 5 -32 6 -52 2 -21 -4 -47 -3 -59 1 -12 5 -24 4 -27 -1 -4
-7 -13 -7 -24 0 -10 5 -20 7 -23 5 -5 -6 -67 -7 -118 -3 -20 2 -43 2 -52 0z
m347 -325 c19 4 27 4 58 2 6 0 44 0 82 0 39 0 77 0 85 0 19 -1 145 0 184 1 17
0 32 2 34 5 2 2 15 0 28 -5 14 -6 26 -6 29 1 4 5 11 6 17 3 10 -6 80 -7 143
-1 17 1 40 -1 52 -5 12 -4 25 -3 28 3 4 5 11 6 17 3 10 -6 80 -7 143 -1 17 1
40 -1 52 -5 12 -4 25 -3 28 3 4 5 13 6 21 1 7 -4 40 -5 71 -2 32 3 72 3 88 0
17 -3 53 -3 80 0 28 3 64 3 80 0 17 -3 44 -3 60 0 17 4 41 3 53 -1 12 -5 24
-4 27 2 4 5 11 6 17 3 10 -6 80 -7 143 -1 17 1 40 -1 52 -5 12 -4 25 -3 28 3
4 5 11 6 17 3 10 -6 80 -7 143 -1 17 1 40 -1 52 -5 12 -4 25 -3 28 3 4 5 13 6
21 1 7 -4 40 -5 71 -2 32 3 72 3 88 0 17 -3 53 -3 80 0 28 3 64 3 80 0 17 -3
44 -3 60 0 17 4 41 3 53 -1 12 -5 24 -4 27 2 4 5 11 6 17 3 10 -6 80 -7 143
-1 17 1 40 -1 52 -5 12 -4 25 -3 28 3 4 5 11 6 17 3 10 -6 80 -7 143 -1 17 1
40 -1 52 -5 12 -4 25 -3 28 3 4 5 13 6 21 1 7 -4 40 -5 71 -2 32 3 72 3 88 0
17 -3 53 -3 80 0 28 3 64 3 80 0 17 -3 44 -3 60 0 17 4 41 3 53 -1 12 -5 24
-4 27 2 4 5 11 6 17 3 10 -6 80 -7 143 -1 17 1 40 -1 52 -5 12 -4 25 -3 28 3
4 5 11 6 17 3 10 -6 80 -7 143 -1 17 1 40 -1 52 -5 12 -4 25 -3 28 2 4 7 13 7
24 0 10 -5 20 -7 23 -5 3 3 38 5 79 5 41 -1 86 -1 102 0 25 0 27 -2 27 -42 1
-58 1 -1563 1 -1614 l-1 -42 -1657 0 c-912 0 -1674 -1 -1693 -1 l-35 -1 2
-1038 c1 -570 2 -1046 2 -1057 1 -20 7 -20 1687 -20 927 0 1688 -4 1691 -8 8
-13 6 -1924 -2 -1937 -3 -5 -11 -7 -17 -4 -10 6 -80 7 -143 1 -16 -1 -40 1
-52 5 -12 4 -25 3 -28 -3 -4 -5 -13 -6 -22 -1 -8 5 -32 6 -52 2 -21 -4 -47 -3
-59 1 -12 5 -24 4 -27 -1 -4 -7 -13 -7 -24 0 -10 5 -20 7 -23 5 -2 -3 -33 -5
-69 -5 -35 0 -89 0 -119 0 -30 0 -68 -1 -85 -3 -16 -1 -40 1 -52 5 -12 4 -25
3 -28 -3 -4 -5 -11 -6 -17 -3 -5 4 -34 6 -64 5 -72 -1 -154 -2 -210 0 -25 0
-48 -2 -51 -5 -3 -2 -16 -1 -29 4 -14 6 -26 6 -29 -1 -4 -5 -13 -6 -22 -1 -8
5 -32 6 -52 2 -21 -4 -47 -3 -59 1 -12 5 -24 4 -27 -2 -4 -5 -11 -6 -17 -3 -5
4 -34 6 -64 5 -107 -3 -119 -3 -151 2 -18 2 -33 1 -33 -4 0 -5 -6 -6 -13 -3
-22 8 -98 10 -103 3 -2 -4 -17 -4 -33 1 -16 4 -32 6 -35 3 -9 -9 -58 -9 -83
-1 -12 4 -25 3 -28 -3 -4 -5 -11 -6 -17 -3 -10 6 -80 7 -143 1 -16 -1 -40 1
-52 5 -12 4 -25 3 -28 -3 -4 -5 -13 -6 -22 -1 -8 5 -32 6 -52 2 -21 -4 -47 -3
-59 1 -12 5 -24 4 -27 -1 -4 -7 -13 -7 -24 0 -10 5 -20 7 -23 5 -2 -3 -33 -5
-69 -5 -35 0 -89 0 -119 0 -30 0 -68 -1 -85 -3 -16 -1 -40 1 -52 5 -12 4 -25
3 -28 -3 -4 -5 -11 -6 -17 -3 -5 4 -34 6 -64 5 -72 -1 -154 -2 -210 0 -25 0
-48 -2 -51 -5 -3 -2 -16 -1 -29 4 -14 6 -26 6 -29 -1 -4 -5 -13 -6 -22 -1 -8
5 -32 6 -52 2 -21 -4 -47 -3 -59 1 -12 5 -24 4 -27 -2 -4 -5 -11 -6 -17 -3 -5
4 -34 6 -64 5 -107 -3 -119 -3 -151 2 -18 2 -33 1 -33 -4 0 -5 -6 -6 -13 -3
-22 8 -98 10 -103 3 -2 -4 -17 -4 -33 1 -16 4 -32 6 -35 3 -9 -9 -58 -9 -83
-1 -12 4 -25 3 -28 -3 -4 -5 -11 -6 -17 -3 -10 6 -80 7 -143 1 -16 -1 -40 1
-52 5 -12 4 -25 3 -28 -2 -4 -7 -13 -6 -25 0 -10 5 -25 7 -33 4 -13 -5 -15
348 -15 2873 0 1583 2 2882 5 2887 3 4 8 4 12 -2 3 -5 15 -7 26 -5z"/>
<path d="M10615 10962 c-11 -3 -22 -8 -25 -12 -8 -13 -6 -6377 2 -6385 6 -7
295 -8 363 -2 17 1 40 -1 52 -5 12 -4 25 -3 28 3 4 5 11 6 17 3 10 -6 80 -7
143 -1 17 1 40 -1 52 -5 12 -4 25 -3 28 3 4 5 11 6 17 3 10 -6 80 -7 143 -1
17 1 40 -1 52 -5 12 -4 25 -3 28 3 4 5 11 6 17 3 10 -6 80 -7 143 -1 17 1 40
-1 52 -5 12 -4 25 -3 28 3 4 5 11 6 17 3 10 -6 80 -7 143 -1 17 1 40 -1 52 -5
12 -4 25 -3 28 3 4 5 11 6 17 3 5 -4 34 -6 64 -5 30 1 60 1 67 2 6 0 160 -1
340 -2 181 0 331 1 334 4 3 3 16 2 29 -3 14 -6 26 -6 29 1 4 5 11 6 17 3 10
-6 80 -7 143 -1 17 1 40 -1 52 -5 12 -4 25 -3 28 3 4 5 11 6 17 3 10 -6 80 -7
143 -1 17 1 40 -1 52 -5 12 -4 25 -3 28 3 4 5 13 6 22 1 8 -5 32 -6 52 -2 21
4 47 3 59 -1 12 -5 24 -4 27 2 4 5 11 6 17 3 10 -6 80 -7 143 -1 17 1 40 -1
52 -5 12 -4 25 -3 28 3 4 5 11 6 17 3 10 -6 80 -7 143 -1 17 1 40 -1 52 -5 12
-4 25 -3 28 3 4 5 11 7 16 3 10 -6 719 -7 784 -1 17 1 40 -1 52 -5 12 -4 25
-3 28 3 4 5 11 6 17 3 10 -6 80 -7 143 -1 17 1 40 -1 52 -5 12 -4 25 -3 28 3
4 5 11 6 17 3 10 -6 80 -7 143 -1 17 1 40 -1 52 -5 12 -4 25 -3 28 2 3 5 16 6
28 1 12 -4 31 -5 43 -2 l20 6 0 1535 -1 1535 -1847 1 c-1017 0 -1851 4 -1855
8 -5 4 -9 744 -9 1644 -1 901 -2 1644 -3 1653 -1 17 -51 33 -51 17 0 -5 -5 -6
-11 -2 -11 6 -79 7 -144 1 -16 -1 -40 1 -52 5 -12 4 -25 3 -28 -3 -4 -5 -13
-6 -22 -1 -8 5 -32 6 -52 2 -21 -4 -47 -3 -59 1 -12 5 -24 4 -27 -2 -4 -5 -13
-6 -22 -1 -8 5 -32 6 -52 2 -21 -4 -47 -3 -59 1 -12 5 -24 4 -27 -2 -4 -5 -13
-6 -22 -1 -8 5 -32 6 -52 2 -21 -4 -47 -3 -59 1 -12 5 -24 4 -27 -2 -4 -5 -11
-6 -17 -3 -10 6 -80 7 -143 1 -16 -1 -40 1 -52 5 -12 4 -25 3 -28 -3 -4 -5
-10 -7 -15 -4 -12 8 -70 12 -95 7z m417 -323 c29 0 67 2 83 4 17 1 40 -1 52
-5 12 -4 25 -3 28 3 4 5 11 6 17 3 5 -4 36 -6 67 -5 93 3 125 1 131 -9 3 -4 5
-751 5 -1659 0 -1108 3 -1651 10 -1652 5 -1 840 -2 1855 -3 l1845 -1 0 -1215
0 -1215 -49 -2 c-27 -1 -51 -5 -53 -7 -3 -3 -16 -1 -29 4 -14 6 -26 6 -29 -1
-4 -5 -13 -6 -22 -1 -8 5 -32 6 -52 2 -21 -4 -47 -3 -59 1 -12 5 -24 4 -27 -2
-4 -5 -11 -6 -17 -3 -5 4 -34 6 -64 5 -107 -3 -119 -3 -151 2 -18 2 -33 1 -33
-4 0 -5 -6 -6 -13 -3 -22 8 -98 10 -103 3 -2 -4 -17 -4 -33 1 -16 4 -32 6 -35
3 -9 -9 -58 -9 -83 -1 -12 4 -25 3 -28 -3 -4 -5 -11 -6 -17 -3 -10 6 -80 7
-143 1 -16 -1 -40 1 -52 5 -12 4 -25 3 -28 -3 -4 -5 -13 -6 -22 -1 -8 5 -32 6
-52 2 -21 -4 -47 -3 -59 1 -12 5 -24 4 -27 -1 -4 -7 -13 -7 -24 0 -10 5 -20 7
-23 5 -2 -3 -33 -5 -69 -5 -35 0 -89 0 -119 0 -30 0 -68 -1 -85 -3 -16 -1 -40
1 -52 5 -12 4 -25 3 -28 -3 -4 -5 -11 -6 -17 -3 -5 4 -34 6 -64 5 -72 -1 -154
-2 -210 0 -25 0 -48 -2 -51 -5 -3 -2 -16 -1 -29 4 -14 6 -26 6 -29 -1 -4 -5
-13 -6 -22 -1 -8 5 -32 6 -52 2 -21 -4 -47 -3 -59 1 -12 5 -24 4 -27 -2 -4 -5
-11 -6 -17 -3 -5 4 -34 6 -64 5 -107 -3 -119 -3 -151 2 -18 2 -33 1 -33 -4 0
-5 -6 -6 -13 -3 -22 8 -98 10 -103 3 -2 -4 -17 -4 -33 1 -16 4 -32 6 -35 3 -9
-9 -58 -9 -83 -1 -12 4 -25 3 -28 -3 -4 -5 -11 -6 -17 -3 -10 6 -80 7 -143 1
-16 -1 -40 1 -52 5 -12 4 -25 3 -28 -3 -4 -5 -13 -6 -22 -1 -8 5 -32 6 -52 2
-21 -4 -47 -3 -59 1 -12 5 -24 4 -27 -1 -4 -7 -13 -7 -24 0 -10 5 -20 7 -23 5
-2 -3 -33 -5 -69 -5 -35 0 -89 0 -119 0 -30 0 -68 -1 -85 -3 -16 -1 -40 1 -52
5 -12 4 -25 3 -28 -3 -4 -5 -11 -6 -17 -3 -5 4 -34 6 -64 5 -72 -1 -154 -2
-210 0 -25 0 -48 -2 -51 -5 -3 -2 -16 -1 -29 4 -14 6 -26 6 -29 0 -4 -7 -13
-7 -24 0 -10 5 -20 7 -23 5 -5 -6 -62 -7 -128 -3 l-45 3 0 2875 0 2875 30 6
c16 3 33 4 37 2 4 -2 31 -4 60 -4z"/>
</g>
</svg>
