<?xml version="1.0" standalone="no"?>
<!DOCTYPE svg PUBLIC "-//W3C//DTD SVG 20010904//EN"
 "http://www.w3.org/TR/2001/REC-SVG-20010904/DTD/svg10.dtd">
<svg version="1.0" xmlns="http://www.w3.org/2000/svg"
 width="1552.000000pt" height="1552.000000pt" viewBox="0 0 1552.000000 1552.000000"
 preserveAspectRatio="xMidYMid meet">
<metadata>
Created by potrace 1.14, written by Peter Selinger 2001-2017
</metadata>
<g transform="translate(0.000000,1552.000000) scale(0.100000,-0.100000)"
fill="#000000" stroke="none">
<path d="M0 7760 l0 -3200 2430 0 2430 0 1 23 c0 29 0 2982 0 3023 l-1 30
-1712 0 c-942 -1 -1718 0 -1723 1 -6 2 -10 82 -10 216 l0 212 1675 2 c921 1
1698 2 1725 2 l50 1 -2 1412 c-1 777 -2 1428 -2 1446 l-1 32 -2430 0 -2430 0
0 -3200z m460 2878 c8 1 29 2 45 1 49 -2 71 -2 175 2 14 1 32 1 40 1 8 0 26 0
40 -1 72 -2 97 -3 120 -3 23 0 48 1 120 3 14 1 32 1 40 1 8 0 26 0 40 -1 72
-2 97 -3 120 -3 23 0 48 1 120 3 14 1 32 1 40 1 8 0 26 0 40 -1 72 -2 97 -3
120 -3 23 0 48 1 120 3 14 1 32 1 40 1 8 0 26 0 40 -1 72 -2 97 -3 120 -3 23
0 48 1 120 3 14 1 32 1 40 1 8 0 26 0 40 -1 72 -2 97 -3 120 -3 23 0 48 1 120
3 14 1 32 1 40 1 8 0 26 0 40 -1 72 -2 97 -3 120 -3 23 0 48 1 120 3 14 1 32
1 40 1 8 0 26 0 40 -1 72 -2 97 -3 120 -3 23 0 48 1 120 3 14 1 32 1 40 1 8 0
26 0 40 -1 72 -2 97 -3 120 -3 23 0 48 1 120 3 14 1 32 1 40 1 8 0 26 0 40 -1
72 -2 97 -3 120 -3 23 0 48 1 120 3 14 1 32 1 40 1 8 0 26 0 40 -1 72 -2 97
-3 120 -3 23 0 48 1 120 3 14 1 32 1 40 1 8 0 26 0 40 -1 72 -2 97 -3 120 -3
23 0 48 1 120 3 14 1 32 1 40 1 8 0 26 0 40 -1 14 0 41 -1 60 -2 19 0 44 -2
55 -3 11 -1 35 1 53 5 17 4 34 4 37 0 2 -4 17 -6 32 -4 l28 5 -2 -1122 c0
-617 -3 -1124 -6 -1127 -3 -3 -779 -6 -1724 -7 l-1718 -1 -1 -525 c0 -289 3
-529 7 -535 5 -7 590 -10 1723 -10 944 1 1716 -2 1717 -5 0 -7 0 -2344 0
-2393 l-1 -37 -57 0 c-32 -1 -67 -1 -78 -1 -11 0 -63 0 -115 0 -140 1 -128 1
-210 -1 -8 0 -26 0 -40 1 -14 1 -33 1 -42 1 -10 0 -45 -1 -78 -1 -33 0 -68 0
-77 0 -10 0 -47 0 -83 0 -36 0 -74 1 -85 1 -47 -1 -201 -1 -210 -1 -5 0 -44 0
-85 0 -41 0 -86 0 -100 0 -139 1 -214 0 -221 -5 -5 -3 -9 -1 -9 4 0 5 -14 7
-32 3 -18 -4 -54 -4 -81 -1 -26 4 -50 3 -53 -2 -3 -5 -10 -6 -15 -2 -5 3 -38
5 -72 5 -34 -1 -69 -1 -77 -1 -8 -1 -60 -1 -115 -1 -55 0 -109 0 -120 0 -11 0
-63 0 -115 0 -140 1 -128 1 -210 -1 -8 0 -26 0 -40 1 -14 1 -33 1 -42 1 -10 0
-45 -1 -78 -1 -33 0 -68 0 -77 0 -10 0 -47 0 -83 0 -36 0 -74 1 -85 1 -47 -1
-201 -1 -210 -1 -5 0 -44 0 -85 0 -41 0 -86 0 -100 0 -139 1 -214 0 -221 -5
-5 -3 -9 -1 -9 4 0 5 -14 7 -32 3 -18 -4 -54 -4 -81 -1 -26 4 -50 3 -53 -2 -3
-5 -10 -6 -15 -2 -5 3 -38 5 -72 5 -34 -1 -69 -1 -77 -1 -8 -1 -60 -1 -115 -1
-55 0 -109 0 -120 0 -11 0 -63 1 -115 1 -52 1 -101 1 -109 -1 -10 -3 -16 6
-17 25 -2 16 -5 35 -8 41 -2 7 -1 29 4 49 4 20 4 38 0 41 -4 3 -4 21 0 40 4
19 4 37 0 40 -4 3 -4 21 0 40 4 20 4 38 -1 41 -5 3 -6 10 -3 16 4 6 6 56 5
112 -2 117 -2 107 0 168 1 27 0 50 -3 53 -3 3 -2 20 1 38 4 18 4 46 0 64 -4
18 -4 34 -2 37 8 7 9 106 2 106 -4 0 -3 15 0 33 4 17 4 47 0 65 -4 17 -3 48 1
67 4 19 4 37 0 40 -4 3 -4 21 0 40 4 19 4 37 0 40 -4 3 -4 21 0 40 4 19 4 37
-1 40 -4 3 -6 11 -4 18 9 23 11 82 4 113 -3 18 -3 38 1 44 4 7 4 25 0 41 -5
15 -6 30 -3 33 7 7 8 95 1 102 -3 2 -2 21 2 42 3 20 3 49 -1 64 -4 15 -5 29
-2 32 7 7 8 95 1 102 -3 2 -2 21 2 42 3 20 3 49 -1 64 -4 15 -3 43 1 63 4 19
4 37 0 40 -4 3 -4 21 0 40 4 19 4 37 0 40 -4 3 -4 21 0 40 4 20 4 38 -1 41 -5
3 -6 10 -3 16 4 6 6 56 5 112 -2 117 -2 107 0 168 1 27 0 50 -3 53 -3 3 -2 20
1 38 4 18 4 46 0 64 -4 18 -4 34 -2 37 8 7 9 106 2 106 -4 0 -3 15 0 33 4 17
4 47 0 65 -4 17 -3 48 1 67 4 19 4 37 0 40 -4 3 -4 21 0 40 4 19 4 37 0 40 -4
3 -4 21 0 40 4 19 4 37 -1 40 -4 3 -6 11 -4 18 9 23 11 82 4 113 -3 18 -3 38
1 44 4 7 4 25 0 41 -5 15 -6 30 -3 33 7 7 8 95 1 102 -3 2 -2 21 2 42 3 20 3
49 -1 64 -4 15 -5 29 -2 32 7 7 8 95 1 102 -3 2 -2 21 2 42 3 20 3 49 -1 64
-4 15 -3 43 1 63 4 19 4 37 0 40 -4 3 -4 21 0 40 4 19 4 37 0 40 -4 3 -4 21 0
40 4 20 4 38 -1 41 -5 3 -6 10 -3 16 4 6 6 56 5 112 -2 117 -2 107 0 168 1 27
0 50 -3 53 -3 3 -2 20 1 38 4 18 4 46 0 64 -4 18 -4 34 -2 37 8 7 9 106 2 106
-4 0 -3 15 0 33 4 17 4 47 0 65 -4 17 -3 48 1 67 4 19 4 37 0 40 -4 3 -4 21 0
40 4 19 4 37 0 40 -4 3 -4 21 0 40 4 19 4 37 -1 40 -4 3 -6 11 -4 18 9 23 11
82 4 113 -3 18 -3 38 1 44 4 7 4 25 0 41 -5 15 -6 30 -3 33 7 7 8 95 1 101 -3
3 -2 25 2 49 3 23 3 51 0 62 -4 10 -4 27 0 38 3 10 4 37 1 60 -10 67 -4 83 31
84 16 0 33 3 36 6 3 3 17 3 31 -1 14 -3 32 -6 41 -5z"/>
<path d="M1787 9678 c-6 -4 -14 -5 -18 -2 -11 6 -18 -21 -9 -35 4 -7 4 -28 0
-47 -4 -19 -4 -34 0 -34 5 0 5 -12 1 -27 -5 -16 -5 -37 -1 -48 4 -11 5 -24 3
-28 -9 -15 -5 -79 5 -89 10 -10 1256 -13 1272 -3 5 3 5 18 1 33 -4 15 -4 41
-1 57 3 17 3 42 -1 56 -4 14 -3 32 2 40 4 8 4 21 -1 29 -4 7 -4 23 0 36 5 12
6 25 2 29 -4 4 -7 11 -7 17 0 6 -10 14 -22 19 -15 5 -23 5 -23 -2 0 -6 -5 -7
-10 -4 -9 5 -81 7 -175 3 -11 0 -31 0 -45 1 -72 2 -97 3 -120 3 -23 0 -48 -1
-120 -3 -14 -1 -34 -1 -45 0 -67 3 -209 0 -216 -5 -5 -3 -9 -1 -9 4 0 6 -14 7
-34 2 -19 -4 -37 -6 -39 -3 -3 2 -40 4 -83 3 -44 -1 -92 -1 -109 0 -134 4
-189 4 -198 -2z"/>
<path d="M1774 6322 c-18 -3 -20 -8 -14 -51 3 -27 3 -57 -1 -67 -3 -11 -3 -29
2 -40 4 -12 5 -25 2 -28 -8 -8 -7 -112 2 -125 3 -6 10 -9 15 -6 5 3 11 1 15
-4 3 -7 15 -7 29 -1 13 5 27 6 30 3 5 -6 87 -6 146 0 14 1 35 -1 47 -5 12 -4
25 -3 28 3 4 5 11 6 17 3 6 -4 34 -6 62 -5 91 2 141 3 151 1 13 -2 142 0 175
3 14 1 35 -1 47 -5 12 -4 25 -3 28 3 4 5 11 6 17 3 6 -4 34 -6 62 -5 91 2 141
3 151 1 6 -1 42 -1 80 0 125 2 140 2 154 -1 7 -2 15 5 18 16 6 32 5 143 -2
154 -3 6 -2 11 4 11 6 0 7 11 2 28 -4 15 -4 39 0 55 4 15 3 27 -2 27 -5 0 -8
5 -6 11 1 6 -8 15 -20 20 -13 4 -23 5 -23 0 0 -4 -19 -5 -42 -1 -24 3 -54 3
-68 0 -14 -4 -35 -3 -47 1 -13 5 -25 4 -28 -2 -4 -5 -11 -6 -17 -3 -10 6 -80
7 -143 1 -16 -1 -40 1 -52 5 -12 4 -25 3 -28 -3 -4 -5 -11 -6 -17 -3 -10 6
-75 7 -143 1 -16 -1 -40 1 -52 5 -12 4 -25 3 -28 -2 -3 -5 -15 -6 -26 -1 -12
4 -43 4 -70 1 -27 -4 -52 -4 -54 -1 -5 4 -115 4 -143 0 -4 -1 -11 0 -17 1 -18
4 -105 1 -113 -3 -4 -3 -16 -1 -27 3 -11 4 -32 4 -47 -1 -15 -4 -28 -4 -30 -1
-2 4 -12 6 -24 4z"/>
<path d="M5292 7760 l0 -3200 2399 0 c1912 0 2399 3 2400 13 0 17 1 2494 0
2537 l-1 35 -1677 0 c-923 -1 -1685 1 -1693 3 -13 3 -15 32 -13 205 1 111 2
220 3 242 l0 41 546 -1 c353 0 548 4 553 10 6 8 8 387 2 417 0 3 -247 6 -547
6 -300 0 -548 2 -551 5 -4 5 -6 249 -4 492 l1 60 1690 -2 c1281 -1 1690 1
1691 10 1 15 1 2286 0 2310 -1 16 -122 17 -2400 17 l-2399 0 0 -3200z m615
2880 c37 3 90 3 116 -1 27 -3 51 -1 53 3 3 5 10 6 15 2 8 -5 105 -6 219 -3 14
1 36 1 50 0 14 -1 33 -1 43 -1 16 0 110 1 160 1 12 0 63 0 112 0 86 0 98 0
128 -2 6 0 56 0 109 1 54 1 102 -1 107 -4 5 -4 12 -2 16 4 4 6 11 8 16 4 8 -5
105 -6 219 -3 14 1 36 1 50 0 14 -1 33 -1 43 -1 16 0 110 1 160 1 12 0 63 0
112 0 86 0 98 0 128 -2 6 0 56 0 109 1 54 1 102 -1 107 -4 5 -4 12 -2 16 4 4
6 11 8 16 4 8 -5 105 -6 219 -3 14 1 36 1 50 0 14 -1 33 -1 43 -1 16 0 110 1
160 1 12 0 63 0 112 0 86 0 98 0 128 -2 6 0 56 0 109 1 54 1 102 -1 107 -4 5
-4 12 -2 16 4 4 6 11 8 16 4 8 -5 105 -6 219 -3 14 1 36 1 50 0 14 -1 33 -1
43 -1 9 0 44 1 77 1 33 0 68 0 78 0 9 0 46 0 82 -1 61 -1 192 -2 233 -1 11 0
17 -8 18 -22 0 -29 0 -1591 0 -1638 l-1 -37 -1657 0 c-912 -1 -1674 -1 -1693
-1 l-35 -1 2 -993 c1 -545 2 -1021 2 -1057 l1 -65 1686 0 c927 0 1688 -4 1691
-8 7 -12 6 -1924 -1 -1935 -3 -6 -20 -7 -38 -3 -18 4 -42 6 -53 5 -38 -4 -90
-6 -155 -5 -36 0 -74 1 -85 1 -47 -1 -201 -1 -210 -1 -5 0 -44 0 -85 0 -41 0
-86 0 -100 0 -139 1 -214 0 -221 -5 -5 -3 -9 -1 -9 4 0 5 -14 7 -32 3 -18 -4
-54 -4 -81 -1 -26 4 -50 3 -53 -2 -3 -5 -10 -6 -15 -2 -5 3 -38 5 -72 5 -34
-1 -69 -1 -77 -1 -8 -1 -60 -1 -115 -1 -55 0 -109 0 -120 0 -11 0 -63 0 -115
0 -140 1 -128 1 -210 -1 -8 0 -26 0 -40 1 -14 1 -33 1 -42 1 -10 0 -45 -1 -78
-1 -33 0 -68 0 -77 0 -10 0 -47 0 -83 0 -36 0 -74 1 -85 1 -47 -1 -201 -1
-210 -1 -5 0 -44 0 -85 0 -41 0 -86 0 -100 0 -139 1 -214 0 -221 -5 -5 -3 -9
-1 -9 4 0 5 -14 7 -32 3 -18 -4 -54 -4 -81 -1 -26 4 -50 3 -53 -2 -3 -5 -10
-6 -15 -2 -5 3 -38 5 -72 5 -34 -1 -69 -1 -77 -1 -8 -1 -60 -1 -115 -1 -55 0
-109 0 -120 0 -11 0 -63 0 -115 0 -140 1 -128 1 -210 -1 -8 0 -26 0 -40 1 -14
1 -33 1 -42 1 -10 0 -45 -1 -78 -1 -33 0 -68 0 -77 0 -10 0 -48 1 -84 2 l-67
2 0 2877 0 2878 95 0 c52 1 98 3 100 6 3 3 12 2 19 -2 7 -4 44 -5 81 -2z"/>
<path d="M10585 7763 l0 -3198 2430 -3 2431 -2 -1 1537 0 1538 -1845 1 c-1015
0 -1850 3 -1855 6 -7 4 -10 614 -10 1662 l0 1656 -575 0 -575 0 0 -3197z m590
2876 c11 0 34 0 50 0 31 -1 51 -1 131 1 26 1 50 -3 53 -8 3 -6 6 -751 6 -1657
0 -1086 3 -1649 10 -1653 5 -3 840 -6 1855 -7 l1845 0 0 -1218 1 -1218 -36 1
c-19 1 -39 1 -45 0 -5 -1 -14 -1 -20 0 -5 1 -37 1 -70 1 -33 -1 -67 -1 -75 -1
-8 -1 -60 -1 -115 -1 -55 0 -109 0 -120 0 -11 0 -63 0 -115 0 -140 1 -128 1
-210 -1 -8 0 -26 0 -40 1 -14 1 -33 1 -42 1 -10 0 -45 -1 -78 -1 -33 0 -68 0
-77 0 -10 0 -47 0 -83 0 -36 0 -74 1 -85 1 -47 -1 -201 -1 -210 -1 -5 0 -44 0
-85 0 -41 0 -86 0 -100 0 -139 1 -214 0 -221 -5 -5 -3 -9 -1 -9 4 0 5 -14 7
-32 3 -18 -4 -54 -4 -81 -1 -26 4 -50 3 -53 -2 -3 -5 -10 -6 -15 -2 -5 3 -38
5 -72 5 -34 -1 -69 -1 -77 -1 -8 -1 -60 -1 -115 -1 -55 0 -109 0 -120 0 -11 0
-63 0 -115 0 -140 1 -128 1 -210 -1 -8 0 -26 0 -40 1 -14 1 -33 1 -42 1 -10 0
-45 -1 -78 -1 -33 0 -68 0 -77 0 -10 0 -47 0 -83 0 -36 0 -74 1 -85 1 -47 -1
-201 -1 -210 -1 -5 0 -44 0 -85 0 -41 0 -86 0 -100 0 -139 1 -214 0 -221 -5
-5 -3 -9 -1 -9 4 0 5 -14 7 -32 3 -18 -4 -54 -4 -81 -1 -26 4 -50 3 -53 -2 -3
-5 -10 -6 -15 -2 -5 3 -40 5 -77 5 -37 -1 -78 -1 -92 -1 -14 1 -45 2 -70 3
l-45 2 0 2877 0 2878 93 -2 c51 0 95 2 98 5 3 3 18 3 32 0 15 -2 36 -4 47 -4z"/>
</g>
</svg>
