<svg width="114" height="50" viewBox="0 0 114 50" fill="none" xmlns="http://www.w3.org/2000/svg">
<path d="M6.95074 33.4489C5.77583 33.3677 4.60363 33.2688 3.47338 32.8993C2.4203 32.5541 1.44842 32.079 0.630859 31.1369C1.46467 31.2737 2.20372 31.3535 2.94143 31.428C3.93631 31.5281 4.91901 31.4198 5.90036 31.3643C6.80049 31.3143 7.6925 31.1329 8.58858 31.0151C8.73882 30.9948 8.87554 30.9502 9.00683 30.8811C9.61459 30.8432 10.198 30.6781 10.7841 30.5305C11.488 30.5021 12.135 30.2395 12.809 30.0825C15.3565 25.7727 17.5046 21.3005 19.3617 16.6874C19.6812 16.2313 19.7895 15.6844 20.0061 15.185C20.718 13.5417 21.2541 11.8376 21.6899 10.1036C22.2273 7.96631 22.697 5.8114 23.2262 3.67139C23.4929 2.59258 23.8042 1.52054 24.3781 0.551376C24.7734 0.183201 25.1767 -0.133538 25.7818 0.0573176C26.2474 0.204858 26.5181 0.517536 26.686 0.952036C26.9215 1.56115 26.9161 2.18921 26.8416 2.82269C26.6549 4.39555 26.219 5.91563 25.8332 7.44518C25.4705 8.88133 25.3053 10.3432 25.2295 11.8172C25.1876 12.6159 25.1199 13.4131 25.1294 14.2144C25.1483 16.0282 25.3067 17.8326 25.4475 19.6369C25.5991 21.5874 25.7818 23.5366 25.9523 25.4857C25.9686 25.6725 25.9591 25.8647 26.0809 26.0921C26.5208 26.0556 26.9757 26.0163 27.4291 25.9798C29.8412 25.7835 32.1924 26.038 34.4447 26.9666C35.3218 27.328 36.134 27.8071 36.9015 28.3648C36.9258 28.3824 36.9218 28.4393 36.9299 28.4785L36.9421 28.4677C36.7715 28.5611 36.6105 28.4731 36.4534 28.4325C34.752 27.9926 33.0329 28.0156 31.299 28.1794C29.8263 28.3188 28.3766 28.5854 26.931 28.8846C26.7266 28.9265 26.5263 28.9888 26.2813 29.0524C26.667 34.0905 27.2382 39.1014 27.2058 44.1341C26.9567 44.1896 26.9296 44.065 26.9066 43.9364C26.3165 40.7487 25.7276 37.5611 25.1334 34.3747C24.8519 32.8641 24.5622 31.3562 24.2739 29.847C24.259 29.7671 24.2319 29.69 24.2076 29.602C23.8435 29.5708 23.5348 29.7157 23.2154 29.7996C20.6869 30.4696 18.2085 31.3034 15.7057 32.056C15.1602 32.2198 14.612 32.3836 14.0557 32.4973C13.7376 32.5623 13.5292 32.7112 13.3437 32.9616C11.5813 35.3385 9.68498 37.6017 7.503 39.6063C5.6337 41.324 3.64529 42.886 1.25215 43.8403C1.07619 43.9107 0.890748 44.1002 0.68771 43.8877C0.694478 43.8376 0.68771 43.7754 0.708014 43.7645C2.86969 42.6235 4.6131 40.9721 6.24552 39.1962C7.83192 37.4704 9.25319 35.6105 10.5526 33.66C10.6433 33.5233 10.7733 33.3988 10.7733 33.1809C9.93675 33.2702 9.10564 33.3595 8.27319 33.4475H6.95074V33.4489ZM16.1619 28.9875C18.708 28.2511 21.1025 27.1534 23.704 26.5835C23.1734 23.2848 22.5021 20.0755 22.3978 16.7727C20.5339 20.9539 18.6078 25.0864 16.1619 28.9875Z" fill="black"/>
<path d="M78.8517 20.3233C79.1793 20.9973 79.2389 21.666 79.3214 22.3239C79.4839 23.6247 79.381 24.9349 79.4405 26.2384C79.5691 29.0363 79.6828 31.8368 80.3298 34.5792C80.8862 36.9385 81.7673 39.157 83.2008 41.1319C83.5189 41.5691 83.8586 41.9914 84.193 42.4246C84.1524 42.4733 84.1131 42.5193 84.0739 42.5653C82.4279 41.695 80.6182 39.7269 79.2754 37.0211C79.1617 36.9926 79.1346 37.086 79.1116 37.1551C78.65 38.5141 77.7662 39.5496 76.5588 40.2751C74.5027 41.5095 72.2625 42.2824 69.8572 42.3352C67.0444 42.3975 64.9044 41.1536 63.5346 38.6643C63.4439 38.4992 63.3911 38.311 63.2233 38.1635C63.0026 38.2664 63.0229 38.5059 62.9539 38.6846C62.3881 40.1506 61.5001 41.3241 60.0694 42.0659C58.3855 42.9389 56.19 42.6208 54.7106 41.2835C52.645 39.4169 51.9614 36.1683 53.6724 33.3014C54.9326 31.1925 56.8668 30.0447 59.2897 29.7361C61.2375 29.4884 62.7265 30.2707 63.8242 31.8653C64.4225 32.7343 64.746 33.7061 64.9437 34.7267C64.9721 34.8756 65.0465 35.0584 64.8476 35.2019C64.5877 35.1369 64.5471 34.8743 64.4374 34.6929C64.03 34.0256 63.586 33.3908 63.031 32.8317C61.8588 31.6501 60.6027 31.3726 59.0461 31.9925C57.4881 32.6124 56.2753 33.5979 55.7041 35.2303C55.3346 36.2874 55.34 37.3405 55.83 38.3652C56.7328 40.2588 58.6847 40.6676 60.2779 39.2991C60.73 38.9107 61.1117 38.4572 61.3986 37.9374C62.0984 36.6705 62.6412 35.3562 62.5695 33.8645C62.5559 33.5776 62.5911 33.2838 62.7725 33.0483C63.0297 33.0415 63.0473 33.2283 63.1055 33.3813C63.5792 34.6266 64.1775 35.8069 64.9707 36.883C65.4864 37.5828 66.0712 38.2068 66.905 38.6724C65.9615 35.1125 67.1798 32.3972 70.1671 30.5861C72.6266 29.0958 75.1375 29.4383 77.4954 31.1844C77.6173 30.6687 77.4467 30.2044 77.4115 29.7469C77.2734 27.9548 77.2965 26.1707 77.513 24.3854C77.6484 23.2727 77.823 22.175 78.3144 21.1517C78.4484 20.8715 78.5769 20.5872 78.8531 20.3206L78.8517 20.3233ZM68.3885 36.9331C68.3723 38.15 68.8934 38.8592 70.0426 39.2518C70.7343 39.4873 71.4084 39.4088 72.0946 39.2491C73.3129 38.9675 74.5135 38.64 75.5314 37.8725C76.5533 37.1023 77.0691 36.1006 76.8389 34.7958C76.5899 33.384 75.3026 32.0994 73.432 32.0291C70.8399 31.9302 68.4237 34.2963 68.3899 36.9331H68.3885Z" fill="black"/>
<path d="M45.5777 32.1413C45.4301 32.2929 45.4938 32.4459 45.5208 32.5812C45.7875 33.9131 45.6305 35.2248 45.3164 36.5229C45.0593 37.5868 44.8061 38.6547 44.3825 39.6672C43.9926 40.5971 43.4174 41.3903 42.589 41.99C41.2909 42.928 39.9251 42.66 39.0791 41.2861C38.7448 40.7447 38.5377 40.1464 38.3306 39.5495C38.0125 38.6344 37.7445 37.7032 37.356 36.8112C37.1963 36.4443 36.9499 36.2535 36.5777 36.1452C36.1649 36.0247 35.7398 36.0545 35.3229 35.9909C34.745 35.9043 34.1561 35.8853 33.5416 35.8352C32.9663 37.917 31.7035 39.4845 30.0061 40.7244C29.5093 41.0871 29.0301 41.5 28.3303 41.657C28.3953 41.3051 28.6254 41.1765 28.7919 41.0127C29.8274 39.9907 30.6301 38.8145 31.1796 37.469C31.4788 36.7381 31.5627 35.9679 31.606 35.2004C31.3732 34.9162 31.097 34.7145 30.9143 34.4248C30.4054 33.6194 30.4622 32.5433 31.0632 31.899C31.7941 31.1153 32.8594 31.2439 33.386 32.1819C33.4563 32.3091 33.5159 32.4418 33.5931 32.5975C34.5297 32.6069 35.4556 32.6435 36.3665 32.8316C36.7171 32.9047 37.0718 32.9683 37.4156 33.0672C38.7854 33.4638 39.7343 34.3192 40.2175 35.6714C40.5884 36.7056 40.8374 37.7722 41.1163 38.8334C41.1894 39.1109 41.2367 39.4006 41.4005 39.6672C41.8025 39.4831 42.0678 39.2043 42.302 38.9133C43.485 37.4392 44.1402 35.7459 44.2349 33.8631C44.2823 32.9128 43.9845 32.0303 43.3971 31.271C43.1372 30.9339 43.0533 30.6009 43.2685 30.2206C43.462 29.8781 43.7463 29.7725 44.2566 29.8632C44.8874 29.9742 45.5222 29.9106 46.1543 29.9147C47.267 29.9214 48.3444 30.0676 49.3366 30.6104C50.8472 31.4374 51.6932 32.7436 52.0099 34.4031C52.1913 35.3561 52.2211 36.3158 52.1669 37.293C52.083 38.8077 51.9571 40.3224 51.9977 41.8424C52.0031 42.0631 52.0844 42.3121 51.8718 42.4989C51.6702 42.5233 51.639 42.3433 51.5713 42.2309C50.8567 41.0425 50.4749 39.7295 50.1569 38.3949C49.9809 37.6572 49.8009 36.9208 49.6506 36.179C49.3718 34.8024 48.695 33.7236 47.4172 33.0617C46.8067 32.745 46.2477 32.3213 45.5804 32.1427L45.5777 32.1413Z" fill="black"/>
<path d="M83.7504 31.535C84.0144 31.087 84.4204 30.8935 84.7954 30.6715C85.751 30.1057 86.7906 29.7632 87.8964 29.659C88.4677 29.6048 89.0307 29.7388 89.5789 29.8891C91.3724 30.3791 92.8682 31.2995 93.8712 32.9103C95.823 36.0438 94.5263 41.4149 89.6656 42.1661C86.3899 42.6723 83.4783 40.933 82.4374 37.813C81.5563 35.1721 82.7704 32.8061 85.123 31.6623C85.3449 31.554 85.6021 31.5039 85.7957 31.263C85.0769 31.1967 84.434 31.5689 83.7504 31.5364V31.535ZM91.8882 35.6513C91.9748 34.5062 91.4266 33.6277 90.6875 32.8358C90.1502 32.2606 89.5004 31.8978 88.6883 31.9289C86.9584 31.9939 85.7063 32.848 84.8482 34.3126C84.5761 34.7769 84.4583 35.2994 84.549 35.8354C84.9497 38.1906 87.1073 39.6349 89.4341 39.0962C90.5156 38.8458 91.2763 38.2136 91.6391 37.1348C91.8015 36.6502 91.9206 36.1657 91.8882 35.6513Z" fill="black"/>
<path d="M113.455 41.0504C113.528 41.4457 113.267 41.5837 113.043 41.7299C112.181 42.2957 111.209 42.5705 110.208 42.7519C109.73 42.8385 109.246 42.8696 108.759 42.8872C107.64 42.9265 106.818 42.423 106.164 41.5675C105.409 40.5794 105.003 39.4248 104.59 38.2742C104.062 36.8083 103.658 35.2977 102.958 33.8954C102.759 33.4961 102.516 33.1266 102.25 32.7733C102.032 32.485 101.756 32.2481 101.413 32.1127C100.761 31.8569 100.156 31.8718 99.659 32.5026C99.3166 32.9384 99.0499 33.4135 98.8496 33.9252C98.1579 35.6821 97.7992 37.5203 97.5556 39.3828C97.4162 40.4467 97.316 41.5161 97.1942 42.6219H94.8105C94.5398 41.5391 96.1465 30.0932 96.7069 29.1267C96.9614 29.1254 97.0141 29.2864 97.0047 29.5003C96.9803 30.1108 96.9546 30.7212 96.9343 31.3317C96.9275 31.5402 96.9343 31.7486 96.9343 31.9598C97.1739 32.0058 97.1847 31.8109 97.2524 31.7094C97.4744 31.3737 97.7261 31.0664 97.9995 30.77C99.2949 29.3622 101.201 29.3419 102.633 30.1663C103.75 30.8092 104.401 31.8379 104.908 32.9682C105.548 34.3962 105.925 35.9109 106.342 37.4134C106.584 38.2864 106.828 39.1622 107.236 39.977C107.35 40.2031 107.484 40.417 107.617 40.6322C107.881 41.0613 108.265 41.2602 108.771 41.2968C110.271 41.4064 111.761 41.4145 113.23 41.0315C113.286 41.0166 113.351 41.0396 113.457 41.0491L113.455 41.0504Z" fill="black"/>
<path d="M10.7841 30.5321C10.198 30.6783 9.61459 30.8434 9.00684 30.8827C9.43728 30.2113 9.86772 29.5386 10.2995 28.8685C11.6341 26.7948 12.8618 24.6602 14.0164 22.481C15.8424 19.0375 17.4803 15.5073 18.9178 11.8865C20.0426 9.05208 21.0618 6.17977 21.7522 3.20324C21.8889 2.61037 21.9457 1.99855 22.2137 1.44088C22.3044 1.25137 22.3911 1.05781 22.5088 0.884553C22.9311 0.265966 23.3873 0.136022 24.0939 0.416214C24.1913 0.455467 24.2847 0.506904 24.3795 0.552926C23.8042 1.52209 23.4942 2.59413 23.2276 3.67293C22.6983 5.81295 22.2273 7.96786 21.6913 10.1052C21.2568 11.8377 20.7194 13.5419 20.0074 15.1865C19.7908 15.686 19.6825 16.2328 19.3631 16.689C19.2196 16.7134 19.1547 16.8244 19.0951 16.9367C18.7526 17.5837 18.421 18.2375 18.0677 18.8804C15.9101 22.814 13.6144 26.6608 10.9005 30.2451C10.8342 30.3331 10.7976 30.4265 10.7841 30.5334V30.5321Z" fill="#06ADEC"/>
<path d="M62.9578 49.8272C62.721 49.9071 62.5125 49.8868 62.2743 49.8489C61.967 49.053 61.898 48.165 61.4351 47.3989V49.7704C61.1914 49.9626 60.9721 49.8476 60.7312 49.8665V46.3431C61.0899 46.1807 61.4391 46.2565 61.8032 46.2795C62.1592 47.0267 62.2513 47.8497 62.6195 48.7268C62.8902 47.828 63.1216 47.0605 63.3544 46.289C63.7186 46.2281 64.0502 46.2457 64.4238 46.2727V49.8164C64.2559 49.9409 64.0705 49.8489 63.8688 49.8814C63.6942 49.0395 63.8038 48.2178 63.7321 47.3231C63.3923 47.736 63.4424 48.1881 63.3084 48.5752C63.1663 48.9894 63.0702 49.4198 62.9578 49.83V49.8272Z" fill="#06ADEC"/>
<path d="M86.2058 48.0391C86.7675 48.3992 86.9123 48.655 86.8135 49.0692C86.6931 49.5741 86.3641 49.8096 85.667 49.8665C85.0214 49.9193 84.3662 49.8773 83.6746 49.8773V46.2646C84.3459 46.2484 85.0336 46.1929 85.7144 46.2917C86.5821 46.4189 87.022 47.3434 86.2586 47.9282C86.2301 47.9498 86.222 48.0013 86.2044 48.0378L86.2058 48.0391ZM84.3446 47.7265C84.7547 47.7265 85.1297 47.7332 85.5046 47.7238C85.7334 47.717 85.9188 47.6304 85.9242 47.3597C85.9296 47.0957 85.7753 46.982 85.529 46.9779C85.1364 46.9725 84.7439 46.9779 84.3608 46.9779C84.2701 47.2419 84.285 47.4436 84.3446 47.7265ZM85.9838 49.0381C86.0379 48.5806 85.9987 48.4872 85.6576 48.4682C85.2244 48.4425 84.7886 48.4628 84.3608 48.4628C84.281 48.7295 84.2485 48.9271 84.3879 49.1369C84.8454 49.1369 85.3056 49.141 85.7658 49.1328C85.8416 49.1315 85.9161 49.0692 85.9824 49.0394L85.9838 49.0381Z" fill="#06ADEC"/>
<path d="M4.211 47.3448C3.98089 47.4774 3.78462 47.4246 3.60595 47.4639C3.1146 46.7695 2.52308 46.7925 1.95052 47.0538C1.51466 47.2527 1.359 47.8808 1.52955 48.5183C1.67168 49.0503 2.11024 49.3021 2.82493 49.2628C3.33794 49.2344 3.47601 49.1275 3.54504 48.6943C3.29869 48.5454 3.01037 48.6848 2.72477 48.5887C2.63002 48.387 2.65709 48.1718 2.71529 47.9282H4.27868V49.3562C3.55993 49.9423 2.7383 50.1629 1.80298 49.8029C1.11265 49.5362 0.607764 48.7485 0.686272 47.9877C0.785083 47.0321 1.23718 46.5015 2.01684 46.2511C3.03068 45.9249 3.94435 46.4487 4.16363 47.0768C4.1907 47.1526 4.19341 47.2365 4.21371 47.3461L4.211 47.3448Z" fill="#06ADEC"/>
<path d="M79.6639 49.8229C79.3959 49.9177 79.1468 49.8743 78.891 49.8635C78.535 49.5562 78.3293 49.1339 78.0504 48.7685C77.8027 48.4436 77.5212 48.2257 77.038 48.4003C76.9405 48.8456 77.0474 49.3302 76.973 49.8243C76.7672 49.9136 76.5656 49.8852 76.3206 49.8446V46.2494C77.0799 46.2873 77.842 46.1777 78.6149 46.3415C79.0751 46.4389 79.3079 46.7205 79.4135 47.1293C79.5069 47.488 79.2822 47.8372 78.8491 48.0822C78.7787 48.1228 78.7029 48.1553 78.5499 48.2297C78.9641 48.7495 79.3621 49.249 79.6626 49.8243L79.6639 49.8229ZM76.9946 47.5705C78.3523 47.6964 78.4687 47.6707 78.6758 47.1834C78.198 46.8098 77.6417 47.0223 77.1232 46.9939C77.0908 46.9926 77.0556 47.0332 77.0163 47.0575C76.9256 47.2064 76.9297 47.3662 76.9946 47.5705Z" fill="#06ADEC"/>
<path d="M32.1868 46.2915C32.2829 46.5162 32.2342 46.7165 32.2247 46.9724H30.2295C30.0441 47.2146 30.0968 47.4204 30.1415 47.6681C30.7479 47.8183 31.3827 47.66 32.0216 47.7574C32.1367 47.9672 32.0947 48.1825 32.0487 48.4599H30.1794C30.0657 48.6968 30.0887 48.8782 30.1388 49.1042C30.8346 49.2112 31.5479 49.1042 32.2409 49.1652C32.4182 49.3668 32.291 49.5834 32.3506 49.8054C31.8538 49.9557 31.3706 49.8582 30.8955 49.8758C30.4136 49.8934 29.9304 49.8799 29.4187 49.8799V46.2915H32.1868Z" fill="#06ADEC"/>
<path d="M8.25028 48.1054C8.1853 46.967 8.92977 46.1576 10.0911 46.1589C11.2282 46.1603 12.0065 46.8845 11.9943 48.0729C11.9808 49.3588 11.2512 49.9436 10.1561 49.9706C8.98662 50.0004 8.20967 49.2898 8.24892 48.1054H8.25028ZM11.2119 48.0824C11.216 47.3203 10.8776 46.8912 10.2346 46.8642C9.77035 46.8452 9.34938 46.9318 9.12198 47.4069C8.89052 47.8888 8.96226 48.6198 9.28577 48.9581C9.44955 49.1301 9.65123 49.2343 9.89353 49.2614C10.7476 49.3588 11.2092 48.9473 11.2119 48.081V48.0824Z" fill="#06ADEC"/>
<path d="M41.3276 49.8787V46.2687C42.0735 46.2511 42.7814 46.1847 43.4825 46.3675C43.5232 46.3783 43.5611 46.3945 43.6003 46.4108C44.2324 46.668 44.5776 47.3597 44.5234 48.2598C44.4747 49.0584 44.0917 49.5849 43.4162 49.7663C43.2551 49.8096 43.1049 49.8854 42.9276 49.8827C42.4037 49.8733 41.8785 49.8787 41.3276 49.8787ZM42.0274 49.145C42.42 49.145 42.753 49.1464 43.0859 49.145C43.2876 49.1437 43.4514 49.0652 43.5746 48.9014C43.8494 48.5346 43.8439 47.6371 43.5583 47.2852C43.423 47.1187 43.2565 46.9793 43.0291 46.9807C42.7002 46.9834 42.3658 46.9319 42.0261 47.028V49.145H42.0274Z" fill="#06ADEC"/>
<path d="M72.3139 48.0635C72.3112 49.1572 71.6805 49.9761 70.4243 49.9748C69.263 49.9734 68.5699 49.2763 68.551 48.1163C68.5307 46.894 69.2156 46.1928 70.3986 46.1658C71.4314 46.1414 72.2557 46.7275 72.3139 48.0635ZM70.3973 49.2614C71.1526 49.2722 71.5613 48.8621 71.5654 48.0906C71.5681 47.3542 71.1566 46.8859 70.4947 46.8615C69.7516 46.8331 69.3198 47.2405 69.2995 48.0838C69.2819 48.8269 69.692 49.2519 70.3973 49.2628V49.2614Z" fill="#06ADEC"/>
<path d="M112.726 49.846C112.225 49.1082 111.723 48.3678 111.221 47.6274C111.19 47.6369 111.16 47.6477 111.129 47.6572V49.8013C110.893 49.9163 110.696 49.8906 110.462 49.8351V46.3199C110.657 46.2089 110.846 46.2603 111.061 46.263C111.683 46.9723 112.072 47.8724 112.802 48.6941V46.3713C113.027 46.1899 113.209 46.2793 113.425 46.259V49.8527C113.195 49.8987 112.971 49.8906 112.726 49.8487V49.846Z" fill="#06ADEC"/>
<path d="M98.0237 48.475H96.5158C96.3439 48.9013 96.5009 49.3507 96.4089 49.8042C96.2085 49.9287 95.992 49.88 95.7456 49.8448V46.3404C95.8607 46.228 95.9717 46.2524 96.0732 46.2524C96.1747 46.2524 96.2857 46.228 96.4346 46.3647V47.6953H97.9614C98.1049 47.2554 97.9398 46.7843 98.0643 46.3255C98.289 46.2185 98.5042 46.2253 98.7654 46.3119V49.8313C98.5299 49.9043 98.3066 49.8935 98.0237 49.8285V48.475Z" fill="#06ADEC"/>
<path d="M51.03 46.2973C51.2384 46.2296 51.4238 46.2323 51.5944 46.281C51.7555 46.392 51.7271 46.5477 51.7271 46.6912C51.7284 47.3016 51.7352 47.9121 51.7257 48.5226C51.7108 49.4011 51.3927 49.7841 50.5427 49.9628C50.0703 50.0616 49.6222 49.9547 49.2013 49.7503C48.7965 49.5527 48.6612 49.1723 48.6544 48.754C48.6422 47.9554 48.6504 47.1555 48.6504 46.342C48.8629 46.1931 49.0808 46.2567 49.361 46.281C49.361 46.7061 49.361 47.1013 49.361 47.4952C49.361 47.8526 49.3353 48.214 49.3732 48.5686C49.4395 49.1967 50.1231 49.5188 50.6604 49.1899C50.8797 49.0559 50.946 48.8447 50.9433 48.5943C50.9366 48.0475 50.9366 47.4993 50.946 46.9524C50.9487 46.7467 50.8905 46.5315 51.0313 46.2973H51.03Z" fill="#06ADEC"/>
<path d="M105.027 46.2621C105.516 47.4437 106.003 48.6214 106.494 49.8084C106.225 49.9154 105.998 49.8815 105.777 49.8612C105.575 49.6474 105.6 49.332 105.37 49.1086H103.784C103.6 49.3442 103.602 49.6487 103.397 49.8463C103.19 49.9018 102.987 49.8897 102.71 49.8152C103.19 48.6214 103.659 47.4586 104.116 46.3216C104.442 46.2093 104.712 46.2566 105.027 46.2621ZM104.557 47.0052C104.32 47.4857 104.135 47.8661 104.08 48.3385C104.44 48.3466 104.758 48.4075 105.104 48.283C104.953 47.8512 104.843 47.4546 104.557 47.0065V47.0052Z" fill="#06ADEC"/>
<path d="M6.95065 33.449H8.2731C8.25144 33.6371 8.09578 33.7305 7.98344 33.8496C6.66505 35.2465 5.31688 36.6191 3.70882 37.6816C2.71529 38.3381 1.7204 39.0271 0.525191 39.3113C0.37765 39.3465 0.236877 39.3641 0 39.3235C0.992177 38.9554 1.84764 38.4938 2.64896 37.9239C4.08782 36.9006 5.28845 35.635 6.39568 34.276C6.60413 34.0202 6.8938 33.8104 6.9493 33.449H6.95065Z" fill="#06ADEC"/>
<path d="M23.5538 48.337V49.8246C23.2953 49.9071 23.0692 49.8828 22.8066 49.853V46.2944H25.3378C25.4407 46.5056 25.3839 46.7073 25.3798 46.9604H23.7569C23.5498 47.0741 23.5633 47.1864 23.5619 47.288C23.5619 47.3705 23.5741 47.4545 23.5836 47.5533C24.0628 47.69 24.5528 47.5546 25.0495 47.6385C25.2065 47.8402 25.0996 48.0622 25.1226 48.337H23.5538Z" fill="#06ADEC"/>
<path d="M16.151 46.3052C16.3649 46.2104 16.5476 46.2592 16.7506 46.2795C16.9198 46.7397 16.8102 47.2053 16.8292 47.6588C16.8495 48.1217 16.8332 48.5846 16.8332 49.0949C17.4667 49.2195 18.0988 49.1003 18.7174 49.1667C18.827 49.39 18.7837 49.5958 18.7621 49.8394H16.1497V46.3052H16.151Z" fill="#06ADEC"/>
<path d="M91.608 49.8478C91.382 49.8844 91.2169 49.8979 91.0098 49.833V46.384C91.1817 46.2541 91.3779 46.2933 91.608 46.3529V49.8492V49.8478Z" fill="#06ADEC"/>
<path d="M91.8881 35.651C91.9206 36.164 91.8028 36.6499 91.639 37.1345C91.2763 38.2133 90.5156 38.8454 89.4341 39.0958C87.1086 39.6346 84.9496 38.1903 84.549 35.8351C84.4583 35.299 84.576 34.7779 84.8481 34.3123C85.7049 32.8477 86.957 31.9936 88.6882 31.9286C89.499 31.8975 90.1487 32.2589 90.6875 32.8355C91.4265 33.6274 91.9761 34.5058 91.8881 35.651Z" fill="#06ADEC"/>
</svg>
