<svg width="77" height="50" viewBox="0 0 77 50" fill="none" xmlns="http://www.w3.org/2000/svg">
<path d="M38.6716 28.8279C37.1929 28.0258 35.8572 27.0421 34.5536 26.0089C33.5617 25.2224 32.6449 24.3588 31.7905 23.4292C31.0828 22.6582 30.42 21.8469 29.902 20.932C29.4931 20.2105 29.0082 19.5083 28.746 18.7327C28.4151 17.7527 28.0988 16.7608 28.1098 15.6763C28.151 11.9249 28.1226 8.1736 28.1208 4.42227C28.1208 4.13075 28.1098 3.8383 28.1254 3.54769C28.1354 3.36251 28.1849 3.17825 28.2271 2.93164C28.7524 2.93164 29.2328 2.93164 29.7132 2.93164C31.906 2.93164 34.098 2.93164 36.2908 2.93439C38.3865 2.93622 40.4822 2.94081 42.5779 2.94172C44.5379 2.94356 46.497 2.94631 48.457 2.94172C49.1079 2.94081 49.2436 3.05265 49.2426 3.71363C49.2399 7.77573 49.2518 11.8388 49.2078 15.9009C49.1995 16.6801 49.0969 17.463 48.7806 18.2294C48.5633 18.7565 48.3561 19.3047 48.1251 19.8273C47.862 20.4223 47.4935 20.9787 47.113 21.5114C46.3338 22.6014 45.4537 23.6089 44.4801 24.533C43.5084 25.4552 42.5082 26.338 41.3962 27.0916C40.8058 27.4913 40.2383 27.924 39.6434 28.3164C39.3399 28.5162 38.9998 28.6583 38.6707 28.8288L38.6716 28.8279ZM39.3619 19.3194C39.4004 19.0426 39.5462 18.9628 39.7305 18.9289C40.2053 18.8418 40.6802 18.7565 41.1542 18.6676C41.2679 18.6465 41.3879 18.6337 41.4906 18.586C41.7391 18.4723 42.0058 18.3532 42.0132 18.025C42.0205 17.6748 41.7473 17.5877 41.4769 17.5162C41.4411 17.507 41.3999 17.5153 41.2624 17.5153C40.5904 17.7967 39.8341 18.1139 39.0438 18.4448C39.0328 18.344 38.9971 18.2157 39.0108 18.0928C39.0429 17.8233 39.1199 17.5593 39.1428 17.2897C39.1749 16.9047 39.2171 16.5114 39.1758 16.131C39.1208 15.6194 38.8706 15.4746 38.3939 15.6029C38.1161 16.02 37.9877 16.4592 38.1537 16.9707C38.2426 17.2457 38.2609 17.5428 38.3178 17.8279C38.3654 18.069 38.3572 18.2862 38.1656 18.4256C37.3845 18.102 36.6392 17.793 35.9186 17.4942C35.6106 17.5849 35.3778 17.7023 35.2687 17.9956C35.4988 18.3935 35.7784 18.652 36.2697 18.6924C36.7098 18.7281 37.1425 18.8675 37.5752 18.9747C37.698 19.005 37.809 19.0847 37.9162 19.137C37.8539 19.4963 37.8447 19.4881 37.643 19.7063C37.3304 20.0455 37.0178 20.3865 36.73 20.7468C36.4476 21.1007 36.4641 21.3757 36.763 21.8304C36.8739 21.8047 37.0407 21.8157 37.1168 21.7378C37.3854 21.4637 37.6595 21.1813 37.8631 20.8596C38.1069 20.4745 38.282 20.0446 38.4846 19.6375C38.7596 19.5349 38.866 19.6925 38.9787 19.9034C39.2501 20.414 39.5306 20.921 39.835 21.4124C40.011 21.6965 40.2383 21.9514 40.694 21.7845C40.7691 21.6525 40.8626 21.4884 40.947 21.339C40.6765 20.4342 39.8762 19.9905 39.3638 19.3203L39.3619 19.3194ZM34.8295 10.1758C34.8185 10.0135 34.7754 9.9035 34.8112 9.83291C35.1 9.2627 34.978 8.65031 35.0037 8.05534C35.0248 7.57038 34.9359 7.47779 34.3886 7.27886C34.1026 7.49979 33.9201 7.78582 33.955 8.16443C33.9935 8.58706 34.0567 9.00784 34.1218 9.42771C34.1603 9.67432 34.252 9.91909 34.0375 10.2143C33.9165 10.1831 33.7716 10.1666 33.6451 10.1098C33.1381 9.88242 32.6376 9.6404 32.1315 9.41029C32.0454 9.37087 31.9454 9.35254 31.8501 9.34246C31.5146 9.30395 31.2643 9.43871 31.19 9.68899C31.1158 9.94109 31.257 10.1354 31.6063 10.2849C32.1627 10.5232 32.7394 10.6782 33.3426 10.7332C33.5672 10.7533 33.8074 10.7588 33.9724 11.0999C33.8981 11.1429 33.8101 11.187 33.7294 11.241C33.2023 11.5967 32.8402 12.1019 32.4992 12.6217C32.3222 12.8912 32.2196 13.18 32.4405 13.4761C32.6788 13.6154 32.9236 13.6209 33.0905 13.4266C33.3261 13.1525 33.5168 12.838 33.7194 12.5364C33.8477 12.3448 33.9733 12.1505 34.0806 11.9469C34.1841 11.7517 34.2621 11.5436 34.3629 11.3144C34.7837 11.5142 34.8864 11.8873 35.0734 12.188C35.2962 12.5465 35.4951 12.9205 35.7206 13.2771C35.8535 13.4871 36.0589 13.609 36.3156 13.5586C36.5989 13.5027 36.7428 13.3129 36.7428 12.9114C36.5274 12.6272 36.2468 12.2861 36.0011 11.9231C35.7472 11.5491 35.2668 11.3721 35.0496 10.8853C35.2347 10.8138 35.3502 10.7533 35.4731 10.7249C36.0561 10.5901 36.6447 10.4737 37.2259 10.3298C37.4248 10.2803 37.6082 10.1721 37.82 10.0814C37.8099 9.87142 37.8025 9.70457 37.7961 9.58264C37.5596 9.32779 37.3084 9.2902 37.0572 9.35346C36.74 9.43321 36.4311 9.54781 36.124 9.66057C35.7142 9.81091 35.364 10.1125 34.8295 10.1749V10.1758ZM42.114 11.0889C41.3806 11.6563 40.6747 12.3063 40.5042 13.3184C40.8957 13.6227 41.2009 13.6237 41.4558 13.2744C41.7042 12.9334 41.8977 12.5511 42.1158 12.1871C42.2983 11.8818 42.4193 11.5225 42.8401 11.351C42.9189 11.5106 42.9785 11.6472 43.0528 11.7755C43.3507 12.2916 43.6266 12.8243 43.964 13.3138C44.2253 13.6933 44.3985 13.6833 44.8496 13.4055C45.0045 13.0699 44.9312 12.7821 44.6754 12.5117C44.2124 12.0212 43.7651 11.5179 43.2893 10.9963C43.3782 10.6827 43.6972 10.7405 43.942 10.6791C44.504 10.5379 45.0714 10.4205 45.6316 10.2748C45.902 10.2042 46.0505 9.99243 46.0331 9.77699C46.0129 9.52672 45.8048 9.32229 45.5087 9.34062C45.242 9.35621 44.9532 9.39196 44.7222 9.51114C44.3124 9.72199 43.8265 9.76874 43.4735 10.107C43.4094 10.1684 43.2618 10.1419 43.0876 10.1657C43.0876 9.94109 43.0812 9.75682 43.0885 9.57348C43.1105 9.07018 43.1481 8.56689 43.1619 8.06359C43.1692 7.7849 43.1078 7.52088 42.8419 7.36411C42.345 7.43104 42.1342 7.59055 42.1516 8.03609C42.1718 8.57422 42.2827 9.1096 42.3551 9.6459C42.3744 9.78983 42.3964 9.93284 42.4257 10.1409C42.2277 10.1226 42.092 10.1373 41.9802 10.0942C41.5465 9.92734 41.1258 9.72474 40.6885 9.56797C40.4015 9.4653 40.0972 9.38738 39.7946 9.35529C39.559 9.32962 39.3931 9.48822 39.3528 9.73207C39.3133 9.97226 39.4041 10.1813 39.6406 10.2372C40.3144 10.3976 40.9323 10.7845 41.6593 10.7396C41.8527 10.7277 42.0563 10.7607 42.1158 11.0916L42.114 11.0889Z" fill="black"/>
<path d="M2.82317 9.41292C3.15931 9.9098 3.44992 10.2191 3.695 10.3407C4.47423 9.43126 4.66492 7.37133 4.05345 6.32899C4.10662 6.02371 4.27897 5.79269 4.52007 5.57267C5.23972 4.91719 6.01529 4.32773 6.87978 3.90052C7.38949 3.64842 7.89003 3.35872 8.46758 3.21296C9.0048 3.07728 9.51359 2.82884 10.0783 2.74542C10.786 2.64091 11.4855 2.47498 12.1877 2.3338C12.3014 2.31088 12.4215 2.29438 12.5242 2.24396C13.3236 1.84701 14.167 1.5784 15.0122 1.29696C15.5137 1.13011 15.9996 0.951345 16.5276 0.939427C16.7266 0.934844 16.9273 1.0036 17.1061 1.03477C17.1712 1.61874 17.0419 1.80392 16.5835 1.85617C16.4488 1.87176 16.3113 1.86259 16.1765 1.87634C15.9537 1.89835 15.7704 1.98177 15.6815 2.26321C16.138 2.38514 16.5615 2.35489 16.9979 2.27146C17.4334 2.18804 17.878 2.1367 18.3208 2.10645C18.671 2.08261 18.9616 2.21829 19.1367 2.57399C18.9488 2.96911 18.6646 3.16437 18.2135 3.10387C17.9211 3.06445 17.6332 3.08278 17.4242 3.34406C17.4077 3.67867 17.6286 3.71351 17.8743 3.75201C19.0423 3.93352 20.2139 4.09946 21.3736 4.32498C21.9759 4.44232 22.5589 4.63667 23.0411 5.08038C23.4903 5.49383 23.7727 6.02096 23.8873 6.56551C24.1174 7.66285 24.2274 8.78129 23.9863 9.91255C23.8653 10.48 23.9038 11.0576 24.111 11.6333C24.2723 12.0834 24.3695 12.5812 24.3732 13.0588C24.3832 14.2029 24.3273 15.3479 24.2833 16.493C24.2769 16.6616 24.1971 16.8294 24.1449 16.9944C24.0917 17.1613 23.9982 17.3208 23.9789 17.4904C23.8873 18.2999 23.4757 18.9801 23.1484 19.7007C22.5525 21.0134 21.6348 22.0705 20.6557 23.0963C20.3514 23.4144 20.0846 23.7811 19.8609 24.1606C19.618 24.5723 19.4466 25.027 19.2394 25.4606C19.1807 25.5825 19.1119 25.7017 19.034 25.8117C18.6985 26.2838 18.4253 26.2829 18.0595 25.8355C17.9 25.4505 18.5307 25.2204 18.197 24.7565C16.9768 25.4863 16.1664 26.6789 14.9499 27.4554C14.7876 27.2968 14.6465 27.1602 14.5034 27.0209C14.6309 26.7248 14.7372 26.4791 14.8674 26.1775C14.7189 26.1362 14.6006 26.0748 14.4833 26.0757C13.4171 26.0913 12.3509 26.1436 11.2847 26.1298C10.7283 26.1225 10.1746 26.0372 9.63277 25.842C8.87187 25.5678 8.0578 25.4313 7.31707 25.1159C6.37373 24.7134 5.3754 24.5787 4.39356 24.3917C3.42639 24.2074 2.43264 24.1652 1.4508 24.0625C1.35454 24.0525 1.25645 24.0616 1.16019 24.058C0.928255 24.0497 0.736654 23.9645 0.660564 23.7307C0.573473 23.4639 0.71832 23.2861 0.923671 23.1421C1.30412 22.8763 1.74416 22.6663 2.05219 22.3336C2.69299 21.6396 3.22196 20.8695 2.78467 19.8363C2.748 19.7493 2.73516 19.6493 2.72508 19.554C2.71866 19.4981 2.73975 19.4394 2.74983 19.3752C2.93868 19.0754 3.27879 18.9994 3.56757 18.8545C3.93885 18.6684 4.28263 18.4851 4.42656 18.0441C4.48248 17.8736 4.66492 17.7452 4.86018 17.5142C4.91886 17.0494 5.01053 16.4957 5.05178 15.9383C5.07562 15.6138 5.19021 15.3828 5.48541 15.2132C5.77143 15.2324 5.96395 15.4158 6.1198 15.645C6.86969 16.7432 7.81211 17.6682 8.77378 18.5712C9.1799 18.9526 9.64652 19.268 10.0856 19.6145C10.1764 19.686 10.2864 19.7465 10.3488 19.8391C10.797 20.5019 11.4323 20.9392 12.1098 21.3242C12.2409 21.3994 12.394 21.4471 12.5434 21.4782C12.8469 21.5406 13.1586 21.5681 13.4602 21.6368C14.1954 21.8046 14.9132 21.6075 15.5705 21.3792C16.2728 21.1354 16.8742 20.6339 17.3866 20.0591C17.7799 19.6172 18.0806 19.0965 18.2474 18.5602C18.4207 18.0019 18.4326 17.3712 18.406 16.7772C18.3345 15.1664 17.4178 14.0572 16.1325 13.2119C15.8804 13.046 15.5696 12.9717 15.2937 12.8581C14.9976 13.1037 15.0755 13.3797 15.136 13.6373C15.2066 13.9389 15.3313 14.2295 15.3909 14.533C15.4376 14.7695 15.4211 15.0179 15.4349 15.3177C15.1681 15.3571 14.9728 15.3855 14.7812 15.413C14.4833 14.9987 14.398 14.5568 14.2422 14.1433C14.0882 13.7326 14.3091 13.2413 13.9818 12.8764C13.7077 12.8984 13.6885 13.0909 13.7004 13.2605C13.737 13.8014 13.7847 14.3423 13.848 14.8804C13.8846 15.1875 13.9717 15.4891 14.0157 15.7962C14.0882 16.2995 13.8581 16.6048 13.3273 16.6864C12.7745 16.0548 13.0504 15.1261 12.5489 14.3551C12.4884 14.632 12.4307 14.8263 12.4068 15.0253C12.3601 15.4103 12.3399 15.799 12.2932 16.184C12.2547 16.5003 12.108 16.6671 11.8926 16.6763C11.6542 16.6864 11.4369 16.4939 11.3957 16.1969C11.3728 16.0263 11.3929 15.8485 11.4085 15.6752C11.4589 15.1151 11.5204 14.5568 11.5671 13.9967C11.5763 13.8867 11.5378 13.773 11.524 13.6822C11.3031 13.4906 11.0629 13.5181 10.908 13.6538C10.4835 14.0269 9.9408 14.0507 9.44575 14.1718C8.8517 14.3175 8.25307 14.5595 7.62051 14.444C7.26298 14.3789 6.9137 14.2689 6.56167 14.1736C6.28389 14.0984 6.00704 14.0168 5.60917 13.9032C5.30022 13.6978 4.8831 13.4228 4.46873 13.1441C3.79492 12.6912 3.3118 12.0706 2.90751 11.3766C2.72233 11.0585 2.50964 10.7569 2.30888 10.4479C2.26671 10.3828 2.22179 10.3196 2.1787 10.2545C2.02743 10.0271 1.98343 9.78604 2.12278 9.54127C2.23187 9.3515 2.37488 9.33042 2.82134 9.41476L2.82317 9.41292ZM5.52483 12.5519C5.53583 12.5354 5.54591 12.5189 5.55691 12.5033C5.78702 12.6353 6.01162 12.7792 6.25089 12.8938C6.42141 12.9754 6.60659 13.0377 6.79177 13.0726C7.03838 13.1193 7.2914 13.1331 7.54259 13.156C8.00463 13.1982 8.47033 13.2898 8.92871 13.2623C9.69694 13.2165 10.3579 12.8416 11.0033 12.4464C11.4965 12.1448 12.0126 11.8753 12.5902 11.7937C13.1063 11.7204 13.6307 11.6965 14.1523 11.6755C15.3331 11.6287 16.3654 12.0999 17.2656 12.7801C18.4106 13.6446 19.1376 14.7997 19.3301 16.2766C19.5309 17.8085 19.2733 19.2029 18.3437 20.4524C17.9101 21.0354 17.36 21.5067 16.7641 21.8972C16.2847 22.2107 15.7328 22.406 15.1516 22.5178C14.3192 22.6783 13.5024 22.7443 12.681 22.4812C12.1896 22.3244 11.6964 22.1759 11.1353 22.0026C10.9611 22.0494 10.8695 22.2456 10.8942 22.4711C10.9465 22.9377 10.7705 23.3044 10.4615 23.6262C10.2479 23.8489 10.027 24.0644 9.81612 24.289C9.72903 24.3816 9.65936 24.4888 9.54385 24.6383C9.70703 24.7464 9.81795 24.8647 9.9518 24.9014C10.3818 25.0178 10.8172 25.1746 11.2545 25.1901C12.6278 25.2397 14.0075 25.3212 15.345 24.8427C15.7796 24.6878 16.2581 24.6584 16.6285 24.3394C16.6697 24.3037 16.7357 24.2954 16.7917 24.2807C17.7102 24.0387 18.4785 23.5327 19.1853 22.9175C19.375 22.7525 19.5666 22.5884 19.7555 22.4216C20.058 22.1539 20.378 21.9027 20.6539 21.6102C20.9317 21.316 21.1911 20.9979 21.4121 20.6596C21.7907 20.0793 22.1876 19.5008 22.4764 18.8756C22.8404 18.0863 23.1374 17.2603 23.2776 16.3921C23.3556 15.9136 23.4692 15.436 23.4857 14.9547C23.5252 13.8445 23.4408 12.7426 23.1154 11.669C23.009 11.3188 22.9724 10.9512 22.6918 10.6661C22.5965 10.5689 22.5864 10.3828 22.5525 10.2334C22.5222 10.1023 22.5442 9.94922 22.4865 9.83463C22.1665 9.20024 21.8457 8.56402 21.3873 8.01305C21.0527 7.61152 20.7254 7.20173 20.3605 6.82861C19.9553 6.41333 19.5575 5.96504 19.0771 5.65609C18.1228 5.04279 17.1639 4.43774 16.0647 4.07012C15.114 3.75201 14.1432 3.62366 13.1641 3.50815C12.8652 3.4724 12.5526 3.55857 12.2455 3.58149C12.0933 3.59341 11.9274 3.62825 11.788 3.58516C11.491 3.49349 11.2197 3.54482 10.9327 3.62366C10.6925 3.68967 10.4358 3.69792 10.1883 3.74101C9.94171 3.78409 9.67402 3.79235 9.45492 3.89685C8.89662 4.16363 8.2934 4.29564 7.73327 4.57983C6.84403 5.03087 6.07396 5.62126 5.26264 6.25015C5.28464 6.61868 5.29289 6.98538 5.33048 7.34933C5.46432 8.64102 5.30206 9.85663 4.4999 10.9347C4.38898 11.0832 4.38989 11.3152 4.34314 11.4912C4.77493 11.8799 5.14804 12.2173 5.52116 12.5537L5.52483 12.5519ZM22.9403 8.40358C23.032 8.15331 23.1126 8.04514 23.1016 7.94704C23.054 7.52534 23.042 7.08255 22.8963 6.69293C22.7514 6.30698 22.6002 5.85411 22.1858 5.66434C21.7311 5.45533 21.2434 5.31415 20.7621 5.17022C20.6383 5.13355 20.4843 5.19772 20.3633 5.2133C20.3101 5.50391 20.4907 5.57542 20.6191 5.68635C21.3974 6.36107 22.1161 7.08439 22.5635 8.03689C22.6185 8.15331 22.7578 8.23032 22.9403 8.4045V8.40358ZM8.25673 22.8222C8.11097 22.6489 8.0468 22.4967 7.94687 22.4674C7.57101 22.3592 7.25381 22.1511 6.91737 21.965C6.06479 21.4938 5.11596 21.2041 4.32847 20.6037C4.2753 20.5633 4.18271 20.5762 4.11854 20.5661C3.684 21.0721 3.82334 21.6148 4.45223 21.8284C5.16271 22.0705 5.88602 22.2758 6.60292 22.5013C6.78535 22.5591 6.98245 22.604 7.13647 22.7076C7.4555 22.9212 7.78186 22.9139 8.25673 22.8213V22.8222ZM8.87554 21.8367C8.67569 21.5791 8.50792 21.2564 8.24848 21.0474C7.4995 20.4414 6.71568 19.8767 5.9392 19.3037C5.7861 19.191 5.61558 19.0809 5.43499 19.0278C5.12604 18.9379 4.79418 19.1176 4.71992 19.3725C4.65667 19.5897 4.78776 19.8088 5.08387 19.9656C5.42398 20.1453 5.76868 20.3167 6.10971 20.4946C6.94762 20.9309 7.78277 21.371 8.62435 21.8009C8.71786 21.8486 8.84253 21.833 8.8737 21.8367H8.87554ZM2.97902 23.132C3.21004 23.2054 3.39706 23.2906 3.59324 23.3236C4.34131 23.4511 5.12329 23.3466 5.8356 23.7426C6.06846 23.8719 6.42691 23.903 6.67626 23.5959C6.51216 23.3484 6.27656 23.3631 6.05012 23.342C5.86036 23.3246 5.62108 23.3493 5.49274 23.2457C4.98578 22.835 4.33856 22.8323 3.77292 22.5985C3.36955 22.4317 3.18987 22.5609 2.97902 23.132ZM5.82919 17.4326C5.69901 17.7168 5.79527 17.9497 5.9997 18.1129C6.7881 18.7463 7.59026 19.3633 8.39149 19.9803C8.43642 20.0142 8.52534 19.9913 8.5941 19.994C8.52076 19.7795 8.38783 19.664 8.26498 19.5375C7.65076 18.904 7.04113 18.266 6.42691 17.6325C6.28114 17.4821 6.13996 17.3025 5.82919 17.4317V17.4326Z" fill="black"/>
<path d="M62.506 15.3408C61.8625 15.4343 61.6544 15.2739 61.736 14.7733C61.7947 14.4131 61.9184 14.0638 62.0083 13.7081C62.077 13.4376 62.2429 13.1645 61.9973 12.8647C61.3381 13.0123 60.7936 13.3414 60.2884 13.7695C59.7301 14.2435 59.3479 14.8393 59.038 15.4847C58.9326 15.7057 58.9014 15.9651 58.8556 16.2108C58.7272 16.8864 58.7611 17.5575 58.8556 18.2386C58.9335 18.8061 59.2433 19.2517 59.522 19.7018C60.0024 20.4792 60.7706 20.955 61.5554 21.3831C61.7351 21.4812 61.9652 21.4849 62.1705 21.538C63.0414 21.7635 63.9133 21.6774 64.753 21.4418C65.2655 21.2988 65.7394 21.0045 66.1281 20.6066C66.5205 20.2051 66.8826 19.7559 67.3327 19.4313C68.4292 18.642 69.3257 17.651 70.2443 16.6811C70.5358 16.374 70.7669 16.0091 71.04 15.6837C71.195 15.4985 71.3792 15.3381 71.5314 15.1859C71.9742 15.3087 72.0485 15.5782 72.0815 15.9156C72.1236 16.3557 72.1832 16.8003 72.3015 17.2247C72.5243 18.0278 73.0166 18.6228 73.793 18.9656C73.9856 19.05 74.1652 19.1609 74.388 19.2801C74.3724 19.5074 74.3578 19.7137 74.3431 19.92C74.3183 20.2482 74.2908 20.5754 74.2707 20.9046C74.2661 20.9806 74.2624 21.0741 74.3 21.1328C74.719 21.792 75.0096 22.5602 75.8172 22.8911C76.029 22.9773 76.2334 23.1102 76.403 23.2643C76.7074 23.5411 76.6111 23.9005 76.2178 24.0187C76.1262 24.0462 76.0262 24.049 75.93 24.0572C75.1388 24.1251 74.3449 24.1654 73.5584 24.2663C72.9258 24.3469 72.3052 24.5156 71.6754 24.6183C70.6578 24.7842 69.7154 25.1839 68.7436 25.5011C67.7911 25.8128 66.8285 26.1493 65.8027 26.1364C64.7759 26.1236 63.7482 26.0888 62.7215 26.0723C62.5831 26.0704 62.4437 26.1181 62.2888 26.1456C62.352 26.5288 62.7939 26.7369 62.5858 27.1018C62.5024 27.2475 62.3044 27.3291 62.1293 27.462C61.0337 26.6251 60.2059 25.5442 59.049 24.8218C58.7153 25.1913 59.1397 25.4562 59.0976 25.8247C59.0618 25.9934 58.917 26.1355 58.674 26.1465C58.4384 26.1575 58.2606 26.0328 58.1515 25.8348C57.9296 25.4296 57.7005 25.0253 57.5144 24.6036C57.2458 23.9958 56.9286 23.4164 56.4381 22.9709C55.5984 22.2072 54.9502 21.2933 54.3406 20.3536C54.0821 19.9539 53.9372 19.4808 53.7383 19.0426C53.6741 18.9015 53.6026 18.7649 53.532 18.6264C53.4798 18.5228 53.4037 18.4266 53.3725 18.3166C53.2047 17.7198 52.9682 17.1276 52.904 16.5188C52.805 15.5773 52.816 14.6239 52.7995 13.6751C52.7931 13.2873 52.805 12.894 52.8646 12.5117C52.9325 12.0726 53.0425 11.6372 53.1726 11.2118C53.29 10.8295 53.3377 10.4555 53.2396 10.0658C52.971 8.98959 53.0131 7.92524 53.2396 6.83615C53.389 6.12017 53.6393 5.49128 54.1866 5.03199C54.7733 4.53969 55.4957 4.32517 56.2538 4.21791C57.309 4.06848 58.3605 3.89889 59.4102 3.71829C59.556 3.69353 59.6834 3.55786 59.8621 3.44693C59.5706 3.13615 59.2809 3.1114 58.9647 3.09582C58.7235 3.0839 58.4604 3.02798 58.256 2.90972C57.9755 2.74653 58.0002 2.41101 58.2899 2.25516C58.454 2.16715 58.6594 2.10298 58.8418 2.11123C59.2653 2.13231 59.6944 2.17082 60.1069 2.26433C60.5717 2.36884 61.0246 2.3395 61.516 2.31475C61.4976 2.00214 61.2849 1.94621 61.0906 1.89946C60.9421 1.86371 60.7816 1.88113 60.6276 1.86371C60.2948 1.8252 60.0345 1.69136 59.9593 1.33841C60.0244 1.01113 60.2554 0.919457 60.525 0.938709C60.8715 0.963461 61.2345 0.973546 61.5572 1.08631C62.562 1.43559 63.5502 1.82979 64.5458 2.20565C64.6723 2.25332 64.8007 2.30191 64.9327 2.3285C65.7495 2.49168 66.5709 2.63286 67.3831 2.81254C68.1761 2.98856 68.9205 3.30483 69.6741 3.61194C70.3809 3.90072 70.9887 4.32884 71.6176 4.72671C72.0705 5.01365 72.4601 5.40694 72.858 5.77363C72.9781 5.88456 73.0303 6.06883 73.0981 6.19259C72.5564 7.70247 72.6453 9.46996 73.5501 10.3638C74.0066 10.2006 74.0534 9.65331 74.4302 9.38929C74.6731 9.30128 74.9124 9.3022 75.0783 9.56439C75.2259 9.79724 75.1342 10.0017 74.9958 10.2098C74.5897 10.8194 74.2157 11.4529 73.7875 12.0469C73.3191 12.6969 72.7058 13.1975 72.0173 13.6146C71.6653 13.8273 71.3362 14.05 70.9025 14.0427C70.7953 14.0409 70.6779 14.106 70.5808 14.1665C70.0142 14.5176 69.3927 14.5185 68.7757 14.4076C68.1285 14.2921 67.4904 14.1197 66.8533 13.9547C66.7093 13.9171 66.5792 13.8163 66.4499 13.7319C66.2308 13.5889 66.0025 13.5064 65.6606 13.5935C65.6468 13.7567 65.6092 13.9364 65.6221 14.1115C65.6697 14.7495 65.7605 15.3857 65.7834 16.0238C65.8008 16.5087 65.6074 16.6536 65.0702 16.638C64.632 16.0687 64.9336 15.2858 64.5669 14.6102C64.4853 14.7358 64.4046 14.8118 64.3826 14.9026C64.2919 15.2794 64.2277 15.6626 64.1369 16.0403C64.0884 16.242 64.0068 16.4363 63.9481 16.6105C63.4411 16.682 63.2495 16.5775 63.2009 16.1796C63.1707 15.933 63.1918 15.6745 63.2266 15.4261C63.3064 14.8687 63.4072 14.315 63.5016 13.7603C63.5841 13.2763 63.5621 13.1269 63.3375 12.7648C63.0818 12.8207 63.09 13.0334 63.0909 13.2185C63.0918 13.9822 62.7105 14.6294 62.5088 15.3417L62.506 15.3408ZM67.6756 24.6036C67.3089 24.2415 67.0329 23.972 66.7607 23.6988C66.4774 23.4137 66.2968 23.0956 66.3142 22.6647C66.3216 22.4722 66.2015 22.2751 66.1199 22.0193C65.8852 22.0807 65.7055 22.1165 65.5322 22.1752C64.8529 22.4062 64.1709 22.6363 63.4466 22.6519C62.1503 22.6794 60.9879 22.3099 59.9217 21.5417C59.0517 20.9156 58.4852 20.0721 58.08 19.1352C57.8407 18.5815 57.7591 17.927 57.7435 17.3146C57.7096 15.9752 58.102 14.7376 58.9518 13.6916C59.4533 13.0746 60.073 12.5456 60.7945 12.212C61.7351 11.7756 62.7389 11.6078 63.795 11.6683C64.6604 11.7178 65.3975 12.0405 66.1373 12.4375C66.6241 12.6987 67.0724 13.0315 67.6499 13.1379C68.111 13.2222 68.5483 13.3405 69.014 13.1901C69.1204 13.1553 69.2469 13.1883 69.3615 13.1736C69.9821 13.092 70.6541 13.2039 71.1684 12.7042C71.2069 12.6667 71.2729 12.6447 71.3288 12.6401C71.6222 12.6135 71.8156 12.4311 72.0127 12.2376C72.274 11.9809 72.5545 11.7444 72.869 11.4611C72.8341 11.3319 72.8213 11.1769 72.7544 11.0504C72.6123 10.78 72.4344 10.527 72.285 10.2602C71.834 9.45621 71.7459 8.57888 71.7982 7.68139C71.8266 7.20376 71.9036 6.7298 71.9632 6.21001C71.3352 5.79197 70.7421 5.3996 70.1517 5.00173C69.5733 4.6112 68.9682 4.28117 68.2797 4.12441C68.1303 4.09049 67.9928 4.00431 67.8434 3.96398C67.5271 3.87872 67.2108 3.77421 66.8881 3.74029C66.2977 3.67795 65.7165 3.44693 65.1105 3.6202C64.4404 3.40659 63.7721 3.52302 63.0973 3.61011C61.9734 3.75496 60.8981 4.04465 59.9016 4.59286C59.6311 4.74138 59.3818 4.93481 59.1022 5.06132C58.1469 5.49586 57.3915 6.1825 56.6865 6.93424C56.3959 7.2441 56.1246 7.57504 55.8615 7.90966C55.3224 8.59447 54.8384 9.31228 54.6229 10.1768C54.5954 10.2886 54.5588 10.4032 54.5028 10.5031C54.1077 11.2063 53.8877 11.9828 53.8043 12.762C53.6998 13.7411 53.6099 14.7394 53.774 15.7249C53.9299 16.6618 54.0949 17.6006 54.5349 18.4605C54.7284 18.8382 54.8842 19.2361 55.1033 19.5973C55.4618 20.1886 55.7918 20.8165 56.2511 21.3217C57.2027 22.3686 58.2432 23.333 59.545 23.9482C59.875 24.104 60.2564 24.1691 60.558 24.3634C61.2813 24.8282 62.1146 24.9877 62.914 25.1042C63.9408 25.2527 65.0014 25.1968 66.0465 25.1784C66.4059 25.172 66.7671 25.0308 67.1182 24.9199C67.2896 24.8658 67.4391 24.7411 67.6728 24.6055L67.6756 24.6036ZM56.8671 5.32443C56.6957 5.08699 56.4821 5.11083 56.3116 5.17225C55.8046 5.35285 55.2353 5.47294 54.8292 5.7938C54.2608 6.24301 54.1563 6.98007 54.0995 7.68322C54.0839 7.8794 53.9583 8.10859 54.2727 8.28461C54.3974 8.17643 54.5826 8.08292 54.6651 7.93257C55.1657 7.01858 55.8541 6.27326 56.6471 5.6132C56.7397 5.5362 56.7984 5.4161 56.8662 5.32443H56.8671ZM73.2787 20.7166C73.1229 20.5681 72.9551 20.5434 72.7663 20.6836C72.6269 20.7872 72.4885 20.8954 72.3345 20.9733C71.8193 21.2346 71.3123 21.5243 70.7742 21.725C70.248 21.9212 69.8391 22.3521 69.2606 22.4346C69.0956 22.4584 68.9975 22.5923 69.059 22.783C69.4843 22.9168 69.5577 22.9095 69.8849 22.771C70.1343 22.6656 70.3864 22.5657 70.644 22.4823C71.3242 22.2604 72.01 22.0551 72.6884 21.8305C73.3026 21.6269 73.4144 21.406 73.2787 20.7166ZM68.1981 21.7938C68.2256 21.8341 68.2541 21.8745 68.2816 21.9139C68.398 21.8754 68.5208 21.8506 68.629 21.7956C68.816 21.7003 68.9911 21.5829 69.1763 21.483C69.5824 21.263 69.9904 21.0466 70.3992 20.8312C70.9099 20.5617 71.4196 20.2912 71.933 20.0254C72.2117 19.8815 72.4858 19.7375 72.5114 19.3827C72.0906 18.9363 71.7826 18.884 71.3444 19.2177C70.3314 19.9896 69.3285 20.7753 68.3256 21.5609C68.2623 21.6104 68.2403 21.714 68.199 21.7929L68.1981 21.7938ZM74.1542 23.2083C74.1772 22.7023 73.9012 22.6005 73.6638 22.5492C73.2118 22.6665 72.8378 22.7573 72.4665 22.8618C72.3006 22.9086 72.1163 22.9461 71.9834 23.0461C71.6882 23.267 71.3747 23.3651 71.0089 23.3513C70.7953 23.3431 70.5762 23.366 70.4854 23.6475C70.8301 23.8721 71.1711 23.8354 71.5268 23.674C71.7184 23.5879 71.9174 23.4944 72.1218 23.4669C72.6196 23.399 73.1229 23.3715 73.6234 23.3174C73.7894 23.3 73.9516 23.2514 74.1533 23.2083H74.1542ZM68.4988 19.8448C68.5062 19.8815 68.5126 19.9181 68.5199 19.9539C68.6363 19.9273 68.7638 19.9209 68.8664 19.8677C68.9645 19.8164 69.0305 19.7073 69.1222 19.6394C69.7988 19.1325 70.4854 18.6402 71.1528 18.1213C71.4168 17.916 71.4104 17.7904 71.2362 17.4099C70.9392 17.4017 70.7485 17.5905 70.5588 17.7876C70.2782 18.0782 69.9968 18.3688 69.7098 18.6549C69.3092 19.0546 68.9031 19.4488 68.4988 19.8457V19.8448Z" fill="black"/>
<path d="M32.1013 42.3501C32.1013 41.8303 32.1013 41.4241 32.1013 41.0171C32.1013 38.5886 32.1013 36.1593 32.1013 33.7308C32.1013 33.6336 32.0948 33.5355 32.1049 33.4393C32.1398 33.09 32.269 32.9222 32.6119 32.9259C34.1392 32.9442 35.6839 32.7535 37.18 33.1826C37.6302 33.3118 38.0546 33.5915 38.4406 33.8701C38.9466 34.235 39.3775 34.7117 39.6048 35.2939C39.8065 35.8081 39.9138 36.3683 39.999 36.9183C40.0577 37.2979 40.0119 37.6939 40.0082 38.0826C39.9954 39.7841 39.2647 41.0877 37.7539 41.8596C37.0581 42.2153 36.2935 42.4867 35.4749 42.4812C34.5829 42.4747 33.69 42.4903 32.798 42.4775C32.5789 42.4747 32.3607 42.3996 32.1013 42.3501ZM34.2629 34.5907C34.2235 34.7695 34.185 34.863 34.185 34.9556C34.1841 36.702 34.1869 38.4484 34.1905 40.1948C34.1905 40.4295 34.1997 40.6651 34.4903 40.8778C35.1678 40.7907 35.914 40.7311 36.63 40.4771C36.6657 40.4643 36.7006 40.4432 36.7308 40.4194C37.4551 39.8547 37.9125 39.146 37.9189 38.1981C37.9217 37.7902 37.9134 37.3831 37.9171 36.9752C37.9226 36.3371 37.6586 35.7981 37.247 35.3489C36.4338 34.4624 35.3786 34.4807 34.2629 34.5898V34.5907Z" fill="black"/>
<path d="M61.4491 42.3244C60.7432 42.5875 60.1015 42.4665 59.424 42.4426C59.3919 42.2437 59.3479 42.0961 59.3479 41.9485C59.3461 39.1891 59.3497 36.4288 59.3516 33.6693C59.3516 33.4163 59.3424 33.1615 59.5936 32.9213C59.7439 32.9213 59.9328 32.9213 60.1226 32.9213C60.8404 32.9204 61.5591 32.9369 62.2769 32.913C62.926 32.891 63.5649 32.9616 64.1682 33.1706C64.5789 33.3127 65.0244 33.5162 65.3059 33.827C65.6735 34.2331 65.9192 34.7502 65.9833 35.3406C66.0988 36.4058 65.745 37.2456 64.897 37.8836C64.6788 38.0477 64.4524 38.2017 64.3946 38.5611C65.2004 39.7474 66.0301 40.9685 66.868 42.2033C66.8506 42.4014 66.7076 42.4875 66.5141 42.4875C66.0292 42.4875 65.5442 42.4839 65.0602 42.4655C64.8356 42.4573 64.6623 42.3464 64.545 42.1383C64.4038 41.8862 64.2369 41.6487 64.0847 41.403C63.5677 40.5651 63.0516 39.7254 62.5354 38.8866C62.3328 38.8673 62.1807 38.8306 62.0331 38.8435C61.6031 38.8801 61.4564 39.0332 61.4509 39.4788C61.4408 40.2562 61.4491 41.0336 61.45 41.811C61.45 41.9632 61.45 42.1153 61.45 42.3253L61.4491 42.3244ZM63.9161 35.3488C63.2083 34.5439 62.1733 34.3212 61.4491 34.785C61.4491 35.3809 61.4326 35.9988 61.4555 36.6149C61.4674 36.9385 61.6489 37.0897 61.9863 37.1145C62.4538 37.1484 62.9122 37.1126 63.344 36.8954C63.685 36.723 63.8739 36.4471 63.9115 36.0786C63.9371 35.8301 63.9161 35.578 63.9161 35.3488Z" fill="black"/>
<path d="M56.4116 42.2243C56.3181 42.2939 56.2173 42.4333 56.111 42.4379C55.5343 42.4599 54.9568 42.4479 54.3306 42.4479C54.1262 41.8621 53.8723 41.3002 53.7613 40.6887C53.6898 40.2936 53.6082 40.1662 53.2681 40.1607C52.2799 40.146 51.2907 40.1607 50.3015 40.1662C50.2658 40.1662 50.2309 40.1955 50.1264 40.2404C49.9559 40.7776 49.7524 41.3579 49.591 41.9501C49.4719 42.3856 49.4178 42.4663 48.9722 42.4782C48.5845 42.4883 48.1958 42.4819 47.808 42.4809C47.5595 42.4809 47.3395 42.436 47.3138 42.2783C47.4853 41.7338 47.6045 41.313 47.7511 40.9014C48.0821 39.9718 48.4332 39.0486 48.7651 38.1191C49.0575 37.2977 49.3261 36.468 49.6204 35.6475C49.9211 34.8105 50.2392 33.979 50.5545 33.1475C50.5811 33.0788 50.6426 33.0229 50.6957 32.9504H53.1242C54.2142 36.0243 55.2969 39.0798 56.4116 42.2243ZM50.7553 38.1356C50.8342 38.4344 51.0368 38.5169 51.2889 38.5188C51.6941 38.5215 52.1002 38.5288 52.5054 38.516C52.6319 38.5123 52.7557 38.4482 52.9326 38.3968C52.9216 38.1915 52.9445 37.9971 52.8959 37.823C52.6842 37.0621 52.4586 36.3039 52.2221 35.5503C52.1479 35.3147 52.0388 35.081 51.6922 35.0305C51.3769 36.0775 51.0633 37.118 50.7553 38.1365V38.1356Z" fill="black"/>
<path d="M23.008 42.383C22.8054 42.4352 22.6963 42.4884 22.5863 42.4884C20.905 42.4866 19.2228 42.4783 17.4901 42.4719C17.4553 42.2528 17.4067 42.0887 17.4067 41.9237C17.404 39.1854 17.4058 36.4461 17.414 33.7078C17.414 33.4658 17.4727 33.2247 17.5085 32.9487H22.8247C23.1428 33.4181 22.9879 33.9296 22.9778 34.4834C22.7642 34.5118 22.5982 34.5521 22.4323 34.553C21.7145 34.5567 20.9976 34.5411 20.2798 34.5503C20.0387 34.554 19.7985 34.6117 19.5143 34.6502C19.5143 35.2186 19.4905 35.7191 19.5235 36.2151C19.5427 36.5112 19.7472 36.6432 20.112 36.6515C20.674 36.6634 21.2369 36.6542 21.7998 36.6515C22.7238 36.6478 22.7495 36.6716 22.7669 37.5884C22.7697 37.7415 22.7669 37.8946 22.7669 38.0083C22.5662 38.2915 22.3086 38.2842 22.0565 38.2842C21.4551 38.2842 20.8537 38.2732 20.2532 38.2842C20.0286 38.2879 19.8049 38.342 19.529 38.3795C19.5207 38.6546 19.5116 38.8801 19.5079 39.1056C19.5033 39.4549 19.4951 39.8051 19.5015 40.1544C19.5116 40.6897 19.6665 40.8493 20.1991 40.8548C20.9169 40.8612 21.6338 40.852 22.3516 40.8493C22.5029 40.8493 22.6542 40.8493 22.7999 40.8493C23.1455 41.3516 22.964 41.854 23.008 42.3839V42.383Z" fill="black"/>
<path d="M72.0249 40.8191C72.1844 40.8291 72.3715 40.8521 72.5594 40.8521C73.5495 40.8548 74.5396 40.8658 75.5287 40.8456C76.1127 40.8337 76.4189 40.9135 76.3602 41.6918C76.3456 41.8816 76.3584 42.0741 76.3584 42.218C76.1576 42.4784 75.9229 42.4848 75.6882 42.4839C73.7475 42.483 71.8067 42.482 69.866 42.4747C69.6808 42.4747 69.4965 42.4243 69.3214 42.3986C69.0812 41.5616 69.3499 40.9098 69.7963 40.2855C70.6865 39.0415 71.5592 37.7855 72.4393 36.5342C72.85 35.9511 73.2625 35.369 73.6796 34.7795C73.5861 34.4972 73.3515 34.5522 73.1479 34.5513C72.1578 34.5485 71.1687 34.5558 70.1786 34.5458C69.9366 34.543 69.6945 34.4889 69.4021 34.4513C69.4021 34.0223 69.3719 33.6556 69.4177 33.299C69.4351 33.167 69.6157 33.034 69.7514 32.947C69.8376 32.8919 69.9778 32.9158 70.0933 32.9158C71.9562 32.913 73.8199 32.9112 75.6827 32.9112C75.7781 32.9112 75.8725 32.9341 75.9495 32.9442C76.3116 33.3971 76.3309 34.1332 76.0155 34.5742C75.295 35.5817 74.5781 36.5919 73.8612 37.6013C73.279 38.4218 72.6996 39.2441 72.1184 40.0646C71.9672 40.2782 71.8553 40.4964 72.0249 40.8172V40.8191Z" fill="black"/>
<path d="M14.0266 42.3949C13.7754 42.4279 13.571 42.4765 13.3666 42.4774C11.776 42.4866 10.1855 42.4884 8.59398 42.4875C8.4638 42.4875 8.33362 42.4462 8.15303 42.416C8.12919 42.2372 8.08702 42.0722 8.08702 41.9063C8.08519 39.1863 8.08794 36.4663 8.09069 33.7463C8.09069 33.4768 8.0531 33.1972 8.33271 32.9222C8.75349 32.9222 9.23387 32.9047 9.71241 32.9286C10.0186 32.9432 10.1433 33.1009 10.179 33.4209C10.19 33.5171 10.1845 33.6152 10.1845 33.7124C10.1845 35.7916 10.1827 37.8708 10.1818 39.949C10.1818 40.0269 10.1763 40.1049 10.18 40.1819C10.1992 40.6898 10.3441 40.8484 10.8483 40.8539C11.6825 40.863 12.5167 40.852 13.351 40.8548C13.5389 40.8548 13.7268 40.8777 13.9203 40.8896C14.1321 41.4012 14.0422 41.8724 14.0266 42.3949Z" fill="black"/>
<path d="M2.30777 32.8984C2.86607 33.0222 3.50596 32.7169 4.09543 33.1634V42.2639C3.67464 42.5179 2.69647 42.571 2.08775 42.3629C2.0685 42.2383 2.02724 42.0907 2.02724 41.9421C2.02633 39.2066 2.02999 36.471 2.03274 33.7363C2.03274 33.4677 1.99516 33.1872 2.30777 32.8984Z" fill="black"/>
<path d="M28.2034 0.827691C28.1749 0.560917 28.1529 0.349149 28.1245 0.0823751C28.3564 0.0475387 28.5215 0.000784506 28.6865 0.000784506C35.3054 -0.00104899 41.9252 0.000784527 48.5441 0.00170127C48.8806 0.00170127 49.218 -0.0102164 49.3151 0.40782C49.2372 0.767185 48.9878 0.835025 48.6945 0.835025C48.326 0.835025 47.9565 0.831358 47.588 0.831358C41.4348 0.829524 35.2806 0.828607 29.1274 0.827691C28.8414 0.827691 28.5545 0.827691 28.2024 0.827691H28.2034Z" fill="black"/>
<path d="M62.0964 49.8728C62.0478 49.7124 61.9635 49.5675 61.9663 49.4245C61.9809 48.4959 62.013 47.5672 62.0423 46.6385C62.0442 46.5826 62.0726 46.5276 62.0891 46.4717C62.299 46.2599 62.5411 46.182 62.8573 46.2792C63.2488 46.7009 63.6613 47.1272 63.8538 47.7221C63.9327 47.9669 64.0133 48.2502 64.3663 48.3217C64.634 48.0806 64.6047 47.768 64.557 47.4673C64.5011 47.1134 64.4965 46.7742 64.6936 46.38C64.8329 46.3681 65.0071 46.3525 65.1602 46.3397C65.3408 46.7788 65.4416 49.1009 65.3307 49.7289C64.7568 50.1405 64.2948 50.0112 63.973 49.441C63.6457 48.8607 63.3615 48.2447 62.8958 47.7313C62.7217 48.0586 62.696 48.6077 62.7904 49.6638C62.6229 49.8441 62.3913 49.9141 62.0955 49.8737L62.0964 49.8728Z" fill="black"/>
<path d="M54.8476 48.4356C54.9961 47.7361 54.8586 47.0953 54.9375 46.4902C55.0493 46.3041 55.1905 46.2106 55.383 46.2858C55.5938 46.3683 55.6415 46.5627 55.6424 46.7653C55.647 47.638 55.6498 48.5108 55.6461 49.3844C55.6461 49.5348 55.6122 49.6842 55.5966 49.8107C54.9375 50.1041 54.5323 49.9335 54.2426 49.3606C53.9657 48.8142 53.6228 48.3008 53.2396 47.6554C53.1544 47.8984 53.0847 48.0084 53.0829 48.1202C53.0746 48.5658 53.0966 49.0122 53.0902 49.4578C53.0838 49.896 52.9316 49.9849 52.4237 49.8465C52.3981 49.7529 52.344 49.6439 52.3431 49.5348C52.3412 48.662 52.3486 47.7893 52.3559 46.9165C52.3559 46.8203 52.3596 46.7213 52.3806 46.6268C52.4503 46.3106 52.6914 46.1309 52.9765 46.2647C53.2451 46.3903 53.5055 46.592 53.6888 46.8239C53.9006 47.0925 54.0363 47.4244 54.1811 47.7407C54.3067 48.0148 54.4754 48.2348 54.8467 48.4365L54.8476 48.4356Z" fill="black"/>
<path d="M16.5825 49.7736V46.4999C17.4149 46.0672 18.4839 46.1681 18.9789 46.6622C19.2118 46.8951 19.2988 47.1508 19.1677 47.4506C19.0101 47.8127 19.0165 48.1446 19.1907 48.5095C19.5482 49.2557 18.9789 49.8012 18.4188 49.9084C17.899 50.0083 17.3425 49.9267 16.8025 49.9084C16.7219 49.9057 16.643 49.8131 16.5825 49.7736ZM18.4307 48.9211C18.3793 48.6185 18.2372 48.3683 17.9017 48.3334C17.7789 48.3206 17.5891 48.415 17.5204 48.5195C17.3673 48.7506 17.4039 48.9981 17.6203 49.2071C17.9457 49.2905 18.2345 49.2859 18.4307 48.9211ZM18.3207 47.4919C18.2904 47.1004 18.1877 46.9427 17.9274 46.9143C17.7165 46.8914 17.5469 46.9684 17.4681 47.1756C17.3975 47.3608 17.4653 47.5148 17.6184 47.6285C17.8183 47.7779 17.9851 47.7431 18.3207 47.4919Z" fill="black"/>
<path d="M24.0661 48.0916C24.0661 48.2658 24.0743 48.4409 24.0642 48.615C24.0248 49.3026 23.3923 49.9315 22.7102 49.9645C22.5553 49.9718 22.4003 49.9709 22.2454 49.97C21.3167 49.9645 20.7254 49.4071 20.6778 48.4794C20.664 48.2089 20.6869 47.9357 20.6741 47.6653C20.6411 46.942 21.3397 46.2352 22.0556 46.2077C22.5644 46.1884 23.0558 46.1792 23.4848 46.5395C23.8864 46.8751 24.1055 47.272 24.0642 47.801C24.0569 47.8972 24.0633 47.9944 24.0633 48.0916H24.0661ZM21.5111 48.0677C21.5111 48.0677 21.5111 48.0677 21.512 48.0677C21.512 48.2034 21.5056 48.34 21.5129 48.4757C21.5404 48.9744 21.8301 49.2861 22.2995 49.3274C22.7148 49.364 23.1246 49.0441 23.1942 48.5839C23.2373 48.2988 23.2392 48.0008 23.2181 47.712C23.1814 47.2042 22.8165 46.9007 22.3169 46.9273C21.7531 46.9566 21.5203 47.2014 21.5111 47.7762C21.5093 47.8734 21.5111 47.9706 21.5111 48.0677Z" fill="black"/>
<path d="M8.69226 46.2626C9.53292 46.2434 10.2801 46.116 10.9557 46.6376C11.272 46.8814 11.492 47.172 11.5617 47.5287C11.8468 48.9872 11.0584 49.9553 9.67593 49.9544C9.33674 49.9544 8.97829 50.0571 8.66384 49.8755C8.54558 49.5501 8.47958 47.723 8.55658 46.7953C8.57033 46.6312 8.63726 46.4707 8.69226 46.2626ZM9.57692 46.9575C9.2634 47.6607 9.42841 48.3629 9.43758 49.0303C9.87487 49.2824 10.0188 49.2925 10.2737 49.1165C10.7183 48.8094 10.9035 48.2291 10.7329 47.6735C10.6018 47.2454 10.2342 47.0015 9.57601 46.9575H9.57692Z" fill="black"/>
<path d="M57.1249 47.9606C57.0928 47.6241 57.1222 47.218 57.4109 46.8458C57.8739 46.249 58.4945 46.1207 59.1803 46.2059C59.7862 46.2811 60.2391 46.6267 60.4215 47.2125C60.6681 48.0046 60.6562 49.1597 59.9008 49.6657C59.701 49.7996 59.459 49.8812 59.227 49.9545C59.1033 49.9939 58.9575 49.9673 58.8218 49.9673C57.7034 49.9646 57.1203 49.3687 57.1258 48.2328C57.1258 48.1742 57.1258 48.1164 57.1258 47.9606H57.1249ZM59.7587 48.077C59.7413 48.0715 59.723 48.0651 59.7056 48.0596C59.6964 47.9047 59.7056 47.7461 59.6735 47.5957C59.5791 47.1557 59.1601 46.8696 58.7191 46.9274C58.2809 46.9852 57.9784 47.3079 57.9656 47.7433C57.9582 47.9954 57.9546 48.2494 57.9711 48.5005C57.9977 48.9103 58.2241 49.1688 58.6321 49.2889C58.9511 49.3824 59.3352 49.2431 59.5167 48.8947C59.6451 48.6472 59.6817 48.352 59.7587 48.0779V48.077Z" fill="black"/>
<path d="M0.318604 31.9897C0.560625 31.6707 0.749475 31.4103 0.950242 31.1591C1.19135 30.8575 1.42878 30.5495 1.69647 30.2726C1.82299 30.1425 2.01459 30.0086 2.18327 30.0004C2.83966 29.9692 3.49788 29.9875 4.15794 29.9875C4.71074 30.6366 5.24612 31.2646 5.81084 31.9283C5.66782 32.0273 5.58073 32.1391 5.49089 32.1419C4.862 32.1611 4.2542 32.0896 3.78758 31.5937C3.77382 31.5799 3.76007 31.5662 3.74632 31.5524C3.17152 31.0299 3.00376 31.029 2.42346 31.5442C1.7964 32.1006 1.25735 32.2317 0.318604 31.9888V31.9897Z" fill="black"/>
<path d="M25.5676 46.4141C26.0755 46.2142 26.2433 46.283 26.2717 46.7001C26.3038 47.1841 26.2763 47.6719 26.2919 48.1577C26.2992 48.3888 26.3203 48.6253 26.3808 48.8462C26.4725 49.1808 26.6595 49.3275 26.9528 49.3339C27.2691 49.3413 27.5359 49.2202 27.6624 48.9223C27.7357 48.7509 27.7559 48.5474 27.7614 48.3576C27.7743 47.8919 27.7614 47.4243 27.766 46.9586C27.7669 46.8239 27.7688 46.6827 27.8082 46.5553C27.8714 46.3499 28.0227 46.2289 28.2473 46.2527C28.4471 46.2738 28.5847 46.4141 28.5819 46.5993C28.5709 47.4326 28.5902 48.2714 28.4866 49.0946C28.4325 49.5237 28.0117 49.828 27.5937 49.9197C27.2077 50.0041 26.775 49.9821 26.3835 49.9032C25.8619 49.7978 25.6135 49.3477 25.5814 48.87C25.5273 48.0606 25.5667 47.2447 25.5667 46.4141H25.5676Z" fill="black"/>
<path d="M13.1338 46.4469C13.6646 46.0838 14.244 46.2828 14.7885 46.2562C14.9224 46.2498 15.0645 46.402 15.1846 46.4707C15.1103 46.8292 14.9187 46.9227 14.6611 46.93C14.5254 46.9337 14.3861 46.9199 14.2559 46.9465C14.068 46.985 13.9405 47.1124 13.9451 47.3132C13.9488 47.5185 14.0927 47.6276 14.2779 47.6616C14.3888 47.6817 14.508 47.6478 14.6226 47.6524C15.0287 47.6671 15.1103 47.8321 14.9123 48.3024C14.6849 48.3189 14.4374 48.3363 14.1615 48.3555C14.0982 48.4646 14.0038 48.571 13.9708 48.6929C13.891 48.9936 14.0249 49.1824 14.3347 49.2219C14.4878 49.2411 14.6464 49.2145 14.7995 49.2365C15.1323 49.2833 15.1827 49.3805 15.1286 49.8104C14.6803 50.0259 13.6398 50.0249 13.1338 49.7875V46.4469Z" fill="black"/>
<path d="M50.9285 49.3081V49.8967C50.2621 50.0158 49.6378 49.9746 48.9685 49.9012C48.9108 49.75 48.8136 49.6115 48.8136 49.474C48.8163 48.5637 48.8383 47.6525 48.8585 46.7421C48.8604 46.6486 48.8934 46.5551 48.9218 46.4112C49.0932 46.3598 49.2711 46.2746 49.4544 46.2581C49.8009 46.2278 50.1521 46.2214 50.4995 46.2352C50.8983 46.2507 50.9799 46.424 50.8057 46.9044C50.6563 46.9117 50.4867 46.9191 50.3171 46.9291C50.2025 46.9356 50.0604 46.9071 49.9788 46.9631C49.8642 47.0419 49.7267 47.1849 49.7248 47.3023C49.723 47.4159 49.8596 47.5791 49.9751 47.6341C50.1246 47.7047 50.3143 47.6855 50.4867 47.7093C50.7699 47.7496 50.9029 47.8908 50.791 48.2263C50.6783 48.2584 50.5554 48.3143 50.4289 48.3244C49.8651 48.3666 49.7138 48.4555 49.7019 48.7782C49.6891 49.1138 49.8459 49.199 50.4729 49.221C50.6031 49.2256 50.7314 49.2687 50.9276 49.3072L50.9285 49.3081Z" fill="black"/>
<path d="M37.7346 48.2601C37.4669 48.294 37.1882 48.3298 36.905 48.3665C36.6776 48.5058 36.5933 48.7121 36.684 48.9624C36.7821 49.2337 37.0196 49.2429 37.2652 49.231C37.4348 49.2227 37.6054 49.2438 37.8455 49.2557C37.8666 49.4776 37.884 49.6655 37.906 49.9029C37.202 50.0019 36.5768 49.9891 35.9066 49.8919C35.8544 49.7388 35.7645 49.5986 35.7645 49.4592C35.7682 48.5865 35.7893 47.7137 35.8104 46.841C35.8131 46.709 35.8443 46.5779 35.8645 46.4303C36.4237 46.125 37.0159 46.2543 37.5852 46.257C37.8492 46.2589 37.8978 46.4413 37.796 46.885C37.6301 46.8978 37.444 46.9098 37.2588 46.929C37.1259 46.9428 36.9719 46.929 36.8692 46.9941C36.7702 47.0564 36.6703 47.205 36.6721 47.3131C36.6739 47.4195 36.784 47.5753 36.8839 47.6157C37.0581 47.6853 37.2616 47.6762 37.4513 47.7119C37.7401 47.766 37.7649 47.8128 37.7355 48.261L37.7346 48.2601Z" fill="black"/>
<path d="M42.8236 35.8512C42.9208 35.3599 43.0143 34.8877 43.1069 34.4156C43.1628 34.1305 43.2215 33.8463 43.2692 33.5603C43.3425 33.1248 43.5698 32.9204 44.0163 32.9121C44.2684 32.9076 44.5214 32.9048 44.7717 32.9222C45.1576 32.9488 45.3373 33.1982 45.2108 33.5575C44.9605 34.2689 44.7029 34.9785 44.4215 35.678C44.1886 36.2555 43.4259 36.349 42.8218 35.8522L42.8236 35.8512Z" fill="black"/>
<path d="M66.7039 47.4105C66.9679 46.205 67.8076 45.8328 68.9059 46.4837C68.8976 46.6139 68.8875 46.7734 68.8802 46.8889C68.4457 47.2217 67.8315 46.5708 67.5445 47.2474C67.6371 47.6076 67.9442 47.7057 68.2211 47.8377C68.5795 48.0083 68.8958 48.2173 69.0324 48.6216C69.2084 49.1432 68.9682 49.7675 68.4411 49.8958C67.8865 50.0306 67.2988 50.0746 66.7259 49.7794V49.2615C66.846 49.2175 66.9395 49.1487 67.022 49.1606C67.1916 49.1845 67.3547 49.2514 67.5207 49.299C67.8342 49.3889 68.0918 49.3293 68.2596 49.0295C68.2797 48.6729 68.0304 48.5647 67.7728 48.4556C67.2787 48.2466 66.8368 47.9798 66.7039 47.4115V47.4105Z" fill="black"/>
<path d="M40.7885 49.7977C40.552 49.9059 40.295 49.9022 40.0175 49.7867C40.0129 49.3797 40.0065 48.9397 40.0038 48.5005C40.001 48.0568 40.0038 47.6131 40.0038 47.3253C39.7773 46.81 39.1769 47.0741 39.0907 46.5744C39.2007 46.2875 39.4482 46.2435 39.7049 46.2398C40.2284 46.2316 40.7518 46.2316 41.2753 46.2398C41.5109 46.2435 41.7419 46.2848 41.862 46.5323C41.8813 46.8238 41.6924 46.8852 41.4614 46.9246C40.8655 47.0246 40.8435 47.0622 40.849 47.6709C40.8545 48.2723 40.8545 48.8746 40.849 49.4759C40.8481 49.5878 40.8078 49.6996 40.7885 49.7977Z" fill="black"/>
<path d="M46.5575 49.883C46.2623 49.905 46.0643 49.9196 45.8058 49.938C45.7691 49.7042 45.7178 49.5236 45.716 49.3412C45.7086 48.76 45.7233 48.1778 45.7215 47.5966C45.7215 47.4453 45.6894 47.2941 45.6738 47.1611C45.407 46.9045 44.9285 47.009 44.8276 46.5607C44.8735 46.3077 45.0669 46.2371 45.2943 46.2352C45.8755 46.2316 46.4576 46.2206 47.037 46.2462C47.4853 46.2655 47.565 46.3828 47.5073 46.8513C47.2799 46.8907 47.0388 46.932 46.8142 46.9714C46.5539 47.1171 46.5511 47.3518 46.553 47.5893C46.5557 48.1522 46.5566 48.7141 46.5585 49.277C46.5585 49.4466 46.5585 49.6162 46.5585 49.8821L46.5575 49.883Z" fill="black"/>
<path d="M30.8553 49.8389C30.7178 48.946 30.8691 48.0357 30.7783 47.2097C30.5225 46.8632 30.0046 47.0236 29.9193 46.5542C29.9651 46.3058 30.1586 46.237 30.3859 46.2361C30.9662 46.2324 31.5484 46.2224 32.1278 46.2471C32.5806 46.2673 32.6531 46.3782 32.587 46.8558C32.455 46.8778 32.3084 46.9063 32.1608 46.9264C31.7647 46.9805 31.6529 47.0804 31.6437 47.4792C31.63 48.0797 31.6428 48.6811 31.6437 49.2815C31.6437 49.4337 31.6437 49.5868 31.6437 49.6968C31.4283 49.992 31.1982 49.992 30.8544 49.8389H30.8553Z" fill="black"/>
<path d="M7.20881 6.73353C7.6901 6.20274 8.23648 6.01113 8.90296 6.07256C9.32466 6.11106 9.63636 6.321 9.91505 6.5841C10.5082 7.14423 10.6283 8.25533 10.1717 8.80905C9.46493 9.66529 8.62885 9.92381 7.62868 9.28851C7.17031 8.99698 6.96771 8.53952 6.83844 8.04906C6.70093 7.52835 7.08413 7.1369 7.20973 6.73445L7.20881 6.73353ZM8.67927 8.62753C8.9818 8.47994 9.39525 8.42218 9.47226 7.98489C9.56027 7.48618 9.1349 7.29825 8.86446 7.04614C8.2319 7.02689 8.12556 7.11948 7.8817 7.88222C7.95963 8.31034 8.21081 8.56244 8.67927 8.62753Z" fill="black"/>
<path d="M18.5499 22.5904C18.384 22.4621 18.2474 22.3557 18.1172 22.2549C18.3427 21.857 18.4986 21.7672 18.6837 21.8918C18.8717 22.0184 18.8506 22.2081 18.5499 22.5904Z" fill="black"/>
<path d="M15.6017 4.79179C15.6329 5.06223 15.5659 5.24008 15.3267 5.24008C15.0434 5.24008 15.0177 5.0274 15.0223 4.81838C15.2212 4.60019 15.3982 4.63228 15.6017 4.79088V4.79179Z" fill="black"/>
<path d="M16.5478 9.18661C16.3535 9.40205 16.1765 9.39838 15.9794 9.23245C15.9217 8.99776 15.9657 8.80066 16.2361 8.77683C16.4772 8.75574 16.5515 8.93542 16.5478 9.18661Z" fill="black"/>
<path d="M14.2778 10.0484C14.177 10.1988 14.077 10.3491 13.9707 10.5086C13.6847 10.3418 13.6205 10.1529 13.758 9.95306C13.8735 9.7853 14.0468 9.80089 14.2778 10.0493V10.0484Z" fill="black"/>
<path d="M20.7455 19.4367C20.5493 19.6943 20.3641 19.6622 20.1744 19.5054C20.1102 19.2552 20.1679 19.0773 20.3999 19.0434C20.6373 19.0086 20.7308 19.1754 20.7455 19.4367Z" fill="black"/>
<path d="M17.2426 11.0256C17.3828 11.2227 17.5011 11.3236 17.5304 11.4455C17.5717 11.616 17.3901 11.77 17.2095 11.7508C17.0244 11.7306 16.9254 11.6023 16.962 11.4382C16.9886 11.3181 17.106 11.2191 17.2416 11.0266L17.2426 11.0256Z" fill="black"/>
<path d="M15.2928 23.532C15.1382 23.7838 14.9108 23.8614 14.6107 23.7648C14.6648 23.6365 14.6841 23.4715 14.7757 23.4018C14.949 23.2698 15.1287 23.3376 15.2928 23.532Z" fill="black"/>
<path d="M21.5724 8.8356C21.5644 9.16685 21.4159 9.32667 21.1269 9.31506C20.9756 8.85485 21.0324 8.78701 21.5724 8.8356Z" fill="black"/>
<path d="M21.5367 10.7122C21.2773 10.7892 21.0893 10.7498 21.0536 10.5142C21.0114 10.2373 21.203 10.1622 21.4615 10.1723C21.6687 10.3153 21.666 10.4913 21.5367 10.7131V10.7122Z" fill="black"/>
<path d="M18.2547 12.5704C18.2308 12.2092 18.3124 12.0185 18.5902 12.0643C18.8359 12.1047 18.8395 12.31 18.7763 12.5704H18.2547Z" fill="black"/>
<path d="M19.7281 13.4551C19.7125 13.6476 19.7006 13.8016 19.6905 13.9318C19.4073 14.0381 19.2157 14.0005 19.1964 13.7475C19.1753 13.4688 19.3642 13.3918 19.7281 13.4551Z" fill="black"/>
<path d="M17.8056 6.16596C17.5076 6.22188 17.338 6.14579 17.338 5.86985C17.338 5.6865 17.4709 5.58016 17.646 5.63333C17.911 5.71309 17.9128 5.90835 17.8046 6.16596H17.8056Z" fill="black"/>
<path d="M19.2677 7.5228C19.2888 7.23219 19.2998 7.07909 19.3099 6.93149C19.7041 6.83707 19.804 7.01583 19.8287 7.37153C19.6812 7.41095 19.5363 7.45037 19.2677 7.5228Z" fill="black"/>
<path d="M20.29 15.1903C20.2102 15.4232 20.0581 15.4865 19.8765 15.393C19.6703 15.2866 19.6354 15.1115 19.7849 14.8961C20.0865 14.7741 20.2313 14.9144 20.29 15.1903Z" fill="black"/>
<path d="M21.446 15.9963C21.248 15.9752 21.1261 15.8643 21.1627 15.691C21.1838 15.5911 21.3232 15.4508 21.4112 15.449C21.5038 15.4472 21.6505 15.5746 21.6807 15.6736C21.7339 15.8487 21.6037 15.955 21.4469 15.9963H21.446Z" fill="black"/>
<path d="M12.0375 23.4771C11.9073 23.3359 11.7918 23.2112 11.6864 23.0966C11.8505 22.817 12.0375 22.7886 12.2062 22.9335C12.3941 23.0957 12.3345 23.2717 12.0384 23.478L12.0375 23.4771Z" fill="black"/>
<path d="M19.4713 11.2135C19.2146 10.9211 19.221 10.7231 19.4777 10.5388C19.7262 10.5801 19.7876 10.7414 19.7931 10.988C19.7051 11.0494 19.6052 11.12 19.4713 11.2135Z" fill="black"/>
<path d="M15.7859 7.21755C15.8006 7.00119 15.9289 6.90035 16.1242 6.94252C16.2113 6.96177 16.3249 7.07545 16.3359 7.15887C16.346 7.23863 16.2589 7.37889 16.1801 7.41281C15.9995 7.49165 15.8501 7.42106 15.7859 7.21755Z" fill="black"/>
<path d="M21.9164 13.6596C21.7926 14.0721 21.7065 14.0932 21.3123 13.8063C21.4534 13.5936 21.6548 13.5447 21.9164 13.6596Z" fill="black"/>
<path d="M16.6166 23.0883C16.8302 22.8133 17.0346 22.8142 17.2656 22.982C17.1226 23.4348 16.9842 23.4623 16.6166 23.0883Z" fill="black"/>
<path d="M18.1144 10.1063C17.92 9.95043 17.8782 9.74753 17.9888 9.49756C18.4123 9.6149 18.4417 9.757 18.1144 10.1063Z" fill="black"/>
<path d="M19.3437 20.9814C19.2062 20.7467 19.2328 20.5844 19.4464 20.4643C19.6848 20.4497 19.8021 20.5689 19.8287 20.7962C19.7453 21.0364 19.5821 21.0721 19.3428 20.9814H19.3437Z" fill="black"/>
<path d="M22.6643 14.5972C22.8623 14.8202 22.8776 15.0372 22.7101 15.2481C22.3608 15.017 22.3581 14.995 22.6643 14.5972Z" fill="black"/>
<path d="M11.4901 24.5283C11.2893 24.3037 11.1793 24.1185 11.4396 23.9664C11.5093 23.926 11.722 23.9939 11.7651 24.0709C11.9081 24.3257 11.7458 24.4403 11.4901 24.5274V24.5283Z" fill="black"/>
<path d="M18.0879 7.52271C18.256 7.73722 18.2505 7.93219 18.0714 8.10759C17.6873 7.80873 17.6864 7.78765 18.0879 7.52271Z" fill="black"/>
<path d="M22.1786 12.2533C22.0255 12.0333 22.0328 11.8692 22.2639 11.6904C22.3665 11.7445 22.4857 11.8078 22.6021 11.8701C22.5801 12.1681 22.4793 12.3065 22.1777 12.2542L22.1786 12.2533Z" fill="black"/>
<path d="M13.3008 24.2488C13.0908 24.0938 13.0633 23.9481 13.1807 23.8106C13.3154 23.6529 13.4749 23.6483 13.6335 23.8399C13.6766 24.0902 13.541 24.2039 13.3008 24.2488Z" fill="black"/>
<path d="M22.26 17.2979C22.2756 17.4152 22.2912 17.5326 22.3068 17.6518C22.0583 17.7819 21.8842 17.77 21.7494 17.528C21.8172 17.2585 21.9951 17.231 22.26 17.2979Z" fill="black"/>
<path d="M20.0416 9.17289C19.9362 9.18206 19.8317 9.19123 19.7336 9.2004C19.574 8.97671 19.6281 8.82453 19.8307 8.68335C20.1039 8.74019 20.1333 8.90795 20.0416 9.17289Z" fill="black"/>
<path d="M14.3761 8.74384C14.1395 8.49082 14.1423 8.2928 14.3751 8.0957C14.7171 8.37531 14.7189 8.4074 14.3761 8.74384Z" fill="black"/>
<path d="M15.8592 10.5398V11.0193C15.6346 11.1027 15.4962 11.0413 15.4623 10.8597C15.4228 10.6498 15.5411 10.5389 15.8592 10.5398Z" fill="black"/>
<path d="M66.7947 7.86092C66.7929 6.77916 67.4612 6.11269 68.4778 6.06502C69.5578 6.01459 70.2829 6.91301 70.304 7.82425C70.3251 8.73 69.4698 9.67883 68.6227 9.6605C67.7949 9.64216 66.6462 9.04719 66.7947 7.86092ZM68.4843 8.64474C68.6887 8.57049 68.884 8.4999 69.0462 8.44122C69.3451 7.86367 69.3203 7.52081 68.9839 7.19078C68.7666 6.97718 68.4751 6.95701 68.19 7.13578C67.738 7.41997 67.6601 7.65924 67.8361 8.31746C68.0286 8.41464 68.2487 8.52557 68.4852 8.64474H68.4843Z" fill="black"/>
<path d="M58.9961 22.1696C58.9851 22.3676 58.8879 22.4942 58.6844 22.5162C58.4818 22.5382 58.3067 22.364 58.3241 22.1605C58.3424 21.9579 58.4616 21.8442 58.6642 21.8433C58.8705 21.8433 58.9768 21.9634 58.9951 22.1687L58.9961 22.1696Z" fill="black"/>
<path d="M56.166 10.5882C55.7956 10.7889 55.6526 10.7825 55.5683 10.5726C55.5004 10.403 55.5527 10.2646 55.7214 10.1885C55.923 10.0986 56.0413 10.2022 56.166 10.5882Z" fill="black"/>
<path d="M57.3806 7.33947C57.3742 6.99569 57.5172 6.86093 57.8179 6.90401C57.9957 7.06078 57.9994 7.22763 57.8665 7.37064C57.7308 7.5164 57.5639 7.5109 57.3806 7.33947Z" fill="black"/>
<path d="M55.6497 9.27473V8.7916C55.7973 8.7916 55.9164 8.76226 56.0099 8.79802C56.1795 8.86311 56.23 9.01804 56.1557 9.18122C56.0649 9.38107 55.8999 9.38932 55.6497 9.27473Z" fill="black"/>
<path d="M62.1119 4.71848C62.1926 4.988 62.1798 5.18419 61.8983 5.23919C61.7205 5.27403 61.5491 5.09435 61.5903 4.91833C61.6545 4.64147 61.8461 4.62681 62.1119 4.71848Z" fill="black"/>
<path d="M58.2872 12.4256C58.4101 12.2597 58.4935 12.146 58.6292 11.9626C58.7823 12.1277 58.895 12.2496 59.0023 12.3651C58.7786 12.718 58.5833 12.6612 58.2872 12.4256Z" fill="black"/>
<path d="M58.0077 21.0429C57.7107 21.0062 57.5576 20.9879 57.4118 20.9695C57.3211 20.5689 57.5008 20.4772 57.8601 20.4727C57.8977 20.6193 57.9353 20.7642 58.0068 21.042L58.0077 21.0429Z" fill="black"/>
<path d="M59.7643 5.6581C59.9229 5.85245 59.9128 6.03305 59.723 6.15772C59.6533 6.20356 59.4691 6.18798 59.4242 6.13114C59.3563 6.04496 59.3151 5.88087 59.3508 5.78186C59.4232 5.58109 59.5993 5.58476 59.7652 5.6581H59.7643Z" fill="black"/>
<path d="M56.9535 15.3528C56.9636 14.9348 57.0424 14.8 57.2542 14.8624C57.3504 14.8908 57.465 15.0292 57.4779 15.1291C57.5054 15.3446 57.3431 15.4115 56.9535 15.3519V15.3528Z" fill="black"/>
<path d="M64.8467 23.2276C65.0273 22.8169 65.0282 22.815 65.427 22.9636C65.3885 23.4696 65.306 23.5127 64.8467 23.2276Z" fill="black"/>
<path d="M61.2035 9.27542C60.9166 9.37992 60.7167 9.37259 60.6635 9.08748C60.6296 8.90872 60.758 8.77579 60.9331 8.78221C61.2365 8.79321 61.2365 9.01047 61.2044 9.2745L61.2035 9.27542Z" fill="black"/>
<path d="M56.9746 19.5762C56.6978 19.6569 56.5089 19.6257 56.4649 19.3479C56.4383 19.1774 56.6281 19.0142 56.8004 19.0601C57.0755 19.1334 57.0745 19.3232 56.9746 19.5762Z" fill="black"/>
<path d="M63.6128 23.7392C63.8291 23.631 63.9997 23.6686 64.0629 23.8666C64.0941 23.9656 64.0327 24.1187 63.9667 24.215C63.9364 24.2599 63.7714 24.2626 63.7063 24.2223C63.5 24.0949 63.5275 23.9115 63.6137 23.7392H63.6128Z" fill="black"/>
<path d="M55.1557 11.9011C55.1273 12.1468 55.0283 12.2752 54.8532 12.2321C54.7542 12.2082 54.6258 12.0753 54.6121 11.9772C54.5882 11.8049 54.7257 11.6829 54.8981 11.7141C55.0017 11.7334 55.0879 11.8489 55.1548 11.9002L55.1557 11.9011Z" fill="black"/>
<path d="M65.8457 23.95V24.4368C65.5854 24.5615 65.413 24.5037 65.3828 24.2672C65.3498 24.0059 65.5102 23.8986 65.8457 23.95Z" fill="black"/>
<path d="M55.3584 13.3799C55.5903 13.5385 55.7196 13.6274 55.8607 13.7237C55.6838 14.0436 55.494 14.0574 55.2025 13.8896C55.2429 13.7576 55.2823 13.6292 55.3584 13.3799Z" fill="black"/>
<path d="M57.4768 13.9438C57.4961 13.7614 57.5116 13.6083 57.5245 13.4827C57.8178 13.3699 57.9884 13.4506 58.0039 13.6853C58.0232 13.9713 57.8288 14.03 57.4768 13.9438Z" fill="black"/>
<path d="M61.3556 11.0466C61.208 10.822 61.2126 10.6478 61.4381 10.5158C61.6655 10.5075 61.78 10.6231 61.7635 10.8229C61.747 11.031 61.6049 11.1071 61.3556 11.0466Z" fill="black"/>
<path d="M54.8009 17.6913C54.8302 17.5153 54.8532 17.3805 54.8889 17.1733C55.0888 17.2366 55.2327 17.2824 55.3409 17.3164C55.4243 17.639 55.2987 17.7234 54.8009 17.6904V17.6913Z" fill="black"/>
<path d="M61.3814 7.20293C61.1999 7.48254 61.0175 7.54213 60.8414 7.33036C60.7892 7.26802 60.824 7.03791 60.8937 6.98658C61.1339 6.80964 61.2641 6.97466 61.3814 7.20293Z" fill="black"/>
<path d="M59.1041 10.1402C58.8126 9.71846 58.8154 9.70104 59.1848 9.47827C59.3382 9.69951 59.3113 9.92014 59.1041 10.1402Z" fill="black"/>
<path d="M57.3807 8.65503C57.4458 8.75954 57.5209 8.87872 57.6254 9.04648C57.4687 9.13632 57.3504 9.20416 57.2157 9.28117C57.1414 9.18216 57.0726 9.12899 57.0589 9.06482C57.014 8.84663 57.0772 8.6862 57.3798 8.65503H57.3807Z" fill="black"/>
<path d="M60.5984 23.0004C60.1922 23.4431 60.1702 23.4431 59.8347 23.081C59.9365 23.0059 60.0281 22.8876 60.1308 22.8766C60.2564 22.8628 60.3912 22.9408 60.5975 23.0004H60.5984Z" fill="black"/>
<path d="M59.1215 8.13973C58.9277 7.94844 58.9146 7.74431 59.082 7.52734C59.4744 7.7437 59.4808 7.83812 59.1215 8.13973Z" fill="black"/>
<path d="M62.5199 23.8226C62.2981 23.8042 62.123 23.7905 61.9708 23.7776C61.8855 23.4742 62.0148 23.3715 62.2128 23.3578C62.4521 23.3404 62.5676 23.4659 62.5199 23.8226Z" fill="black"/>
<path d="M59.599 11.4584C59.8239 11.2482 60.0375 11.232 60.2398 11.4099C60.0143 11.783 59.9923 11.7857 59.599 11.4584Z" fill="black"/>
<path d="M56.2209 12.3815C56.397 12.0561 56.5253 11.9791 56.672 12.112C56.7398 12.1734 56.8003 12.3394 56.7646 12.4008C56.6115 12.6657 56.4281 12.5539 56.2209 12.3815Z" fill="black"/>
<path d="M63.5541 10.1218C63.3909 10.4042 63.2424 10.4656 63.0856 10.3106C62.9142 10.141 62.9536 9.97603 63.2286 9.82568C63.3267 9.91552 63.4376 10.0155 63.5541 10.1218Z" fill="black"/>
<path d="M54.568 15.678C54.7706 15.8632 54.7532 16.0621 54.6239 16.2711C54.3947 16.3426 54.3159 16.2079 54.2856 16.0474C54.248 15.8503 54.3315 15.7137 54.568 15.678Z" fill="black"/>
<path d="M55.8523 15.9845C55.5901 15.9432 55.448 15.835 55.5442 15.5894C55.6029 15.4399 55.7487 15.406 55.8834 15.4958C56.1071 15.6453 56.0659 15.8066 55.8523 15.9845Z" fill="black"/>
</svg>
