<svg width="234" height="50" viewBox="0 0 234 50" fill="none" xmlns="http://www.w3.org/2000/svg">
<path d="M40.3261 36.5261L47.469 47.8897H37.5664L30.4235 36.5261H40.3261ZM35.3748 28.6527L30.4235 20.7793L13.4592 47.8897H23.3618L35.3748 28.6527Z" fill="#FFF100"/>
<path d="M47.4689 47.8896L40.3261 36.526H30.4235L35.3748 28.6526L30.4235 20.6981L13.4592 47.8896H0.472168L30.4235 0L60.4559 47.8896H47.4689Z" fill="black"/>
<path d="M88.0534 28.0032C89.5956 26.0552 90.4073 23.7825 90.4073 21.1039C90.4073 17.6948 89.1898 14.9351 86.6736 12.8247C84.4008 10.9578 80.7482 9.98376 75.6346 9.98376H68.8164V47.6461H74.6606V32.224H75.7158L86.7547 47.6461H93.8976L81.8846 31.6558C84.482 31.0877 86.5112 29.8701 88.0534 28.0032ZM74.5794 27.3539V15.3409H76.6898C82.0469 15.3409 84.7255 17.289 84.7255 21.1039C84.7255 25.2435 81.9658 27.2727 76.4463 27.2727H74.5794V27.3539ZM134.969 10.0649L115.976 42.3701H134.563V47.7273H106.398L125.391 15.4221H109.482V10.0649H134.969ZM165.407 9.33441C160.05 9.33441 155.424 11.2013 151.609 15.0162C147.794 18.8312 145.846 23.3766 145.846 28.6526C145.846 34.6591 147.956 39.5292 152.177 43.263C155.992 46.5909 160.375 48.2955 165.164 48.2955C170.602 48.2955 175.229 46.4286 179.125 42.6136C182.94 38.8799 184.888 34.2532 184.888 28.8149C184.888 23.4578 182.94 18.8312 179.125 15.0162C175.31 11.2825 170.683 9.33441 165.407 9.33441ZM175.066 38.961C172.388 41.7208 169.06 43.0195 165.164 43.0195C161.592 43.0195 158.346 41.6396 155.586 38.961C152.826 36.2825 151.446 32.8734 151.446 28.7338C151.446 24.7565 152.745 21.4286 155.424 18.75C158.102 15.9903 161.349 14.6916 165.245 14.6916C169.141 14.6916 172.388 16.0714 175.066 18.75C177.745 21.4286 179.044 24.8377 179.044 28.8149C179.125 32.7922 177.745 36.2013 175.066 38.961ZM233.427 10.0649V50L205.261 21.3474V47.7273H199.417V7.46753L227.583 36.2013V10.0649H233.427Z" fill="black"/>
</svg>
