<svg width="246" height="50" viewBox="0 0 246 50" fill="none" xmlns="http://www.w3.org/2000/svg">
<path d="M73.9787 49.7697C68.7442 49.7697 63.5071 49.7697 58.2727 49.7697C57.8518 49.7697 57.4283 49.7881 57.0101 49.7591C55.9159 49.6802 55.758 49.5329 55.6791 48.486C55.6397 47.9494 55.6528 47.4076 55.6555 46.8657C55.6712 37.3253 55.666 27.785 55.7265 18.2446C55.737 16.6374 55.8633 14.9934 56.2289 13.4362C58.0202 5.85022 64.9775 0.331683 72.9949 0.0186679C76.4381 -0.115481 79.684 0.465832 82.7747 2.00723C87.0201 4.12206 89.9214 7.39162 91.4944 11.8422C91.7548 12.5761 92.0415 13.3179 92.1546 14.0807C92.2993 15.046 92.8937 15.3196 93.7249 15.5195C95.1217 15.8588 96.5684 16.1324 97.8625 16.7216C103.773 19.4151 107.577 23.7763 108.544 30.3706C109.773 38.7194 103.644 46.4212 97.2812 48.486C94.7876 49.2962 92.273 49.7486 89.6847 49.7723C84.4502 49.8223 79.2131 49.7881 73.9787 49.7881V49.7697ZM76.5617 45.5242V45.4927C81.2569 45.4927 85.9495 45.5137 90.6448 45.4769C91.6575 45.469 92.6965 45.369 93.6776 45.1244C98.5938 43.9013 102.192 41 103.568 36.1075C104.986 31.0598 103.831 26.4777 99.7038 22.8977C98.2781 21.6614 96.6788 20.725 94.8691 20.1779C93.3146 19.7071 93.1252 19.8754 93.3803 21.4037C93.3909 21.4615 93.4067 21.522 93.4198 21.5799C94.0011 23.913 93.1252 25.8411 91.6259 27.5193C89.5795 29.8103 86.9438 30.2312 84.0478 29.6946C81.0833 29.1449 79.2131 27.3457 78.3556 24.5522C77.0562 20.3226 80.3652 15.9114 85 15.5931C85.7181 15.5432 86.4493 15.6431 87.1621 15.5589C87.4041 15.53 87.6961 15.1749 87.7908 14.9066C87.8802 14.6567 87.7803 14.3095 87.6908 14.0307C86.6939 10.9005 84.8921 8.35171 82.1881 6.44731C79.171 4.32197 75.77 3.78537 72.2137 4.18256C67.9867 4.6534 64.6408 6.67353 62.1946 10.1903C60.6111 12.463 60.1271 15.0066 60.1192 17.6817C60.0982 26.262 60.1061 34.8449 60.1034 43.4252C60.1034 43.8461 60.1166 44.2643 60.1218 44.6851C60.1271 45.2928 60.4612 45.5348 61.0372 45.5269C61.3976 45.5216 61.7606 45.5269 62.1209 45.5269C66.9345 45.5269 71.7507 45.5269 76.5643 45.5269L76.5617 45.5242ZM88.9534 22.8109C88.9797 20.9907 87.8276 19.8807 85.918 19.8465C83.6716 19.8044 82.7273 20.946 82.5905 22.7583C82.4748 24.3155 84.0372 25.657 85.7812 25.7148C87.1648 25.7596 89.0771 24.6837 88.9534 22.8109Z" fill="black"/>
<path d="M176.093 29.1576C176.093 35.2206 176.093 41.2836 176.093 47.3466C176.093 47.7675 176.085 48.1857 176.079 48.6066C176.074 49.1695 175.845 49.5219 175.232 49.5246C175.111 49.5246 174.993 49.5351 174.872 49.5351C171.368 49.5351 171.952 49.8008 171.873 46.7495C171.858 46.1708 171.681 45.5974 171.579 45.0214C171.134 45.3686 170.656 45.6842 170.248 46.0709C166.799 49.3405 162.609 50.1953 158.053 49.7534C156.012 49.5561 154.034 49.0695 152.203 48.0726C147.503 45.5133 144.936 41.5808 144.507 36.2675C144.249 33.0821 144.783 30.065 146.435 27.2637C148.797 23.2523 152.414 21.0875 156.864 20.2721C159.789 19.7355 162.72 19.9039 165.576 20.9324C167.615 21.6662 169.256 22.9341 170.813 24.365C170.982 24.5176 171.197 24.6175 171.392 24.7411C171.468 24.4834 171.61 24.2282 171.61 23.9704C171.629 19.5277 171.629 15.085 171.639 10.6449C171.645 8.34599 171.652 8.34599 173.944 8.35652C174.243 8.35652 174.546 8.37493 174.846 8.36177C175.661 8.33021 176.087 8.68268 176.071 9.52703C176.061 10.0663 176.087 10.6081 176.087 11.1473C176.087 17.1499 176.087 23.1524 176.087 29.1549H176.093V29.1576ZM171.647 34.8865C171.813 28.9366 167.254 23.7574 160.281 23.8047C154.103 23.8494 149.1 27.9476 149.013 34.8181C148.931 41.3941 153.75 46.2103 160.402 46.1393C167.189 46.0683 171.713 41.2862 171.647 34.8839V34.8865Z" fill="black"/>
<path d="M207.155 36.415C202.402 36.415 197.649 36.4308 192.895 36.4072C190.973 36.3966 189.05 36.273 187.124 36.2625C185.901 36.2546 185.849 36.3467 186.096 37.4856C186.946 41.3865 189.302 44.0195 193.048 45.3241C197.254 46.7866 201.336 46.4342 205.177 44.0931C205.737 43.7512 206.216 43.2803 206.763 42.9121C207.523 42.3992 207.534 42.4176 208.741 43.7407C209.796 44.898 209.856 45.019 209.277 45.6608C208.838 46.1448 208.317 46.5709 207.786 46.9576C205.332 48.741 202.523 49.5827 199.537 49.801C196.386 50.0325 193.308 49.6616 190.344 48.4517C183.218 45.5425 180.096 37.846 181.837 31.1543C183.342 25.3727 187.038 21.8927 192.656 20.5039C198.572 19.0414 203.925 20.4118 208.194 24.8677C210.89 27.6822 211.945 31.2332 211.797 35.1183C211.758 36.1152 211.65 36.2099 210.587 36.2414C209.446 36.2756 208.299 36.2493 207.157 36.2493C207.157 36.3046 207.157 36.3598 207.157 36.415H207.155ZM196.573 32.9508V32.9456C199.763 32.9456 202.954 32.9587 206.145 32.9377C207.368 32.9298 207.52 32.743 207.231 31.541C206.502 28.5108 204.79 26.2486 201.931 24.8887C199.858 23.9023 197.67 23.6709 195.418 23.8418C190.368 24.2259 187.206 27.3797 186.133 31.7856C185.867 32.8746 185.907 32.9351 187.003 32.9429C190.194 32.964 193.385 32.9508 196.575 32.9508H196.573Z" fill="black"/>
<path d="M139.452 39.74C139.452 42.5597 139.47 45.3821 139.444 48.2019C139.433 49.4382 139.341 49.5302 138.084 49.5276C134.554 49.5197 135.14 49.8143 135.096 46.7578C135.096 46.5789 135.114 46.3922 135.077 46.2186C135.048 46.0765 134.948 45.9503 134.88 45.8161C134.78 45.874 134.675 45.924 134.583 45.9924C133.536 46.7815 132.589 47.781 131.426 48.3281C126.936 50.4377 122.357 50.3904 117.817 48.4307C114.4 46.9577 113.037 44.2668 113.135 40.85C113.232 37.4621 115.263 34.8396 118.658 33.8716C120.547 33.3324 122.536 33.0088 124.498 32.9036C127.439 32.7458 130.395 32.8694 133.344 32.8589C134.814 32.8536 134.814 32.8378 134.827 31.3385C134.843 29.7524 134.533 28.2531 133.694 26.8748C132.392 24.7363 130.235 24.1102 127.996 23.9051C124.082 23.5447 120.318 24.1102 116.957 26.3697C116.052 26.9774 115.823 26.909 115.184 26.0857C113.842 24.3575 113.903 23.8946 115.825 22.7714C117.867 21.5798 120.095 20.817 122.409 20.3909C125.453 19.8306 128.517 19.8122 131.529 20.6066C136.098 21.8139 138.589 24.6521 139.186 29.3105C139.352 30.6152 139.42 31.9383 139.446 33.2534C139.488 35.413 139.457 37.5752 139.457 39.7347H139.446L139.452 39.74ZM128.859 36.1495V36.1653C127.478 36.1653 126.089 36.0811 124.714 36.1889C123.346 36.2942 121.957 36.4625 120.642 36.8334C118.54 37.4279 117.404 39.156 117.522 41.3208C117.638 43.433 118.679 44.9481 120.655 45.7425C123.014 46.6894 125.45 46.6973 127.92 46.2396C130.2 45.8161 132.065 44.7008 133.533 42.9332C134.393 41.8942 134.969 40.7395 134.84 39.3191C134.783 38.6641 134.846 38.0013 134.819 37.3437C134.775 36.1942 134.764 36.1732 133.544 36.1574C131.981 36.1363 130.419 36.1521 128.856 36.1521L128.859 36.1495Z" fill="black"/>
<path d="M217.142 35.229C217.142 31.0914 217.142 26.9538 217.142 22.8136C217.142 22.3927 217.148 21.9745 217.15 21.5536C217.156 20.9065 217.466 20.6093 218.129 20.5278C221.177 20.1543 221.443 20.3699 221.469 23.3423C221.475 23.8762 221.543 24.4076 221.583 24.9415C221.985 24.6312 222.424 24.3576 222.782 24.0025C225.07 21.743 227.927 20.7172 231.031 20.3621C234.19 20.0017 237.246 20.3831 240.116 21.935C243.257 23.6316 245.053 26.2383 245.661 29.6841C245.879 30.9178 245.969 32.1856 245.979 33.4403C246.016 38.1171 245.992 42.7966 245.992 47.4734C245.992 47.8942 245.987 48.3125 245.977 48.7333C245.958 49.4409 245.637 49.7855 244.882 49.8618C241.452 50.2037 241.387 50.1643 241.384 46.6869C241.379 41.8891 241.416 37.0913 241.358 32.2935C241.329 29.8709 240.548 27.7219 238.627 26.0779C237.633 25.2256 236.478 24.7574 235.229 24.5391C231.83 23.942 228.519 24.0262 225.525 26.0489C223.582 27.3641 222.44 29.2396 221.99 31.4886C221.722 32.83 221.611 34.2215 221.593 35.5919C221.54 39.6085 221.572 43.6278 221.569 47.647C221.569 48.0678 221.567 48.4861 221.556 48.9069C221.543 49.4619 221.304 49.8328 220.704 49.8433C219.802 49.8591 218.9 49.8565 217.997 49.8486C217.5 49.8433 217.211 49.575 217.179 49.0805C217.15 48.6018 217.148 48.1231 217.148 47.6417C217.148 43.5041 217.148 39.3665 217.148 35.2263H217.142V35.229Z" fill="black"/>
<path d="M24.2857 41.3605C24.2857 39.627 24.3041 37.891 24.2778 36.1576C24.2647 35.3211 24.6303 34.9608 25.4615 34.9765C26.9003 35.0055 28.3497 34.895 29.7753 35.037C32.7713 35.3316 35.2281 37.3991 35.1545 40.8554C35.1466 41.2132 35.1597 41.5735 35.1492 41.9313C35.0676 45.2482 33.0896 47.3998 29.7385 47.697C28.3786 47.818 26.9976 47.8049 25.6325 47.7365C24.3252 47.6707 24.2699 47.5734 24.2384 46.203C24.2042 44.5879 24.2305 42.9729 24.2305 41.3605H24.2805H24.2857ZM28.226 36.3969C28.2234 36.4206 28.2181 36.4443 28.2155 36.468C27.9761 36.468 27.7368 36.4627 27.4974 36.468C26.1165 36.5048 26.1033 36.5074 26.0928 37.8726C26.077 39.7822 26.056 41.6919 26.0849 43.6015C26.1296 46.5607 25.6325 46.274 28.7758 46.2161C31.4482 46.1662 33.0843 44.5195 33.2474 41.8445C33.279 41.3105 33.2711 40.7686 33.2264 40.2347C33.0765 38.5012 32.0769 37.3728 30.5092 36.7836C29.799 36.5179 28.9888 36.5153 28.226 36.3943V36.3969Z" fill="black"/>
<path d="M41.8169 28.1586C40.9752 28.1586 40.1309 28.1954 39.2944 28.1507C38.2265 28.0928 37.9713 27.8982 37.9661 26.8749C37.945 23.5186 37.9503 20.1622 38.0239 16.8085C38.0529 15.4854 38.358 15.246 39.6679 15.2066C41.2304 15.1619 42.7928 15.1855 44.3552 15.1829C44.5341 15.1829 44.7603 15.1382 44.8866 15.225C45.1496 15.4091 45.4942 15.638 45.56 15.9063C45.6862 16.4087 45.318 16.6848 44.8314 16.6901C43.5688 16.7059 42.3062 16.6691 41.0462 16.698C39.8468 16.7243 39.8047 16.7506 39.8021 17.9185C39.7915 20.9461 39.5469 20.5752 42.3193 20.6067C42.9191 20.6146 43.5214 20.6067 44.1211 20.6252C44.6788 20.6409 45.2785 20.6725 45.2443 21.4458C45.2154 22.1087 44.6604 22.1166 44.179 22.1245C43.1584 22.1403 42.1352 22.1061 41.1146 22.1271C39.8626 22.156 39.8126 22.1797 39.8205 23.4844C39.8442 27.0143 39.4706 26.4173 42.7533 26.4778C43.4741 26.4909 44.2027 26.4514 44.9076 26.5619C45.1707 26.604 45.5942 27.0512 45.5573 27.2327C45.4889 27.5588 45.147 28.0455 44.8813 28.0718C43.8713 28.1717 42.8428 28.1112 41.8222 28.1112C41.8222 28.127 41.8222 28.1401 41.8222 28.1559L41.8169 28.1586Z" fill="black"/>
<path d="M37.9689 41.3388C37.9689 39.6632 37.9426 37.9851 37.9768 36.3095C38.0005 35.1469 38.1215 35.0022 39.1736 34.9812C40.9754 34.947 42.7772 34.9785 44.579 34.9864C45.0893 34.9864 45.5786 35.068 45.5733 35.7308C45.5681 36.3937 45.0657 36.4621 44.5633 36.4673C43.3033 36.4779 42.0407 36.4831 40.7808 36.4726C40.1153 36.4673 39.7786 36.7461 39.7944 37.4327C39.8496 40.2761 39.4288 40.3971 42.551 40.3471C43.2112 40.3366 43.882 40.3024 44.5264 40.405C44.7947 40.4471 45.1446 40.789 45.2156 41.0547C45.3392 41.5334 45.0025 41.8517 44.5107 41.8754C43.7321 41.9122 42.9508 41.8991 42.1696 41.9043C39.5261 41.9201 39.8128 41.6992 39.8259 44.1717C39.8391 46.4102 39.6629 46.2523 42.0223 46.2602C42.8035 46.2602 43.5848 46.255 44.3633 46.2786C44.8999 46.2944 45.526 46.2707 45.5996 47.0099C45.6759 47.7911 45.0052 47.8832 44.5028 47.8832C42.5852 47.8779 40.6677 47.8122 38.7527 47.728C38.0268 47.6964 37.9636 47.1151 37.961 46.5469C37.961 44.8109 37.961 43.0748 37.961 41.3362C37.9663 41.3362 37.9715 41.3362 37.9768 41.3362L37.9689 41.3388Z" fill="black"/>
<path d="M10.9022 15.9823C10.7759 16.4006 10.6944 16.7478 10.5681 17.0818C9.33971 20.333 8.11132 23.5815 6.86715 26.8274C6.67777 27.3245 6.48049 27.8348 5.815 27.9295C4.99958 28.0453 4.6024 27.8138 4.23677 26.8695C3.0873 23.9129 1.94571 20.9511 0.798868 17.9919C0.583177 17.4343 0.283313 16.9003 0.141273 16.3243C0.0702528 16.0349 0.199142 15.4536 0.367486 15.401C0.712065 15.2905 1.25392 15.3116 1.50907 15.522C1.84839 15.8035 2.04041 16.3006 2.20612 16.7373C3.0531 18.9757 3.86852 21.2273 4.69709 23.4737C4.82072 23.8103 4.93383 24.1523 5.08902 24.4758C5.15741 24.6205 5.37573 24.8441 5.42571 24.8204C5.61509 24.731 5.8413 24.5863 5.91759 24.4074C6.48838 23.0239 7.03813 21.6324 7.56683 20.233C7.96928 19.1677 8.29545 18.0735 8.73735 17.0266C8.96356 16.49 9.32656 15.9902 9.71322 15.551C9.85 15.3958 10.2709 15.3958 10.5207 15.4641C10.6891 15.5115 10.7864 15.8087 10.9048 15.9797L10.9022 15.9823Z" fill="black"/>
<path d="M27.9522 22.2661C27.9522 20.9483 27.9233 19.6278 27.9628 18.3126C27.9864 17.5393 28.0627 16.7528 28.2363 16.0005C28.2942 15.7454 28.7177 15.4061 28.9728 15.4087C29.2254 15.4087 29.6488 15.7638 29.6909 16.0163C29.8514 16.9554 29.9382 17.9155 29.9566 18.8703C29.9961 20.7273 29.9645 22.5844 29.9776 24.4414C29.9908 26.4353 29.9987 26.4353 31.9215 26.4458C32.7632 26.451 33.6049 26.4458 34.444 26.4537C35.0516 26.4616 35.7566 26.4353 35.8066 27.2586C35.8592 28.1082 35.1569 28.1529 34.5466 28.1582C32.7448 28.1687 30.9404 28.1476 29.1385 28.1529C28.3047 28.1529 27.9417 27.7504 27.9496 26.9377C27.9628 25.3805 27.9522 23.8233 27.9522 22.2635V22.2661Z" fill="black"/>
<path d="M18.1647 21.5326C18.1647 20.1569 18.1647 18.7838 18.1647 17.4081C18.1647 17.0504 18.1594 16.69 18.1831 16.3323C18.2199 15.7484 18.3962 15.2249 19.1037 15.2565C19.7982 15.288 19.9455 15.8299 19.9744 16.4033C19.9981 16.8216 19.9902 17.2398 19.9902 17.658C19.9981 20.049 19.9849 22.4401 20.0244 24.8284C20.0507 26.333 20.1559 26.4093 21.7052 26.4514C22.7836 26.4803 23.8621 26.4619 24.9406 26.4829C25.5271 26.4961 26.0532 26.6618 26.0006 27.3904C25.9585 27.9954 25.4824 28.1559 24.9695 28.1559C23.1124 28.1559 21.2528 28.1901 19.3983 28.1138C18.4014 28.0717 18.191 27.7902 18.1673 26.7328C18.1305 24.9994 18.1568 23.266 18.1568 21.5326H18.1621H18.1647Z" fill="black"/>
<path d="M14.8135 21.9322C14.8135 23.3657 14.8267 24.8019 14.8056 26.2355C14.8003 26.6458 14.7898 27.1009 14.611 27.4534C14.4847 27.7032 14.0665 27.9663 13.7982 27.9452C13.5272 27.9242 13.2326 27.598 13.0485 27.335C12.9301 27.1666 12.9722 26.872 12.9722 26.6353C12.9722 23.2868 12.9775 19.941 12.9828 16.5925C12.9828 16.3532 12.938 16.0822 13.038 15.8849C13.1564 15.6482 13.4062 15.3142 13.6009 15.3115C13.9008 15.3115 14.3847 15.4851 14.4689 15.7061C14.6767 16.2479 14.7688 16.8608 14.7846 17.4474C14.824 18.9414 14.7977 20.4355 14.7977 21.9296H14.8109L14.8135 21.9322Z" fill="black"/>
</svg>
