<svg width="93" height="28" viewBox="0 0 93 28" fill="none" xmlns="http://www.w3.org/2000/svg">
<path d="M27.6493 0.34535L24.5482 3.447H26.5839C26.5839 3.447 26.5839 5.65242 26.5839 6.61757C26.5839 6.73352 26.5839 6.84955 26.5839 6.9655V14.0829C26.5798 17.0506 25.4174 19.9018 23.3399 22.0398C21.2774 24.1963 18.4441 25.4663 15.4474 25.5779C14.5304 25.6203 13.6116 25.5464 12.7134 25.3577C10.3034 24.8833 8.10669 23.666 6.43712 21.8799C4.76763 20.0939 3.711 17.8306 3.41828 15.4136C3.20086 13.6018 3.42342 11.7647 4.0674 10.0552C4.71128 8.34579 5.75801 6.81338 7.1205 5.58559C9.85842 3.15019 13.0726 2.19494 16.7152 2.70012C18.5221 2.95124 20.2393 3.63691 21.717 4.69716C22.653 5.35742 23.4842 6.15246 24.1831 7.05593C24.2248 7.11095 24.2546 7.18558 24.3399 7.20729C24.3419 7.18235 24.3419 7.15741 24.3399 7.13256C24.3399 6.11439 24.3399 5.09621 24.3399 4.07993C24.3396 4.02491 24.3261 3.97075 24.3006 3.92192C24.2751 3.87308 24.2383 3.83091 24.1931 3.79893C21.6593 1.5026 18.3556 0.219409 14.9217 0.197896C14.006 0.188186 13.0918 0.272528 12.1937 0.44949C10.9221 0.687852 9.69098 1.10346 8.53706 1.68385C6.88547 2.51526 5.41713 3.66347 4.21723 5.06184C3.01733 6.46012 2.10977 8.08067 1.54728 9.82936C1.22296 10.8294 1.01915 11.864 0.940235 12.9115C0.944424 12.9879 0.934334 13.0646 0.91044 13.1375C0.894543 13.4127 0.884644 13.6918 0.884644 13.9729C0.884644 14.3935 0.903775 14.809 0.942138 15.2191C0.958035 15.3351 0.973934 15.4529 0.985833 15.5709C1.08731 16.4731 1.27798 17.3632 1.55527 18.2285L1.56717 18.2619C1.59887 18.3581 1.63067 18.4584 1.66436 18.5508C1.67826 18.5842 1.69016 18.6196 1.70206 18.653L1.78535 18.8712L1.83505 19.0009C1.86674 19.0815 1.90044 19.1621 1.93423 19.2426C1.94613 19.2741 1.95803 19.3036 1.97193 19.3351C2.64142 20.8992 3.59125 22.3303 4.77534 23.5591C4.81304 23.6004 4.85074 23.6378 4.89043 23.6771C4.93013 23.7164 5.00152 23.7871 5.05711 23.8422L5.19 23.9719C5.27729 24.0545 5.36458 24.137 5.45387 24.2177L5.57296 24.3198C5.64635 24.3847 5.71975 24.4496 5.79514 24.5164L5.87253 24.5832C6.7106 25.2753 7.62664 25.869 8.60255 26.3523C9.95304 27.0301 11.4104 27.4749 12.9119 27.6673C13.2631 27.7125 13.6142 27.744 13.9654 27.7774C14.2392 27.7931 14.5149 27.8029 14.7927 27.8029C15.1122 27.8029 15.4296 27.7911 15.7451 27.7695C16.1856 27.7243 16.6279 27.685 17.0665 27.6181L17.1756 27.6024C18.5512 27.3819 19.883 26.9473 21.1218 26.315C23.911 24.9231 26.1425 22.6369 27.4528 19.8285C28.3196 17.9987 28.7624 16 28.7485 13.9788C28.7485 12.5695 28.7623 3.4529 28.7623 3.4529L30.7702 3.43919L27.6493 0.34535Z" fill="#3E3E3E"/>
<path d="M6.79688 15.9336V19.6308C7.05561 19.959 7.33319 20.272 7.62819 20.5685C8.18078 21.1224 8.79667 21.6105 9.4635 22.023V15.9296L6.79688 15.9336Z" fill="#3E3E3E"/>
<path d="M10.084 13.5653V22.3653C10.9266 22.8045 11.8267 23.1259 12.7584 23.3206V13.5653H10.084Z" fill="#3E3E3E"/>
<path d="M13.3712 11.161V23.4421C14.0127 23.542 14.663 23.5763 15.3116 23.5443C15.5596 23.5306 15.8037 23.5109 16.0456 23.4834V11.161H13.3712Z" fill="#3E3E3E"/>
<path d="M16.6583 8.71979V23.3931C17.5868 23.2392 18.4891 22.9573 19.3387 22.5557V8.71979H16.6583Z" fill="#3E3E3E"/>
<path d="M19.938 6.34741V22.2374C20.7981 21.7453 21.5837 21.1353 22.2712 20.4251C22.3883 20.3053 22.5014 20.1814 22.6125 20.0576V6.34741H19.938Z" fill="#3E3E3E"/>
<path d="M37.9253 9.84729C37.3535 9.61435 36.7401 9.49803 36.1219 9.50526C35.2197 9.49251 34.33 9.71554 33.5426 10.152C32.7823 10.5816 32.1598 11.2152 31.7471 11.98C31.3003 12.8201 31.0758 13.7587 31.0943 14.7083C31.0764 15.6614 31.301 16.6037 31.7471 17.4483C32.1578 18.2165 32.7806 18.8532 33.5426 19.2842C34.3298 19.7213 35.2195 19.945 36.1219 19.9328C36.7612 19.9392 37.3952 19.8161 37.9849 19.5712C38.5412 19.3353 39.0285 18.9641 39.4015 18.4921L39.5642 18.2955V19.8031H41.6573V5.58582H39.4749V11.06L39.3142 10.8635C38.9402 10.4194 38.4638 10.0709 37.9253 9.84729ZM39.5126 14.7083C39.5251 15.3166 39.3846 15.9185 39.1039 16.4596C38.8497 16.9482 38.4629 17.3566 37.9868 17.639C37.5034 17.907 36.9587 18.0477 36.4046 18.0477C35.8506 18.0477 35.3058 17.907 34.8223 17.639C34.3471 17.3563 33.9609 16.9479 33.7073 16.4596C33.4265 15.9185 33.2861 15.3166 33.2986 14.7083C33.2863 14.1006 33.4268 13.4994 33.7073 12.9588C33.9609 12.4705 34.3471 12.062 34.8223 11.7795C35.3065 11.5129 35.8518 11.3743 36.4057 11.377C36.9596 11.3798 37.5034 11.5238 37.9849 11.7952C38.4609 12.0775 38.8478 12.486 39.1019 12.9745C39.3805 13.5102 39.5216 14.1057 39.5126 14.7083Z" fill="#3E3E3E"/>
<path d="M60.3694 10.3334C59.5098 9.72997 58.4827 9.40451 57.4289 9.40165H57.3918C56.5227 9.37852 55.6583 9.53035 54.8501 9.84782C54.2342 10.0913 53.6573 10.4224 53.1378 10.8307L54.0742 12.2066C54.4894 11.8832 54.9596 11.6369 55.4632 11.4793C56.0239 11.2973 56.6112 11.2051 57.2014 11.2061C58.0657 11.2061 58.4094 11.3162 58.8739 11.7407C59.3375 12.1653 59.3594 12.7353 59.3594 13.5098V13.7614H56.5817C55.1157 13.7614 54.0286 14.0464 53.3541 14.6086C53.0245 14.8796 52.7621 15.2217 52.5867 15.6088C52.4113 15.9958 52.3276 16.4174 52.3422 16.8415C52.3349 17.4072 52.4964 17.9625 52.8065 18.4376C53.1306 18.9224 53.5876 19.3056 54.1238 19.5422C54.7569 19.8181 55.4432 19.9523 56.1333 19.9353C56.8063 19.9526 57.4746 19.8294 58.0962 19.5737C58.4417 19.4106 58.7616 19.1973 59.0443 18.9408C59.2109 18.7842 59.3623 18.6117 59.4946 18.4258L59.5917 18.2862V19.7958H61.5127V13.4666C61.5041 11.9393 61.1214 10.8857 60.3694 10.3334ZM59.3537 16.5879C59.1662 17.1206 58.7978 17.5717 58.3104 17.8636C57.804 18.1614 57.2242 18.3145 56.6359 18.3058C56.0953 18.3365 55.5603 18.1901 55.1119 17.8892C54.9311 17.7566 54.7854 17.5825 54.6883 17.3818C54.5903 17.1811 54.5427 16.96 54.5503 16.7373C54.5503 15.7368 55.2909 15.2297 56.7483 15.2297H59.3594L59.3537 16.5879Z" fill="#3E3E3E"/>
<path d="M50.5306 10.3335C49.67 9.72876 48.6413 9.4032 47.5863 9.40187H47.5486C46.6783 9.37788 45.8122 9.52972 45.0031 9.84804C44.3867 10.0905 43.8097 10.4217 43.2908 10.8308L44.2253 12.2067C44.6404 11.8836 45.1108 11.6373 45.6141 11.4794C46.179 11.2963 46.7697 11.2041 47.364 11.2062C48.2172 11.2062 48.5763 11.3203 49.0366 11.7409C49.4969 12.1616 49.5207 12.7355 49.5207 13.51V13.7616H46.7431C45.2768 13.7616 44.1896 14.0466 43.515 14.6087C43.1856 14.8797 42.923 15.2218 42.7477 15.6089C42.5722 15.9959 42.4886 16.4176 42.5032 16.8416C42.4959 17.4074 42.6573 17.9626 42.9675 18.4377C43.2921 18.9222 43.7489 19.3053 44.2848 19.5424C44.9176 19.8179 45.6037 19.9521 46.2946 19.9356C46.9672 19.953 47.6357 19.8297 48.2568 19.5738C48.603 19.4109 48.9227 19.1975 49.2052 18.9409C49.3721 18.7844 49.523 18.6119 49.6556 18.4259L49.7529 18.2864V19.796H51.6754V13.4667C51.6754 11.9394 51.2785 10.8858 50.5306 10.3335ZM49.5148 16.5881C49.3282 17.1212 48.9589 17.5726 48.4711 17.8638C47.9646 18.1626 47.3841 18.3157 46.7947 18.3061C46.2556 18.3364 45.7215 18.1899 45.2748 17.8893C45.0938 17.7569 44.9478 17.5829 44.8497 17.3823C44.7516 17.1817 44.7041 16.9603 44.7114 16.7375C44.7114 15.737 45.4514 15.2298 46.9117 15.2298H49.5207L49.5148 16.5881Z" fill="#3E3E3E"/>
<path d="M68.6891 14.2847C68.1674 14.0352 67.6258 13.8294 67.0698 13.6694C66.749 13.5712 66.413 13.4729 66.1198 13.4001C65.859 13.3393 65.602 13.2631 65.3497 13.1721C65.0165 13.011 64.7548 12.8498 64.7548 12.3977C64.7529 12.2133 64.7986 12.0315 64.8871 11.8694C64.9766 11.7074 65.1051 11.5706 65.2631 11.4719C65.5896 11.2478 66.0684 11.1338 66.6891 11.1338C67.6115 11.155 68.5072 11.4412 69.2688 11.9574L70.0322 10.3849C69.5601 10.0702 69.0422 9.82832 68.4968 9.66745C67.9152 9.50828 67.3145 9.4269 66.711 9.42566C65.4449 9.42566 64.4873 9.69496 63.8657 10.2237C63.5173 10.5018 63.2355 10.853 63.0404 11.252C62.8452 11.6511 62.7414 12.088 62.7367 12.5314C62.7367 13.239 63.3326 14.3339 64.136 14.7368C64.9566 15.0964 65.7962 15.4138 66.6491 15.6882C67.0841 15.8395 67.4297 15.9574 67.5382 16.0085C67.9113 16.1796 68.2978 16.5707 68.2769 16.9559C68.235 17.7559 67.6572 18.1628 66.5625 18.1628C65.9504 18.1496 65.344 18.0428 64.7643 17.8464C64.1817 17.6059 63.6334 17.29 63.1336 16.9068L62.0903 18.4655C62.7576 18.942 63.484 19.3324 64.2512 19.6272C64.9156 19.8445 65.6115 19.9554 66.3121 19.9555C67.6134 19.9555 68.5225 19.7059 69.1755 19.1693C69.9684 18.5245 70.3235 17.8326 70.3235 16.9933C70.3235 16.2071 70.1588 15.5564 69.8733 15.2007C69.5382 14.8268 69.1365 14.5164 68.6891 14.2847Z" fill="#3E3E3E"/>
<path d="M72.451 5.13896C72.2768 5.13468 72.1035 5.16657 71.9426 5.23254C71.7818 5.2986 71.6361 5.39722 71.5162 5.52221C71.3924 5.64862 71.2953 5.79827 71.2315 5.96228C71.1668 6.12639 71.1363 6.30155 71.1411 6.47746C71.1363 6.65376 71.1668 6.82929 71.2306 6.99379C71.2953 7.15818 71.3924 7.30811 71.5162 7.43472C71.6361 7.55894 71.7808 7.65708 71.9407 7.72305C72.1016 7.78902 72.2739 7.82139 72.4471 7.81805C72.6223 7.82348 72.7975 7.79121 72.9593 7.72334C73.1221 7.65547 73.2668 7.55371 73.3857 7.42491C73.6332 7.15142 73.7656 6.79388 73.7541 6.42634C73.7599 6.25614 73.7303 6.08651 73.6666 5.9283C73.6037 5.76999 73.5076 5.62635 73.3857 5.5065C73.2629 5.38599 73.1163 5.29127 72.9564 5.22816C72.7955 5.16495 72.6233 5.13459 72.451 5.13896Z" fill="#3E3E3E"/>
<path d="M73.4401 9.67456H71.4382V19.7699H73.4401V9.67456Z" fill="#3E3E3E"/>
<path d="M79.5828 18.085C79.3934 18.0944 79.204 18.0611 79.0298 17.9875C78.8556 17.914 78.7004 17.8021 78.5767 17.6605C78.3254 17.3121 78.2035 16.8885 78.2311 16.4615V11.2349H80.9317V9.59558H78.2311V6.35828H76.1083V9.59558H74.7852V11.2349H76.1083V16.5263C76.095 17.4537 76.4396 18.3512 77.0726 19.0345C77.6067 19.6104 78.4615 19.9406 79.4001 19.9406C79.7751 19.9427 80.1473 19.8863 80.5053 19.7735C80.986 19.5693 81.4391 19.3051 81.8522 18.9872L81.0402 17.5445C80.6395 17.8982 80.1197 18.0909 79.5828 18.085Z" fill="#3E3E3E"/>
<path d="M90.2502 9.67485L87.0593 17.5136L83.8856 9.67485H81.6791L85.8552 20.0513C85.8675 20.3575 85.799 20.6617 85.6572 20.9338C85.4211 21.4881 84.7043 21.9363 84.2683 21.9363C83.9408 21.9359 83.6162 21.869 83.3154 21.7397C83.0508 21.6259 82.8071 21.4706 82.592 21.2798L81.7524 22.9034C82.0579 23.218 82.4263 23.4658 82.8338 23.6307C83.3088 23.803 83.8095 23.896 84.3159 23.9058C85.0613 23.8785 85.7752 23.6013 86.3416 23.1196C87.026 22.5299 87.4506 21.4213 87.4963 21.2974C87.5581 21.1304 87.621 20.9574 87.6943 20.7747L92.2721 9.66895L90.2502 9.67485Z" fill="#3E3E3E"/>
</svg>
