<svg width="50" height="50" viewBox="0 0 50 50" fill="none" xmlns="http://www.w3.org/2000/svg">
<path d="M22.1683 0.0929145C23.3071 0.0571158 24.3252 -0.00217587 25.3432 6.15411e-05C26.2449 0.00229896 27.1521 0.0201982 28.0449 0.127594C28.8481 0.223803 29.6357 0.450901 30.4311 0.620945C31.005 0.744002 31.5845 0.844686 32.1494 1.00019C32.513 1.09975 32.8542 1.28434 33.2077 1.42306C33.4986 1.53717 33.7917 1.64904 34.0881 1.74748C34.9876 2.0473 35.84 2.45674 36.6656 2.9143C37.3771 3.30808 38.0607 3.75444 38.7487 4.19074C39.2599 4.51517 39.7667 4.8463 40.2567 5.20093C40.5408 5.40677 40.7869 5.6652 41.0532 5.89565C41.5644 6.33642 42.1148 6.73916 42.5836 7.22132C43.191 7.84444 43.7571 8.51231 44.2997 9.1936C44.8009 9.82231 45.2607 10.4835 45.7137 11.148C46.046 11.6346 46.3547 12.1392 46.6445 12.6515C47.0316 13.3373 47.4198 14.0253 47.7498 14.739C48.025 15.3353 48.2118 15.973 48.4456 16.5883C48.5944 16.9809 48.77 17.3624 48.9099 17.7584C48.9725 17.9374 48.9591 18.1433 49.0106 18.329C49.1739 18.9141 49.3864 19.4879 49.5117 20.0797C49.6068 20.5261 49.5419 21.0083 49.6426 21.4524C50.0096 23.0689 49.863 24.7045 49.8809 26.3344C49.8876 26.8904 49.8708 27.4476 49.8339 28.0013C49.8205 28.2004 49.6941 28.3895 49.6605 28.5898C49.6091 28.8952 49.6035 29.2084 49.561 29.516C49.533 29.7163 49.4703 29.9121 49.4278 30.1112C49.3764 30.3551 49.3361 30.6023 49.2824 30.8462C49.2444 31.0196 49.1963 31.1907 49.1437 31.3608C49.1057 31.4816 49.0441 31.5957 49.0094 31.7165C48.8953 32.1081 48.7991 32.5052 48.6772 32.8945C48.5049 33.4483 48.3595 34.0166 48.1257 34.5435C47.7632 35.3579 47.3403 36.1455 46.9354 36.9409C46.6892 37.4231 46.4621 37.9209 46.1657 38.3706C45.7876 38.9434 45.3625 39.4871 44.9306 40.0218C44.4384 40.6315 43.8567 41.1786 43.4237 41.8252C43.0445 42.3935 42.5858 42.8678 42.0902 43.3097C41.5521 43.7896 40.9704 44.2203 40.3988 44.66C39.7197 45.1824 39.0339 45.697 38.3426 46.2038C38.2094 46.3011 38.026 46.3269 37.8828 46.4141C37.3637 46.7274 36.8648 47.0786 36.3311 47.3639C36.0067 47.5384 35.6286 47.61 35.2818 47.7454C35.0625 47.8304 34.8556 47.9467 34.6441 48.0508C34.3499 48.194 34.0657 48.3629 33.7603 48.477C33.3833 48.6191 32.9884 48.7108 32.6047 48.8372C32.1102 49.0017 31.6214 49.1852 31.1269 49.3496C31.0206 49.3854 30.8998 49.3776 30.7846 49.3888C30.6481 49.4011 30.4881 49.3686 30.3774 49.429C29.8247 49.7289 29.2038 49.6159 28.6255 49.7456C26.8702 50.1394 25.0937 49.9627 23.3239 49.947C23.1505 49.9459 22.9726 49.9246 22.8037 49.9526C22.1549 50.0611 21.5664 49.7702 20.9467 49.6908C20.2553 49.6024 19.5662 49.4984 18.8804 49.3776C18.7115 49.3474 18.5683 49.1952 18.3994 49.1449C17.9351 49.005 17.4585 48.9044 16.9965 48.7578C16.6139 48.6359 16.2459 48.4658 15.8688 48.3249C15.569 48.2119 15.2636 48.1168 14.9649 48.0004C14.6987 47.8975 14.4291 47.7957 14.1807 47.6592C13.5934 47.3359 13.0318 46.9656 12.4333 46.6647C11.5283 46.2094 10.7183 45.6187 9.92627 44.9978C9.54144 44.6969 9.15436 44.3982 8.78295 44.0805C8.17214 43.5569 7.54678 43.0457 6.97848 42.4774C6.48737 41.9863 6.04883 41.4381 5.62261 40.8877C5.13037 40.2534 4.66387 39.5978 4.2108 38.9344C3.78569 38.3136 3.36841 37.6848 2.99364 37.0338C2.70502 36.5315 2.47904 35.9922 2.24411 35.462C2.03491 34.9921 1.84585 34.5122 1.65902 34.0334C1.48674 33.5926 1.32565 33.1474 1.16567 32.7021C0.9878 32.2088 0.798738 31.7177 0.651069 31.2154C0.583947 30.9883 0.654425 30.7187 0.574997 30.4994C0.340068 29.8517 0.430684 29.1424 0.238266 28.5148C-0.082803 27.4632 0.0603914 26.4083 0.0178805 25.3567C-0.0257491 24.2704 0.0178804 23.1786 0.069341 22.0912C0.0894777 21.6638 0.239385 21.2432 0.313219 20.817C0.422853 20.1871 0.484382 19.5461 0.629814 18.9252C0.736091 18.4699 0.948645 18.0403 1.1075 17.5962C1.20707 17.3165 1.29544 17.0335 1.3883 16.7516C1.885 15.2413 2.50701 13.787 3.36729 12.4446C3.96133 11.5172 4.54081 10.5797 5.16617 9.67353C5.45368 9.25625 5.83292 8.90162 6.17189 8.52014C6.61937 8.0156 7.03665 7.47974 7.52441 7.01771C8.12068 6.45165 8.76394 5.93257 9.41055 5.42356C10.1209 4.8642 10.8335 4.30037 11.5931 3.8115C12.2812 3.36849 13.024 3.00603 13.759 2.64133C14.4973 2.27551 15.2502 1.93766 16.0076 1.61436C16.3409 1.47228 16.7012 1.39509 17.0491 1.28769C17.4574 1.1624 17.8601 1.01137 18.2763 0.916283C19.2943 0.68583 20.3191 0.481106 21.3404 0.266314C21.6537 0.20031 21.9658 0.136544 22.1661 0.0951519L22.1683 0.0929145ZM38.9489 23.3128C39.063 23.635 39.2521 23.9303 39.2599 24.229C39.2935 25.5502 39.2789 26.8737 39.2655 28.196C39.2655 28.3 39.1693 28.451 39.0764 28.4958C38.8046 28.6267 38.4914 28.6759 38.2341 28.8269C37.6378 29.1771 37.0818 29.5955 36.4788 29.9322C35.859 30.279 35.2258 30.6359 34.5557 30.8529C33.889 31.0677 33.1864 30.8764 32.494 30.7724C31.7008 30.6538 30.8998 30.7556 30.1805 31.174C29.2721 31.7031 28.5304 32.437 27.7753 33.1552C27.4285 33.4852 27.0514 33.785 26.6722 34.077C25.7705 34.7717 24.7872 35.3266 23.7513 35.7965C22.5475 36.3413 21.2767 36.6366 19.9723 36.7049C18.933 36.7597 17.8881 36.631 16.9059 36.2305C15.8409 35.7965 14.9605 35.1375 14.4257 34.0871C13.8395 32.9348 14.0196 31.7993 15.116 31.0084C15.2289 30.9267 15.3307 30.8305 15.4337 30.7444C15.1339 30.618 14.8777 30.4513 14.6014 30.4043C13.3148 30.185 12.0596 30.2857 10.904 30.9491C9.96319 31.4883 9.29532 32.2826 8.9351 33.3051C8.63752 34.1508 8.61739 35.0246 8.8277 35.8972C9.1622 37.2855 10.056 38.2912 11.1143 39.1705C11.2005 39.2421 11.4063 39.1683 11.5562 39.1615C11.5137 39.0452 11.4992 38.9031 11.4231 38.817C11.2877 38.6637 11.1043 38.5552 10.9611 38.4098C9.93075 37.3649 9.21701 36.1992 9.28973 34.6397C9.32888 33.8007 9.48103 33.0355 10.0124 32.3833C10.517 31.7646 11.1132 31.2478 11.9075 31.0375C12.3013 30.9334 12.7051 30.8395 13.109 30.8171C13.552 30.7925 13.9995 30.8563 14.5119 30.8853C13.5554 31.7322 13.3059 32.8464 13.7109 33.8913C14.0118 34.6688 14.5611 35.2774 15.2234 35.7976C16.2347 36.593 17.3959 37.0617 18.6432 37.1837C20.0685 37.3224 21.4926 37.1904 22.882 36.7351C24.116 36.3301 25.3029 35.8256 26.3948 35.1409C27.0951 34.7024 27.7037 34.1128 28.3346 33.5691C28.8917 33.0892 29.4074 32.5612 29.969 32.0857C30.902 31.2959 31.9883 31.1952 33.1216 31.5062C34.059 31.7646 34.9003 32.2602 35.7013 32.7871C36.9106 33.5825 38.1345 34.3298 39.5676 34.6274C40.0833 34.7348 40.6214 34.7471 41.1516 34.7594C41.2646 34.7617 41.3821 34.5782 41.4973 34.4797C41.3821 34.3914 41.2781 34.2538 41.1494 34.2247C40.8955 34.1665 40.6281 34.1576 40.3663 34.1464C39.4255 34.1061 38.5685 33.747 37.762 33.332C36.6723 32.7715 35.6487 32.0846 34.596 31.4514C34.6341 31.4268 34.6754 31.3787 34.7224 31.3731C35.5447 31.2791 36.1767 30.7623 36.8648 30.383C37.5091 30.0273 38.1054 29.5843 38.7487 29.2274C39.355 28.8929 40.0251 28.8929 40.5968 29.2655C41.1818 29.6458 41.6808 30.1559 42.2312 30.5911C42.8689 31.0957 43.6094 31.3183 44.4183 31.2769C44.5145 31.2713 44.6331 31.1035 44.68 30.986C44.7002 30.9368 44.5749 30.7802 44.4876 30.7477C44.331 30.6896 44.1543 30.6705 43.9853 30.6672C43.5088 30.6594 43.1049 30.4692 42.7324 30.1929C41.8978 29.5731 41.2132 28.7352 40.1526 28.441C40.0665 28.4175 39.9815 28.2161 39.977 28.0953C39.9479 27.3223 39.9088 26.5459 39.9412 25.774C39.9569 25.4059 39.8741 24.9886 40.1795 24.6709C40.3719 24.4718 40.5509 24.2592 40.7545 24.0702C41.1304 23.7211 41.6025 23.5858 42.0969 23.5701C42.701 23.5511 43.2347 24.1586 43.2369 24.8275C43.2403 25.9295 43.2302 27.0314 43.2436 28.1333C43.247 28.4175 43.3096 28.7027 43.6038 28.8594C43.8846 29.0081 44.1386 28.9119 44.378 28.7665C44.4462 28.7251 44.4787 28.6222 44.5279 28.5472C44.4753 28.5126 44.4261 28.4645 44.3679 28.4466C43.8992 28.3034 43.8645 28.2609 43.8645 27.763C43.8645 26.6264 43.8824 25.4887 43.8511 24.3532C43.8444 24.0925 43.7146 23.8028 43.5591 23.5847C43.0434 22.8631 42.267 23.0197 41.57 23.1316C40.9424 23.2323 40.4614 23.6674 40.0307 24.1943C39.9692 23.9863 39.9143 23.8062 39.8629 23.6238C39.6917 23.0108 39.4702 22.9358 38.9511 23.3095L38.9489 23.3128ZM33.0981 18.8223C33.2413 18.4297 33.0354 18.2585 32.843 18.1634C32.061 17.7719 31.2209 17.6096 30.3639 17.8043C29.0394 18.1041 28.0505 18.9398 27.1779 19.9354C27.057 20.073 26.9474 20.2263 26.8065 20.3393C26.3344 20.7152 25.7728 20.5429 25.2447 20.5597C25.1966 20.5608 25.1116 20.4344 25.1004 20.3583C25.0601 20.0988 25.0534 19.8336 25.0188 19.5741C24.955 19.1009 24.9013 18.6254 24.8028 18.16C24.7234 17.7875 24.4102 17.481 24.1876 17.5168C23.673 17.5985 23.1304 17.9732 23.0733 18.5583C23.0454 18.8425 23.0331 19.1277 23.0006 19.4119C22.9816 19.5864 23.0051 19.8012 22.7825 19.8303C22.7165 19.0147 22.6952 18.207 22.5699 17.4161C22.4871 16.8892 22.3025 16.3645 22.0788 15.8779C21.8998 15.4886 21.5966 15.4382 21.2084 15.6329C20.4455 16.0155 19.8582 16.586 19.6064 17.4116C19.395 18.103 19.2597 18.8178 19.1142 19.5271C19.0214 19.9824 18.9565 20.4456 18.9106 20.9087C18.8994 21.0183 19.0147 21.1403 19.0706 21.2577C19.1813 21.1772 19.3592 21.1168 19.3905 21.0116C19.508 20.6246 19.5751 20.2218 19.6646 19.8269C19.8481 19.0226 19.9823 18.2026 20.2363 17.4206C20.4488 16.7673 20.9276 16.2985 21.6302 16.1162C21.9736 16.878 22.0922 17.6712 22.0978 18.4856C22.1012 19.0539 22.1068 19.6222 22.0967 20.1905C22.0821 21.0094 22.0285 21.0161 22.9883 20.9758C23.1393 20.9691 23.3754 20.7733 23.4089 20.6279C23.504 20.2095 23.4984 19.7687 23.5644 19.3414C23.6159 19.0091 23.702 18.6814 23.805 18.3614C23.834 18.2697 23.9739 18.2126 24.0623 18.141C24.126 18.2227 24.2368 18.2988 24.2468 18.386C24.3296 19.1221 24.4046 19.8605 24.4583 20.5999C24.4863 20.9915 24.5981 21.1291 24.9997 21.1324C25.4047 21.1358 25.8108 21.138 26.2158 21.1324C26.7516 21.1257 27.17 20.8975 27.5112 20.4791C28.3693 19.4264 29.3493 18.5259 30.7544 18.3099C31.2276 18.2372 31.7243 18.1835 32.1886 18.4778C32.4537 18.6456 32.7837 18.7104 33.0969 18.8268L33.0981 18.8223ZM20.4746 28.3593C20.5383 28.46 20.5741 28.5305 20.6222 28.5909C20.9064 28.9444 21.3281 29.0384 21.6156 28.8157C21.8081 28.6669 21.8002 28.5025 21.5675 28.4544C21.1827 28.3761 21.1223 28.1356 21.1234 27.8011C21.1301 25.5402 21.1234 23.2792 21.1312 21.0195C21.1312 20.7588 21.0563 20.6391 20.7878 20.638C20.516 20.638 20.4175 20.7711 20.4298 21.0262C20.4365 21.1761 20.4309 21.3271 20.4309 21.4781C20.4309 22.1203 20.4309 22.7635 20.4309 23.4403C20.2564 23.3464 20.139 23.2412 20.0058 23.2188C19.6266 23.154 19.2429 23.0857 18.8603 23.0846C18.0761 23.0812 17.4843 23.4493 17.0133 24.0758C16.4069 24.8846 16.2872 25.7728 16.3835 26.754C16.4539 27.4744 16.7314 28.0371 17.2628 28.5047C17.7438 28.9287 18.3155 28.969 18.9117 28.9556C19.4923 28.941 19.9835 28.6938 20.4746 28.3593ZM34.2772 26.8546C34.7146 26.7763 35.1263 26.7003 35.5391 26.6287C36.3971 26.481 37.1992 26.1767 37.7318 25.4708C38.3627 24.634 38.1736 23.4001 36.9363 23.1405C36.6488 23.0801 36.3457 23.0879 36.0492 23.0801C34.7918 23.0432 33.9841 23.9807 33.672 24.9327C33.4471 25.6173 33.4258 26.3501 33.5746 27.0705C33.7234 27.791 34.0948 28.3615 34.7638 28.6815C35.5928 29.0775 36.4687 29.0428 37.3078 28.7475C37.7608 28.5875 38.0707 28.3157 37.9723 27.7395C37.3402 28.2967 36.6175 28.4343 35.8288 28.3761C35.1308 28.3246 34.3231 27.5784 34.2783 26.8546H34.2772ZM23.1483 26.8546C23.5678 26.7763 23.9683 26.7036 24.3677 26.6275C25.2101 26.4676 26.0099 26.1812 26.5715 25.51C27.2483 24.7022 27.019 23.3945 25.8533 23.1484C25.5546 23.0857 25.2403 23.0857 24.9326 23.079C23.6909 23.0544 22.8429 23.9907 22.5218 24.992C22.3327 25.5815 22.2813 26.1946 22.3808 26.8077C22.5218 27.6747 22.9189 28.375 23.7613 28.7408C24.3956 29.016 25.0646 29.0048 25.7247 28.8728C26.0043 28.8168 26.2851 28.6938 26.5279 28.5416C26.7639 28.394 26.934 28.1613 26.8378 27.7619C26.1789 28.3291 25.4517 28.4231 24.6787 28.3705C24.003 28.3246 23.2132 27.5796 23.1483 26.8535V26.8546ZM31.1985 23.2065C31.8037 23.9605 31.9615 24.8466 31.9458 25.7281C31.929 26.6488 31.5285 27.4464 30.8316 28.1054C30.4333 28.4812 29.2732 28.4376 28.9521 27.9241C28.7373 27.5818 28.6478 27.2384 28.6411 26.8703C28.6221 25.7348 28.6311 24.5982 28.6378 23.4616C28.6389 23.2255 28.6266 23.0656 28.3134 23.0689C28.0202 23.0723 28.0046 23.2188 28.0057 23.4426C28.0113 24.7291 28.0102 26.0167 28.0079 27.3032C28.0079 27.6993 28.15 28.0326 28.414 28.3213C29.2285 29.2118 30.8495 29.2151 31.7299 28.0036C32.7692 26.5727 32.9303 25.0401 32.089 23.4437C31.8854 23.0566 31.618 22.9783 31.1974 23.2065H31.1985ZM13.4558 23.9471C13.3506 23.7111 13.2477 23.4873 13.1504 23.2602C13.0307 22.9783 12.8293 23.0533 12.6403 23.1517C12.4501 23.2513 12.3908 23.4168 12.5206 23.6026C12.7622 23.9505 12.7902 24.3431 12.7823 24.7436C12.7622 25.7717 12.7353 26.7987 12.7152 27.8268C12.7107 28.0416 12.7141 28.2575 12.7286 28.4723C12.7443 28.6971 12.7376 28.931 13.0844 28.931C13.4234 28.931 13.4849 28.7598 13.4826 28.4712C13.4737 27.3692 13.4782 26.2673 13.4793 25.1654C13.4804 24.0713 14.5633 23.3374 15.5377 23.8028C15.861 23.9572 15.9561 23.7223 16.0176 23.5757C16.0568 23.4851 15.8901 23.1942 15.7749 23.1685C15.0936 23.0119 14.4101 22.938 13.8708 23.55C13.7455 23.6921 13.5968 23.8129 13.4569 23.946L13.4558 23.9471ZM8.29967 25.7225C9.00558 25.7225 9.7126 25.7113 10.4185 25.7281C10.7027 25.7348 10.8224 25.6118 10.8335 25.3522C10.8503 24.964 10.7306 24.8186 10.4051 24.8175C9.07382 24.8175 7.74256 24.8175 6.41129 24.8175C5.8139 24.8175 5.82509 24.8175 5.82509 25.4048C5.82509 25.6476 5.90452 25.7303 6.14728 25.7259C6.86437 25.7136 7.58258 25.7214 8.30079 25.7214L8.29967 25.7225ZM8.31757 21.8249C7.60048 21.8249 6.88339 21.8216 6.16742 21.8294C6.06338 21.8305 5.87655 21.873 5.86872 21.92C5.83516 22.1326 5.80831 22.3664 5.86984 22.5633C5.89893 22.6539 6.13833 22.7221 6.28376 22.7232C7.67096 22.7356 9.05816 22.7199 10.4454 22.7378C10.7966 22.7423 10.8347 22.5029 10.8179 22.297C10.8011 22.0979 10.8078 21.807 10.433 21.8182C9.72826 21.8406 9.02236 21.8249 8.31757 21.8249ZM10.7295 28.0897C9.17338 28.0897 7.63292 28.0863 6.09246 28.0975C6.00409 28.0975 5.86984 28.1993 5.83516 28.2855C5.67742 28.6714 5.86089 28.9231 6.28152 28.9231C7.64858 28.9231 9.01564 28.9231 10.3838 28.9231C10.7094 28.9231 10.8917 28.7027 10.8302 28.3761C10.8134 28.2877 10.772 28.2049 10.7306 28.0875L10.7295 28.0897Z" fill="black"/>
<path d="M38.949 23.3127C39.4681 22.9379 39.6896 23.014 39.8608 23.6271C39.9111 23.8083 39.967 23.9884 40.0286 24.1976C40.4593 23.6707 40.9403 23.2366 41.5679 23.1348C42.2649 23.0229 43.0412 22.8652 43.557 23.5879C43.7125 23.806 43.8422 24.0958 43.8489 24.3565C43.8803 25.4919 43.8624 26.6297 43.8624 27.7663C43.8624 28.263 43.897 28.3055 44.3658 28.4498C44.424 28.4677 44.4732 28.5169 44.5258 28.5505C44.4765 28.6254 44.4452 28.7272 44.3759 28.7698C44.1365 28.9152 43.8825 29.0114 43.6017 28.8626C43.3064 28.706 43.2448 28.4207 43.2415 28.1366C43.2281 27.0346 43.2381 25.9327 43.2348 24.8308C43.2325 24.1618 42.6989 23.5543 42.0948 23.5734C41.6003 23.589 41.1282 23.7244 40.7524 24.0734C40.5499 24.2614 40.3698 24.4739 40.1773 24.6742C39.8719 24.9919 39.9547 25.4092 39.9391 25.7772C39.9066 26.5491 39.9458 27.3255 39.9749 28.0985C39.9793 28.2205 40.0644 28.4207 40.1505 28.4442C41.211 28.7384 41.8957 29.5763 42.7302 30.1961C43.1016 30.4724 43.5055 30.6626 43.9832 30.6704C44.1521 30.6738 44.3289 30.6928 44.4855 30.751C44.5727 30.7834 44.6969 30.9389 44.6779 30.9893C44.632 31.1067 44.5135 31.2757 44.4161 31.2801C43.6073 31.3226 42.8678 31.0989 42.2291 30.5944C41.6787 30.1592 41.1786 29.6491 40.5946 29.2687C40.023 28.8962 39.3529 28.8962 38.7465 29.2307C38.1021 29.5864 37.507 30.0305 36.8626 30.3863C36.1746 30.7655 35.5425 31.2824 34.7203 31.3763C34.6733 31.3819 34.6308 31.4312 34.5939 31.4547C35.6466 32.0878 36.6713 32.7747 37.7598 33.3352C38.5664 33.7502 39.4233 34.1093 40.3642 34.1496C40.6259 34.1608 40.8933 34.1698 41.1473 34.2279C41.2759 34.257 41.38 34.3946 41.4952 34.483C41.38 34.5814 41.2625 34.7649 41.1495 34.7627C40.6204 34.7504 40.0823 34.7369 39.5654 34.6307C38.1323 34.3331 36.9085 33.5858 35.6992 32.7904C34.897 32.2635 34.0569 31.7679 33.1194 31.5095C31.9862 31.1973 30.8999 31.2991 29.9669 32.089C29.4053 32.5644 28.8896 33.0924 28.3325 33.5724C27.7015 34.1161 27.0929 34.7056 26.3926 35.1441C25.3008 35.8288 24.1138 36.3333 22.8799 36.7383C21.4893 37.1936 20.0663 37.3267 18.6411 37.1869C17.3937 37.065 16.2336 36.5962 15.2212 35.8008C14.5589 35.2806 14.0097 34.6709 13.7087 33.8946C13.3038 32.8486 13.5532 31.7343 14.5097 30.8886C13.9985 30.8595 13.5499 30.7957 13.1069 30.8203C12.703 30.8427 12.298 30.9367 11.9054 31.0407C11.1111 31.251 10.5148 31.7679 10.0103 32.3865C9.47889 33.0376 9.32675 33.8039 9.28759 34.643C9.21488 36.2024 9.92861 37.3681 10.9589 38.413C11.1033 38.5596 11.2867 38.6681 11.421 38.8202C11.497 38.9064 11.5116 39.0484 11.5541 39.1648C11.4042 39.1715 11.1983 39.2442 11.1122 39.1737C10.0528 38.2944 9.15894 37.2887 8.82557 35.9004C8.61525 35.0278 8.63539 34.1541 8.93296 33.3083C9.29319 32.2847 9.96106 31.4916 10.9019 30.9523C12.0586 30.289 13.3127 30.1894 14.5992 30.4075C14.8755 30.4545 15.1317 30.6212 15.4315 30.7476C15.3286 30.8338 15.2268 30.9311 15.1138 31.0116C14.0175 31.8026 13.8374 32.9381 14.4236 34.0903C14.9583 35.1408 15.8399 35.7997 16.9038 36.2338C17.886 36.6343 18.9297 36.7629 19.9701 36.7081C21.2745 36.6399 22.5465 36.3445 23.7491 35.7997C24.7851 35.3299 25.7684 34.775 26.6701 34.0803C27.0493 33.7883 27.4263 33.4873 27.7731 33.1584C28.5282 32.4402 29.27 31.7064 30.1783 31.1772C30.8966 30.7588 31.6987 30.6559 32.4918 30.7756C33.1843 30.8796 33.8857 31.0721 34.5536 30.8561C35.2248 30.6402 35.8569 30.2822 36.4767 29.9354C37.0796 29.5987 37.6356 29.1792 38.2319 28.8302C38.4892 28.6791 38.8036 28.6299 39.0743 28.499C39.1672 28.4543 39.2622 28.3033 39.2634 28.1992C39.2757 26.8769 39.2902 25.5535 39.2578 24.2323C39.2499 23.9336 39.062 23.6382 38.9468 23.3161L38.949 23.3127Z" fill="white"/>
<path d="M33.098 18.8222C32.7859 18.7069 32.4547 18.6421 32.1896 18.4731C31.7253 18.1789 31.2286 18.2326 30.7554 18.3053C29.3492 18.5212 28.3703 19.4218 27.5123 20.4745C27.1711 20.8929 26.7527 21.1211 26.2168 21.1278C25.8118 21.1334 25.4058 21.1312 25.0008 21.1278C24.5992 21.1245 24.4873 20.9869 24.4593 20.5953C24.4056 19.8559 24.3307 19.1186 24.2479 18.3814C24.2378 18.2941 24.1271 18.2181 24.0633 18.1364C23.9738 18.2091 23.8351 18.2651 23.806 18.3568C23.7031 18.6767 23.6169 19.0056 23.5655 19.3368C23.4995 19.7641 23.5051 20.2049 23.41 20.6233C23.3764 20.7687 23.1404 20.9656 22.9893 20.9712C22.0295 21.0115 22.0832 21.0048 22.0977 20.1859C22.1078 19.6176 22.1022 19.0493 22.0989 18.481C22.0933 17.6666 21.9747 16.8734 21.6312 16.1115C20.9287 16.2939 20.4499 16.7626 20.2373 17.416C19.9834 18.1968 19.8491 19.018 19.6657 19.8223C19.575 20.2183 19.509 20.6199 19.3916 21.007C19.3603 21.1122 19.1824 21.1715 19.0716 21.2531C19.0146 21.1368 18.9005 21.0148 18.9117 20.9041C18.9575 20.4409 19.0224 19.9778 19.1153 19.5225C19.2607 18.8132 19.3961 18.0973 19.6075 17.407C19.8592 16.5814 20.4465 16.0109 21.2095 15.6283C21.5977 15.4336 21.9008 15.484 22.0798 15.8733C22.3047 16.3599 22.4882 16.8846 22.5709 17.4115C22.6951 18.2024 22.7164 19.0101 22.7835 19.8257C23.0061 19.7966 22.9815 19.5818 23.0016 19.4073C23.033 19.1231 23.0464 18.8378 23.0744 18.5537C23.1314 17.9686 23.6729 17.5938 24.1886 17.5122C24.4112 17.4764 24.7245 17.7829 24.8039 18.1554C24.9023 18.6208 24.956 19.0974 25.0198 19.5695C25.0545 19.8301 25.0612 20.0941 25.1015 20.3537C25.1127 20.4298 25.1977 20.5573 25.2458 20.5551C25.7738 20.5383 26.3354 20.7106 26.8075 20.3347C26.9485 20.2217 27.0592 20.0695 27.1789 19.9308C28.0515 18.9352 29.0404 18.0995 30.365 17.7997C31.223 17.605 32.0621 17.7672 32.844 18.1588C33.0353 18.255 33.2423 18.425 33.0991 18.8177L33.098 18.8222Z" fill="white"/>
<path d="M20.4735 28.3593C19.9824 28.6949 19.4913 28.9421 18.9107 28.9555C18.3144 28.9701 17.7417 28.9287 17.2617 28.5047C16.7304 28.036 16.4529 27.4744 16.3824 26.7539C16.2862 25.7739 16.4059 24.8846 17.0123 24.0757C17.4821 23.4493 18.075 23.0812 18.8593 23.0846C19.2419 23.0868 19.6267 23.1539 20.0048 23.2188C20.1368 23.2412 20.2554 23.3463 20.4299 23.4403C20.4299 22.7635 20.4299 22.1202 20.4299 21.4781C20.4299 21.3271 20.4355 21.176 20.4288 21.0261C20.4165 20.7711 20.5149 20.6368 20.7868 20.6379C21.0542 20.6379 21.1313 20.7588 21.1302 21.0194C21.1213 23.2803 21.128 25.5412 21.1224 27.801C21.1224 28.1355 21.1828 28.376 21.5665 28.4544C21.7992 28.5013 21.807 28.6658 21.6146 28.8157C21.3271 29.0383 20.9054 28.9444 20.6212 28.5908C20.572 28.5304 20.5362 28.4588 20.4735 28.3593ZM20.431 25.9317C20.431 25.5021 20.4098 25.0714 20.4366 24.644C20.4646 24.21 20.242 23.956 19.903 23.7636C19.0897 23.3038 18.0661 23.7245 17.5783 24.3957C17.0548 25.1161 17.0223 25.9406 17.1118 26.764C17.179 27.3793 17.4721 27.9073 18.0549 28.2284C18.7228 28.5964 19.3571 28.4398 19.9589 28.0953C20.2722 27.9151 20.4668 27.631 20.4378 27.2193C20.4075 26.792 20.431 26.3613 20.431 25.9317Z" fill="white"/>
<path d="M34.2772 26.8547C34.323 27.5774 35.1296 28.3235 35.8277 28.3761C36.6164 28.4343 37.3391 28.2967 37.9712 27.7396C38.0696 28.3157 37.7597 28.5876 37.3066 28.7475C36.4676 29.044 35.5917 29.0775 34.7627 28.6815C34.0937 28.3627 33.7223 27.791 33.5735 27.0706C33.4247 26.349 33.446 25.6163 33.6708 24.9327C33.9841 23.9807 34.7907 23.0432 36.0481 23.0802C36.3446 23.0891 36.6477 23.0802 36.9352 23.1406C38.1725 23.4001 38.3616 24.634 37.7306 25.4708C37.1981 26.1767 36.3949 26.481 35.538 26.6287C35.1252 26.6992 34.7135 26.7764 34.2761 26.8547H34.2772ZM34.2056 26.3882C34.6128 26.3222 34.9607 26.292 35.2952 26.2047C35.9429 26.0358 36.6075 25.8601 37.0583 25.3209C37.5516 24.7303 37.5874 24.078 36.9845 23.7055C36.5392 23.4303 35.9855 23.4695 35.5022 23.6999C34.7761 24.0456 34.4215 24.6833 34.2783 25.4451C34.2212 25.7483 34.2291 26.0638 34.2056 26.3893V26.3882Z" fill="white"/>
<path d="M23.1482 26.8558C23.2142 27.5818 24.0029 28.3269 24.6786 28.3728C25.4516 28.4253 26.1788 28.3314 26.8377 27.7642C26.9328 28.1636 26.7628 28.3963 26.5278 28.5439C26.2851 28.6961 26.0043 28.8191 25.7246 28.8751C25.0646 29.0071 24.3967 29.0183 23.7613 28.7431C22.9189 28.3784 22.5217 27.6769 22.3808 26.8099C22.2812 26.1969 22.3327 25.5838 22.5217 24.9943C22.8439 23.993 23.6908 23.0567 24.9325 23.0813C25.2402 23.0869 25.5545 23.088 25.8532 23.1506C27.0189 23.3956 27.2494 24.7045 26.5715 25.5122C26.0087 26.1823 25.21 26.4699 24.3676 26.6298C23.9682 26.7059 23.5677 26.7786 23.1482 26.8569V26.8558ZM25.1373 23.5657C24.5108 23.5221 24.0242 23.7771 23.6259 24.2884C23.1907 24.8466 23.1605 25.5044 23.0766 26.1533C23.0431 26.4128 23.1773 26.4419 23.3921 26.3546C23.5051 26.3088 23.6348 26.3032 23.7568 26.2797C24.4235 26.1488 25.0836 26.0067 25.6452 25.5861C26.0501 25.2829 26.313 24.8858 26.2817 24.3835C26.247 23.8275 25.8409 23.5657 25.1384 23.5657H25.1373Z" fill="white"/>
<path d="M31.1985 23.2077C31.618 22.9795 31.8854 23.0578 32.0901 23.4449C32.9314 25.0413 32.7703 26.5728 31.731 28.0047C30.8506 29.2163 29.2296 29.2141 28.4152 28.3225C28.1511 28.0338 28.0091 27.6993 28.0091 27.3044C28.0113 26.0179 28.0124 24.7303 28.0068 23.4438C28.0068 23.22 28.0214 23.0735 28.3145 23.0701C28.6266 23.0668 28.64 23.2256 28.6389 23.4628C28.6322 24.5994 28.6244 25.736 28.6423 26.8715C28.6479 27.2395 28.7385 27.583 28.9533 27.9253C29.2743 28.4388 30.4344 28.4824 30.8327 28.1065C31.5296 27.4487 31.9301 26.65 31.9469 25.7293C31.9626 24.8477 31.8048 23.9617 31.1996 23.2077H31.1985Z" fill="white"/>
<path d="M13.4559 23.9482C13.5958 23.8151 13.7445 23.6943 13.8698 23.5522C14.4091 22.9403 15.0926 23.0152 15.7739 23.1707C15.888 23.1965 16.0547 23.4873 16.0166 23.5779C15.954 23.7234 15.86 23.9594 15.5367 23.805C14.5623 23.3397 13.4794 24.0735 13.4783 25.1676C13.4772 26.2696 13.4727 27.3715 13.4816 28.4734C13.4839 28.762 13.4224 28.9332 13.0834 28.9332C12.7366 28.9332 12.7433 28.7005 12.7276 28.4745C12.7131 28.2597 12.7097 28.0438 12.7142 27.829C12.7343 26.8009 12.7612 25.774 12.7813 24.7459C12.7892 24.3454 12.7612 23.9527 12.5196 23.6048C12.3909 23.4191 12.4491 23.2524 12.6393 23.154C12.8283 23.0555 13.0297 22.9806 13.1494 23.2625C13.2456 23.4896 13.3496 23.7133 13.4548 23.9494L13.4559 23.9482Z" fill="white"/>
<path d="M8.29969 25.7237C7.58148 25.7237 6.86438 25.7159 6.14617 25.7282C5.90341 25.7327 5.82399 25.6488 5.82399 25.4071C5.82399 24.8198 5.81392 24.8198 6.41019 24.8198C7.74145 24.8198 9.07271 24.8198 10.404 24.8198C10.7295 24.8198 10.8492 24.9664 10.8324 25.3546C10.8213 25.6141 10.7016 25.7372 10.4174 25.7305C9.71149 25.7137 9.00559 25.7249 8.29857 25.7249L8.29969 25.7237Z" fill="white"/>
<path d="M8.31756 21.8259C9.02235 21.8259 9.72826 21.8416 10.433 21.8192C10.8078 21.8069 10.8011 22.0978 10.8179 22.298C10.8358 22.5039 10.7966 22.7433 10.4453 22.7388C9.05815 22.7209 7.67095 22.7366 6.28376 22.7243C6.13832 22.7231 5.89892 22.6549 5.86983 22.5643C5.80719 22.3674 5.83515 22.1325 5.86871 21.921C5.87543 21.8752 6.06225 21.8326 6.16741 21.8304C6.8845 21.8226 7.60047 21.8259 8.31756 21.8259Z" fill="white"/>
<path d="M10.7296 28.0908C10.771 28.2072 10.8124 28.2911 10.8291 28.3794C10.8907 28.705 10.7094 28.9254 10.3828 28.9265C9.01571 28.9265 7.64865 28.9265 6.28047 28.9265C5.85983 28.9265 5.67525 28.6737 5.8341 28.2888C5.8699 28.2027 6.00303 28.1009 6.09141 28.1009C7.63187 28.0897 9.17233 28.0931 10.7284 28.0931L10.7296 28.0908Z" fill="white"/>
<path d="M20.4309 25.9328C20.4309 26.3624 20.4074 26.7931 20.4376 27.2204C20.4667 27.6321 20.2731 27.9163 19.9588 28.0964C19.3558 28.4421 18.7226 28.5976 18.0547 28.2295C17.4719 27.9084 17.1788 27.3804 17.1117 26.7651C17.0222 25.9418 17.0557 25.1184 17.5782 24.3968C18.0659 23.7245 19.0895 23.3038 19.9028 23.7647C20.2418 23.9572 20.4644 24.2111 20.4365 24.6452C20.4096 25.0725 20.4309 25.5032 20.4309 25.9328Z" fill="black"/>
<path d="M34.2056 26.3882C34.2291 26.0638 34.2212 25.7483 34.2783 25.444C34.4204 24.6822 34.775 24.0445 35.5021 23.6988C35.9854 23.4695 36.5381 23.4292 36.9844 23.7044C37.5874 24.077 37.5516 24.7292 37.0583 25.3198C36.6086 25.8591 35.9429 26.0358 35.2952 26.2036C34.9618 26.2909 34.6128 26.3211 34.2056 26.3871V26.3882Z" fill="black"/>
<path d="M25.1375 23.5656C25.84 23.5656 26.2461 23.8274 26.2808 24.3834C26.3121 24.8857 26.0492 25.2828 25.6442 25.586C25.0826 26.0066 24.4215 26.1498 23.7559 26.2796C23.6339 26.3031 23.5041 26.3087 23.3912 26.3545C23.1764 26.4407 23.0421 26.4116 23.0757 26.1532C23.1596 25.5043 23.1898 24.8465 23.625 24.2883C24.0232 23.777 24.5099 23.522 25.1363 23.5656H25.1375Z" fill="black"/>
</svg>
