<svg width="71" height="50" viewBox="0 0 71 50" fill="none" xmlns="http://www.w3.org/2000/svg">
<path d="M32.7906 20.2429C32.7906 21.002 32.7916 21.761 32.7896 22.52C32.7896 22.639 32.769 22.758 32.769 22.8769C32.769 22.9841 32.7896 23.0913 32.7896 23.1994C32.7916 24.4835 32.7906 25.7676 32.7906 27.0507C32.7906 28.1863 32.7995 29.3219 32.7847 30.4575C32.7808 30.7849 32.7847 31.1172 32.6992 31.4407C32.6726 31.539 32.6569 31.6432 32.6608 31.7445C32.6707 32.0503 32.6009 32.3433 32.537 32.6373C32.5271 32.6815 32.5271 32.7277 32.5183 32.772C32.4917 32.8988 32.4632 33.0256 32.4337 33.1525C32.4259 33.1859 32.4032 33.2174 32.4032 33.2498C32.4013 33.4661 32.2971 33.6559 32.24 33.8564C32.1918 34.0256 32.1181 34.1868 32.0552 34.352C31.9785 34.5526 31.9048 34.7551 31.8212 34.9527C31.7602 35.0982 31.6825 35.2369 31.6167 35.3804C31.5793 35.463 31.5616 35.5544 31.5174 35.6331C31.4289 35.7914 31.3256 35.9408 31.2322 36.0962C31.1477 36.2368 31.072 36.3833 30.9864 36.5229C30.8881 36.6822 30.7888 36.8424 30.6757 36.9919C30.4909 37.2357 30.2923 37.4697 30.1025 37.7106C30.0573 37.7686 30.0268 37.8384 29.9806 37.8945C29.8823 38.0125 29.78 38.1275 29.6738 38.2376C29.5323 38.3861 29.3887 38.5336 29.2383 38.6732C29.0348 38.8629 28.8253 39.0458 28.6179 39.2326C28.5963 39.2513 28.5746 39.271 28.5559 39.2916C28.3308 39.5374 28.0594 39.7242 27.7841 39.9061C27.6711 39.9809 27.5767 40.0841 27.4646 40.1608C27.263 40.2984 27.0595 40.4341 26.8491 40.556C26.6131 40.6917 26.3673 40.8107 26.1264 40.9385C26.0566 40.9759 25.9917 41.0221 25.9239 41.0634C25.9042 41.0752 25.8865 41.0909 25.8659 41.0988C25.7125 41.1568 25.5513 41.1991 25.4077 41.2738C25.2494 41.3564 25.0803 41.4016 24.9141 41.4567C24.6673 41.5383 24.4304 41.6553 24.1669 41.6838C24.1502 41.6857 24.1344 41.6946 24.1177 41.6995C23.9585 41.7418 23.7982 41.7801 23.6409 41.8263C23.5111 41.8647 23.3872 41.9197 23.2486 41.9345C22.7865 41.9856 22.3332 42.1095 21.8632 42.0908C21.7905 42.0879 21.7177 42.1154 21.644 42.1203C21.4287 42.1351 21.2133 42.1508 20.998 42.1557C20.7296 42.1616 20.4622 42.1616 20.1937 42.1537C20.0295 42.1488 19.8663 42.1262 19.7021 42.1105C19.6402 42.1046 19.5783 42.0908 19.5163 42.0908C19.1732 42.0918 18.8359 42.0485 18.5026 41.9709C18.1713 41.8942 17.8429 41.8047 17.5125 41.7231C17.4191 41.6995 17.3218 41.6887 17.2294 41.6612C17.0239 41.5982 16.8194 41.5294 16.6158 41.4596C16.4595 41.4065 16.3012 41.3583 16.1508 41.2925C15.9069 41.1863 15.6651 41.0722 15.4281 40.9513C15.1243 40.795 14.8225 40.6347 14.5265 40.4636C14.3446 40.3584 14.1726 40.2365 14.0025 40.1126C13.7272 39.912 13.4548 39.7075 13.1854 39.4991C13.0684 39.4086 12.9603 39.3074 12.8531 39.2061C12.6083 38.976 12.3546 38.7538 12.1255 38.508C11.805 38.1629 11.4855 37.8148 11.2072 37.4324C11.0578 37.2259 10.8945 37.0283 10.7461 36.8218C10.6635 36.7068 10.5937 36.5819 10.5229 36.459C10.3744 36.2034 10.2269 35.9477 10.0844 35.6901C10.0156 35.5662 9.95263 35.4384 9.8956 35.3086C9.77958 35.0442 9.64783 34.7875 9.57213 34.5054C9.52887 34.3412 9.44234 34.1888 9.39318 34.0265C9.31944 33.7827 9.19851 33.5536 9.17098 33.297C9.17098 33.2911 9.16901 33.2852 9.16704 33.2803C9.01268 32.8772 9.00678 32.4446 8.91632 32.0296C8.87896 31.8595 8.88683 31.6786 8.87011 31.5036C8.85045 31.2834 8.82685 31.0631 8.80522 30.8429C8.80129 30.7977 8.80129 30.7515 8.80129 30.7062C8.80129 26.4263 8.79932 22.1474 8.80129 17.8675C8.80129 17.6708 8.85242 17.4742 8.87011 17.2766C8.8947 17.0141 8.994 16.7702 9.05791 16.5185C9.0874 16.4015 9.15819 16.2914 9.2221 16.1862C9.34304 15.9876 9.46201 15.786 9.60359 15.6022C9.73829 15.4272 9.8897 15.261 10.0519 15.1115C10.2348 14.9424 10.4315 14.7851 10.635 14.6416C10.7775 14.5413 10.9427 14.4715 11.0971 14.3879C11.1423 14.3633 11.1856 14.3358 11.2298 14.3102C11.2495 14.2984 11.2672 14.2817 11.2888 14.2758C11.5061 14.2109 11.7204 14.1372 11.9407 14.089C12.1393 14.0457 12.3438 14.0221 12.5473 14.0064C12.7154 13.9927 12.8865 13.9927 13.0556 14.0064C13.2592 14.0221 13.4607 14.0566 13.6623 14.088C13.7518 14.1018 13.8393 14.1283 13.9258 14.1519C13.9641 14.1627 13.9995 14.1863 14.0379 14.1922C14.2168 14.2198 14.3653 14.3191 14.5226 14.3968C14.6691 14.4695 14.8136 14.5472 14.9562 14.6278C15.0348 14.6721 15.1164 14.7163 15.1823 14.7763C15.3976 14.9709 15.614 15.1656 15.8155 15.375C15.9846 15.5501 16.1429 15.7369 16.2344 15.9709C16.2717 16.0643 16.3415 16.1439 16.3897 16.2344C16.4595 16.3642 16.5254 16.4969 16.5863 16.6306C16.6119 16.6866 16.6198 16.7506 16.6345 16.8115C16.6503 16.8774 16.6552 16.9482 16.6817 17.0101C16.7486 17.1655 16.7692 17.3277 16.7702 17.4929C16.7732 18.3778 16.7722 19.2617 16.7771 20.1466C16.7771 20.3393 16.8135 20.5339 16.8007 20.7257C16.7456 21.6145 16.78 22.5043 16.7761 23.3931C16.7673 25.3389 16.7732 27.2847 16.7771 29.2304C16.7771 29.6119 16.7958 29.9934 16.8095 30.3739C16.8125 30.4467 16.8312 30.5194 16.841 30.5932C16.8636 30.7623 16.8784 30.9314 16.9079 31.0995C16.9708 31.4554 17.0809 31.7946 17.2854 32.0965C17.4319 32.3128 17.543 32.5527 17.7269 32.7434C17.7819 32.8005 17.8311 32.8644 17.8881 32.9185C17.9746 33.001 18.072 33.0718 18.1536 33.1584C18.3433 33.3589 18.5577 33.5251 18.8054 33.646C19.0866 33.7837 19.356 33.9489 19.6638 34.0246C19.828 34.0649 19.9961 34.0993 20.1642 34.115C20.4071 34.1376 20.6529 34.1544 20.8967 34.1475C21.174 34.1396 21.4532 34.116 21.7276 34.0737C21.9871 34.0334 22.2192 33.9027 22.4561 33.7915C22.5849 33.7316 22.7235 33.6844 22.8386 33.6057C23.0441 33.4651 23.2358 33.3039 23.4334 33.1515C23.8247 32.8496 24.0784 32.4357 24.3321 32.0257C24.4225 31.8792 24.51 31.7209 24.5277 31.54C24.5326 31.4958 24.5425 31.4486 24.5621 31.4082C24.6526 31.2303 24.6555 31.0356 24.6772 30.8439C24.6978 30.6581 24.7175 30.4722 24.7372 30.2854C24.7421 30.2402 24.7431 30.194 24.7431 30.1488C24.7431 29.3327 24.7607 28.5166 24.7391 27.7006C24.6831 25.5847 24.7106 23.4688 24.7224 21.353C24.7283 20.2872 24.7313 19.2204 24.7499 18.1546C24.7549 17.8586 24.7716 17.5627 24.7834 17.2677C24.7843 17.2343 24.7883 17.1989 24.7991 17.1674C24.8738 16.96 24.922 16.7447 25.0223 16.546C25.0862 16.4192 25.1295 16.2816 25.2032 16.1616C25.3969 15.8509 25.5434 15.5058 25.8551 15.2807C25.9514 15.2118 26.0301 15.1174 26.1117 15.0299C26.2601 14.8697 26.4361 14.7478 26.622 14.6337C26.7911 14.5295 26.9838 14.4636 27.1401 14.3486C27.3151 14.2217 27.5265 14.2208 27.7055 14.1234C27.7527 14.0979 27.8156 14.089 27.8706 14.091C28.1125 14.1008 28.3426 14.0182 28.5795 14.0035C28.7201 13.9946 28.8627 13.9927 29.0023 14.0094C29.2216 14.0359 29.4369 14.0988 29.6611 14.091C29.7053 14.09 29.7515 14.0998 29.7948 14.1126C29.9315 14.1519 30.0701 14.1854 30.2009 14.2385C30.3208 14.2876 30.4299 14.3614 30.546 14.4194C30.8399 14.5688 31.1093 14.7566 31.3709 14.9562C31.4161 14.9906 31.4554 15.0329 31.4938 15.0742C31.5714 15.1578 31.6432 15.2453 31.7229 15.3279C31.8408 15.4508 31.9608 15.5707 32.0473 15.7221C32.126 15.8598 32.2312 15.9817 32.3059 16.1213C32.3905 16.2796 32.5055 16.4251 32.5311 16.6119C32.5379 16.6611 32.5655 16.7083 32.5832 16.7565C32.5969 16.7938 32.6166 16.8302 32.6245 16.8685C32.6697 17.0966 32.7247 17.3228 32.7533 17.5529C32.7798 17.7662 32.7847 17.9835 32.7867 18.1998C32.7906 18.8841 32.7877 19.5694 32.7877 20.2537L32.7906 20.2429Z" fill="black"/>
<path d="M41.5531 26.565C41.5531 27.8717 41.5531 29.1784 41.5531 30.4851C41.5531 30.6689 41.5698 30.8479 41.6494 31.018C41.673 31.0681 41.676 31.1281 41.6917 31.1832C41.7143 31.2648 41.7389 31.3454 41.7655 31.425C41.7772 31.4624 41.8018 31.4978 41.8087 31.5352C41.8471 31.7338 41.9375 31.9068 42.0545 32.07C42.1066 32.1428 42.1243 32.2391 42.1774 32.3119C42.2974 32.4771 42.4203 32.6422 42.5569 32.7937C42.7162 32.9706 42.8893 33.1358 43.0603 33.301C43.1036 33.3423 43.1636 33.3679 43.2157 33.3993C43.2491 33.42 43.2884 33.4347 43.3179 33.4603C43.5097 33.6284 43.7309 33.7366 43.9728 33.8142C44.134 33.8663 44.2854 33.9499 44.4457 34.0089C44.5352 34.0414 44.6315 34.0581 44.7259 34.0728C44.8714 34.0954 45.0179 34.122 45.1644 34.1259C45.4368 34.1328 45.7101 34.1279 45.9824 34.119C46.1181 34.1141 46.2528 34.0905 46.3885 34.0748C46.4396 34.0689 46.4937 34.0748 46.5399 34.0571C46.7031 33.9951 46.8654 33.9273 47.0256 33.8585C47.1397 33.8093 47.2547 33.7592 47.3648 33.7021C47.7099 33.5262 48.0314 33.3148 48.3313 33.069C48.4267 32.9913 48.5408 32.9362 48.6469 32.8723C48.8505 32.7504 49.051 32.6206 49.2605 32.5095C49.5053 32.3807 49.7481 32.2244 50.0244 32.1851C50.3656 32.1359 50.6999 32.0189 51.0519 32.0533C51.1649 32.0641 51.278 32.072 51.3901 32.0897C51.5641 32.1172 51.7391 32.1408 51.9082 32.186C52.1147 32.2411 52.3271 32.2785 52.5159 32.3925C52.6358 32.4653 52.7735 32.5105 52.8993 32.5764C52.9849 32.6206 53.0616 32.6806 53.1451 32.7288C53.3683 32.8566 53.5728 33.006 53.7449 33.1997C53.8963 33.3698 54.0595 33.5291 54.208 33.7021C54.2729 33.7779 54.3181 33.8722 54.3653 33.9617C54.4911 34.2026 54.6396 34.4307 54.7133 34.6981C54.7654 34.8889 54.8539 35.0698 54.9129 35.2586C54.9464 35.3657 54.967 35.4808 54.97 35.5929C54.9778 35.8839 54.9739 36.1749 54.9719 36.466C54.9709 36.6203 54.9503 36.7717 54.8726 36.9104C54.8618 36.93 54.8461 36.9526 54.8471 36.9733C54.8618 37.1827 54.7566 37.3626 54.6829 37.5426C54.5855 37.7825 54.4961 38.0263 54.3535 38.2505C54.1677 38.5425 53.9425 38.7952 53.6918 39.0272C53.5256 39.1806 53.3388 39.3123 53.1569 39.448C52.9249 39.6221 52.6928 39.7941 52.4549 39.9593C52.1757 40.153 51.8984 40.3516 51.6054 40.5246C51.338 40.6829 51.044 40.796 50.7766 40.9543C50.5013 41.1165 50.2063 41.2316 49.9153 41.3535C49.7285 41.4321 49.5269 41.4774 49.3342 41.5423C49.2536 41.5688 49.1798 41.615 49.0982 41.6367C48.8632 41.6996 48.6253 41.7546 48.3893 41.8136C48.3726 41.8176 48.353 41.8185 48.3402 41.8274C48.1937 41.9306 48.0246 41.9444 47.8535 41.9582C47.7807 41.9641 47.7119 41.9995 47.6391 42.0132C47.4946 42.0398 47.3481 42.0801 47.2036 42.0791C46.9391 42.0761 46.6854 42.145 46.4259 42.1686C46.3639 42.1745 46.302 42.1863 46.24 42.1872C45.892 42.1892 45.5439 42.1882 45.1959 42.1902C44.8989 42.1912 44.6059 42.1617 44.3159 42.0997C44.2825 42.0929 44.2481 42.087 44.2146 42.0889C43.898 42.1066 43.5932 42.0378 43.2865 41.9729C43.2255 41.9601 43.1626 41.9572 43.1006 41.9493C43.0446 41.9414 42.9856 41.9414 42.9335 41.9208C42.614 41.7969 42.2797 41.7291 41.9503 41.6416C41.7271 41.5816 41.5098 41.498 41.2906 41.4223C41.1509 41.3741 41.0153 41.3151 40.8747 41.2709C40.6888 41.2119 40.5207 41.1234 40.3575 41.0182C40.2444 40.9455 40.1107 40.9071 39.9888 40.8481C39.8561 40.7852 39.7223 40.7233 39.5945 40.6495C39.4038 40.5394 39.2189 40.4194 39.0311 40.3024C39.0026 40.2847 38.9741 40.2661 38.9466 40.2464C38.7716 40.1205 38.5946 39.9976 38.4235 39.8679C38.2347 39.7233 38.0273 39.6044 37.8552 39.4343C37.6694 39.2504 37.4669 39.0842 37.2732 38.9092C37.2309 38.8709 37.1906 38.8306 37.1512 38.7893C37.0106 38.6398 36.874 38.4884 36.7324 38.3399C36.5564 38.1561 36.3794 37.9762 36.2428 37.7549C36.1307 37.573 35.9625 37.4265 35.8249 37.2604C35.7639 37.1866 35.7177 37.1021 35.6627 37.0244C35.5231 36.8258 35.3785 36.6301 35.2438 36.4276C35.172 36.3195 35.1199 36.1995 35.056 36.0864C35.0226 36.0274 34.9833 35.9724 34.9469 35.9154C34.8181 35.7128 34.7522 35.4808 34.646 35.2684C34.5802 35.1376 34.5094 35.0088 34.4405 34.8791C34.4356 34.8692 34.4238 34.8623 34.4199 34.8515C34.356 34.6765 34.2931 34.5015 34.2311 34.3265C34.2144 34.2783 34.2046 34.2272 34.182 34.182C34.1318 34.0846 34.0846 33.9892 34.0925 33.8742C34.0944 33.8477 34.0846 33.8172 34.0718 33.7926C33.943 33.5281 33.9234 33.2332 33.8359 32.9569C33.8054 32.8615 33.8142 32.7543 33.7985 32.6531C33.7405 32.2775 33.6736 31.9039 33.591 31.5322C33.5566 31.3788 33.5556 31.2156 33.5497 31.0573C33.474 28.7419 33.5291 26.4254 33.5173 24.11C33.5153 23.7973 33.5409 23.4846 33.5419 23.171C33.5419 22.8868 33.5026 22.6007 33.5212 22.3185C33.5694 21.5546 33.5547 20.7906 33.5399 20.0267C33.4878 17.3337 33.5301 14.6416 33.5183 11.9486C33.5173 11.6468 33.534 11.3449 33.5547 11.0441C33.5606 10.9566 33.6038 10.872 33.6323 10.7865C33.6392 10.7648 33.6569 10.7471 33.6628 10.7255C33.7169 10.5407 33.769 10.3558 33.8211 10.17C33.83 10.1376 33.826 10.0972 33.8427 10.0717C33.9135 9.96845 33.9529 9.85046 34.0099 9.74034C34.1485 9.47094 34.3412 9.24185 34.5615 9.03243C34.6382 8.95967 34.6824 8.85545 34.7542 8.7768C34.8407 8.68044 34.9312 8.5831 35.0364 8.50936C35.2458 8.36286 35.4591 8.2203 35.6833 8.10133C35.8298 8.02366 35.9645 7.90666 36.1474 7.90371C36.1887 7.90371 36.229 7.86339 36.2723 7.8516C36.3696 7.82407 36.4679 7.79752 36.5672 7.77786C36.6783 7.75622 36.7953 7.75426 36.9025 7.72083C37.0254 7.6815 37.1463 7.67069 37.2722 7.67167C37.4315 7.67265 37.5917 7.67167 37.751 7.67068C37.9506 7.66872 38.1482 7.66872 38.3409 7.74049C38.4137 7.76704 38.4973 7.76311 38.5749 7.77884C38.6634 7.79654 38.7519 7.8162 38.8394 7.84078C38.921 7.86339 39.0007 7.89289 39.0803 7.91944C39.1069 7.92829 39.1363 7.93517 39.1599 7.94992C39.4048 8.1033 39.6447 8.26356 39.8924 8.41104C40.0153 8.4838 40.1353 8.55557 40.2356 8.66078C40.3939 8.82596 40.5345 8.99703 40.6112 9.21924C40.6564 9.34902 40.7547 9.46013 40.8088 9.58893C40.8845 9.77082 40.9632 9.95665 40.9995 10.1494C41.029 10.2998 41.0585 10.4492 41.0959 10.5977C41.1362 10.7619 41.1303 10.9399 41.1834 11.1001C41.2738 11.3744 41.2709 11.6596 41.3181 11.9388C41.3368 12.0509 41.3712 12.16 41.3859 12.2721C41.4046 12.4186 41.4056 12.5671 41.4213 12.7136C41.441 12.8994 41.4675 13.0852 41.4911 13.271C41.5019 13.3556 41.5177 13.4392 41.5226 13.5237C41.5364 13.7509 41.5442 13.978 41.556 14.2051C41.5609 14.3044 41.5904 14.3437 41.6868 14.3477C41.8402 14.3526 41.9945 14.3437 42.1479 14.3427C42.3121 14.3418 42.4753 14.3408 42.6395 14.3427C42.6966 14.3427 42.7536 14.3496 42.8096 14.3506C43.3406 14.3526 43.8705 14.3506 44.4014 14.3565C44.5892 14.3585 44.776 14.3762 44.955 14.4421C45.013 14.4637 45.0759 14.4794 45.1369 14.4863C45.3846 14.5119 45.6049 14.6121 45.8232 14.7232C45.9539 14.7901 46.0876 14.8501 46.2145 14.9238C46.302 14.975 46.3816 15.0408 46.4613 15.1047C46.5989 15.2139 46.7307 15.3319 46.8732 15.4341C47.0286 15.5462 47.1485 15.6888 47.2596 15.8402C47.3334 15.9405 47.3963 16.0496 47.4671 16.1519C47.6391 16.3986 47.7768 16.6631 47.8928 16.9414C47.9439 17.0633 47.9862 17.1823 48.0039 17.314C48.0177 17.4143 48.057 17.5116 48.0767 17.6119C48.0983 17.7289 48.1209 17.8469 48.1249 17.9659C48.1327 18.2058 48.1268 18.4447 48.1268 18.6846C48.1268 18.8675 48.1081 19.0474 48.0305 19.2175C48.0167 19.248 47.999 19.2834 48.001 19.3148C48.0079 19.4741 47.9302 19.6098 47.8928 19.7573C47.8476 19.9343 47.7217 20.0611 47.6519 20.2204C47.591 20.358 47.5054 20.4858 47.4287 20.6166C47.4032 20.6599 47.3747 20.7041 47.3402 20.7405C47.2311 20.8555 47.1171 20.9666 47.0069 21.0807C46.9519 21.1377 46.9017 21.2006 46.8486 21.2586C46.6874 21.4356 46.5203 21.6018 46.301 21.7099C46.1801 21.7699 46.068 21.8476 45.951 21.9164C45.8684 21.9646 45.7583 21.9528 45.6934 22.0393C45.4918 22.0727 45.3365 22.2409 45.1192 22.236C45.0651 22.235 45.0081 22.2596 44.955 22.2782C44.7819 22.3392 44.602 22.3657 44.4191 22.3667C43.5175 22.3667 42.6169 22.3667 41.7153 22.3667C41.5619 22.3667 41.555 22.3716 41.555 22.5132C41.555 23.8661 41.555 25.218 41.555 26.5709L41.5531 26.565Z" fill="black"/>
<path d="M0.00552551 36.3331C0.00552551 35.7963 0.00257534 35.2605 0.00650818 34.7236C0.00945781 34.4169 0.0261726 34.1091 0.0320718 33.8024C0.0340383 33.7237 0.0173238 33.6441 0.0114245 33.5654C0.00749169 33.5143 0.00454197 33.4632 0.0074916 33.412C0.0143741 33.2763 0.0310886 33.1397 0.0320718 33.004C0.0350215 32.3197 0.0537025 31.6334 0.0320718 30.9501C-0.027904 29.1311 0.0163405 27.3112 0.0074916 25.4923C-0.00234049 23.6773 0.00552551 21.8632 0.00552551 20.0482C0.00552551 19.7169 0.00159214 19.3865 0.00650818 19.0552C0.0124074 18.6963 0.0251896 18.3384 0.0399377 17.9796C0.0438705 17.8901 0.0704173 17.8006 0.0861487 17.7111C0.10483 17.5991 0.122527 17.487 0.142192 17.3749C0.153007 17.3129 0.159889 17.25 0.181519 17.192C0.245428 17.016 0.324085 16.8449 0.382094 16.667C0.451902 16.4556 0.594468 16.2914 0.721302 16.1183C0.825522 15.9768 0.948424 15.8489 1.05461 15.7083C1.20799 15.5058 1.41348 15.3623 1.60914 15.2069C1.72909 15.1115 1.85593 15.024 1.97489 14.9277C2.16072 14.7782 2.38784 14.7192 2.59923 14.6249C2.66609 14.5944 2.73688 14.5708 2.80079 14.5354C2.82734 14.5206 2.84307 14.4852 2.86372 14.4597C2.83815 14.442 2.81456 14.4184 2.78604 14.4066C2.6189 14.3378 2.4488 14.2758 2.28264 14.204C2.05158 14.1047 1.85003 13.9573 1.64257 13.8157C1.29353 13.5767 1.03888 13.2533 0.775378 12.9318C0.592501 12.7086 0.44502 12.4647 0.333917 12.2071C0.245428 12.0036 0.14809 11.7912 0.136292 11.5582C0.132359 11.4855 0.106796 11.4137 0.0910643 11.3419C0.0340381 11.0804 -0.0121724 10.8149 0.00847502 10.5475C0.0301056 10.2653 0.0605848 9.98312 0.115645 9.7029C0.18152 9.36566 0.31327 9.05202 0.435188 8.73542C0.475499 8.6312 0.550224 8.53878 0.619048 8.44931C0.781278 8.23694 0.935642 8.01768 1.11754 7.82301C1.26797 7.66274 1.45084 7.53198 1.62192 7.39334C1.70549 7.3255 1.80382 7.27438 1.88444 7.20457C2.11943 7.00203 2.40849 6.91944 2.6887 6.80932C3.04364 6.6697 3.4212 6.65299 3.78793 6.58908C3.97376 6.55663 4.17335 6.59203 4.36508 6.61169C4.59613 6.63431 4.82915 6.6579 5.05529 6.70706C5.59802 6.82701 6.07488 7.0856 6.49864 7.44349C6.68545 7.6008 6.88111 7.75222 7.04531 7.93116C7.20459 8.10519 7.34322 8.3038 7.46416 8.50732C7.60279 8.74132 7.72372 8.98713 7.83187 9.23686C7.89873 9.39221 7.94986 9.56034 7.97149 9.72748C8.00984 10.0254 8.04622 10.3282 8.03737 10.6271C8.02753 10.9594 8.01475 11.2947 7.91938 11.6231C7.86137 11.8207 7.80533 12.0134 7.70602 12.1934C7.58214 12.4166 7.47497 12.6486 7.34519 12.8679C7.2508 13.0291 7.12986 13.1736 6.98238 13.2936C6.92142 13.3427 6.87619 13.4106 6.82114 13.4676C6.60188 13.6918 6.36984 13.8963 6.07586 14.0261C5.85366 14.1244 5.6462 14.2581 5.43088 14.3712C5.38172 14.3967 5.32272 14.4026 5.26963 14.4213C5.24997 14.4282 5.21949 14.443 5.2185 14.4557C5.21654 14.4803 5.2244 14.5187 5.2421 14.5295C5.30011 14.5649 5.36009 14.6022 5.42498 14.619C5.62162 14.6681 5.7809 14.7881 5.95886 14.8726C6.24694 15.0093 6.4662 15.2344 6.71593 15.4203C6.90569 15.5619 7.0807 15.7231 7.20065 15.9384C7.29701 16.1115 7.42974 16.2629 7.53495 16.432C7.59984 16.5362 7.64408 16.6552 7.69619 16.7673C7.81221 17.0141 7.92233 17.2638 7.96068 17.5371C7.98034 17.6836 8.00787 17.8301 8.00787 17.9766C8.0118 20.7385 8.0118 23.5003 8.01279 26.2621C8.01279 28.6985 8.01279 31.1349 8.01574 33.5713C8.01574 34.0039 8.05998 34.4385 8.0354 34.8691C8.00984 35.3195 7.99902 35.7707 8.02262 36.2191C8.05211 36.7894 8.04228 37.3586 8.04032 37.9279C8.03933 38.2966 8 38.6653 7.97542 39.034C7.97247 39.0724 7.95478 39.1097 7.942 39.1481C7.92331 39.2021 7.89185 39.2543 7.88595 39.3093C7.86432 39.5207 7.74437 39.6888 7.65195 39.8707C7.59591 39.9818 7.54084 40.0939 7.48185 40.204C7.3501 40.4508 7.19869 40.6829 6.97943 40.8657C6.89291 40.9385 6.82802 41.0368 6.74346 41.1125C6.595 41.2443 6.4485 41.3839 6.28332 41.4911C6.08963 41.6169 5.8743 41.7103 5.67078 41.8214C5.43874 41.9492 5.18704 42.024 4.93141 42.0672C4.52239 42.136 4.10748 42.198 3.69256 42.1508C3.41235 42.1193 3.13213 42.0751 2.85782 41.9905C2.51763 41.8853 2.20202 41.7339 1.89624 41.5609C1.52557 41.3505 1.21782 41.0653 0.95039 40.736C0.850103 40.6121 0.749815 40.4892 0.655427 40.3614C0.485332 40.1313 0.379145 39.8688 0.270992 39.6053C0.148091 39.3064 0.118594 38.9878 0.0527192 38.6781C0.0163404 38.507 0.0104414 38.3281 0.00847502 38.1521C0.00355897 37.5474 0.00650818 36.9427 0.00650818 36.3381L0.00552551 36.3331Z" fill="black"/>
<path d="M61.4611 20.6433C61.4778 20.4054 61.4847 20.1664 61.5142 19.9295C61.5358 19.7555 61.582 19.5854 61.6233 19.4143C61.6351 19.3651 61.6646 19.3209 61.6853 19.2737C61.7059 19.2265 61.7403 19.1803 61.7433 19.1331C61.7492 19.0082 61.8209 18.9099 61.8573 18.7998C61.9045 18.6582 62.0156 18.5668 62.0746 18.438C62.1287 18.3219 62.2152 18.2207 62.2801 18.1086C62.4826 17.7595 62.7648 17.4813 63.0647 17.2188C63.1925 17.1067 63.3134 16.9877 63.4629 16.9002C63.7166 16.7527 63.9624 16.5935 64.2131 16.4401C64.2416 16.4224 64.277 16.4165 64.3094 16.4076C64.3311 16.4017 64.3606 16.4106 64.3763 16.3988C64.5513 16.2651 64.7784 16.2867 64.9692 16.2002C65.0409 16.1677 65.1206 16.1441 65.1983 16.1363C65.6004 16.0989 66.0045 16.0842 66.4086 16.0989C66.5561 16.1048 66.7026 16.1205 66.85 16.1333C66.8776 16.1363 66.9061 16.1431 66.9326 16.154C67.0919 16.2149 67.26 16.2434 67.4223 16.2906C67.6799 16.3654 67.9365 16.4627 68.1558 16.6308C68.2442 16.6987 68.3504 16.7449 68.4438 16.8068C68.6179 16.9238 68.783 17.0546 68.962 17.1627C69.2481 17.3368 69.4035 17.6298 69.6148 17.8697C69.7456 18.0181 69.8616 18.1813 69.9668 18.3485C70.0504 18.4802 70.1123 18.6277 70.1743 18.7713C70.2569 18.963 70.3316 19.1577 70.4093 19.3514C70.4201 19.3779 70.4319 19.4045 70.4368 19.432C70.4761 19.6552 70.5184 19.8784 70.5518 20.1025C70.5686 20.2146 70.5784 20.3287 70.5774 20.4417C70.5745 20.7033 70.603 20.9658 70.5459 21.2254C70.5351 21.2755 70.5263 21.3256 70.5135 21.3748C70.4958 21.4466 70.4545 21.5184 70.4584 21.5882C70.4722 21.8359 70.3306 22.0454 70.2942 22.2803C70.2775 22.3875 70.2057 22.4868 70.1546 22.5871C70.0887 22.7189 70.0268 22.8536 69.9472 22.9765C69.8449 23.1328 69.7328 23.2832 69.6139 23.4268C69.4447 23.6332 69.2668 23.8319 69.0898 24.0324C69.0642 24.0619 69.0328 24.0914 68.9974 24.1062C68.7939 24.1917 68.6503 24.3579 68.4733 24.4788C68.3544 24.5604 68.2413 24.6509 68.0938 24.6951C67.9503 24.7384 67.8205 24.8288 67.6818 24.8927C67.617 24.9232 67.5452 24.9409 67.4754 24.9586C67.437 24.9684 67.3908 24.9547 67.3574 24.9704C67.0988 25.0894 66.8186 25.0953 66.5462 25.1454C66.3368 25.1838 66.1303 25.1956 65.9199 25.2054C65.7105 25.2162 65.5149 25.1523 65.3143 25.1179C65.2808 25.112 65.2464 25.0992 65.214 25.1012C65.0498 25.111 64.8994 25.0717 64.7519 25.0009C64.7017 24.9773 64.6418 24.9753 64.5877 24.9606C64.5277 24.9448 64.4687 24.9271 64.4097 24.9065C64.3301 24.878 64.2485 24.8524 64.1728 24.8151C64.0607 24.761 63.9476 24.7069 63.8454 24.6381C63.5779 24.4582 63.3066 24.2812 63.0549 24.0816C62.8818 23.9439 62.7294 23.7778 62.5839 23.6106C62.4433 23.4484 62.3194 23.2704 62.1946 23.0954C62.1424 23.0227 62.109 22.9361 62.0648 22.8575C61.9733 22.6943 61.878 22.534 61.7875 22.3698C61.7688 22.3354 61.761 22.2951 61.7492 22.2577C61.7226 22.1712 61.6961 22.0847 61.6705 21.9972C61.6489 21.9215 61.6272 21.8448 61.6095 21.7681C61.5938 21.7022 61.5928 21.6295 61.5673 21.5685C61.4847 21.3748 61.4729 21.1723 61.4739 20.9668C61.4739 20.8586 61.4739 20.7505 61.4739 20.6413C61.4689 20.6413 61.464 20.6413 61.4581 20.6404L61.4611 20.6433Z" fill="black"/>
<path d="M61.462 33.9235C61.4778 33.6915 61.4905 33.4585 61.5112 33.2264C61.5171 33.1537 61.5456 33.0829 61.5613 33.0111C61.58 32.9285 61.5967 32.8449 61.6144 32.7624C61.6213 32.7289 61.6252 32.6945 61.6351 32.663C61.6774 32.5283 61.7157 32.3917 61.7678 32.2609C61.8111 32.1518 61.8661 32.0456 61.9261 31.9433C61.9802 31.8509 62.047 31.7654 62.108 31.6769C62.1237 31.6533 62.1464 31.6317 62.1532 31.6061C62.2142 31.3829 62.3813 31.2295 62.521 31.0604C62.7304 30.8048 62.9821 30.5895 63.221 30.3623C63.2495 30.3348 63.278 30.3053 63.3105 30.2827C63.456 30.1844 63.5995 30.0831 63.75 29.9917C63.9092 29.8943 64.0675 29.7891 64.2396 29.7213C64.3596 29.6741 64.4785 29.5984 64.5985 29.5797C64.8777 29.5355 65.1353 29.4116 65.4283 29.4067C65.7056 29.4017 65.9858 29.3772 66.2631 29.388C66.5796 29.3998 66.8982 29.4037 67.202 29.5256C67.3957 29.6033 67.6041 29.6456 67.7988 29.7213C67.9345 29.7734 68.0663 29.8442 68.1892 29.9238C68.5018 30.1283 68.8076 30.3407 69.1144 30.5541C69.1547 30.5816 69.1812 30.6298 69.2137 30.6691C69.4231 30.9237 69.6364 31.1745 69.839 31.434C69.9176 31.5353 69.9727 31.6553 70.0337 31.7693C70.1054 31.904 70.1723 32.0417 70.2411 32.1773C70.249 32.1921 70.2637 32.2049 70.2686 32.2206C70.3276 32.4094 70.3886 32.5972 70.4407 32.7879C70.4682 32.8862 70.4751 32.9895 70.4987 33.0888C70.5489 33.2992 70.5892 33.5116 70.5803 33.7298C70.5695 33.9914 70.6069 34.2549 70.5469 34.5134C70.5223 34.6187 70.4958 34.7229 70.4732 34.8291C70.4604 34.89 70.4555 34.952 70.4437 35.0139C70.4319 35.0808 70.421 35.1486 70.4033 35.2135C70.3719 35.3275 70.3345 35.4406 70.2991 35.5547C70.2893 35.5871 70.2824 35.6225 70.2667 35.652C70.1575 35.8545 70.0474 36.0571 69.9353 36.2586C69.7279 36.6332 69.4428 36.9498 69.1537 37.2605C69.0475 37.3746 68.902 37.4523 68.7722 37.5427C68.5815 37.6755 68.3996 37.8278 68.1941 37.9301C68.0554 37.9989 67.9365 38.1189 67.7674 38.1277C67.731 38.1297 67.6936 38.1582 67.6622 38.1818C67.5953 38.2319 67.5225 38.2546 67.439 38.2546C67.3996 38.2546 67.3564 38.2575 67.3229 38.2752C67.0771 38.4001 66.8107 38.407 66.5452 38.4286C66.3928 38.4414 66.2434 38.4768 66.091 38.4925C65.8383 38.519 65.5964 38.4325 65.3477 38.4089C65.3251 38.407 65.3034 38.3952 65.2808 38.3952C65.0842 38.402 64.9062 38.3362 64.7194 38.2821C64.5454 38.231 64.3763 38.1641 64.2091 38.1012C64.0725 38.0501 63.925 37.995 63.8129 37.8809C63.746 37.8141 63.6605 37.761 63.5759 37.7177C63.1738 37.5113 62.8484 37.2153 62.5662 36.8692C62.4443 36.7198 62.3322 36.5625 62.2221 36.4051C62.1641 36.3226 62.1188 36.2311 62.0677 36.1426C61.9743 35.9804 61.8819 35.8192 61.7885 35.6569C61.7826 35.6471 61.7747 35.6363 61.7747 35.6255C61.7698 35.3993 61.6056 35.2184 61.6046 34.9874C61.6046 34.8664 61.5309 34.7475 61.5151 34.6246C61.4915 34.4387 61.4886 34.2509 61.4788 34.0641C61.4758 34.0189 61.4788 33.9727 61.4788 33.9275H61.464L61.462 33.9235Z" fill="black"/>
<path d="M29.9325 0.487583C29.9109 0.56919 29.8932 0.639981 29.8745 0.709788C29.843 0.830723 29.8106 0.950675 29.7781 1.07063C29.7693 1.10307 29.7644 1.14043 29.7457 1.16698C29.6228 1.34396 29.5923 1.55535 29.5264 1.75297C29.5038 1.8218 29.5225 1.90734 29.492 1.97026C29.3976 2.16592 29.3672 2.38026 29.2973 2.5828C29.2718 2.65753 29.256 2.73618 29.2315 2.81091C29.2089 2.88072 29.1735 2.94561 29.1538 3.0164C29.1037 3.20026 29.0201 3.37035 28.9552 3.54733C28.9532 3.55225 28.9542 3.55913 28.9522 3.56405C28.8765 3.7892 28.7998 4.01436 28.7241 4.23951C28.7094 4.28179 28.6897 4.32603 28.6878 4.3693C28.6848 4.45287 28.6602 4.52464 28.6081 4.58953C28.5875 4.61608 28.5629 4.64853 28.5619 4.67901C28.555 4.82255 28.4429 4.90908 28.383 5.02215C28.3731 5.04083 28.3544 5.05754 28.3367 5.07032C28.1549 5.19716 27.795 5.20797 27.622 5.07327C27.504 4.98183 27.443 4.84222 27.3889 4.70359C27.3663 4.64656 27.3388 4.59052 27.3142 4.53447C27.2916 4.48335 27.27 4.43124 27.2493 4.37913C27.2208 4.31129 27.1933 4.24344 27.1657 4.1756C27.151 4.13922 27.1205 4.10186 27.1215 4.06647C27.1274 3.92783 27.0733 3.81083 27.0084 3.6958C27.0055 3.69088 27.0015 3.68498 27.0015 3.68007C27.0015 3.45983 26.8442 3.28088 26.8383 3.06163C26.8383 3.04983 26.8393 3.03705 26.8334 3.0282C26.7017 2.82762 26.7233 2.57789 26.621 2.36748C26.5945 2.31242 26.5866 2.24753 26.566 2.18854C26.5444 2.12561 26.5168 2.06367 26.4922 2.00173C26.4696 1.9447 26.447 1.88669 26.4274 1.82868C26.3939 1.72643 26.3615 1.62417 26.33 1.52094C26.3153 1.47276 26.3035 1.42262 26.2917 1.37345C26.2769 1.31348 26.2759 1.24367 26.2455 1.19353C26.1766 1.08144 26.157 0.963457 26.1491 0.835639C26.1442 0.763865 26.1167 0.691108 26.0852 0.625233C26.0351 0.520029 26.0567 0.433507 26.1098 0.335186C26.1806 0.203436 26.2789 0.11593 26.4156 0.0559542C26.6092 -0.0286019 26.7587 -0.00107215 26.9022 0.164107C27.0723 0.359766 27.1362 0.598686 27.1815 0.845471C27.1943 0.917246 27.2139 0.98902 27.2336 1.05981C27.2611 1.15813 27.2916 1.25547 27.3221 1.35182C27.3339 1.38919 27.3526 1.42458 27.3663 1.46194C27.3968 1.5465 27.4273 1.63106 27.4548 1.71561C27.4725 1.76871 27.4873 1.82377 27.503 1.87784C27.5335 1.98108 27.563 2.08333 27.5934 2.18657C27.6082 2.23475 27.6279 2.28194 27.6426 2.3311C27.6721 2.43336 27.7006 2.53659 27.7272 2.64081C27.736 2.67326 27.7311 2.71259 27.7478 2.74012C27.8383 2.89055 27.8628 3.06064 27.9002 3.22681C27.9041 3.24352 27.9061 3.26122 27.913 3.27597C27.9346 3.32021 27.9444 3.38707 28.0093 3.37724C28.0752 3.3674 28.0713 3.30251 28.0683 3.25237C28.0634 3.157 28.0762 3.07048 28.1608 3.00952C28.1735 2.99968 28.1912 2.98297 28.1902 2.9692C28.1883 2.76568 28.379 2.61525 28.3466 2.40288C28.3436 2.38714 28.3466 2.3665 28.3544 2.35273C28.4341 2.20722 28.4714 2.04794 28.5157 1.88964C28.5531 1.75396 28.6307 1.62909 28.6238 1.48062C28.6238 1.47473 28.6258 1.46981 28.6278 1.46391C28.7045 1.21516 28.7821 0.965423 28.8598 0.716671C28.8667 0.695041 28.8854 0.67341 28.8834 0.652762C28.8647 0.488566 28.9817 0.378447 29.0496 0.251613C29.1125 0.134611 29.2334 0.0667693 29.3544 0.0146592C29.3888 -8.89885e-05 29.4399 -0.00697138 29.4704 0.00974318C29.6149 0.0854503 29.7811 0.135594 29.8725 0.283075C29.9089 0.342068 29.9148 0.418759 29.9335 0.484634L29.9325 0.487583Z" fill="black"/>
<path d="M36.4895 3.55706C36.4895 3.92183 36.4826 4.28758 36.4924 4.65235C36.4974 4.81065 36.4334 4.92962 36.3341 5.03285C36.2909 5.0771 36.2181 5.09578 36.1562 5.11938C36.0116 5.17247 35.8769 5.11249 35.7422 5.07022C35.7078 5.0594 35.6675 5.02695 35.6538 4.99451C35.5879 4.83916 35.4935 4.6966 35.4955 4.5147C35.5023 3.98967 35.5004 3.46562 35.4955 2.94058C35.4955 2.8167 35.4866 2.68888 35.4591 2.56893C35.4306 2.44505 35.3126 2.39687 35.2025 2.37425C34.9773 2.32608 34.7915 2.41948 34.6283 2.56795C34.5653 2.62596 34.5703 2.6997 34.5703 2.77442C34.5703 3.32797 34.5712 3.88053 34.5693 4.43408C34.5693 4.52453 34.5663 4.61991 34.5368 4.70348C34.469 4.89815 34.3834 5.0771 34.1455 5.13216C33.8496 5.20098 33.532 4.92667 33.5399 4.67005C33.5585 3.99753 33.5399 3.32403 33.5497 2.65152C33.5526 2.46963 33.4956 2.32313 33.3668 2.21202C33.2134 2.07929 33.1938 1.87085 33.296 1.68109C33.354 1.57294 33.4582 1.49526 33.5949 1.47855C33.8132 1.452 33.998 1.51985 34.1593 1.66438C34.293 1.78433 34.3087 1.7804 34.4631 1.67814C34.5614 1.61325 34.6666 1.55622 34.7718 1.50215C34.8052 1.48445 34.8485 1.48052 34.8878 1.48052C35.1553 1.47855 35.4237 1.48052 35.6911 1.47855C35.8465 1.47855 35.9566 1.57884 36.0667 1.66143C36.1926 1.75582 36.2761 1.89445 36.3626 2.02915C36.4708 2.19728 36.4924 2.37524 36.4895 2.56696C36.4846 2.89732 36.4885 3.22866 36.4885 3.55902L36.4895 3.55706Z" fill="black"/>
<path d="M32.7936 3.27681C32.7936 3.52261 32.7985 3.76743 32.7916 4.01225C32.7886 4.13515 32.8181 4.23937 32.9125 4.31704C33.0325 4.41536 33.0836 4.55695 33.1465 4.69066C33.1642 4.72802 33.1682 4.78308 33.1534 4.82045C33.1229 4.8991 33.0797 4.97383 33.0344 5.0456C33.0177 5.07116 32.9823 5.08984 32.9519 5.10066C32.7375 5.17047 32.5251 5.14392 32.3138 5.08591C32.2823 5.07706 32.2498 5.05642 32.2282 5.03282C32.125 4.91778 31.9972 4.91778 31.891 4.99939C31.7484 5.10951 31.5822 5.12032 31.4239 5.13212C31.2214 5.14785 31.0159 5.12229 30.8124 5.11344C30.778 5.11246 30.7436 5.10361 30.7101 5.10656C30.5892 5.11738 30.484 5.081 30.3965 5.00037C30.2756 4.88829 30.1566 4.77325 30.0425 4.65428C30.013 4.6238 30.0032 4.57366 29.9885 4.5304C29.9737 4.48714 29.9717 4.43798 29.9501 4.39963C29.8606 4.24035 29.8842 4.06731 29.8862 3.89819C29.8862 3.85493 29.9059 3.80971 29.9206 3.76743C29.9344 3.73007 29.9599 3.69664 29.9708 3.65927C30.0534 3.35153 30.2746 3.16964 30.542 3.03297C30.5961 3.00544 30.661 2.98971 30.7229 2.98676C31.0179 2.97103 31.3138 2.96021 31.6088 2.94841C31.6255 2.94841 31.6432 2.95038 31.6599 2.94841C31.7858 2.94251 31.8438 2.86976 31.8202 2.74686C31.8025 2.65247 31.7858 2.5571 31.7671 2.46271C31.7484 2.3634 31.598 2.2405 31.477 2.23264C31.3001 2.22084 31.126 2.23067 30.9589 2.30539C30.8507 2.35357 30.7347 2.38798 30.6207 2.4224C30.4358 2.47844 30.1517 2.29261 30.1261 2.10089C30.1222 2.06746 30.1153 2.02715 30.13 1.99962C30.2126 1.83837 30.2913 1.67024 30.4889 1.61616C30.5164 1.6083 30.5479 1.60928 30.5705 1.59453C30.7642 1.46868 30.9805 1.47262 31.1978 1.47557C31.3807 1.47851 31.5626 1.4795 31.7455 1.47557C31.8674 1.4736 31.9765 1.50801 32.0915 1.54439C32.2823 1.60535 32.4111 1.73022 32.5261 1.8777C32.6854 2.08221 32.7945 2.30736 32.7936 2.57479C32.7926 2.8088 32.7936 3.0428 32.7936 3.27681ZM31.5704 3.66812C31.5704 3.66812 31.5704 3.66321 31.5695 3.66026C31.4967 3.67206 31.4249 3.6868 31.3522 3.69467C31.2784 3.70254 31.2047 3.6986 31.131 3.70745C31.0867 3.71335 31.0346 3.72122 31.0031 3.74875C30.954 3.79004 30.895 3.84412 30.8822 3.90114C30.8193 4.18824 30.891 4.30524 31.1673 4.39865C31.1781 4.40258 31.189 4.40651 31.1988 4.41241C31.2853 4.46747 31.3689 4.45567 31.4564 4.40848C31.5006 4.3839 31.5518 4.3721 31.6009 4.35735C31.6963 4.32786 31.7573 4.26395 31.775 4.16661C31.7907 4.08304 31.7936 3.99848 31.8064 3.91491C31.8389 3.70844 31.8005 3.66419 31.5881 3.66911C31.5822 3.66911 31.5763 3.66911 31.5714 3.66911L31.5704 3.66812Z" fill="black"/>
<path d="M37.1383 3.57754C37.1383 3.28651 37.1305 2.99548 37.1413 2.70445C37.1492 2.48421 37.1148 2.28363 36.9486 2.12829C36.8237 2.01227 36.807 1.87462 36.8807 1.74189C36.9584 1.60129 37.0754 1.48822 37.2544 1.4774C37.4766 1.46462 37.6673 1.54033 37.8286 1.68978C37.9456 1.79793 37.9515 1.79596 38.0763 1.68781C38.2248 1.55999 38.387 1.46462 38.5974 1.47347C38.8196 1.4833 39.0418 1.47839 39.264 1.47445C39.3712 1.47249 39.4558 1.50887 39.5482 1.56687C39.7134 1.67109 39.8137 1.82054 39.9267 1.96999C40.0958 2.19121 40.147 2.43898 40.1499 2.70248C40.1548 3.31306 40.148 3.92363 40.1548 4.53322C40.1568 4.67972 40.1086 4.80262 40.0359 4.91864C39.9051 5.12904 39.5806 5.20967 39.3702 5.06808C39.2444 4.98353 39.1549 4.85866 39.1559 4.68365C39.1608 4.11929 39.15 3.55394 39.1618 2.98958C39.1657 2.80375 39.091 2.65627 39.0025 2.51272C38.9465 2.42227 38.8491 2.36032 38.7292 2.36622C38.5424 2.37507 38.3713 2.41735 38.2307 2.55402C38.1599 2.62186 38.1294 2.69462 38.1304 2.7949C38.1343 3.41629 38.1304 4.03866 38.1324 4.66005C38.1324 4.76624 38.1127 4.85669 38.0409 4.9442C37.8777 5.14084 37.5867 5.19983 37.3704 5.06513C37.3419 5.04744 37.3114 5.02482 37.2957 4.99631C37.2141 4.84686 37.1275 4.7043 37.1354 4.51945C37.1482 4.20581 37.1393 3.89217 37.1393 3.57852L37.1383 3.57754Z" fill="black"/>
<path d="M26.9464 49.0698C26.7301 49.0698 26.5138 49.0708 26.2965 49.0698C26.092 49.0678 25.9229 48.9174 25.912 48.7168C25.8963 48.4219 25.8855 48.1259 25.8835 47.831C25.8825 47.6383 25.9091 47.4455 25.9071 47.2528C25.9042 46.8949 25.8904 46.5361 25.8816 46.1782C25.8776 46.0317 25.9071 45.8881 25.8855 45.7387C25.855 45.5273 25.9779 45.2825 26.2896 45.2766C26.6357 45.2697 26.9828 45.2894 27.3298 45.2982C27.4095 45.3002 27.4901 45.31 27.5687 45.3031C27.7674 45.2844 27.9168 45.3877 28.0672 45.4909C28.2078 45.5863 28.2934 45.7289 28.3651 45.8763C28.3966 45.9402 28.4055 46.0189 28.4094 46.0907C28.4163 46.2273 28.4015 46.365 28.4133 46.5007C28.432 46.7278 28.3071 46.8753 28.1518 47.007C28.0643 47.0818 28.0525 47.1132 28.1459 47.1683C28.318 47.2686 28.3966 47.4436 28.5077 47.592C28.5382 47.6333 28.5451 47.6992 28.547 47.7543C28.552 47.9362 28.551 48.119 28.547 48.3009C28.5461 48.3511 28.5402 48.4081 28.5146 48.4484C28.4281 48.5851 28.373 48.7453 28.2206 48.8358C28.0259 48.9518 27.8352 49.0728 27.5963 49.0708C27.38 49.0688 27.1637 49.0708 26.9464 49.0708V49.0698ZM27.201 48.3196C27.3151 48.3196 27.4281 48.3206 27.5412 48.3176C27.5796 48.3167 27.6287 48.3137 27.6523 48.2901C27.8086 48.1358 27.8578 47.8447 27.7221 47.6864C27.6799 47.6373 27.6218 47.5743 27.5658 47.5684C27.3298 47.5458 27.0919 47.537 26.854 47.534C26.7261 47.5321 26.6986 47.5704 26.6976 47.7012C26.6957 47.8487 26.7016 47.9971 26.6927 48.1436C26.6839 48.2793 26.7055 48.3147 26.8431 48.3186C26.9621 48.3226 27.0821 48.3186 27.201 48.3186V48.3196ZM27.1125 46.0248C27.0211 46.0238 26.9297 46.0179 26.8392 46.0248C26.7094 46.0356 26.6593 46.0966 26.6691 46.2096C26.6809 46.3561 26.6917 46.5036 26.6986 46.6511C26.7045 46.7888 26.7183 46.8074 26.8579 46.8094C27.0113 46.8114 27.1656 46.8104 27.319 46.8084C27.3524 46.8084 27.3918 46.8045 27.4163 46.7858C27.553 46.6836 27.6828 46.5872 27.6631 46.3748C27.6415 46.1467 27.5471 46.0297 27.318 46.0248C27.2492 46.0228 27.1814 46.0248 27.1125 46.0248Z" fill="black"/>
<path d="M42.4517 3.64351C42.1901 3.6327 41.9296 3.6209 41.6681 3.61303C41.6051 3.61107 41.554 3.6386 41.555 3.71234C41.555 3.82934 41.5353 3.94634 41.6327 4.04958C41.6867 4.10759 41.7015 4.19116 41.7782 4.24917C41.9581 4.38289 42.1547 4.36322 42.3504 4.34061C42.4546 4.32881 42.5539 4.27375 42.6572 4.2472C42.8214 4.20591 42.9875 4.16166 43.1566 4.22066C43.1989 4.2354 43.2432 4.25507 43.2746 4.28555C43.3552 4.3642 43.369 4.70243 43.2903 4.78797C43.2156 4.86957 43.1497 4.96986 43.019 4.97969C42.9875 4.98166 42.9551 5.00329 42.9256 5.02099C42.8155 5.08981 42.6955 5.10751 42.5667 5.10849C42.3966 5.10948 42.2275 5.13996 42.0574 5.13897C41.8647 5.13799 41.672 5.11734 41.4803 5.1026C41.4478 5.09965 41.4124 5.08785 41.3839 5.07113C41.1548 4.92955 40.9483 4.76339 40.8146 4.52152C40.8068 4.50677 40.8009 4.48907 40.79 4.47629C40.6003 4.26195 40.5659 3.99943 40.56 3.73003C40.5541 3.439 40.5541 3.14797 40.561 2.85793C40.5639 2.75174 40.5954 2.64654 40.6111 2.54035C40.6445 2.31814 40.7733 2.15297 40.912 1.98484C41.0653 1.79901 41.2443 1.6476 41.4429 1.5188C41.4911 1.48733 41.5609 1.48438 41.6218 1.4775C41.7398 1.46374 41.8588 1.45587 41.9778 1.448C42.0171 1.44505 42.0574 1.44604 42.0967 1.44997C42.1931 1.45784 42.2894 1.48143 42.3848 1.47357C42.5903 1.45685 42.7407 1.56599 42.8931 1.67414C42.9531 1.71642 43.0052 1.76951 43.0652 1.81277C43.2677 1.96124 43.3592 2.18148 43.4526 2.40172C43.4614 2.42237 43.4663 2.44596 43.4673 2.46759C43.4791 2.6603 43.4978 2.85301 43.4988 3.04572C43.4998 3.1696 43.4801 3.29447 43.4634 3.41836C43.4516 3.5039 43.4005 3.56584 43.3149 3.58845C43.2382 3.60812 43.1596 3.62876 43.0819 3.63073C42.8715 3.63663 42.6601 3.6327 42.4497 3.6327C42.4497 3.63663 42.4497 3.64056 42.4497 3.64449L42.4517 3.64351ZM42.0397 2.84809C42.1823 2.84711 42.3248 2.84809 42.4664 2.84613C42.5225 2.84613 42.5854 2.82253 42.5716 2.76354C42.5392 2.62097 42.5175 2.46858 42.4143 2.35551C42.2747 2.20409 41.9925 2.18345 41.8155 2.29455C41.6563 2.39484 41.5619 2.5315 41.5432 2.72224C41.5333 2.82056 41.5461 2.84416 41.6464 2.84711C41.7772 2.85104 41.908 2.84711 42.0397 2.84711V2.84809Z" fill="black"/>
<path d="M4.31587 46.6185C4.31587 47.0295 4.32275 47.4405 4.3139 47.8504C4.30505 48.2595 4.12808 48.582 3.77215 48.7953C3.6463 48.871 3.52144 48.9487 3.38969 49.0126C3.31988 49.046 3.23729 49.0637 3.1606 49.0667C2.96101 49.0736 2.76141 49.0726 2.56182 49.0677C2.44187 49.0647 2.32389 49.046 2.22065 48.9743C2.2118 48.9674 2.20295 48.9575 2.19214 48.9556C1.89029 48.8809 1.71626 48.6419 1.56681 48.4069C1.4508 48.2241 1.36034 48.0186 1.36624 47.7728C1.38295 46.9803 1.37214 46.1869 1.37214 45.3934C1.37214 45.1692 1.5147 44.9726 1.72609 44.9077C1.76247 44.8969 1.81557 44.8841 1.84211 44.9018C1.95322 44.9746 2.09087 45.0286 2.12921 45.1732C2.15969 45.2872 2.1882 45.4062 2.18919 45.5242C2.19509 46.2085 2.19115 46.8938 2.19607 47.5781C2.19607 47.6961 2.21377 47.816 2.23638 47.933C2.24621 47.9861 2.28259 48.0363 2.31602 48.0805C2.34945 48.1258 2.39861 48.1592 2.43499 48.2034C2.50971 48.2958 2.60312 48.3312 2.72012 48.3214C2.79386 48.3155 2.87055 48.3096 2.94233 48.3214C3.14192 48.3578 3.26285 48.2447 3.37789 48.112C3.45163 48.0274 3.44671 47.9183 3.45556 47.821C3.47817 47.5899 3.48997 47.3559 3.49194 47.1229C3.49784 46.5693 3.49391 46.0158 3.49587 45.4622C3.49587 45.2656 3.5529 45.0935 3.71513 44.9667C3.84295 44.8664 3.9806 44.8654 4.1035 44.9706C4.12906 44.9932 4.14971 45.0218 4.17724 45.0424C4.28539 45.125 4.32177 45.2312 4.31882 45.3688C4.31095 45.7847 4.31587 46.2016 4.31587 46.6185Z" fill="black"/>
<path d="M44.9018 5.14902C44.655 5.1323 44.423 5.11952 44.191 5.09986C44.1428 5.09592 44.0946 5.06839 44.0494 5.04676C44.0081 5.0271 43.9727 4.9976 43.9314 4.97892C43.7524 4.89732 43.6374 4.71247 43.6856 4.52468C43.7112 4.42734 43.7888 4.33689 43.8606 4.26216C43.896 4.2248 43.9737 4.21792 44.0327 4.21595C44.2087 4.21104 44.3768 4.21693 44.5479 4.29657C44.7229 4.3772 44.9293 4.37228 45.1201 4.34279C45.2273 4.32607 45.3325 4.26413 45.4269 4.20514C45.5183 4.14811 45.5193 3.93574 45.4298 3.86789C45.3403 3.80005 45.2489 3.73811 45.125 3.72926C44.9962 3.72041 44.8694 3.67715 44.7425 3.65061C44.654 3.63192 44.5636 3.61718 44.4761 3.59555C44.422 3.58178 44.3699 3.55917 44.3188 3.53655C44.2883 3.52279 44.2637 3.49329 44.2323 3.48346C44.0415 3.42447 43.9383 3.26322 43.8419 3.11574C43.7357 2.95154 43.6561 2.7667 43.6767 2.55531C43.7033 2.28886 43.8006 2.06371 44.0091 1.89066C44.074 1.83658 44.131 1.77268 44.1978 1.72155C44.2912 1.64879 44.3876 1.578 44.4899 1.51704C44.5361 1.48951 44.598 1.4787 44.6531 1.47771C44.9726 1.47476 45.2922 1.46198 45.6107 1.48066C45.886 1.49639 46.1131 1.62224 46.2409 1.88279C46.3285 2.06076 46.2105 2.30459 46.0237 2.36555C45.8565 2.41963 45.6982 2.36752 45.538 2.34097C45.3816 2.31541 45.2351 2.24953 45.0699 2.2574C44.95 2.2633 44.8428 2.29869 44.7475 2.35474C44.6137 2.43241 44.5813 2.61037 44.7445 2.72049C44.8586 2.79816 44.9805 2.86404 45.1368 2.85322C45.2459 2.84536 45.359 2.89157 45.4691 2.91713C45.5684 2.93975 45.6736 2.95154 45.7631 2.99382C45.8683 3.04397 45.9637 3.11967 46.0571 3.19145C46.1151 3.23667 46.1593 3.2996 46.2144 3.34876C46.3737 3.49133 46.416 3.68698 46.4474 3.88166C46.4799 4.08223 46.4435 4.27986 46.3393 4.45782C46.297 4.53058 46.2478 4.60727 46.1829 4.6584C46.0178 4.7872 45.8919 4.96516 45.6933 5.05266C45.6471 5.07331 45.5989 5.09789 45.5507 5.10281C45.3305 5.12247 45.1093 5.13624 44.9018 5.15098V5.14902Z" fill="black"/>
<path d="M39.6387 47.8508C39.6387 48.2215 39.6367 48.5921 39.6387 48.9628C39.6397 49.1132 39.6082 49.2479 39.5404 49.3875C39.4578 49.5557 39.3467 49.6904 39.2169 49.8172C39.1962 49.8369 39.1736 49.8703 39.153 49.8703C38.9681 49.8703 38.8207 50.0188 38.6289 49.9981C38.5277 49.9873 38.4234 49.9942 38.3212 49.9971C38.2121 50.0001 38.1059 49.9942 38.0066 49.9372C37.9682 49.9145 37.9191 49.8959 37.8768 49.8998C37.7185 49.9145 37.6438 49.7985 37.5553 49.7061C37.4933 49.6412 37.5071 49.5547 37.5268 49.478C37.5504 49.3856 37.6998 49.2784 37.7981 49.2764C37.9289 49.2735 38.0587 49.2745 38.1855 49.3197C38.3173 49.3669 38.452 49.3472 38.5886 49.3256C38.7676 49.2971 38.9042 49.067 38.8865 48.9018C38.8767 48.8065 38.8256 48.7701 38.7391 48.8074C38.7282 48.8124 38.7174 48.8173 38.7105 48.8251C38.6073 48.9441 38.4687 48.9264 38.331 48.9362C38.1187 48.952 37.9653 48.832 37.807 48.7249C37.7372 48.6777 37.687 48.6039 37.6221 48.5469C37.5041 48.4437 37.4579 48.2991 37.4196 48.1595C37.3842 48.0307 37.3812 47.8891 37.3822 47.7534C37.3832 47.5489 37.3891 47.3434 37.4137 47.1409C37.4383 46.9374 37.5071 46.7457 37.6713 46.6031C37.7185 46.5618 37.7568 46.5107 37.804 46.4704C37.9269 46.3661 38.0547 46.2816 38.2298 46.2904C38.4274 46.3003 38.628 46.2708 38.8089 46.3897C38.8865 46.4409 38.9672 46.4232 39.0439 46.3612C39.1746 46.256 39.3496 46.2747 39.4951 46.3681C39.6053 46.4389 39.6416 46.5235 39.6397 46.6513C39.6328 47.0505 39.6377 47.4496 39.6377 47.8488L39.6387 47.8508ZM38.8846 47.6315C38.8846 47.5008 38.8865 47.37 38.8846 47.2392C38.8816 47.075 38.8561 47.0377 38.6987 47.0072C38.5994 46.9885 38.4952 46.9797 38.3959 46.9895C38.3428 46.9944 38.271 47.0357 38.2475 47.0819C38.2012 47.1704 38.158 47.2638 38.1649 47.3729C38.1727 47.5086 38.157 47.6463 38.1698 47.782C38.1796 47.8931 38.2081 48.0051 38.2455 48.1104C38.2612 48.1546 38.3192 48.1929 38.3664 48.2165C38.507 48.2863 38.6407 48.2362 38.7774 48.19C38.8551 48.1634 38.8875 48.1202 38.8856 48.0415C38.8836 47.9049 38.8856 47.7692 38.8856 47.6325L38.8846 47.6315Z" fill="black"/>
<path d="M47.6125 49.109C47.3461 49.0942 47.117 49.0972 46.8938 49.0627C46.704 49.0333 46.5428 48.9221 46.4455 48.7501C46.3324 48.5485 46.472 48.284 46.6972 48.2536C46.7188 48.2506 46.7434 48.2526 46.765 48.2575C46.9695 48.3017 47.175 48.3421 47.3775 48.3951C47.6253 48.461 47.8495 48.3716 48.0746 48.2988C48.1238 48.2831 48.1779 48.2142 48.1887 48.1611C48.2133 48.0461 48.2221 47.9252 48.2172 47.8082C48.2152 47.761 48.169 47.702 48.1267 47.6745C48.0333 47.6125 47.9399 47.5545 47.8141 47.5584C47.7266 47.5614 47.6381 47.5221 47.5496 47.5004C47.4562 47.4768 47.3638 47.4523 47.2723 47.4257C47.2242 47.4119 47.177 47.3923 47.1298 47.3726C47.0678 47.3461 47.0049 47.3215 46.9469 47.2881C46.7984 47.2035 46.6657 47.1003 46.5605 46.9626C46.3904 46.7404 46.4061 46.4848 46.4189 46.2301C46.4209 46.18 46.4366 46.1289 46.4573 46.0817C46.5359 45.8998 46.6215 45.7159 46.7571 45.5753C46.8869 45.4396 47.0374 45.3069 47.2497 45.3039C47.294 45.3039 47.3402 45.2892 47.3815 45.2725C47.642 45.1712 47.9036 45.185 48.169 45.2548C48.2673 45.2803 48.3696 45.2951 48.4699 45.3049C48.6301 45.3216 48.7629 45.419 48.812 45.5684C48.8602 45.7149 48.812 45.8811 48.695 45.9853C48.583 46.0856 48.4512 46.0649 48.3214 46.0463C48.2605 46.0374 48.2044 46.004 48.1444 45.9843C47.8809 45.8948 47.6204 45.8791 47.3707 46.0276C47.2615 46.0925 47.173 46.2606 47.2055 46.3786C47.2428 46.5153 47.291 46.65 47.4641 46.6824C47.5811 46.704 47.6922 46.7512 47.8082 46.7817C47.8741 46.7984 47.9419 46.8033 48.0097 46.8132C48.0432 46.8181 48.0815 46.8132 48.11 46.8269C48.3145 46.9233 48.5456 46.9606 48.7285 47.1003C48.8386 47.1848 48.9192 47.294 48.9448 47.4365C48.9517 47.4749 48.9566 47.5181 48.9753 47.5506C49.0923 47.7492 49.0716 47.9507 48.9949 48.1552C48.9812 48.1926 48.9625 48.23 48.9585 48.2693C48.932 48.5112 48.7757 48.6645 48.5967 48.8012C48.5033 48.873 48.407 48.9418 48.3057 49.0038C48.2536 49.0352 48.1916 49.0608 48.1317 49.0677C47.9458 49.0883 47.759 49.1001 47.6106 49.1109L47.6125 49.109Z" fill="black"/>
<path d="M51.8915 47.6896C51.8915 47.5815 51.8915 47.4733 51.8915 47.3642C51.8934 47.0122 51.8797 47.0043 52.038 46.7113C52.1727 46.4626 52.3693 46.2768 52.6869 46.2945C52.7724 46.2994 52.858 46.2964 52.9435 46.2945C53.03 46.2925 53.1116 46.2945 53.1814 46.3643C53.2021 46.3849 53.2631 46.3908 53.2867 46.3751C53.3112 46.3593 53.326 46.3082 53.324 46.2728C53.3191 46.1312 53.3103 45.9897 53.2935 45.8491C53.2758 45.7026 53.3378 45.5826 53.4046 45.4627C53.5266 45.2444 53.8854 45.2434 54.0054 45.4627C54.0732 45.5875 54.143 45.7124 54.0889 45.8668C54.0732 45.913 54.083 45.969 54.083 46.0201C54.083 46.6877 54.0791 47.3553 54.087 48.022C54.0889 48.2196 54.1165 48.4113 54.2502 48.5834C54.3348 48.6915 54.3053 48.8459 54.261 48.9776C54.2384 49.0445 54.1745 49.0661 54.1086 49.0681C54.0005 49.071 53.8913 49.075 53.7842 49.0642C53.7379 49.0602 53.6907 49.0278 53.6524 48.9983C53.5501 48.9206 53.4902 48.9029 53.3909 48.9727C53.2758 49.0533 53.1519 49.072 53.0192 49.071C52.8934 49.0691 52.7685 49.0642 52.6426 49.071C52.329 49.0858 52.1746 48.8783 52.0183 48.6532C51.8826 48.4585 51.8895 48.2471 51.8905 48.0308C51.8905 47.9167 51.8905 47.8027 51.8905 47.6886L51.8915 47.6896ZM53.3289 47.7004C53.3289 47.7004 53.3358 47.7004 53.3397 47.7004C53.3397 47.5471 53.3378 47.3927 53.3397 47.2393C53.3417 47.1086 53.2631 47.0053 53.1352 46.9886C53.0625 46.9798 52.9868 46.9788 52.913 46.9827C52.7429 46.9916 52.6446 47.0948 52.6436 47.2669C52.6426 47.552 52.6426 47.8371 52.6436 48.1222C52.6436 48.3336 52.8354 48.489 53.0418 48.4487C53.2365 48.4113 53.3289 48.2963 53.3289 48.0927C53.3289 47.962 53.3289 47.8302 53.3289 47.6995V47.7004Z" fill="black"/>
<path d="M4.82813 47.7709C4.82813 47.5428 4.82224 47.3147 4.8301 47.0866C4.83502 46.9254 4.81044 46.7818 4.68852 46.6658C4.65116 46.6304 4.62068 46.5891 4.58823 46.5498C4.50466 46.4456 4.50859 46.4023 4.60298 46.302C4.69638 46.2017 4.78389 46.1024 4.9471 46.1231C5.07492 46.1398 5.20274 46.1211 5.31974 46.2096C5.43183 46.2951 5.56063 46.302 5.67763 46.1919C5.70909 46.1624 5.7553 46.1388 5.79856 46.1329C6.09746 46.0887 6.3993 46.0542 6.69525 46.1329C6.87616 46.1811 7.18096 46.3984 7.19177 46.6373C7.19177 46.6491 7.19275 46.6609 7.19669 46.6707C7.30582 46.9667 7.29697 47.2734 7.29402 47.5812C7.29107 47.8722 7.28714 48.1632 7.29501 48.4533C7.29992 48.6155 7.23995 48.7581 7.17014 48.8918C7.05019 49.1219 6.73654 49.1278 6.5694 48.9311C6.46518 48.8082 6.43372 48.6794 6.43568 48.5241C6.44257 48.0738 6.43863 47.6234 6.43765 47.1731C6.43765 46.9676 6.34228 46.8752 6.13384 46.8762C6.07681 46.8762 6.01979 46.8762 5.96276 46.8762C5.77792 46.8792 5.68451 46.9765 5.68451 47.1633C5.68451 47.6254 5.67763 48.0875 5.68844 48.5486C5.69336 48.7394 5.6088 48.882 5.4859 48.999C5.35907 49.1199 5.06509 49.0953 4.95792 48.9173C4.87238 48.7738 4.8124 48.6293 4.8242 48.4533C4.83895 48.2261 4.82813 47.9971 4.82813 47.769V47.7709Z" fill="black"/>
<path d="M12.9288 47.8368C12.7459 47.8368 12.564 47.8358 12.3812 47.8368C12.2337 47.8378 12.212 47.8673 12.2406 48.0118C12.2425 48.0227 12.2474 48.0335 12.2494 48.0443C12.2946 48.2822 12.3723 48.3471 12.6161 48.353C12.8383 48.3579 13.0596 48.3373 13.2739 48.2783C13.3988 48.2439 13.502 48.2675 13.5856 48.353C13.679 48.4484 13.6898 48.6254 13.618 48.7374C13.562 48.825 13.4863 48.8898 13.387 48.9321C13.0635 49.0708 12.7253 49.0875 12.3812 49.0698C12.1973 49.0599 12.039 48.9705 11.9043 48.8613C11.7647 48.7483 11.6398 48.6086 11.5356 48.4612C11.4658 48.3628 11.4166 48.2331 11.4068 48.1131C11.3802 47.7788 11.3773 47.4426 11.3704 47.1073C11.3694 47.0522 11.3832 46.9913 11.4088 46.9431C11.4953 46.7779 11.5848 46.6147 11.685 46.4574C11.7263 46.3925 11.7952 46.3433 11.8561 46.2932C11.9043 46.2539 11.9574 46.2204 12.0115 46.189C12.0498 46.1664 12.0911 46.1388 12.1344 46.1329C12.4451 46.0877 12.7597 46.0533 13.0655 46.1369C13.3221 46.2067 13.5512 46.3325 13.6298 46.6226C13.6387 46.654 13.6623 46.6816 13.678 46.7111C13.7036 46.7612 13.739 46.8104 13.7488 46.8635C13.7911 47.0876 13.8225 47.3147 13.795 47.5419C13.7645 47.7857 13.6475 47.8486 13.4764 47.8408C13.2946 47.8329 13.1117 47.8388 12.9288 47.8388V47.8368ZM12.623 47.1869C12.6968 47.1869 12.7705 47.1869 12.8442 47.1869C12.9986 47.185 13.0556 47.1073 12.9858 46.9726C12.9141 46.8369 12.8315 46.7022 12.6378 46.7415C12.6053 46.7484 12.5699 46.7415 12.5355 46.7425C12.3507 46.7523 12.2268 46.9057 12.2553 47.0857C12.2661 47.1535 12.3005 47.1869 12.3674 47.1869C12.4519 47.1869 12.5375 47.1869 12.622 47.1869H12.623Z" fill="black"/>
<path d="M23.1945 47.8369C23.0117 47.8369 22.8298 47.8349 22.6469 47.8369C22.4994 47.8388 22.4788 47.8664 22.5083 48.0129C22.5112 48.0296 22.5181 48.0453 22.5201 48.063C22.5545 48.2734 22.6194 48.3373 22.8268 48.3501C23.0667 48.3648 23.3037 48.3373 23.5367 48.2813C23.6655 48.2498 23.8179 48.2999 23.8818 48.4002C23.9565 48.5182 23.9447 48.651 23.8444 48.7621C23.7599 48.8545 23.6645 48.9233 23.5406 48.9705C23.2309 49.0895 22.9133 49.0806 22.5958 49.0629C22.4158 49.0531 22.2703 48.9371 22.1317 48.8289C22.0737 48.7837 22.0265 48.7247 21.9724 48.6745C21.7394 48.4622 21.6509 48.1869 21.6391 47.8831C21.6312 47.6776 21.6293 47.4721 21.6391 47.2676C21.6519 47.0139 21.7227 46.777 21.8839 46.5734C21.9262 46.5203 21.9478 46.4476 21.997 46.4043C22.1622 46.2588 22.3234 46.1064 22.5732 46.1212C22.6961 46.128 22.8209 46.0956 22.9458 46.0917C23.1965 46.0838 23.4295 46.1546 23.6419 46.2814C23.7107 46.3227 23.7678 46.3984 23.809 46.4702C23.9162 46.6531 24.0608 46.8241 24.0322 47.0601C24.0273 47.0985 24.0362 47.1398 24.046 47.1781C24.0824 47.3266 24.0686 47.4721 24.0273 47.6166C23.985 47.7651 23.9005 47.8329 23.7412 47.8349C23.5583 47.8378 23.3764 47.8349 23.1936 47.8349L23.1945 47.8369ZM22.8888 47.187C22.9792 47.187 23.0707 47.1909 23.1611 47.186C23.2506 47.1811 23.2938 47.1329 23.2703 47.0552C23.2339 46.9343 23.1719 46.8084 23.0569 46.7622C22.9409 46.716 22.8003 46.7111 22.6793 46.7779C22.6046 46.8183 22.5338 46.8664 22.5063 46.9559C22.4679 47.0798 22.5378 47.182 22.6685 47.186C22.7423 47.1879 22.816 47.186 22.8897 47.186L22.8888 47.187Z" fill="black"/>
<path d="M34.8475 48.4896C34.8357 48.3716 34.8092 48.2527 34.8151 48.1347C34.8229 47.9725 34.9016 47.826 35.0028 47.708C35.1012 47.5929 35.2359 47.5202 35.3981 47.4907C35.582 47.4573 35.7639 47.414 35.9526 47.416C36.0136 47.416 36.0745 47.411 36.1345 47.4189C36.2427 47.4317 36.2781 47.4061 36.2859 47.294C36.2879 47.2714 36.2859 47.2488 36.2859 47.2252C36.285 47.0325 36.1955 46.9293 36.0038 46.9175C35.9261 46.9126 35.8455 46.9273 35.7688 46.945C35.6636 46.9696 35.5623 47.0089 35.4571 47.0335C35.3971 47.0472 35.3322 47.0541 35.2722 47.0463C34.9832 47.0069 34.9734 46.7169 35.1022 46.5714C35.1808 46.4829 35.2673 46.4141 35.3912 46.3767C35.5938 46.3148 35.7914 46.2499 36.0057 46.2666C36.1247 46.2754 36.2456 46.2803 36.3597 46.3079C36.4924 46.3393 36.6183 46.3934 36.7136 46.5016C36.7736 46.5704 36.8434 46.6304 36.9054 46.6962C36.9899 46.7867 37.0332 46.8919 37.0391 47.0187C37.0469 47.1829 37.0774 47.3452 37.0912 47.5084C37.101 47.6273 37.104 47.7473 37.102 47.8663C37.0991 47.9951 37.0823 48.1239 37.0804 48.2517C37.0794 48.3008 37.0922 48.3539 37.1128 48.3982C37.1541 48.4857 37.2023 48.5693 37.2524 48.6519C37.3616 48.8288 37.2937 49.0107 37.0932 49.0658C36.8985 49.1189 36.7107 49.113 36.5494 48.9734C36.4806 48.9144 36.4157 48.934 36.3666 48.9832C36.284 49.0648 36.1886 49.0707 36.0844 49.0717C36.0116 49.0717 35.9379 49.1022 35.8661 49.0992C35.696 49.0933 35.523 49.0933 35.3588 49.0559C35.2427 49.0294 35.1267 48.9645 35.0589 48.8475C35.0422 48.818 35.0255 48.7846 34.9989 48.7659C34.938 48.7226 34.9094 48.6725 34.9085 48.5948C34.9085 48.5584 34.8672 48.5221 34.8455 48.4857L34.8475 48.4877V48.4896ZM35.987 47.9725V47.9744C35.9418 47.9744 35.8966 47.9744 35.8514 47.9744C35.694 47.9764 35.6734 47.9941 35.6331 48.1514C35.6262 48.1789 35.6154 48.2055 35.6115 48.233C35.5938 48.351 35.6596 48.4768 35.7609 48.4818C35.8887 48.4877 36.0195 48.4739 36.1473 48.4562C36.2466 48.4434 36.2869 48.3726 36.2859 48.2733C36.2859 48.2173 36.2977 48.1612 36.3026 48.1052C36.3105 48.0167 36.2791 47.9774 36.1915 47.9725C36.1237 47.9685 36.0559 47.9725 35.988 47.9725H35.987Z" fill="black"/>
<path d="M40.1175 47.9147C40.1175 47.6984 40.1038 47.4801 40.1215 47.2648C40.1362 47.08 40.0625 46.9482 39.9435 46.8263C39.9238 46.8057 39.9012 46.787 39.8835 46.7653C39.8226 46.6857 39.8304 46.5549 39.9002 46.4822C39.912 46.4704 39.9278 46.4625 39.9415 46.4517C40.1814 46.2639 40.3446 46.2678 40.5777 46.4655C40.6917 46.5628 40.7035 46.5589 40.8215 46.4674C41.2423 46.141 41.9886 46.1646 42.2511 46.8007C42.3366 47.0082 42.3789 47.2078 42.3779 47.4261C42.376 47.8311 42.3681 48.2362 42.3809 48.6413C42.3868 48.8301 42.2747 48.9471 42.1606 49.0434C42.0692 49.1201 41.9129 49.1044 41.8018 49.0464C41.7054 48.9962 41.6209 48.9146 41.6218 48.778C41.6268 48.3444 41.614 47.9108 41.6267 47.4772C41.6317 47.3091 41.5569 47.193 41.4567 47.0839C41.3741 46.9944 41.2561 47.0052 41.1509 47.0259C40.9739 47.0593 40.8726 47.193 40.8726 47.373C40.8726 47.8233 40.8726 48.2746 40.8726 48.7249C40.8726 48.949 40.7517 49.069 40.5265 49.0749C40.2571 49.0808 40.1215 48.9461 40.1195 48.6698C40.1195 48.658 40.1195 48.6472 40.1195 48.6354C40.1195 48.3955 40.1195 48.1566 40.1195 47.9167L40.1175 47.9147Z" fill="black"/>
<path d="M17.0583 49.0836C16.7899 49.0964 16.5382 49.0374 16.2904 48.9401C16.1479 48.884 16.1046 48.7562 16.0623 48.6402C16.0191 48.5203 16.1174 48.417 16.199 48.3462C16.2914 48.2666 16.4212 48.2666 16.5421 48.2922C16.7594 48.3394 16.9797 48.3649 17.2028 48.3521C17.2648 48.3482 17.3267 48.3384 17.3877 48.3246C17.5204 48.2931 17.5253 48.2843 17.5273 48.1555C17.5293 48.0139 17.5214 47.9923 17.3916 47.9608C17.1891 47.9107 16.9954 47.8084 16.7771 47.8359C16.7663 47.8369 16.7525 47.8369 16.7437 47.832C16.5667 47.714 16.3396 47.6786 16.2059 47.4938C16.1931 47.4751 16.1744 47.4574 16.1705 47.4368C16.142 47.2863 16.0859 47.1339 16.0977 46.9865C16.1174 46.7397 16.1675 46.4919 16.3897 46.3248C16.5854 46.1773 16.8027 46.0898 17.0485 46.0947C17.3041 46.0996 17.5598 46.1114 17.8144 46.134C18.016 46.1517 18.1693 46.3051 18.2077 46.5047C18.2431 46.6846 18.0907 46.8842 17.9088 46.8783C17.78 46.8744 17.6502 46.8488 17.5224 46.8252C17.428 46.8085 17.3356 46.776 17.2412 46.7583C17.1281 46.7357 16.9747 46.8095 16.9177 46.9058C16.8686 46.9894 16.8872 47.069 16.9806 47.0985C17.1429 47.1487 17.309 47.1841 17.4742 47.2234C17.5017 47.2303 17.5352 47.2195 17.5588 47.2323C17.8016 47.3581 18.0868 47.42 18.2411 47.6796C18.2549 47.7032 18.2736 47.7288 18.2775 47.7553C18.3149 47.9864 18.3473 48.2214 18.2726 48.4475C18.2372 48.5557 18.1595 48.6599 18.0779 48.7415C17.9914 48.827 17.895 48.9106 17.7672 48.944C17.6817 48.9666 17.603 49.0246 17.5175 49.0394C17.367 49.0659 17.2137 49.0718 17.0613 49.0866L17.0583 49.0836Z" fill="black"/>
<path d="M49.2899 47.494C49.2899 47.2255 49.2879 46.9581 49.2899 46.6897C49.2919 46.4478 49.5455 46.2472 49.7786 46.2994C49.8798 46.322 50.0273 46.496 50.0401 46.612C50.045 46.6572 50.043 46.7035 50.043 46.7487C50.043 47.1764 50.043 47.6041 50.043 48.0318C50.043 48.077 50.0401 48.1242 50.048 48.1684C50.0607 48.2461 50.0971 48.313 50.1846 48.3228C50.2967 48.3356 50.4108 48.3533 50.5219 48.3415C50.6802 48.3258 50.7608 48.2156 50.7618 48.0436C50.7618 47.6444 50.7608 47.2452 50.7618 46.846C50.7618 46.7782 50.7775 46.7103 50.7765 46.6425C50.7736 46.4822 50.8817 46.4006 50.9968 46.3249C51.0892 46.264 51.2819 46.2846 51.3615 46.3652C51.4618 46.4655 51.5208 46.5815 51.5198 46.73C51.5159 47.2206 51.5198 47.7113 51.5159 48.2009C51.5149 48.3267 51.5287 48.4388 51.6358 48.5224C51.6575 48.5391 51.6703 48.5666 51.687 48.5902C51.8276 48.7888 51.8285 48.7908 51.6781 48.9845C51.6614 49.0071 51.6427 49.0307 51.6201 49.0455C51.5346 49.1025 51.1904 49.0759 51.1128 49.0091C50.9653 48.8813 50.8709 48.8636 50.7195 48.9806C50.6241 49.0543 50.5287 49.0592 50.4206 49.075C50.2495 49.1005 50.0814 49.0671 49.9123 49.0671C49.8582 49.0671 49.7884 49.0553 49.753 49.0209C49.6389 48.9117 49.5357 48.7908 49.4325 48.6709C49.2879 48.5027 49.282 48.3002 49.2889 48.0917C49.2958 47.8922 49.2899 47.6926 49.2899 47.493V47.494Z" fill="black"/>
<path d="M30.8075 47.718C30.8075 47.5469 30.8134 47.3759 30.8056 47.2048C30.7967 47.0013 30.899 46.8459 31.0111 46.6945C31.0583 46.6306 31.1212 46.5795 31.1782 46.5234C31.3483 46.3553 31.5597 46.2796 31.7917 46.2688C31.9323 46.2619 32.0808 46.2648 32.2135 46.3042C32.3394 46.3415 32.4652 46.4153 32.5626 46.5047C32.6904 46.6217 32.8015 46.7623 32.8978 46.9079C32.9519 46.9885 32.9726 47.0966 32.9903 47.1959C33.0129 47.3238 33.0227 47.4545 33.0276 47.5853C33.0296 47.6394 33.0129 47.6984 32.9893 47.7475C32.9224 47.8852 32.8251 47.9579 32.653 47.9491C32.421 47.9383 32.188 47.9658 31.9549 47.9707C31.8704 47.9727 31.7858 47.9589 31.7023 47.9491C31.601 47.9363 31.5685 47.9628 31.5587 48.0651C31.5449 48.1998 31.5843 48.3148 31.6934 48.3964C31.7317 48.425 31.7819 48.4486 31.8291 48.4525C31.9313 48.4604 32.0346 48.4584 32.1368 48.4525C32.187 48.4495 32.2361 48.4318 32.2843 48.4171C32.3109 48.4092 32.3354 48.3915 32.361 48.3807C32.6107 48.2745 32.7631 48.3276 32.8762 48.5675C32.8939 48.6049 32.9008 48.6649 32.8831 48.6983C32.8438 48.772 32.7975 48.8546 32.7317 48.8998C32.5881 48.9982 32.4338 49.0837 32.246 49.0729C32.1683 49.069 32.0887 49.0945 32.01 49.0955C31.7131 49.0985 31.4181 49.0798 31.1625 48.9028C31.1123 48.8684 31.072 48.8163 31.0366 48.7661C30.9118 48.5842 30.779 48.4073 30.8046 48.1634C30.8193 48.0169 30.8075 47.8675 30.8075 47.719V47.718ZM31.8979 47.3562C32.008 47.3562 32.0828 47.3621 32.1555 47.3542C32.2332 47.3464 32.2823 47.2884 32.2637 47.2323C32.2184 47.0947 32.1555 46.9747 31.9992 46.9265C31.774 46.8558 31.5489 47.019 31.5587 47.2549C31.5626 47.3533 31.599 47.3847 31.6973 47.3749C31.776 47.367 31.8547 47.3601 31.8979 47.3562Z" fill="black"/>
<path d="M42.6306 47.8044C42.6631 47.5251 42.6827 47.2577 42.7289 46.9962C42.7457 46.9028 42.8155 46.8104 42.8833 46.7376C43.0239 46.5842 43.1635 46.423 43.368 46.3512C43.4742 46.3138 43.5853 46.2755 43.6954 46.2706C43.9235 46.2607 44.1477 46.2971 44.3473 46.4181C44.4092 46.4554 44.4584 46.5154 44.5085 46.5695C44.5705 46.6363 44.6265 46.7081 44.6845 46.7779C44.7888 46.9038 44.8605 47.0365 44.8468 47.2115C44.8379 47.3226 44.8655 47.4367 44.8743 47.5497C44.8773 47.5832 44.8743 47.6186 44.8694 47.652C44.832 47.8811 44.7593 47.9391 44.5262 47.945C44.2873 47.9509 44.0494 47.9646 43.8105 47.9715C43.7544 47.9735 43.6974 47.9666 43.6414 47.9578C43.4801 47.9312 43.4388 47.9764 43.4585 48.1367C43.4713 48.2419 43.4811 48.3422 43.5794 48.4041C43.6168 48.4277 43.66 48.4533 43.7013 48.4533C43.9049 48.4533 44.1084 48.472 44.3031 48.3697C44.4545 48.2901 44.6138 48.3392 44.6718 48.4651C44.7662 48.6725 44.7416 48.823 44.5764 48.9292C44.425 49.0265 44.2667 49.0943 44.0789 49.0737C44.0238 49.0678 43.9658 49.0806 43.9098 49.0914C43.7141 49.1297 43.5175 49.0983 43.3375 49.0462C43.1448 48.9901 42.9777 48.8633 42.8597 48.6863C42.784 48.5723 42.7142 48.4621 42.7063 48.3156C42.6965 48.1416 42.6562 47.9696 42.6306 47.8054V47.8044ZM43.7918 47.3619C43.8714 47.3619 43.9511 47.3649 44.0297 47.359C44.0592 47.357 44.0986 47.3383 44.1123 47.3157C44.1575 47.2381 44.1064 47.0483 44.0317 46.9893C43.9078 46.891 43.7731 46.8979 43.6296 46.9362C43.4752 46.9785 43.4654 47.1063 43.4447 47.2272C43.43 47.3147 43.4624 47.355 43.5529 47.3609C43.6315 47.3659 43.7121 47.3619 43.7908 47.3619H43.7918Z" fill="black"/>
<path d="M11.2976 46.546C11.3035 46.6433 11.2996 46.7554 11.216 46.8508C11.1953 46.8744 11.1855 46.9127 11.1796 46.9461C11.1413 47.186 11.0302 47.3955 10.922 47.6088C10.8463 47.7583 10.805 47.9254 10.7411 48.0817C10.6693 48.2597 10.6143 48.4436 10.5218 48.6156C10.454 48.7405 10.4029 48.8693 10.2918 48.9676C10.0932 49.1436 9.75396 49.0935 9.60353 48.8772C9.49144 48.7169 9.43442 48.534 9.34298 48.3659C9.26334 48.2194 9.22401 48.0513 9.16502 47.893C9.15125 47.8566 9.12765 47.8232 9.10799 47.7878C9.09423 47.7632 9.07259 47.7406 9.06473 47.715C9.00869 47.5272 8.95461 47.3384 8.90053 47.1497C8.89267 47.1221 8.89168 47.0897 8.87497 47.069C8.73339 46.8862 8.75895 46.6571 8.70291 46.4506C8.66849 46.3218 8.7973 46.1566 8.932 46.1193C8.93789 46.1173 8.94281 46.1163 8.94871 46.1153C9.2594 46.0131 9.46195 46.2304 9.50914 46.4968C9.52782 46.605 9.54257 46.7082 9.59763 46.8045C9.61139 46.8291 9.62024 46.8576 9.62614 46.8852C9.65072 47.014 9.68808 47.1379 9.75003 47.2549C9.77362 47.2991 9.77461 47.3532 9.78837 47.4033C9.80705 47.4741 9.82967 47.5439 9.84835 47.6137C9.86703 47.6845 9.87883 47.7573 9.90242 47.8261C9.91127 47.8546 9.93782 47.892 9.9624 47.8969C9.98403 47.9018 10.0145 47.8694 10.0401 47.8507C10.0479 47.8448 10.0529 47.832 10.0568 47.8212C10.1266 47.6009 10.2633 47.4033 10.2731 47.1634C10.2731 47.1467 10.2731 47.1261 10.281 47.1133C10.3921 46.9432 10.4029 46.7357 10.4845 46.5548C10.51 46.4988 10.5336 46.4388 10.5435 46.3778C10.5622 46.2589 10.6261 46.1841 10.7323 46.133C10.8729 46.0652 11.0115 46.0789 11.1442 46.1429C11.2357 46.1861 11.2907 46.2697 11.2966 46.3749C11.2996 46.426 11.2966 46.4771 11.2966 46.5469L11.2976 46.546Z" fill="black"/>
<path d="M20.7443 47.3904C20.7443 47.533 20.7404 47.6756 20.7463 47.8181C20.7492 47.8909 20.7561 47.9686 20.7836 48.0344C20.877 48.2665 20.9419 48.3156 21.173 48.3166C21.2074 48.3166 21.2418 48.3166 21.2752 48.3166C21.4876 48.3196 21.5869 48.4051 21.6253 48.6145C21.6528 48.7689 21.4768 49.0226 21.3195 49.0334C21.1553 49.0442 20.9862 49.054 20.8249 49.0285C20.6942 49.0078 20.5644 48.9478 20.4484 48.88C20.2635 48.7728 20.1386 48.6008 20.0285 48.4198C20.0108 48.3913 19.998 48.3569 19.9951 48.3245C19.9646 47.9282 19.8987 47.534 19.9243 47.1348C19.9253 47.1181 19.9253 47.1004 19.9253 47.0837C19.9253 47.0237 19.9833 46.9608 19.9273 46.9057C19.8673 46.8467 19.8073 46.7749 19.7326 46.7474C19.6166 46.7041 19.5654 46.6412 19.5782 46.5203C19.5821 46.481 19.5812 46.4406 19.5782 46.4003C19.5674 46.2725 19.6323 46.185 19.7434 46.1516C19.8732 46.1123 19.9273 46.0434 19.9292 45.9068C19.9312 45.8006 19.9705 45.6964 19.9872 45.5892C19.9971 45.5263 20.0275 45.485 20.0846 45.4604C20.1003 45.4535 20.115 45.4456 20.1298 45.4368C20.2016 45.3955 20.2596 45.3031 20.3549 45.3444C20.4631 45.3916 20.5722 45.4466 20.6607 45.5223C20.7089 45.5626 20.7295 45.6501 20.7394 45.72C20.7522 45.8094 20.7394 45.9018 20.7423 45.9933C20.7453 46.1005 20.7679 46.1241 20.8741 46.127C20.9822 46.13 21.0904 46.125 21.1985 46.127C21.3903 46.1319 21.5318 46.3463 21.466 46.5272C21.3903 46.7336 21.3342 46.774 21.115 46.7769C21.0353 46.7769 20.9557 46.773 20.876 46.7769C20.7699 46.7808 20.7472 46.8025 20.7443 46.9116C20.7404 47.0709 20.7433 47.2311 20.7433 47.3904H20.7443Z" fill="black"/>
<path d="M34.8455 48.4876C34.8534 48.5378 34.8671 48.5889 34.8671 48.639C34.8671 48.7226 34.8691 48.8091 34.8494 48.8888C34.818 49.0146 34.7275 49.0746 34.5948 49.0707C34.5034 49.0677 34.4109 49.0589 34.3215 49.0726C34.114 49.1041 33.9213 49.0343 33.7797 48.9143C33.6194 48.7786 33.4602 48.6361 33.3953 48.3962C33.2901 48.0068 33.3068 47.6175 33.3117 47.2262C33.3137 47.0836 33.2793 46.9853 33.1573 46.9164C33.1475 46.9105 33.1387 46.9027 33.1308 46.8948C33.0875 46.8516 33.0207 46.8142 33.0089 46.764C32.9902 46.6844 33.003 46.5949 33.0167 46.5114C33.0217 46.4789 33.061 46.4484 33.0905 46.4239C33.12 46.3983 33.1593 46.3835 33.1908 46.359C33.2694 46.296 33.3166 46.2233 33.3117 46.1112C33.2999 45.8526 33.5074 45.6864 33.7089 45.6216C33.7247 45.6166 33.7483 45.6137 33.7581 45.6216C33.8485 45.6943 33.9813 45.7081 34.0314 45.8388C34.0707 45.9421 34.1582 46.0266 34.1002 46.1554C34.0766 46.2075 34.1258 46.2557 34.1799 46.2685C34.2448 46.2842 34.3136 46.2921 34.3805 46.2941C34.5968 46.3 34.7344 46.415 34.7688 46.6254C34.7944 46.7808 34.6282 46.9676 34.4483 46.9823C34.3864 46.9872 34.3224 46.9794 34.2605 46.9863C34.1238 47.001 34.0993 47.0531 34.1101 47.1917C34.1229 47.3471 34.1297 47.5073 34.1101 47.6607C34.0825 47.8652 34.1376 48.056 34.17 48.2497C34.1818 48.3175 34.2448 48.3559 34.3126 48.348C34.5112 48.3254 34.6764 48.4178 34.8494 48.4896L34.8475 48.4876H34.8455Z" fill="black"/>
<path d="M14.2384 47.8889C14.2384 47.6323 14.2305 47.3747 14.2414 47.1191C14.2482 46.9539 14.1784 46.829 14.0644 46.7307C13.967 46.6471 13.9395 46.5419 13.9326 46.4289C13.9228 46.2499 14.03 46.1368 14.2079 46.128C14.2709 46.1251 14.3338 46.129 14.3957 46.127C14.495 46.1231 14.5904 46.127 14.6602 46.2126C14.6641 46.2165 14.6691 46.2194 14.674 46.2224C14.8745 46.3561 14.9129 46.3532 15.1076 46.2057C15.1479 46.1752 15.1941 46.1408 15.2413 46.1359C15.4605 46.1103 15.6778 46.0631 15.901 46.1251C16.0691 46.1713 16.1871 46.3689 16.1272 46.5341C16.1095 46.5822 16.0957 46.6314 16.0819 46.6806C16.0357 46.8457 15.9944 46.8792 15.8155 46.8811C15.6788 46.8831 15.5421 46.8802 15.4045 46.8811C15.1616 46.8811 15.0328 47.0099 15.0299 47.2587C15.0269 47.5949 15.0319 47.9322 15.0269 48.2684C15.024 48.4444 15.0122 48.6204 14.9906 48.7945C14.9748 48.9262 14.8667 49 14.7605 49.0491C14.5255 49.1573 14.2433 48.9705 14.2414 48.7129C14.2394 48.4385 14.2414 48.1652 14.2414 47.8909H14.2384V47.8889Z" fill="black"/>
<path d="M28.961 47.9233C28.961 47.7178 28.9639 47.5123 28.961 47.3068C28.958 47.1347 28.9315 46.9745 28.8017 46.8358C28.6562 46.6795 28.7201 46.4583 28.9118 46.354C29.0396 46.2842 29.1586 46.2803 29.2835 46.354C29.37 46.4062 29.4713 46.4288 29.5283 46.53C29.5627 46.59 29.6247 46.5782 29.7072 46.5182C29.7849 46.4622 29.8655 46.4091 29.9412 46.3491C29.9993 46.3029 30.0632 46.2931 30.133 46.2941C30.2126 46.296 30.2932 46.298 30.3729 46.2941C30.6423 46.2783 30.891 46.5654 30.7239 46.9007C30.6659 47.0177 30.5243 47.0708 30.368 47.0443C30.3119 47.0354 30.2559 47.0266 30.2008 47.0157C30.0582 46.9872 29.9471 47.06 29.837 47.1288C29.7613 47.176 29.7485 47.2566 29.7485 47.3392C29.7485 47.6135 29.7505 47.8869 29.7446 48.1602C29.7407 48.3588 29.7328 48.5584 29.7092 48.755C29.6984 48.8416 29.6453 48.9232 29.603 49.0028C29.5893 49.0284 29.5489 49.0549 29.5204 49.0559C29.4024 49.0589 29.2835 49.0559 29.1655 49.0451C29.1321 49.0421 29.0878 49.0077 29.0741 48.9763C29.0219 48.8583 28.9551 48.7442 28.958 48.6056C28.9629 48.3775 28.959 48.1494 28.959 47.9213H28.963L28.961 47.9233Z" fill="black"/>
<path d="M7.67066 47.546C7.67066 47.2038 7.66869 46.8617 7.67066 46.5195C7.67263 46.1931 8.03838 45.9758 8.31565 46.1429C8.46411 46.2324 8.5408 46.3858 8.55162 46.5559C8.56145 46.7142 8.54375 46.8735 8.53785 47.0327C8.53589 47.1065 8.52802 47.1812 8.5349 47.254C8.57423 47.72 8.57521 48.186 8.52409 48.6511C8.49951 48.8733 8.26747 49.0808 8.07574 49.069C8.03642 49.066 7.9902 49.0631 7.96169 49.0414C7.81126 48.9274 7.66968 48.8045 7.66968 48.5901C7.67066 48.2421 7.66968 47.894 7.66968 47.546H7.67066Z" fill="black"/>
<path d="M19.3757 47.5703C19.3757 47.9577 19.3708 48.3461 19.3776 48.7335C19.3806 48.9252 19.125 49.1612 18.888 49.054C18.7228 48.9793 18.6009 48.8505 18.5852 48.6391C18.5399 48.0531 18.5576 47.4661 18.5596 46.8801C18.5596 46.7002 18.594 46.5193 18.6235 46.3403C18.6314 46.2892 18.6668 46.2292 18.7081 46.1997C18.8674 46.0896 19.0896 46.0375 19.2783 46.184C19.359 46.2469 19.3796 46.3266 19.3786 46.4239C19.3757 46.8064 19.3776 47.1879 19.3776 47.5703H19.3757Z" fill="black"/>
<path d="M22.7049 45.7827C22.4797 45.7798 22.3578 45.5969 22.4276 45.3904C22.5102 45.1495 22.635 44.9312 22.7668 44.7159C22.8809 44.5291 23.1837 44.5055 23.3026 44.6845C23.3823 44.8034 23.3744 44.9519 23.3026 45.0748C23.1758 45.295 23.0323 45.5054 22.8976 45.7208C22.8474 45.8004 22.7688 45.7768 22.7039 45.7817L22.7049 45.7827Z" fill="black"/>
<path d="M8.09134 44.8961C8.37647 44.8508 8.66357 45.1645 8.54264 45.4879C8.45513 45.7229 8.08544 45.9265 7.82784 45.6816C7.75508 45.6118 7.67151 45.5509 7.65086 45.4388C7.62235 45.2834 7.64496 45.1507 7.7718 45.0396C7.87208 44.9521 7.95762 44.8479 8.09134 44.8951V44.8961Z" fill="black"/>
<path d="M18.9992 45.7809C18.8487 45.8212 18.7721 45.6953 18.6767 45.6117C18.4761 45.4367 18.4633 45.2568 18.6472 45.068C18.7573 44.955 18.8812 44.8616 19.065 44.8881C19.1565 44.9009 19.2391 44.9156 19.2843 44.9933C19.3453 45.0995 19.4249 45.2145 19.4318 45.3296C19.4387 45.4525 19.3777 45.5813 19.2863 45.6825C19.2115 45.7661 19.1172 45.7936 19.0002 45.7799L18.9992 45.7809Z" fill="black"/>
</svg>
