<svg width="114" height="50" viewBox="0 0 114 50" fill="none" xmlns="http://www.w3.org/2000/svg">
<path d="M40.6393 26.7771C40.6016 26.8438 40.5495 26.9075 40.5292 26.9785C40.3901 27.4842 40.2727 27.9971 40.1206 28.4984C39.9685 28.9997 39.7816 29.4908 39.6106 29.9863C39.5063 30.2891 39.4049 30.5934 39.2977 30.8948C39.1875 31.2048 39.0716 31.512 38.9586 31.822C38.8659 32.0756 38.7775 32.3291 38.6833 32.5812C38.4631 33.1752 38.24 33.7693 38.0227 34.3633C37.901 34.6965 37.7894 35.0327 37.6706 35.3659C37.5185 35.7875 37.3634 36.2091 37.2099 36.6307C37.1606 36.7655 37.1229 36.906 37.0635 37.0364C36.9867 37.2045 36.9027 37.3711 36.8071 37.529C36.739 37.642 36.6289 37.7058 36.4898 37.7101C35.9812 37.7217 35.4741 37.7406 34.967 37.7435C34.7005 37.7435 34.5585 37.5464 34.4643 37.3349C34.3093 36.9886 34.1876 36.6278 34.0398 36.2772C33.8833 35.9063 33.7094 35.5412 33.5486 35.1732C33.3791 34.7864 33.211 34.3981 33.0488 34.0083C32.7938 33.3998 32.5431 32.7898 32.291 32.1799C32.0578 31.6177 31.8274 31.0556 31.5912 30.4949C31.4275 30.1051 31.2522 29.7212 31.0885 29.3329C31.003 29.1301 30.9262 28.9243 30.8567 28.7157C30.69 28.2187 30.5307 27.7189 30.367 27.2205C30.3351 27.1249 30.3104 27.022 30.2583 26.9365C30.2163 26.867 30.1395 26.8177 30.0453 26.7279C30.0178 26.8351 29.9931 26.8887 29.9931 26.9423C29.9859 27.6624 29.9874 28.381 29.9758 29.1011C29.9613 29.9907 29.9453 30.8803 29.9135 31.7684C29.9019 32.1132 29.8439 32.4581 29.8135 32.8029C29.7889 33.0811 29.7787 33.3607 29.7555 33.6389C29.7106 34.1605 29.6541 34.682 29.6136 35.2036C29.5831 35.6006 29.5686 35.9976 29.5469 36.3946C29.5194 36.9104 29.4947 37.4262 29.4614 37.942C29.4353 38.3491 29.2311 38.536 28.8283 38.5331C28.4385 38.5316 28.0488 38.5287 27.6591 38.5244C27.3084 38.52 27.123 38.3462 27.136 37.9883C27.1549 37.4986 27.1969 37.0089 27.2345 36.5192C27.2751 35.9962 27.3186 35.4731 27.3678 34.9515C27.4504 34.075 27.5373 33.1999 27.6228 32.3248C27.6576 31.9712 27.6996 31.6192 27.7344 31.2657C27.7895 30.7021 27.846 30.137 27.8923 29.572C27.9445 28.9301 27.9764 28.2883 28.0372 27.6479C28.1372 26.5699 28.2502 25.4934 28.3632 24.417C28.3777 24.2764 28.411 24.1286 28.4762 24.0055C28.5965 23.778 28.8138 23.6722 29.0659 23.6664C29.5817 23.6549 30.0989 23.6418 30.6147 23.6563C30.8958 23.665 31.1435 23.7882 31.2826 24.0547C31.3884 24.2561 31.4869 24.4619 31.5753 24.6719C31.7665 25.1312 31.9505 25.5949 32.1345 26.057C32.2345 26.3077 32.3272 26.5612 32.4272 26.8119C32.4866 26.9611 32.5562 27.106 32.6156 27.2538C32.9184 27.9971 33.2212 28.7403 33.5196 29.4865C33.7051 29.9501 33.8761 30.4181 34.0601 30.8817C34.2064 31.2512 34.3672 31.6148 34.5179 31.9814C34.7715 32.5986 35.025 33.2158 35.2757 33.8345C35.3582 34.0388 35.4321 34.2459 35.5133 34.4488C35.5524 34.5473 35.6089 34.64 35.7335 34.6197C35.8479 34.6009 35.8523 34.4937 35.8769 34.4039C35.9146 34.2662 35.9581 34.1286 36.0044 33.9938C36.1667 33.523 36.3319 33.0521 36.4956 32.5812C36.6651 32.0944 36.8361 31.6076 37.0056 31.1208C37.178 30.6253 37.3461 30.1298 37.5214 29.6357C37.6286 29.3358 37.7459 29.0388 37.8575 28.7389C37.927 28.5491 37.9951 28.3593 38.0603 28.168C38.3617 27.2973 38.6573 26.4251 38.963 25.5557C39.1296 25.0805 39.26 24.5894 39.5034 24.1431C39.6555 23.8649 39.87 23.678 40.2032 23.6751C40.703 23.6722 41.2029 23.6664 41.7027 23.6824C42.1041 23.694 42.2953 23.8925 42.4083 24.2822C42.5271 24.6937 42.5474 25.1124 42.5778 25.5355C42.5967 25.7861 42.6633 26.0324 42.7068 26.2802C42.7184 26.3468 42.7358 26.4135 42.7358 26.4816C42.7416 26.9988 42.8473 27.503 42.9401 28.0086C42.9676 28.1579 42.9632 28.3115 42.9705 28.4636C42.9835 28.7258 43.0053 28.9794 43.1009 29.2329C43.1675 29.4082 43.1444 29.6169 43.169 29.8096C43.2139 30.1602 43.2675 30.5108 43.311 30.8629C43.337 31.073 43.3472 31.2845 43.3718 31.4946C43.4037 31.7626 43.4443 32.0307 43.4805 32.2972C43.508 32.4986 43.537 32.6986 43.5645 32.9C43.6065 33.2173 43.6485 33.536 43.6891 33.8533C43.7094 34.0127 43.7282 34.172 43.7485 34.3314C43.792 34.6734 43.7703 35.0196 43.876 35.3601C43.9499 35.5977 43.934 35.8629 43.9629 36.115C44.0325 36.709 44.1064 37.3016 44.173 37.8956C44.1861 38.0129 44.1875 38.1332 44.1745 38.2506C44.1571 38.423 44.0919 38.4838 43.918 38.5142C43.8601 38.5244 43.8007 38.5258 43.7413 38.5258C43.2834 38.5273 42.827 38.5302 42.3692 38.5258C42.2779 38.5258 42.1809 38.5157 42.0954 38.4867C41.923 38.4273 41.8172 38.3085 41.7984 38.1144C41.7216 37.3146 41.6448 36.5148 41.5564 35.7165C41.5158 35.3471 41.4376 34.982 41.3956 34.6125C41.3188 33.9576 41.2449 33.3013 41.1899 32.645C41.1044 31.6337 41.0334 30.6209 40.9609 29.6082C40.8986 28.7476 40.845 27.8855 40.7827 27.0249C40.7769 26.9408 40.7335 26.8612 40.7059 26.7786C40.6842 26.7771 40.661 26.7742 40.6393 26.7728V26.7771Z" fill="black"/>
<path d="M84.2539 28.7419C84.2539 30.5037 84.2525 32.2655 84.2539 34.0273C84.2539 34.4924 84.2235 34.9662 84.2901 35.4226C84.393 36.131 84.3467 36.8627 84.5857 37.5524C84.6074 37.6147 84.6161 37.6857 84.619 37.7523C84.6524 38.4275 84.4147 38.5419 83.9062 38.5303C83.7454 38.526 83.5831 38.5231 83.4237 38.5332C83.1354 38.5535 82.9514 38.3927 82.8398 38.1652C82.7326 37.9479 82.6747 37.7059 82.6008 37.4741C82.5414 37.2901 82.4965 37.1003 82.4313 36.9178C82.382 36.7816 82.2791 36.77 82.1821 36.8888C82.1241 36.9598 82.0951 37.0598 82.0314 37.1221C81.8271 37.322 81.6141 37.5133 81.3982 37.7031C81.3287 37.7639 81.2403 37.8016 81.1664 37.8566C80.8506 38.0899 80.4811 38.1971 80.1204 38.3376C79.3843 38.626 78.6309 38.484 77.8848 38.5057C77.5472 38.5144 77.2444 38.3521 76.9445 38.2203C76.1389 37.8668 75.5087 37.2945 75.0248 36.5715C74.6553 36.0195 74.4278 35.3979 74.2656 34.7517C74.0265 33.8071 74.0352 32.848 74.154 31.9004C74.2757 30.921 74.5915 29.9865 75.1899 29.1751C75.3493 28.9578 75.513 28.7405 75.697 28.5449C76.2027 28.0045 76.8257 27.6741 77.5472 27.5046C78.444 27.2945 79.3336 27.3018 80.1971 27.6104C80.6854 27.7857 81.1606 28.0218 81.5156 28.4319C81.5866 28.5145 81.6648 28.5985 81.7561 28.655C81.8097 28.6883 81.9053 28.6912 81.9633 28.6651C81.9995 28.6492 82.0154 28.5536 82.0154 28.4942C82.014 28.1812 81.9981 27.8697 81.9981 27.5568C81.9937 25.9732 81.9923 24.3896 81.9894 22.806C81.9894 22.5771 81.9836 22.3482 81.9894 22.1192C81.9923 22.0019 82.0111 21.8831 82.0343 21.7686C82.0705 21.5976 82.1879 21.4991 82.3574 21.4948C82.8645 21.4861 83.373 21.4832 83.8816 21.4904C84.054 21.4933 84.2191 21.6643 84.2539 21.8541C84.2713 21.9526 84.2728 22.0569 84.2728 22.1569C84.2728 24.3505 84.2728 26.5455 84.2728 28.739C84.267 28.739 84.2626 28.739 84.2568 28.739L84.2539 28.7419ZM76.5055 33.4681C76.4519 33.8665 76.6721 34.3866 76.7692 34.9256C76.775 34.9575 76.7938 34.9879 76.8097 35.0183C76.9314 35.2487 77.0546 35.4791 77.1777 35.7094C77.5747 36.4454 78.2282 36.7743 79.025 36.8902C79.4974 36.9583 79.9001 36.7512 80.3159 36.5918C80.4391 36.544 80.555 36.4614 80.6579 36.3759C81.065 36.0311 81.4258 35.6587 81.6953 35.1792C81.9517 34.7257 82.0792 34.2403 82.1792 33.752C82.2646 33.3377 82.2922 32.9001 82.1444 32.4727C82.0633 32.2365 82.0662 31.97 81.9836 31.7338C81.872 31.4165 81.7286 31.1079 81.575 30.8065C81.2968 30.2574 80.8448 29.8749 80.3073 29.6054C79.8364 29.3678 79.322 29.3157 78.7976 29.3765C78.6556 29.3925 78.502 29.3925 78.3745 29.4461C77.8167 29.6808 77.3994 30.0836 77.1169 30.6109C76.6677 31.4513 76.5185 32.364 76.5069 33.4695L76.5055 33.4681Z" fill="black"/>
<path d="M8.15763 40.0572C8.26919 39.879 8.39958 39.821 8.53433 39.7848C9.01679 39.6573 9.49781 39.5269 9.98462 39.4197C10.4019 39.3269 10.8148 39.4269 11.2161 39.5254C12.5679 39.8543 13.5981 40.615 14.2718 41.8465C14.5891 42.4246 14.8325 43.0259 14.8861 43.6865C14.9469 44.4153 14.9542 45.1455 14.705 45.8468C14.4949 46.4379 14.2413 47.0015 13.853 47.51C13.0301 48.5865 11.9507 49.2559 10.6337 49.4544C9.51809 49.6225 8.38075 49.6225 7.29121 49.2385C6.87974 49.0936 6.48276 48.8893 6.10171 48.6749C5.35845 48.2576 4.78036 47.6404 4.26457 46.9798C3.86324 46.4654 3.5981 45.8613 3.35759 45.2527C3.12722 44.6689 2.93742 44.0705 2.82586 43.4533C2.68677 42.6796 2.50711 41.9117 2.51726 41.1163C2.54044 39.1763 2.53464 37.2363 2.56942 35.2962C2.5897 34.1879 2.67083 33.0795 2.7143 31.9711C2.73458 31.4554 2.74328 30.9381 2.73314 30.4209C2.7143 29.4023 2.82152 28.391 2.9041 27.3783C2.96785 26.5945 3.06782 25.8135 3.16489 25.0326C3.2185 24.6052 3.29819 24.1807 3.37063 23.7547C3.38367 23.675 3.42424 23.6011 3.45466 23.5186C3.61983 23.5533 3.65605 23.6605 3.67344 23.7808C3.81108 24.7443 3.97915 25.7049 4.07767 26.6713C4.17039 27.5797 4.19502 28.4968 4.23994 29.4096C4.37323 32.1189 4.30803 34.8312 4.34136 37.542C4.35295 38.5417 4.38193 39.5399 4.51232 40.5338C4.59491 41.1626 4.63982 41.7987 4.76152 42.4202C4.93973 43.3272 5.21212 44.2081 5.65546 45.0267C5.7366 45.1759 5.81194 45.3266 5.90032 45.4715C6.50159 46.4524 7.35786 47.0623 8.48507 47.3304C9.15009 47.4883 9.81511 47.5013 10.4758 47.4159C10.9177 47.3594 11.335 47.1638 11.7189 46.9218C12.494 46.4321 12.9765 45.7178 13.2243 44.8543C13.3228 44.5109 13.3373 44.1357 13.3402 43.7749C13.3431 43.3098 13.288 42.8462 13.0953 42.4086C12.8823 41.9233 12.6143 41.4611 12.2477 41.0902C11.787 40.6251 11.2205 40.302 10.5729 40.1224C9.98317 39.9586 9.3877 39.9297 8.78498 39.9499C8.65168 39.9543 8.51984 40.0007 8.38799 40.0238C8.32859 40.0354 8.26629 40.0398 8.15618 40.0543L8.15763 40.0572Z" fill="black"/>
<path d="M52.8299 38.5143C52.5764 38.5143 52.3214 38.5186 52.0678 38.5143C51.8143 38.5085 51.568 38.4838 51.3275 38.3708C51.1087 38.268 50.8624 38.226 50.632 38.1463C49.9641 37.9145 49.4121 37.5102 48.918 37.0104C48.3501 36.4366 47.9763 35.7528 47.7604 34.9878C47.6141 34.4691 47.5068 33.9345 47.5112 33.3897C47.5155 32.9927 47.5329 32.5943 47.5575 32.1973C47.5706 31.9872 47.4692 31.8467 47.3286 31.7119C46.9418 31.3454 46.5578 30.9759 46.1753 30.6036C46.0913 30.521 46.0131 30.4297 45.9406 30.337C45.7523 30.0921 45.7798 29.8038 46.0232 29.6212C46.3014 29.4141 46.5868 29.217 46.8809 29.0316C47.1128 28.8852 47.2736 28.9156 47.4721 29.1112C47.6416 29.2764 47.8038 29.4503 47.9748 29.614C48.1385 29.769 48.1777 29.7632 48.3052 29.5792C48.65 29.0837 49.0354 28.623 49.5236 28.2651C49.838 28.0347 50.1858 27.8652 50.5552 27.7276C51.5317 27.361 52.543 27.3306 53.5572 27.4117C54.1179 27.4567 54.6627 27.6218 55.1785 27.8855C55.632 28.1159 55.9826 28.4506 56.2825 28.8389C56.4781 29.091 56.5853 29.401 56.6665 29.7154C56.8084 30.266 56.8287 30.8267 56.7244 31.3787C56.5897 32.0857 56.1927 32.629 55.5813 33.0159C55.0684 33.3404 54.5222 33.5534 53.9209 33.6693C53.3254 33.7838 52.7314 33.8374 52.1301 33.8099C51.8867 33.7983 51.6447 33.749 51.4028 33.7142C51.3028 33.6997 51.2014 33.6867 51.1029 33.6664C50.8392 33.6114 50.5755 33.5534 50.3118 33.494C50.2539 33.481 50.1988 33.4578 50.1408 33.4476C49.9206 33.4085 49.838 33.4766 49.8322 33.694C49.8163 34.4865 50.0655 35.1848 50.6349 35.7354C50.9551 36.0454 51.3448 36.2541 51.7838 36.399C52.3779 36.5945 52.9733 36.5453 53.5688 36.538C53.9788 36.5337 54.3628 36.37 54.7337 36.2092C55.0191 36.0846 55.2886 35.9179 55.5523 35.7528C55.8334 35.5775 56.2695 35.5543 56.4694 35.9498C56.5824 36.1758 56.6969 36.4047 56.7737 36.6453C56.8707 36.9524 56.7925 37.2349 56.5433 37.4508C56.1825 37.7623 55.7798 38.0057 55.3176 38.1376C54.9365 38.2448 54.5555 38.3563 54.1715 38.4491C54.0006 38.4911 53.8209 38.5041 53.6442 38.5099C53.3732 38.5201 53.1023 38.5128 52.8314 38.5128L52.8299 38.5143ZM51.9548 32.0278C52.4271 32.064 52.8966 31.9539 53.3703 31.8713C53.9528 31.7684 54.2961 31.3917 54.5453 30.8977C54.5671 30.8542 54.5729 30.7992 54.57 30.7499C54.5367 30.0617 54.1426 29.5401 53.4413 29.4198C53.095 29.3604 52.7328 29.3561 52.3793 29.3677C51.5897 29.3909 50.9218 29.6835 50.4089 30.3051C50.1524 30.6152 50.0554 30.9918 49.925 31.3541C49.8887 31.454 49.8743 31.5786 50.0018 31.6424C50.1379 31.7105 50.2741 31.7931 50.4205 31.8191C50.9232 31.909 51.4158 32.0843 51.9548 32.0292V32.0278Z" fill="black"/>
<path d="M50.248 13.4596C50.248 13.7479 50.2842 14.0406 50.2393 14.3217C50.1727 14.7361 50.0669 15.1461 49.9438 15.5474C49.8554 15.8357 49.7192 16.1125 49.5873 16.3848C49.3932 16.7876 49.0542 17.0817 48.7818 17.4251C48.5253 17.7482 48.182 17.9713 47.8719 18.2292C47.7125 18.3625 47.5169 18.461 47.3228 18.5422C46.9577 18.6958 46.5911 18.8638 46.2072 18.9522C45.8493 19.0348 45.4683 19.0435 45.0974 19.0449C44.599 19.0478 44.0991 19.016 43.6007 18.9942C43.5341 18.9913 43.4645 18.9783 43.4022 18.9537C42.9241 18.7624 42.446 18.5755 41.9737 18.3698C41.8375 18.3104 41.7085 18.2133 41.6013 18.1075C41.2043 17.7149 40.787 17.3367 40.4364 16.9064C40.1003 16.4935 39.8859 15.9995 39.725 15.4866C39.5773 15.0142 39.4961 14.5347 39.4831 14.0406C39.4758 13.7711 39.4106 13.5016 39.4266 13.235C39.4512 12.8221 39.4976 12.4078 39.5845 12.0035C39.6526 11.6848 39.7859 11.3791 39.9047 11.0734C40.1032 10.5648 40.3959 10.1113 40.7523 9.69841C41.2275 9.1464 41.7665 8.67842 42.4518 8.40169C42.7024 8.30027 42.9531 8.2003 43.2052 8.10033C43.237 8.08729 43.2689 8.0757 43.3022 8.0699C44.1701 7.91488 45.0365 7.78158 45.9218 7.96704C46.268 8.03948 46.6201 8.0757 46.9577 8.19885C47.9197 8.54947 48.7572 9.05802 49.3106 9.95196C49.457 10.1881 49.6062 10.4243 49.7322 10.672C49.9119 11.027 50.0249 11.4037 50.1031 11.7963C50.2133 12.3469 50.2828 12.8975 50.2466 13.4582L50.248 13.4596ZM47.8792 13.4538C47.9328 12.9206 47.7792 12.357 47.601 11.7992C47.5488 11.6384 47.4894 11.4776 47.4097 11.3298C47.0533 10.6822 46.5433 10.2258 45.8174 10.0099C45.1843 9.82301 44.57 9.7752 43.931 9.99542C43.5297 10.1345 43.1704 10.3113 42.8908 10.6315C42.7242 10.8213 42.5329 10.998 42.4025 11.2125C41.9954 11.8804 41.9273 12.6483 41.8215 13.4002C41.7983 13.5697 41.8592 13.7494 41.8679 13.9247C41.8954 14.5535 42.062 15.1388 42.3634 15.6923C42.7473 16.3979 43.3312 16.8412 44.1064 17.0064C44.4497 17.0803 44.8134 17.0832 45.1669 17.0788C46.2188 17.0658 46.9635 16.537 47.4315 15.6242C47.7661 14.9693 47.9183 14.2594 47.8821 13.4538H47.8792Z" fill="black"/>
<path d="M65.9709 13.4188C66.0216 12.5568 66.1882 11.7324 66.536 10.9486C66.9286 10.0633 67.4994 9.33164 68.3253 8.79556C68.8874 8.43045 69.48 8.16821 70.132 8.02622C70.8246 7.87699 71.5229 7.84657 72.2256 7.9277C72.9109 8.00739 73.5759 8.16676 74.1975 8.47102C74.8958 8.81295 75.4638 9.31135 75.8999 9.95609C76.2693 10.5009 76.5055 11.1065 76.6794 11.7367C76.7373 11.9454 76.7431 12.1714 76.7547 12.3902C76.7822 12.8784 76.9025 13.3594 76.8416 13.8564C76.7706 14.4446 76.7243 15.0387 76.5069 15.595C76.2751 16.1876 76.0071 16.7657 75.5493 17.2264C75.2638 17.5147 74.977 17.8031 74.6684 18.0682C74.2322 18.4434 73.7049 18.6477 73.163 18.8288C72.3314 19.1056 71.4823 19.0505 70.629 19.023C69.9437 19.0013 69.3337 18.7564 68.7353 18.4492C67.937 18.0407 67.3039 17.451 66.8518 16.6889C66.4592 16.0253 66.1694 15.3125 66.1187 14.52C66.0955 14.152 66.0202 13.7854 65.968 13.4188H65.9709ZM71.5272 17.0772C71.5446 17.0772 71.5953 17.0772 71.6461 17.0772C72.6733 17.1105 73.3963 16.602 73.9323 15.779C74.2105 15.3531 74.3322 14.8691 74.3974 14.3722C74.4394 14.0462 74.4757 13.7173 74.4771 13.3899C74.4771 13.1305 74.4293 12.8683 74.3902 12.6104C74.283 11.9019 74.0425 11.2543 73.5122 10.7399C73.2369 10.4733 72.9587 10.214 72.6008 10.0677C72.114 9.86916 71.6026 9.80396 71.0825 9.86481C70.5565 9.92711 70.0639 10.0807 69.6481 10.4415C69.0468 10.9616 68.6846 11.6063 68.5586 12.3887C68.547 12.464 68.5281 12.5379 68.5035 12.6104C68.3181 13.145 68.3528 13.7014 68.4354 14.2374C68.5368 14.8894 68.7744 15.5139 69.1874 16.0442C69.3467 16.2484 69.5351 16.4411 69.7452 16.5904C70.2639 16.9598 70.8506 17.1279 71.5243 17.0772H71.5272Z" fill="black"/>
<path d="M88.3123 32.8912C88.3282 32.5638 88.3354 32.2088 88.3702 31.8553C88.3847 31.6988 88.4658 31.551 88.4992 31.396C88.6614 30.6194 89.0092 29.9356 89.5018 29.3184C89.622 29.1662 89.7249 28.9953 89.8669 28.8663C90.3682 28.4114 90.897 28.0057 91.5461 27.7594C92.5023 27.3957 93.489 27.3117 94.4887 27.4102C95.316 27.4914 96.1447 27.6565 96.8402 28.1375C97.9514 28.9069 98.7005 29.9341 98.9512 31.2989C99.1004 32.1161 99.1381 32.9332 99.0613 33.7518C98.9685 34.7443 98.6701 35.6759 98.0166 36.4583C97.7964 36.7234 97.5791 37.0001 97.3197 37.2247C96.8938 37.5942 96.4403 37.9274 95.9042 38.1418C95.2421 38.4055 94.5698 38.5577 93.8556 38.5185C93.6527 38.507 93.4484 38.5113 93.2456 38.5185C92.6153 38.5417 92.03 38.378 91.4534 38.136C90.5435 37.7564 89.8234 37.1523 89.2743 36.3467C88.9121 35.815 88.66 35.2355 88.4905 34.6023C88.3383 34.0402 88.3586 33.4809 88.3137 32.8898L88.3123 32.8912ZM96.6823 33.3215C96.7504 32.4928 96.6707 31.6887 96.3027 30.9251C96.039 30.3789 95.6478 29.9573 95.1189 29.682C94.7466 29.4879 94.3496 29.3299 93.9106 29.3575C93.6918 29.3705 93.4702 29.3633 93.2514 29.3763C92.7515 29.4038 92.314 29.6139 91.9402 29.9225C91.2911 30.46 90.9144 31.1613 90.784 32.0016C90.6449 32.8912 90.629 33.7649 90.9564 34.624C91.3099 35.5499 91.9242 36.1902 92.8877 36.4815C93.2137 36.58 93.5426 36.538 93.87 36.5539C94.5249 36.5843 95.0987 36.3815 95.6072 35.9744C95.9245 35.7208 96.152 35.3992 96.3085 35.0297C96.407 34.7979 96.4852 34.5574 96.5606 34.3169C96.6127 34.1488 96.6562 33.9764 96.6779 33.8025C96.6967 33.6446 96.6823 33.4823 96.6823 33.3215Z" fill="black"/>
<path d="M88.9164 12.6032C88.9323 13.0843 88.8657 13.6116 88.7556 14.1347C88.644 14.6664 88.6701 15.172 88.8657 15.7009C89.1105 16.363 89.3061 17.0498 89.3786 17.7626C89.4032 18.006 89.467 18.2451 89.4887 18.4885C89.5162 18.7884 89.3728 18.9622 89.0729 19.0231C89.0062 19.0361 88.9396 19.0477 88.8715 19.0477C88.5585 19.0506 88.2441 19.0535 87.9312 19.0477C87.6689 19.0434 87.582 18.9637 87.5414 18.7101C87.4922 18.4015 87.4545 18.0915 87.398 17.7843C87.385 17.7104 87.3343 17.6235 87.2734 17.5858C87.2415 17.5655 87.1401 17.6293 87.0894 17.6771C86.9402 17.8147 86.7953 17.9582 86.6576 18.1074C86.4447 18.3363 86.1752 18.4754 85.8985 18.6029C85.6536 18.7159 85.4087 18.8347 85.1523 18.9086C84.9031 18.9796 84.638 19.026 84.3786 19.0318C83.9063 19.0434 83.4325 19.026 82.9587 19.0072C82.4994 18.9883 82.0981 18.7898 81.6982 18.5855C81.2042 18.332 80.8159 17.9509 80.4884 17.5206C80.2334 17.1859 80.077 16.789 80.0074 16.363C79.9234 15.8545 79.9451 15.3459 80.0321 14.8475C80.1002 14.4592 80.2407 14.0796 80.5029 13.771C80.9231 13.277 81.3824 12.8293 82.0286 12.6351C82.4908 12.4975 82.9515 12.3511 83.4369 12.3338C83.8512 12.3193 84.2699 12.3062 84.68 12.3511C85.0031 12.3859 85.3233 12.4931 85.6333 12.6003C85.9767 12.7191 86.3027 12.8785 86.5982 13.0987C86.7895 13.2407 86.917 13.1654 86.9199 12.922C86.9242 12.6424 86.9141 12.3627 86.9097 12.0846C86.9097 12.0512 86.9097 12.015 86.9011 11.9831C86.7286 11.3138 86.4432 10.7081 85.8506 10.3068C85.4652 10.046 85.0219 9.93011 84.5655 9.86926C83.9309 9.78523 83.3137 9.89534 82.7182 10.1011C82.3864 10.217 82.072 10.3923 81.762 10.5604C81.5852 10.656 81.4085 10.6821 81.2245 10.6415C81.1448 10.6241 81.0506 10.5546 81.0115 10.4821C80.8767 10.2387 80.7319 9.99387 80.6493 9.73017C80.5536 9.42737 80.5913 9.13035 80.8652 8.89998C81.2737 8.55661 81.7301 8.31465 82.2503 8.19439C82.5371 8.12775 82.8283 8.07559 83.1138 8.00315C83.5281 7.89738 83.9512 7.89738 84.3743 7.88289C85.0885 7.85971 85.7738 7.99735 86.4302 8.25525C87.0126 8.48416 87.5081 8.85072 87.9167 9.32884C88.3485 9.83449 88.6107 10.4155 88.7759 11.0602C88.9034 11.5543 88.9178 12.0454 88.9164 12.6003V12.6032ZM84.0917 17.4018C84.6669 17.4018 85.2247 17.241 85.6174 16.9918C85.9361 16.789 86.1897 16.5383 86.3867 16.2065C86.5345 15.9588 86.5577 15.727 86.462 15.485C86.2838 15.033 85.9463 14.7258 85.5189 14.5027C85.2189 14.3462 84.8987 14.2897 84.5713 14.2419C84.5047 14.2317 84.4409 14.21 84.3757 14.197C84.2555 14.1738 84.1265 14.1173 84.0149 14.1419C83.7628 14.1955 83.5107 14.2723 83.2731 14.3723C83.1051 14.4418 82.9413 14.5461 82.8037 14.6664C82.4024 15.017 82.2894 15.4763 82.3198 15.9964C82.3531 16.5716 82.6994 16.931 83.15 17.1903C83.447 17.3613 83.7918 17.4569 84.0917 17.4033V17.4018Z" fill="black"/>
<path d="M62.9675 29.1518C63.1413 29.1605 63.2094 29.0533 63.2949 28.9576C63.5934 28.623 63.8773 28.2709 64.2685 28.0376C64.9249 27.645 65.6377 27.4074 66.4041 27.39C66.8243 27.3798 67.2561 27.3842 67.6675 27.461C68.4673 27.6088 69.1135 28.026 69.5366 28.7389C69.7756 29.1402 69.919 29.5792 70.0277 30.0356C70.2233 30.8614 70.2117 31.6989 70.2117 32.5363C70.2088 34.2894 70.2117 36.044 70.2117 37.7971C70.2117 37.9927 70.2117 38.1839 70.0697 38.3491C69.9814 38.4519 69.8901 38.5244 69.7495 38.5244C69.2917 38.5244 68.8353 38.5331 68.3775 38.5244C68.1659 38.52 68.0022 38.3389 67.9588 38.081C67.9385 37.9564 67.937 37.8275 67.937 37.7014C67.937 35.7368 67.9588 33.7707 67.9298 31.8061C67.9211 31.257 67.8704 30.6876 67.6313 30.1689C67.3517 29.5618 66.9083 29.1895 66.2085 29.1634C65.6826 29.1445 65.2248 29.2822 64.7742 29.5647C64.1092 29.982 63.6919 30.5702 63.3949 31.2686C63.2297 31.6583 63.2123 32.077 63.2109 32.4914C63.2051 34.2286 63.2109 35.9643 63.2065 37.7014C63.2065 37.8681 63.179 38.0376 63.1399 38.1998C63.0921 38.3954 62.9298 38.5229 62.7342 38.5258C62.2938 38.5316 61.8533 38.5374 61.4143 38.5244C61.0709 38.5142 60.8985 38.3143 60.8985 37.9724C60.8985 35.6513 60.9 33.3303 60.8927 31.0092C60.8913 30.4673 60.8666 29.9255 60.8246 29.3851C60.7971 29.033 60.7087 28.6867 60.6696 28.3346C60.6493 28.1521 60.6566 27.9623 60.6855 27.7812C60.7247 27.5349 60.8493 27.4103 61.0898 27.3987C61.4187 27.3813 61.7504 27.3798 62.0779 27.4088C62.414 27.4392 62.5574 27.716 62.6502 27.9898C62.7632 28.3245 62.8313 28.6737 62.9182 29.017C62.9284 29.0576 62.9457 29.0953 62.9646 29.1503L62.9675 29.1518Z" fill="black"/>
<path d="M103.34 34.4909C103.34 33.3637 103.353 32.2379 103.334 31.1107C103.327 30.6312 103.254 30.1516 103.212 29.672C103.209 29.6474 103.202 29.6213 103.203 29.5967C103.214 29.1374 103.151 28.6883 103.048 28.2406C103.005 28.0479 103.034 27.8595 103.127 27.6741C103.212 27.5031 103.338 27.406 103.519 27.3988C103.806 27.3872 104.096 27.3843 104.383 27.3988C104.638 27.4118 104.838 27.5451 104.952 27.7711C105.039 27.9435 105.103 28.1304 105.158 28.3159C105.227 28.5506 105.271 28.7926 105.339 29.0273C105.358 29.091 105.417 29.1606 105.475 29.1852C105.507 29.1983 105.591 29.1331 105.626 29.0838C105.871 28.7361 106.155 28.4275 106.494 28.1667C106.962 27.8074 107.506 27.6378 108.067 27.493C108.687 27.3321 109.323 27.335 109.936 27.4234C110.775 27.5451 111.473 27.9696 111.931 28.7259C112.364 29.4417 112.537 30.224 112.562 31.0484C112.572 31.4019 112.576 31.7569 112.58 32.1104C112.593 33.4738 112.608 34.8372 112.618 36.2005C112.622 36.6902 112.621 37.1814 112.614 37.6711C112.611 37.8218 112.593 37.9754 112.562 38.1232C112.501 38.4071 112.351 38.5216 112.062 38.523C111.663 38.5245 111.265 38.5317 110.868 38.523C110.559 38.5172 110.387 38.355 110.345 38.0493C110.333 37.9652 110.335 37.8798 110.335 37.7957C110.335 35.8977 110.338 33.9997 110.329 32.1017C110.327 31.6627 110.329 31.215 110.251 30.7847C110.126 30.098 109.797 29.5141 109.102 29.2562C108.664 29.0939 108.203 29.1186 107.759 29.2765C107.03 29.5358 106.52 30.0661 106.1 30.679C105.743 31.2006 105.606 31.8033 105.604 32.4379C105.604 34.0736 105.6 35.7079 105.598 37.3437C105.598 37.5465 105.61 37.7508 105.593 37.9536C105.582 38.0768 105.545 38.2028 105.494 38.3144C105.435 38.4448 105.319 38.5158 105.168 38.5172C104.728 38.5201 104.287 38.5317 103.847 38.5259C103.579 38.5216 103.411 38.3695 103.354 38.0985C103.332 37.9928 103.334 37.8798 103.334 37.7696C103.334 36.6772 103.334 35.5848 103.334 34.4909C103.337 34.4909 103.341 34.4909 103.344 34.4909H103.34Z" fill="black"/>
<path d="M28.0792 47.4306C28.1299 47.3234 28.1444 47.264 28.1792 47.2219C28.5573 46.7641 28.9659 46.3425 29.444 45.9803C30.0265 45.5384 30.6393 45.1501 31.2899 44.8212C31.5753 44.6763 31.8824 44.5749 32.1824 44.4619C32.6344 44.2895 33.1038 44.1909 33.5805 44.1142C34.1702 44.02 34.7584 43.9925 35.3466 44.1214C35.4046 44.1344 35.4626 44.1504 35.5205 44.1547C36.2971 44.2156 36.9925 44.5285 37.6619 44.8893C38.3429 45.2558 38.9456 45.7282 39.4875 46.2889C40.1278 46.9496 40.8653 47.4929 41.7259 47.842C42.517 48.1622 43.3052 48.1535 44.0962 47.8189C44.6859 47.5697 45.2177 47.2335 45.7334 46.8568C46.552 46.2585 47.2837 45.5369 48.2066 45.0863C48.592 44.898 48.9905 44.7227 49.399 44.5966C49.8569 44.4561 50.3292 44.346 50.8044 44.2866C51.213 44.2359 51.6404 44.2257 52.0461 44.2866C52.5691 44.3648 53.0907 44.4952 53.5891 44.6705C53.9832 44.8096 54.3497 45.0356 54.7134 45.2501C55.4813 45.7064 56.0594 46.3773 56.6592 47.022C57.2417 47.6479 57.9284 48.1188 58.7238 48.4187C59.1498 48.5795 59.5975 48.6824 60.0597 48.707C61.3013 48.7737 62.5039 48.6041 63.6832 48.2014C64.7293 47.8435 65.7087 47.3465 66.6766 46.8221C66.7751 46.7684 66.8823 46.7293 67.0199 46.6685C66.9953 46.8626 66.8866 46.9365 66.7881 46.9988C66.339 47.2857 65.8927 47.5784 65.4291 47.8406C64.9582 48.1057 64.4786 48.3651 63.9802 48.5737C63.4587 48.7925 62.9168 48.9678 62.3735 49.1257C61.6534 49.3358 60.9087 49.4054 60.1625 49.4111C58.9383 49.4198 57.7937 49.1127 56.7824 48.41C56.3883 48.1362 56.0319 47.8029 55.6827 47.4711C55.0698 46.8901 54.3976 46.3975 53.6442 46.0208C53.1805 45.789 52.6865 45.6499 52.162 45.6195C51.6259 45.5891 51.0898 45.5992 50.5683 45.7108C50.0554 45.8195 49.5801 46.0484 49.1209 46.3135C48.4631 46.6946 47.9111 47.2031 47.3431 47.6972C46.7563 48.2086 46.1681 48.7229 45.5074 49.1373C44.8352 49.5604 44.1122 49.8646 43.3153 49.9603C42.4083 50.0704 41.539 49.9501 40.6784 49.6183C39.7106 49.246 38.9311 48.6389 38.2183 47.913C37.6489 47.3335 37.0766 46.7554 36.3652 46.341C35.79 46.0064 35.1887 45.7658 34.5208 45.6789C33.5211 45.55 32.5402 45.6383 31.5825 45.9194C31.0581 46.073 30.5539 46.299 30.0482 46.5135C29.7382 46.6438 29.4426 46.8119 29.1412 46.9655C28.8616 47.1075 28.5849 47.2524 28.3038 47.3915C28.256 47.4146 28.1951 47.4103 28.0836 47.4291L28.0792 47.4306Z" fill="black"/>
<path d="M53.592 13.3536C53.5384 12.7697 53.6934 12.1322 53.8427 11.4991C53.9716 10.9543 54.2078 10.4458 54.5569 9.99806C54.7076 9.80536 54.8366 9.59238 55.0003 9.41128C55.4683 8.89549 56.0406 8.51009 56.6853 8.26379C57.4996 7.95374 58.3529 7.83783 59.228 7.89868C59.7815 7.9378 60.3219 8.04501 60.829 8.26089C61.6346 8.60427 62.2764 9.14469 62.5952 9.98502C62.7227 10.3212 62.7777 10.6877 62.8429 11.0456C62.8936 11.3252 62.8313 11.5976 62.7183 11.8627C62.6314 12.0641 62.4894 12.2076 62.2967 12.2785C61.9953 12.3901 61.6824 12.4683 61.3535 12.4408C60.9594 12.4075 60.6986 12.1641 60.645 11.7715C60.6189 11.5874 60.5957 11.402 60.5682 11.218C60.4494 10.4501 59.8423 9.96909 59.1165 9.86767C58.6253 9.79957 58.1342 9.84014 57.7038 10.0647C57.2721 10.2893 56.8664 10.5877 56.636 11.047C56.4883 11.3411 56.3593 11.6454 56.2318 11.9482C56.1927 12.0395 56.1869 12.1453 56.1666 12.2438C56.1507 12.3264 56.155 12.4191 56.1188 12.4915C55.9841 12.7523 55.9812 13.0276 55.9884 13.3087C55.9928 13.4869 55.9942 13.6651 55.9884 13.8419C55.9812 14.0563 56.0058 14.262 56.1043 14.4576C56.1376 14.5243 56.1521 14.604 56.1579 14.6778C56.1956 15.1458 56.3796 15.5631 56.61 15.9586C56.8925 16.4425 57.3141 16.7714 57.8328 16.9801C58.3384 17.1844 58.8658 17.2611 59.4004 17.1815C59.9018 17.1061 60.3871 16.9482 60.8392 16.7077C61.1217 16.557 61.4013 16.3976 61.6838 16.244C61.933 16.1079 62.3054 16.2339 62.4691 16.5208C62.5865 16.7251 62.6864 16.9409 62.7951 17.151C62.8589 17.2727 62.8502 17.3886 62.7951 17.5161C62.6792 17.7769 62.5082 17.9769 62.2808 18.158C61.8881 18.4709 61.4535 18.681 60.984 18.8346C60.6392 18.9476 60.2929 19.0505 59.9467 19.1548C59.8829 19.1736 59.8134 19.1823 59.7467 19.1867C59.1223 19.2287 58.4964 19.2359 57.8719 19.1954C57.756 19.1881 57.6415 19.1446 57.5285 19.1128C57.4561 19.0925 57.3865 19.0563 57.3127 19.0389C56.3158 18.7998 55.5117 18.2536 54.838 17.4944C54.4367 17.0438 54.186 16.5077 53.9818 15.9499C53.6862 15.1386 53.5688 14.2939 53.5935 13.3536H53.592Z" fill="black"/>
<path d="M28.1604 11.6411C28.1604 9.67642 28.1604 7.71033 28.1604 5.74569C28.1604 5.42405 28.1647 5.1024 28.1748 4.78076C28.1893 4.33741 28.3473 4.18528 28.7819 4.18528C29.1963 4.18528 29.6121 4.18093 30.0265 4.18528C30.3047 4.18818 30.5191 4.38957 30.5524 4.6663C30.5611 4.74164 30.5597 4.81843 30.5597 4.89522C30.5597 8.79117 30.5582 12.6886 30.5568 16.5845C30.5568 16.9294 30.5973 16.9815 30.9523 16.983C32.4098 16.9902 33.8659 16.9917 35.3235 16.9946C35.493 16.9946 35.6625 16.9917 35.832 16.9946C36.0696 16.9989 36.2333 17.1206 36.2435 17.3539C36.2609 17.8016 36.2565 18.2507 36.2406 18.6998C36.2333 18.8925 36.0624 19.0186 35.8248 19.0374C35.6393 19.0519 35.4524 19.049 35.2655 19.0476C33.6558 19.0418 32.0476 19.0316 30.4379 19.0287C29.9048 19.0287 29.3716 19.0432 28.837 19.049C28.7529 19.049 28.666 19.0519 28.5834 19.0403C28.327 19.0012 28.1777 18.8389 28.1618 18.5796C28.1531 18.4535 28.1575 18.326 28.1575 18.1985C28.1575 16.0137 28.1575 13.8274 28.1575 11.6425H28.1604V11.6411Z" fill="black"/>
<path d="M93.2483 9.58803C93.2483 7.31768 93.2483 5.04734 93.2483 2.77554C93.2483 2.6408 93.2512 2.50461 93.2628 2.36987C93.2845 2.12646 93.4642 1.93956 93.7076 1.93086C94.1553 1.91348 94.6045 1.90623 95.0536 1.90479C95.2854 1.90479 95.426 2.02214 95.4767 2.267C95.5129 2.43941 95.5317 2.61907 95.5317 2.79583C95.5361 6.46431 95.5375 10.1328 95.539 13.8013C95.539 14.6228 95.5404 15.4443 95.5433 16.2672C95.5433 16.7395 95.7143 16.9366 96.1852 16.9801C96.3952 16.9989 96.6082 16.9916 96.8197 16.9786C97.0545 16.9641 97.2269 17.0163 97.3196 17.2626C97.3906 17.4509 97.5007 17.6248 97.5978 17.803C97.6963 17.9827 97.6833 18.1609 97.534 18.2898C97.3239 18.4709 97.1066 18.6549 96.8647 18.7853C96.2315 19.1258 95.5346 19.0867 94.8551 19.0229C94.2785 18.9693 93.8626 18.6259 93.612 18.0971C93.3222 17.4872 93.2338 16.8439 93.2382 16.173C93.2498 14.233 93.2425 12.293 93.2425 10.353C93.2425 10.0995 93.2425 9.84448 93.2425 9.59093H93.2454L93.2483 9.58803Z" fill="black"/>
<path d="M3.57489 8.42316C3.54011 8.32464 3.4894 8.22902 3.47492 8.1276C3.40827 7.64948 3.35176 7.17136 3.29381 6.69179C3.23441 6.19628 3.16341 5.70078 3.12429 5.20382C3.04461 4.19108 2.98086 3.17833 2.91276 2.16414C2.88234 1.71644 2.8635 1.26875 2.83308 0.821054C2.81279 0.513898 3.03447 0.135749 3.32568 0.0314319C3.42276 -0.00334046 3.5517 -0.0134832 3.64588 0.0227381C3.97767 0.147339 4.30656 0.280634 4.6224 0.440007C5.4468 0.852929 6.25815 1.29193 7.0869 1.69616C7.81712 2.05258 8.55893 2.38436 9.30219 2.7118C9.90636 2.97839 10.5134 3.23629 11.1277 3.47535C12.4201 3.9781 13.7139 4.4794 15.0469 4.87204C15.3787 4.96911 15.6945 5.11834 16.019 5.24149C16.361 5.37189 16.5131 5.78046 16.4088 6.07893C16.3059 6.37449 16.2103 6.67295 16.0842 6.95838C15.722 7.77843 15.3482 8.59268 14.9744 9.40693C14.844 9.69235 14.718 9.75755 14.4079 9.7025C14.2761 9.67932 14.1442 9.6402 14.0182 9.59238C13.669 9.46199 13.3242 9.32435 12.9765 9.19105C12.9533 9.18236 12.9243 9.17946 12.9055 9.16353C12.8504 9.12006 12.7983 9.07225 12.7446 9.02444C12.8113 8.98387 12.875 8.90998 12.9431 8.90853C13.272 8.89694 13.6038 8.89114 13.9313 8.91143C14.0834 8.92012 14.1573 8.86796 14.1935 8.73901C14.237 8.58399 14.2833 8.42896 14.3109 8.27103C14.3818 7.86246 14.4441 7.45244 14.5093 7.04241C14.5195 6.97576 14.5238 6.90767 14.5238 6.83957C14.5238 6.65847 14.4978 6.62224 14.3181 6.58168C13.7487 6.45128 13.1735 6.34552 12.6114 6.19194C11.6232 5.92245 10.6511 5.60805 9.69482 5.2357C8.75452 4.86914 7.82726 4.4794 6.94636 3.98824C6.40014 3.68398 5.86552 3.35509 5.32799 3.03489C5.08893 2.89291 4.85422 2.74078 4.61661 2.59589C4.4384 2.48723 4.33698 2.53504 4.3109 2.75672C4.26454 3.15225 4.21238 3.54779 4.19354 3.94332C4.13849 5.13862 3.98056 6.32088 3.8038 7.5017C3.77048 7.71902 3.75889 7.93925 3.73136 8.15802C3.71977 8.24496 3.69224 8.32899 3.67196 8.41447C3.64008 8.41737 3.60821 8.42027 3.57634 8.42316H3.57489Z" fill="black"/>
<path d="M9.15144 27.693C9.24417 27.5583 9.28763 27.4714 9.35138 27.4018C9.69331 27.028 10.041 26.6586 10.3873 26.2877C10.8002 25.8458 11.1407 25.3517 11.4377 24.8272C11.7883 24.2071 12.0839 23.5609 12.2679 22.8698C12.4302 22.2613 12.5345 21.6456 12.5026 21.0124C12.4765 20.4966 12.507 19.9736 12.4229 19.4679C12.2447 18.3885 11.9608 17.3338 11.3986 16.3761C11.2668 16.1501 11.1538 15.911 11.0422 15.6734C11.0103 15.6053 11.019 15.5184 11.0016 15.3909C11.132 15.43 11.2233 15.443 11.2986 15.4836C12.5331 16.166 13.5038 17.1034 14.0891 18.4059C14.7165 19.8026 14.857 21.2544 14.5527 22.751C14.4035 23.487 14.1094 24.1608 13.7052 24.7997C13.3285 25.3952 12.8851 25.9283 12.3389 26.3572C11.5073 27.0106 10.5974 27.5308 9.52669 27.693C9.42527 27.709 9.31951 27.6945 9.14709 27.6945L9.15144 27.693Z" fill="black"/>
<path d="M104.746 12.3176C105.704 12.3176 106.66 12.3176 107.618 12.3176C107.963 12.3176 108.137 12.4654 108.166 12.8102C108.186 13.0623 108.195 13.3173 108.187 13.5709C108.177 13.9085 107.993 14.078 107.653 14.078C105.966 14.0809 104.281 14.0823 102.595 14.0852C102.333 14.0852 102.069 14.091 101.807 14.0852C101.484 14.0765 101.352 13.9635 101.334 13.6462C101.318 13.3347 101.323 13.0203 101.339 12.7074C101.352 12.4335 101.485 12.3249 101.772 12.3234C102.661 12.322 103.551 12.3234 104.441 12.3234C104.542 12.3234 104.644 12.3234 104.745 12.3234V12.3191L104.746 12.3176Z" fill="black"/>
<path d="M4.64405 19.988C4.55712 20.017 4.47453 20.0663 4.3905 20.0677C3.90948 20.0764 3.42702 20.0764 2.946 20.0735C2.71708 20.0735 2.64174 19.9779 2.69245 19.7519C2.82719 19.1492 2.97208 18.5493 3.10537 17.9466C3.201 17.5177 3.28358 17.086 3.37776 16.6571C3.41253 16.5007 3.45744 16.3456 3.5096 16.1935C3.53278 16.1283 3.58639 16.0747 3.66028 15.9631C3.71969 16.1051 3.77039 16.1906 3.79213 16.2819C3.91093 16.7832 4.02249 17.2874 4.13985 17.7901C4.25721 18.2929 4.38036 18.7942 4.49627 19.2955C4.54553 19.5085 4.58755 19.7229 4.6426 19.9866L4.64405 19.988Z" fill="black"/>
<path d="M95.9607 45.9685C95.9231 46.0293 95.8796 46.0786 95.8593 46.1366C95.7029 46.5741 95.5536 47.0131 95.3971 47.4492C95.3725 47.5188 95.3363 47.5912 95.2885 47.6463C95.1363 47.8245 94.9654 47.8187 94.8248 47.6332C94.7886 47.5869 94.7538 47.5362 94.7307 47.4825C94.5742 47.1102 94.4206 46.7349 94.2656 46.3611C94.2627 46.3539 94.2627 46.3437 94.2583 46.3365C94.2105 46.2438 94.2033 46.0945 94.0555 46.1177C93.9251 46.138 93.9454 46.2699 93.9353 46.3669C93.8947 46.7784 93.8556 47.1913 93.815 47.6042C93.8092 47.6622 93.8049 47.726 93.7788 47.7767C93.7353 47.8636 93.6701 47.9331 93.5557 47.894C93.4571 47.8607 93.3992 47.7969 93.4108 47.6854C93.4586 47.2406 93.5078 46.7943 93.5528 46.3495C93.5803 46.0801 93.5991 45.8106 93.6209 45.5411C93.6252 45.4817 93.6252 45.4208 93.6397 45.3643C93.7092 45.1079 93.9338 45.0354 94.1164 45.2252C94.225 45.3382 94.312 45.4831 94.3714 45.6295C94.5467 46.0598 94.7046 46.4973 94.8654 46.9334C94.9002 47.0291 94.948 47.1029 95.0596 47.1029C95.1842 47.1029 95.19 46.9972 95.2218 46.9102C95.4116 46.3959 95.6014 45.8816 95.8014 45.3701C95.8724 45.1876 95.9868 45.1195 96.1245 45.1398C96.2549 45.1586 96.3708 45.2759 96.4055 45.4324C96.4215 45.5063 96.4302 45.5831 96.4389 45.6584C96.4925 46.1192 96.5475 46.5799 96.5982 47.0406C96.62 47.242 96.6388 47.4449 96.6518 47.6477C96.662 47.8042 96.5895 47.91 96.4809 47.9143C96.3751 47.9186 96.2636 47.823 96.2592 47.681C96.2462 47.2246 96.0622 46.7885 96.1013 46.3249C96.1114 46.2032 96.1056 46.0699 95.9564 45.9685H95.9607Z" fill="black"/>
<path d="M106.416 46.338C106.416 46.7611 106.416 47.1842 106.416 47.6072C106.416 47.6405 106.426 47.6782 106.416 47.7086C106.395 47.768 106.378 47.8419 106.333 47.8724C106.306 47.8926 106.23 47.8477 106.177 47.8289C106.162 47.8231 106.151 47.8072 106.139 47.7956C106.035 47.6797 105.932 47.6884 105.804 47.7738C105.181 48.1882 104.552 47.7507 104.452 47.1146C104.399 46.7814 104.476 46.4699 104.654 46.2004C104.739 46.07 104.903 45.9555 105.054 45.9121C105.275 45.8483 105.514 45.8222 105.739 45.9628C105.927 46.0787 106.022 46.0164 106.024 45.7947C106.029 45.5499 106.024 45.305 106.024 45.0587C106.024 44.9993 106.024 44.9399 106.032 44.8819C106.042 44.7863 106.097 44.7066 106.191 44.7197C106.261 44.7298 106.33 44.7936 106.382 44.8501C106.41 44.8805 106.406 44.9457 106.406 44.9964C106.407 45.4441 106.406 45.8918 106.406 46.3409C106.408 46.3409 106.411 46.3409 106.416 46.3409V46.338ZM106.049 46.9335C106.04 46.9335 106.03 46.9306 106.022 46.9292C106.022 46.8538 106.029 46.7756 106.022 46.7017C105.988 46.4351 105.761 46.2207 105.496 46.2004C105.212 46.1787 104.994 46.3409 104.967 46.622C104.948 46.8219 104.948 47.0277 104.974 47.2262C105.004 47.4667 105.307 47.6347 105.546 47.571C105.738 47.5203 105.871 47.3855 105.982 47.2407C106.04 47.1653 106.03 47.0378 106.052 46.9335H106.049Z" fill="black"/>
<path d="M8.32988 6.84963C8.86595 6.84673 9.25859 7.23067 9.26439 7.76965C9.26728 8.05507 9.17746 8.32021 8.94274 8.48103C8.76164 8.60418 8.52982 8.72588 8.32408 8.72154C8.10821 8.71719 7.859 8.6433 7.68949 8.4564C7.53736 8.28978 7.42435 8.10433 7.42 7.87106C7.40986 7.26834 7.78077 6.85397 8.33133 6.85107L8.32988 6.84963Z" fill="black"/>
<path d="M79.4293 47.0481C79.6118 46.9887 79.6698 46.8612 79.7509 46.7597C79.9537 46.5018 80.1464 46.2352 80.358 45.9846C80.4811 45.8397 80.5681 45.8368 80.655 45.9266C80.7521 46.0266 80.7492 46.1338 80.6347 46.2584C80.5087 46.3946 80.3739 46.5236 80.2479 46.6598C80.0668 46.8568 80.045 46.9611 80.1957 47.1755C80.3159 47.3465 80.4029 47.5725 80.6724 47.5899C80.7173 47.5928 80.7883 47.6783 80.7897 47.7276C80.7912 47.7768 80.7318 47.8478 80.6811 47.8768C80.5318 47.9594 80.3783 47.9318 80.2566 47.8232C80.1508 47.729 80.0581 47.616 79.9798 47.4986C79.903 47.3842 79.8219 47.3031 79.664 47.3277C79.5886 47.4436 79.5133 47.5653 79.4336 47.6841C79.3959 47.7392 79.3568 47.7986 79.3061 47.8391C79.1714 47.9434 79.0323 47.8797 79.025 47.7087C79.0163 47.532 79.0236 47.3538 79.0236 47.177C79.0236 46.5004 79.0236 45.8238 79.0236 45.1472C79.0236 45.0791 79.0192 45.0095 79.0323 44.9458C79.0598 44.8168 79.1902 44.7154 79.2815 44.74C79.38 44.7661 79.4771 44.9284 79.4713 45.0356C79.4452 45.5152 79.4235 45.9947 79.4003 46.4743C79.3959 46.5496 79.3829 46.6264 79.3872 46.7003C79.3945 46.8119 79.4133 46.9235 79.4307 47.051L79.4293 47.0481Z" fill="black"/>
<path d="M83.0412 45.844C83.8511 45.7861 84.2336 46.6713 83.9612 47.303C83.7018 47.9057 82.9687 48.1332 82.4066 47.7869C82.3022 47.7232 82.2124 47.6218 82.1414 47.5189C81.7836 47.0045 81.9835 46.1946 82.5457 45.9324C82.692 45.8643 82.8745 45.8715 83.0412 45.8455V45.844ZM83.6178 46.8481C83.5888 46.6641 83.5483 46.4018 83.3237 46.2917C82.9426 46.1048 82.5152 46.1946 82.4138 46.7177C82.3819 46.8828 82.4109 47.0741 82.4616 47.2378C82.5384 47.4827 82.8789 47.6377 83.1295 47.5754C83.4497 47.4957 83.6193 47.2624 83.6178 46.8495V46.8481Z" fill="black"/>
<path d="M76.6345 45.8369C76.7765 45.8775 76.9677 45.8963 77.1213 45.9818C77.4835 46.1846 77.5936 46.5179 77.5762 46.9279C77.5588 47.3176 77.4226 47.6118 77.0822 47.8073C76.5606 48.1087 75.771 47.8769 75.5841 47.3162C75.3972 46.7584 75.5218 46.1846 76.1433 45.9166C76.2766 45.8586 76.4389 45.8659 76.6345 45.8369ZM77.1937 46.8873C77.1691 46.3875 76.8634 46.147 76.3896 46.2368C76.1433 46.2832 76.0752 46.4744 75.981 46.6454C75.8434 46.896 75.9724 47.3481 76.2027 47.4886C76.5055 47.6741 76.8272 47.6349 77.0271 47.351C77.1184 47.222 77.1401 47.0438 77.1937 46.8888V46.8873Z" fill="black"/>
<path d="M86.1185 45.863C86.3286 45.8673 86.5344 45.8543 86.714 46.0151C86.9386 46.2165 87.0588 46.4614 87.0212 46.7497C86.9849 47.025 86.9762 47.2858 87.0864 47.5437C87.0994 47.5741 87.111 47.6118 87.1038 47.6422C87.0835 47.7277 87.0516 47.8103 87.0241 47.8928C86.9502 47.8668 86.8575 47.861 86.8053 47.8117C86.6879 47.7045 86.5952 47.7204 86.4692 47.8016C86.1243 48.0218 85.6998 47.9566 85.439 47.6581C85.2956 47.4944 85.2811 47.264 85.3825 47.0713C85.5419 46.7685 85.9997 46.5512 86.4387 46.7613C86.5228 46.8019 86.6126 46.8323 86.6633 46.7483C86.6937 46.6975 86.6836 46.599 86.6561 46.5396C86.5633 46.3455 86.4141 46.2122 86.1823 46.2223C86.0142 46.2281 85.8447 46.2527 85.6766 46.2542C85.61 46.2542 85.5129 46.2397 85.4796 46.1948C85.4144 46.1064 85.5013 46.0311 85.568 45.9905C85.6578 45.934 85.7621 45.8934 85.865 45.8688C85.9447 45.85 86.0331 45.8645 86.1171 45.8645L86.1185 45.863ZM85.736 47.3669C85.9983 47.6205 86.149 47.648 86.417 47.4741C86.4764 47.4365 86.5358 47.3408 86.53 47.2771C86.5242 47.2104 86.4532 47.1221 86.3895 47.0931C86.133 46.9801 85.878 47.0916 85.736 47.3669Z" fill="black"/>
<path d="M98.9424 47.0425C98.841 47.0425 98.7395 47.0367 98.6381 47.0425C98.4802 47.0541 98.4208 47.1714 98.4976 47.3105C98.6106 47.5163 99.009 47.651 99.2351 47.5626C99.3205 47.5293 99.4075 47.4873 99.4973 47.48C99.5929 47.4713 99.7001 47.5148 99.6987 47.6264C99.6987 47.6945 99.6407 47.8046 99.5842 47.8234C99.1872 47.9538 98.7787 48.0103 98.415 47.751C98.0745 47.5076 97.9702 47.1381 98.0195 46.7382C98.0571 46.4311 98.1643 46.1529 98.4599 45.9747C98.6743 45.8472 98.9004 45.8834 99.1249 45.8631C99.3307 45.8443 99.4814 45.9327 99.6175 46.0718C99.8305 46.2876 99.8001 46.6977 99.5552 46.8802C99.4171 46.9836 99.2133 47.0372 98.9438 47.041L98.9424 47.0425ZM98.8859 46.6658C98.8859 46.6658 98.8859 46.673 98.8873 46.6774C98.9945 46.6629 99.1047 46.6585 99.2075 46.631C99.3075 46.6049 99.351 46.5209 99.351 46.4195C99.351 46.3108 99.2901 46.234 99.1872 46.2326C99.0134 46.2282 98.8366 46.2282 98.6671 46.2616C98.5541 46.2833 98.4961 46.3948 98.5106 46.5165C98.5251 46.6484 98.6309 46.6614 98.7352 46.6643C98.7859 46.6658 98.8352 46.6643 98.8859 46.6643V46.6658Z" fill="black"/>
<path d="M109.897 46.8973C109.957 47.2696 109.784 47.5754 109.431 47.7869C109.087 47.9926 108.718 47.9767 108.382 47.8159C108.063 47.6623 107.882 47.3725 107.87 46.9958C107.857 46.5887 107.979 46.2439 108.324 46.012C108.437 45.9367 108.582 45.899 108.718 45.8686C108.815 45.8469 108.921 45.8643 109.022 45.8686C109.549 45.8874 109.89 46.241 109.897 46.7741C109.897 46.8002 109.897 46.8249 109.897 46.8987V46.8973ZM109.487 46.919C109.516 46.6959 109.483 46.5018 109.294 46.3482C109.005 46.1106 108.584 46.1888 108.389 46.5032C108.205 46.7988 108.272 47.0639 108.424 47.3363C108.544 47.5493 108.855 47.6623 109.076 47.5609C109.349 47.4363 109.542 47.2537 109.487 46.919Z" fill="black"/>
<path d="M101.646 46.1672C101.744 46.1165 101.844 46.0977 101.888 46.0383C102.101 45.7442 102.393 45.8528 102.651 45.8977C102.814 45.9267 102.925 46.0962 102.961 46.2686C102.995 46.4324 103.009 46.6033 103.014 46.7714C103.022 47.0756 103.018 47.3799 103.019 47.6827C103.019 47.8117 102.953 47.9015 102.84 47.9145C102.725 47.9276 102.627 47.8566 102.605 47.7334C102.595 47.6755 102.601 47.6161 102.601 47.5567C102.601 47.2437 102.602 46.9308 102.604 46.6178C102.604 46.4454 102.547 46.3063 102.383 46.2208C102.228 46.1411 102.104 46.2121 101.985 46.2933C101.811 46.4121 101.679 46.5584 101.684 46.7902C101.689 47.0684 101.686 47.3466 101.691 47.6248C101.691 47.7218 101.684 47.8117 101.588 47.8653C101.413 47.9652 101.242 47.8682 101.24 47.6624C101.237 47.2654 101.243 46.8685 101.237 46.4715C101.236 46.3469 101.213 46.2223 101.194 46.0977C101.181 46.0107 101.162 45.9079 101.263 45.8832C101.333 45.8673 101.431 45.8977 101.491 45.9412C101.553 45.9876 101.586 46.0745 101.647 46.1658L101.646 46.1672Z" fill="black"/>
<path d="M111.298 46.8683C111.298 46.6148 111.292 46.3612 111.301 46.1077C111.304 46.0309 111.333 45.9019 111.373 45.8918C111.449 45.8744 111.542 45.9222 111.626 45.9498C111.647 45.957 111.662 45.9845 111.681 46.0005C111.778 46.0874 111.865 46.0874 111.968 45.9932C112.196 45.7831 112.488 45.8136 112.734 45.9034C112.972 45.9903 113.09 46.2323 113.098 46.4974C113.109 46.8944 113.114 47.2928 113.116 47.6898C113.116 47.8275 113.048 47.9043 112.928 47.9158C112.782 47.9303 112.725 47.8333 112.719 47.7159C112.706 47.471 112.711 47.2262 112.706 46.9813C112.704 46.8553 112.718 46.7249 112.692 46.6017C112.654 46.4279 112.595 46.2453 112.383 46.2106C112.181 46.1772 111.991 46.2323 111.866 46.4047C111.805 46.4887 111.755 46.5988 111.746 46.7017C111.721 46.9625 111.721 47.2247 111.713 47.487C111.71 47.5551 111.717 47.6232 111.71 47.6898C111.694 47.8289 111.591 47.9376 111.488 47.9216C111.355 47.9014 111.316 47.7985 111.311 47.6797C111.307 47.5276 111.307 47.3754 111.305 47.2233C111.305 47.1045 111.305 46.9857 111.305 46.8683C111.303 46.8683 111.3 46.8683 111.297 46.8683H111.298Z" fill="black"/>
<path d="M7.22732 14.6288C7.04042 14.723 6.90857 14.7882 6.77673 14.8549C6.60287 14.9418 6.43045 15.0302 6.25659 15.1186C6.07694 15.2098 5.89583 15.1997 5.71907 15.1113C5.42061 14.9606 5.12504 14.8027 4.78601 14.6274C4.88888 14.5506 4.96567 14.4782 5.05405 14.4304C5.29166 14.3014 5.53796 14.1884 5.77413 14.0594C5.91321 13.9827 6.03926 13.9798 6.18125 14.0537C6.45074 14.1942 6.72747 14.3202 6.9984 14.4593C7.06215 14.4927 7.11576 14.5477 7.22442 14.6303L7.22732 14.6288Z" fill="black"/>
<path d="M0.0525966 14.5791C0.132283 14.5125 0.194583 14.443 0.271372 14.4024C0.516227 14.2705 0.768328 14.1517 1.01608 14.0257C1.16242 13.9503 1.3015 13.9489 1.45074 14.0286C1.69559 14.1604 1.94914 14.2763 2.194 14.4082C2.27513 14.4516 2.33743 14.5284 2.43161 14.6096C2.26934 14.7023 2.15053 14.7776 2.02593 14.8414C1.83903 14.9356 1.65502 15.0515 1.45508 15.1022C1.3015 15.1413 1.11171 15.1355 0.963923 15.079C0.674153 14.9703 0.403218 14.8153 0.125039 14.6762C0.104755 14.6661 0.0946129 14.6371 0.0511475 14.5791H0.0525966Z" fill="black"/>
<path d="M4.20085 12.028C4.18636 12.1134 4.18781 12.1772 4.16463 12.2293C4.05162 12.493 3.94296 12.7596 3.81256 13.0146C3.7039 13.2276 3.54887 13.229 3.44166 13.019C3.31126 12.764 3.18956 12.5017 3.10118 12.2308C3.06206 12.1076 3.08669 11.9439 3.1316 11.8164C3.21274 11.5875 3.32865 11.3702 3.43586 11.1499C3.46484 11.0905 3.50396 11.0326 3.55032 10.9848C3.61117 10.921 3.7039 10.908 3.74591 10.9877C3.92992 11.3282 4.09509 11.6788 4.1994 12.0294L4.20085 12.028Z" fill="black"/>
<path d="M72.6849 46.5352C72.6849 46.1803 72.6849 45.8253 72.6849 45.4703C72.6849 45.4283 72.6835 45.3848 72.6878 45.3443C72.7052 45.1936 72.7878 45.098 72.8993 45.1038C73.0413 45.111 73.0746 45.2197 73.0891 45.3327C73.1007 45.424 73.1065 45.5181 73.1065 45.6109C73.1022 46.0586 73.0949 46.5063 73.0906 46.9554C73.0906 47.0481 73.0993 47.1408 73.0993 47.2336C73.0993 47.3929 73.163 47.5306 73.3108 47.5755C73.4325 47.6132 73.5455 47.7204 73.7092 47.6161C73.8281 47.5393 74.0063 47.5306 74.141 47.6335C74.1874 47.6697 74.2279 47.7378 74.2323 47.7957C74.2352 47.8261 74.1555 47.8653 74.1091 47.8957C74.0888 47.9087 74.0613 47.9174 74.0367 47.9174C73.6571 47.9174 73.276 47.9247 72.8964 47.9087C72.7327 47.9015 72.6849 47.8218 72.6849 47.6523C72.6849 47.2799 72.6849 46.909 72.6849 46.5367C72.6849 46.5367 72.6835 46.5367 72.682 46.5367L72.6849 46.5352Z" fill="black"/>
<path d="M88.3919 46.3365C88.3919 45.8802 88.3919 45.4252 88.3919 44.9688C88.3919 44.9181 88.3846 44.8573 88.4092 44.821C88.4542 44.7558 88.5165 44.6689 88.5802 44.6617C88.6425 44.653 88.7367 44.7182 88.7787 44.7776C88.8222 44.8413 88.8367 44.9355 88.8352 45.0166C88.8309 45.6585 88.8178 46.3003 88.8106 46.9422C88.8091 47.0769 88.8048 47.2145 88.8352 47.3435C88.854 47.4217 88.925 47.4971 88.9917 47.5507C89.0641 47.6086 89.1641 47.6449 89.1308 47.7608C89.0946 47.8854 88.9917 47.9187 88.8729 47.9201C88.5947 47.9245 88.4208 47.7434 88.4179 47.4275C88.4136 47.0639 88.4179 46.7002 88.4179 46.3365C88.4092 46.3365 88.4006 46.3365 88.3919 46.3365Z" fill="black"/>
<path d="M91.3518 47.0654C91.2345 47.0654 91.1157 47.0669 90.9983 47.0654C90.9404 47.0654 90.8795 47.0625 90.823 47.048C90.723 47.0234 90.639 46.9582 90.6723 46.8539C90.6926 46.7901 90.781 46.709 90.8419 46.7061C91.1519 46.6887 91.4634 46.6916 91.7749 46.6959C91.8778 46.6959 91.9502 46.7553 91.9502 46.8698C91.9502 46.9988 91.872 47.048 91.7561 47.0509C91.6213 47.0538 91.4866 47.0509 91.3518 47.0509C91.3518 47.0553 91.3518 47.0611 91.3518 47.0654Z" fill="black"/>
</svg>
