<svg width="86" height="50" viewBox="0 0 86 50" fill="none" xmlns="http://www.w3.org/2000/svg">
<path d="M60.1368 40.4953C61.8357 42.0864 63.4469 43.5951 65.1586 45.1989C64.5404 45.7475 63.9059 46.4552 63.1396 46.96C61.726 47.8908 60.3215 48.9442 58.7561 49.5129C55.393 50.7345 52.7761 49.6245 50.9108 46.5631C49.7349 44.6338 49.3435 42.4887 49.1113 40.2997C48.6651 36.1228 49.1003 31.9624 49.3838 27.8002C49.4935 26.189 49.5776 24.5779 49.6691 22.965C49.7038 22.3432 49.5703 21.7964 48.8992 21.5715C48.1823 21.3301 47.7507 21.7306 47.3941 22.2828C45.1191 25.8123 42.9137 29.3912 40.5363 32.8493C39.2854 34.669 37.8718 36.4246 36.2899 37.9607C32.3545 41.7791 28.8506 39.2225 27.96 35.5522C27.4936 33.6284 27.3748 31.5674 27.4351 29.5795C27.5522 25.7776 27.9911 21.9847 28.141 18.181C28.2526 15.3281 28.1227 12.4661 28.0971 9.6096C28.0971 9.48891 28.066 9.36821 28.0386 9.24934C27.5814 7.23406 26.881 6.97438 25.14 8.15026C22.5579 9.89306 20.495 12.1827 18.5785 14.5856C16.779 16.8441 15.0527 19.1758 13.4708 21.5897C11.1209 25.1759 8.92635 28.8645 6.66785 32.511C6.45937 32.8475 6.28381 33.2023 6.0735 33.5388C5.27434 34.8226 4.1588 35.3986 2.96829 35.1554C1.7412 34.9049 0.65492 33.6833 0.483017 32.3117C0.33306 31.1047 0.495819 29.9782 1.17794 28.9047C4.17892 24.1811 7.02445 19.3532 10.1461 14.71C13.0356 10.4124 16.2267 6.30322 20.3286 3.05902C21.6691 2.00018 23.1906 1.0346 24.7853 0.460372C28.0459 -0.715513 30.6665 0.400022 32.5008 3.3626C33.929 5.67048 34.4136 8.2673 34.4246 10.8824C34.4411 14.8965 34.1777 18.9125 34.015 22.9284C33.9601 24.2981 33.8467 25.6642 33.7681 27.0321C33.7297 27.7014 33.9308 28.261 34.6276 28.4695C35.3006 28.6707 35.6974 28.272 36.0376 27.7417C38.3418 24.1591 40.6003 20.5455 42.9905 17.0197C44.4388 14.8837 45.9567 12.7605 48.1201 11.2482C50.7864 9.3865 53.4765 10.0833 54.9688 12.9782C55.757 14.507 56.0587 16.1638 56.024 17.8408C55.9563 21.0978 55.7478 24.3493 55.6052 27.6045C55.4479 31.1943 55.2303 34.7823 55.1827 38.374C55.1663 39.559 55.5668 40.7569 55.8319 41.9364C55.9728 42.56 56.4354 42.7795 57.0151 42.4704C57.7887 42.0571 58.5385 41.6036 59.2828 41.1391C59.6376 40.9178 59.9503 40.6343 60.1332 40.4935L60.1368 40.4953Z" fill="black"/>
<path d="M72.6125 30.3057C75.0905 31.3737 77.4112 32.4928 79.3734 34.2247C81.129 35.7755 81.6045 38.7161 80.4597 40.757C79.4813 42.5034 77.5703 43.3044 75.3593 42.9405C73.5946 42.6497 72.1736 41.8122 71.0636 40.4168C70.2992 39.4549 69.9919 38.3778 70.2004 37.1726C70.6119 34.7861 71.5354 32.5788 72.6144 30.3075L72.6125 30.3057Z" fill="black"/>
<path d="M72.7972 29.5719C74.0243 26.677 75.2734 23.8626 77.3764 21.573C79.7593 18.9816 83.1059 19.6144 84.5159 22.833C85.5784 25.2597 85.0023 28.2351 83.1644 30.1114C82.3817 30.9087 81.4491 31.2635 80.3811 31.2562C77.7605 31.2398 75.3008 30.4845 72.7972 29.5719Z" fill="black"/>
<path d="M71.8885 29.9781C70.4621 32.3518 69.1417 34.6158 67.0277 36.2397C65.0471 37.7613 61.3732 37.3955 59.6121 35.5978C58.4911 34.453 58.3777 33.0083 59.3378 31.7154C60.6728 29.9232 62.4558 28.954 64.7015 28.8955C67.0935 28.8333 69.3977 29.349 71.8885 29.9781Z" fill="black"/>
<path d="M72.1463 29.4551C70.2316 28.5792 68.3991 27.8403 66.6618 26.9187C65.0544 26.0665 64.5825 24.9527 65.1988 23.2447C66.1626 20.5692 68.0169 18.6838 70.8734 18.0913C72.9747 17.656 74.4139 18.9197 74.37 21.0685C74.3115 23.9488 73.2965 26.5931 72.1444 29.4533L72.1463 29.4551Z" fill="black"/>
</svg>
