<svg width="81" height="50" viewBox="0 0 81 50" fill="none" xmlns="http://www.w3.org/2000/svg">
<path d="M6.78012 6.61678C6.79908 6.60134 6.81667 6.58825 6.83582 6.57418L6.84285 6.57652C6.82542 6.59092 6.80633 6.60319 6.78599 6.61307C6.78426 6.61463 6.78228 6.61589 6.78012 6.61678ZM9.54696 5.69411C9.53992 5.6988 9.53406 5.70349 9.52683 5.70818C9.53758 5.70701 9.54696 5.70466 9.54696 5.69411ZM8.67232 6.65865C8.44648 6.82415 8.20254 6.9634 7.9452 7.07371C7.62559 7.20671 7.31743 7.36572 7.02384 7.54914H0.026001V0.000244141H9.88074C9.75215 0.0415292 9.62586 0.0896688 9.50242 0.144457C9.33582 0.20554 9.18509 0.303314 9.06138 0.430538C8.9397 0.561281 8.84736 0.716515 8.79054 0.885843C8.62087 1.00225 8.4834 1.15968 8.39093 1.34349C8.26313 1.586 8.07632 1.79997 8.10583 2.07062C8.13318 2.29885 8.19102 2.51302 8.23362 2.75533C8.24628 2.8375 8.26522 2.91857 8.29029 2.99784C8.32 3.08284 8.29029 3.18348 8.33289 3.25441C8.3624 3.29682 8.34833 3.35485 8.405 3.38319V3.44005C8.42044 3.45432 8.42044 3.46839 8.4476 3.46839V3.52525C8.574 3.65428 8.684 3.79841 8.77511 3.95437C8.80481 4.03957 8.63324 3.99697 8.5623 3.96746C8.43563 3.88892 8.32059 3.79302 8.22053 3.68256C8.21235 3.68997 8.20697 3.69998 8.20529 3.71089C8.26313 3.81133 8.47593 3.93913 8.3624 4.01006C8.30573 4.03957 8.23362 3.96746 8.17676 4.02531C8.16269 4.05364 8.17676 4.08197 8.17676 4.1105C8.09058 4.05364 8.00538 4.08197 7.92019 4.05364C7.86352 4.03957 7.84808 3.92486 7.77832 3.92486C7.60018 3.87815 7.41879 3.84491 7.23566 3.8254C6.98595 3.78066 6.7312 3.77113 6.47884 3.79707C6.36913 3.8166 6.26455 3.85824 6.17143 3.91944C6.07831 3.98065 5.99861 4.06015 5.93716 4.1531V4.19688C6.03663 4.20977 6.0804 4.12477 6.1654 4.09624C6.30727 4.0679 6.43624 4.01006 6.57928 3.98153C6.77888 3.92647 6.98484 3.89789 7.19189 3.89653C7.2397 3.8894 7.2883 3.8894 7.3361 3.89653C7.08673 3.90081 6.84009 3.94924 6.60762 4.03957C6.43631 4.06872 6.26865 4.11629 6.10756 4.18144C6.48005 4.16978 6.85172 4.22301 7.20596 4.33874C7.33156 4.38113 7.45151 4.43868 7.56317 4.51012C7.60727 4.55226 7.65516 4.59027 7.70621 4.62365C7.74305 4.6438 7.78385 4.65562 7.82575 4.65829C7.86765 4.66095 7.90962 4.6544 7.94872 4.63909H8.02082C8.23705 4.60459 8.43934 4.51038 8.6049 4.36708C8.6049 4.38134 8.61897 4.38134 8.63324 4.38134C8.61198 4.50248 8.56873 4.61871 8.50563 4.72429C8.50563 4.73836 8.4902 4.76669 8.5197 4.78096H8.54823C8.5328 4.78096 8.5197 4.78096 8.5197 4.79503C8.5197 4.82356 8.5623 4.79503 8.5754 4.82356C8.50524 4.82815 8.43938 4.85898 8.39093 4.90993C8.39093 4.924 8.42044 4.924 8.43353 4.924C8.405 4.95253 8.3624 4.93826 8.34833 4.9666C8.35561 4.97415 8.36514 4.97916 8.37549 4.98086C8.3624 4.98086 8.34833 4.98086 8.34833 4.99493V5.03753C8.30573 5.03753 8.29029 5.06587 8.26313 5.0813C8.32 5.1239 8.3624 5.0813 8.42044 5.0813C8.26313 5.13797 8.13318 5.22317 7.97822 5.26577C7.94872 5.26577 7.97822 5.30954 7.94872 5.30954C7.99132 5.3367 8.02082 5.2941 8.06342 5.2941C7.86352 5.40881 7.66361 5.50827 7.44847 5.63705C7.43357 5.65254 7.42405 5.67241 7.4213 5.69372H7.36327C7.3361 5.70798 7.3492 5.75176 7.32067 5.77892C7.3918 5.82269 7.47797 5.72225 7.52057 5.77892C7.53484 5.77892 7.49224 5.79435 7.4639 5.79435C7.44846 5.79435 7.44847 5.82269 7.43537 5.82269H7.3918C7.36327 5.85102 7.3361 5.86529 7.3361 5.90789C7.3066 5.90789 7.27826 5.90789 7.264 5.93622C7.57861 5.89362 7.90592 5.92196 8.20529 5.76602C8.44105 5.64744 8.65369 5.48761 8.83314 5.2941C8.84071 5.30229 8.84561 5.31258 8.84721 5.32361C8.80529 5.45683 8.71999 5.5722 8.6049 5.65131C8.51971 5.69372 8.46304 5.76602 8.39093 5.79435C8.34833 5.82269 8.30573 5.85109 8.26313 5.87955C7.73474 6.065 7.10669 5.97882 6.65022 6.33584C6.65022 6.32177 6.63595 6.32177 6.62188 6.32177C6.59355 6.3501 6.54977 6.36437 6.53688 6.39387C6.53678 6.39559 6.53705 6.39732 6.53765 6.39893C6.53826 6.40054 6.53919 6.40202 6.54039 6.40325C6.54446 6.40855 6.54993 6.41259 6.55619 6.4149C6.56245 6.41722 6.56923 6.41772 6.57576 6.41634C6.58312 6.41109 6.59105 6.4067 6.59941 6.40325C6.66989 6.35644 6.74624 6.31912 6.82647 6.29226C6.81802 6.29827 6.81011 6.305 6.80283 6.31239C6.74733 6.34307 6.69399 6.37609 6.63966 6.40325H6.64318C6.60544 6.42481 6.57247 6.45379 6.54626 6.48845C6.54878 6.48929 6.55107 6.4907 6.55298 6.49255C6.55488 6.49441 6.55633 6.49668 6.55724 6.49918C6.55814 6.50168 6.55846 6.50435 6.55819 6.50699C6.55791 6.50964 6.55704 6.51218 6.55564 6.51444C6.55095 6.52284 6.54626 6.53105 6.54157 6.54043C6.538 6.54534 6.5348 6.5505 6.53199 6.55587C6.52613 6.56642 6.52027 6.576 6.51323 6.58655C6.51069 6.59124 6.50835 6.59476 6.506 6.59964C6.50248 6.6055 6.50014 6.61137 6.49662 6.61742C6.49513 6.62122 6.49309 6.62477 6.49056 6.62797C6.48862 6.63217 6.48626 6.63616 6.48353 6.6399C6.48184 6.64431 6.47989 6.64862 6.47767 6.65279C6.47649 6.65397 6.47532 6.65514 6.47532 6.65631C6.47415 6.65748 6.47415 6.65865 6.47278 6.65983C6.4718 6.661 6.4718 6.66237 6.47063 6.66334C6.4756 6.66531 6.48069 6.66695 6.48587 6.66823C6.49284 6.66994 6.5 6.67073 6.50717 6.67057C6.55915 6.67175 6.58651 6.60902 6.62071 6.57834C6.64197 6.56092 6.6645 6.54511 6.68812 6.53105C6.69164 6.53574 6.69516 6.53926 6.6975 6.54278C6.69653 6.54629 6.69516 6.55118 6.69399 6.55587C6.68578 6.56779 6.67874 6.58186 6.66917 6.59358C6.66214 6.60433 6.6764 6.61254 6.68578 6.60902V6.61136C6.59901 6.66129 6.5184 6.72123 6.44562 6.78997C6.44911 6.7895 6.45267 6.78989 6.45598 6.79112C6.45928 6.79235 6.46223 6.79437 6.46457 6.79701C6.46594 6.79814 6.46706 6.79955 6.46786 6.80114C6.46866 6.80272 6.46913 6.80445 6.46924 6.80623C6.46935 6.808 6.4691 6.80978 6.4685 6.81145C6.4679 6.81313 6.46696 6.81466 6.46575 6.81596C6.44562 6.84429 6.42432 6.87282 6.40439 6.90233C6.3913 6.9248 6.37703 6.9461 6.36296 6.96858C6.35104 6.98851 6.33932 7.00883 6.32622 7.02896C6.32388 7.03345 6.32036 7.03834 6.31802 7.04303C6.31786 7.04302 6.31771 7.04305 6.31756 7.04311C6.31742 7.04317 6.31729 7.04325 6.31718 7.04336C6.31707 7.04347 6.31698 7.0436 6.31693 7.04375C6.31687 7.04389 6.31684 7.04404 6.31684 7.0442C6.33168 7.04716 6.34708 7.0451 6.36062 7.03834C6.43859 6.96623 6.51323 6.89158 6.5912 6.81831C6.5987 6.8183 6.60606 6.81627 6.6125 6.81244C6.68465 6.74217 6.76389 6.67957 6.84895 6.62563C6.88706 6.60464 6.92045 6.57604 6.94704 6.5416L6.96834 6.51679C6.97119 6.51442 6.97435 6.51245 6.97772 6.51092C7.06153 6.46479 7.15046 6.42865 7.2427 6.40325C7.24856 6.40208 7.25345 6.40091 7.25814 6.39974C7.42966 6.35926 7.60333 6.32847 7.77832 6.3075C7.89676 6.31672 8.01587 6.31193 8.13318 6.29324C8.22307 6.27311 8.30573 6.22113 8.39093 6.19397V6.22113C8.6049 6.13613 8.76221 5.95029 8.97501 5.87955C8.99045 5.87955 9.01761 5.90789 9.04712 5.89362C9.10214 5.82583 9.17178 5.77137 9.25083 5.73432C9.32988 5.69726 9.4163 5.67857 9.5036 5.67965C9.5036 5.69372 9.5036 5.70798 9.51786 5.70798H9.52724L9.37462 5.82269C9.36055 5.83695 9.37462 5.85102 9.39006 5.85102C9.45982 5.82269 9.5036 5.76602 9.57453 5.73632C9.56026 5.75176 9.56026 5.77892 9.54737 5.79435C9.49231 5.83178 9.44012 5.87326 9.39123 5.91844C9.221 6.0684 9.06178 6.23042 8.91482 6.40325H8.91697C8.83549 6.4908 8.75381 6.57834 8.67232 6.65865ZM6.47884 5.63705C6.57928 5.59445 6.69399 5.63705 6.77919 5.55185C6.74968 5.52234 6.70708 5.53661 6.67874 5.49401C6.65021 5.47974 6.60761 5.50827 6.57928 5.52234C6.52144 5.55185 6.42197 5.55185 6.40791 5.62278C6.39364 5.65131 6.4505 5.63705 6.47884 5.63705ZM4.29591 5.32361C4.60978 4.94083 4.98072 4.60864 5.39568 4.33874C5.42284 4.32448 5.35191 4.38134 5.40995 4.36708C5.59559 4.32448 5.65225 4.13884 5.73745 3.99697C5.85216 3.81133 6.05187 3.73922 6.19393 3.58309C6.19489 3.59081 6.1941 3.59864 6.19163 3.60601C6.18917 3.61338 6.18508 3.62011 6.17967 3.62569C6.18528 3.63104 6.19202 3.63508 6.19939 3.63751C6.20675 3.63994 6.21457 3.64071 6.22227 3.63976C6.28011 3.59736 6.35104 3.61143 6.39364 3.55476C6.27531 3.50721 6.14423 3.50176 6.02236 3.53932C5.71977 3.69802 5.44882 3.91081 5.22294 4.16717C5.08431 4.32595 4.9206 4.46094 4.73832 4.56679C4.61096 4.82368 4.45844 5.06731 4.28301 5.2941C4.28403 5.30507 4.28856 5.31542 4.29591 5.32361ZM5.48088 4.38134C5.48088 4.36708 5.48088 4.35281 5.46544 4.35281C5.43716 4.36296 5.41191 4.38012 5.39206 4.40267C5.3722 4.42522 5.35839 4.45244 5.35191 4.48178C5.35191 4.49605 5.36735 4.49605 5.38024 4.49605C5.40598 4.48496 5.42666 4.46469 5.43828 4.43918C5.45118 4.41319 5.46544 4.40968 5.48088 4.38134ZM6.14313 6.51913C6.15485 6.4908 6.07923 6.49783 6.06731 6.50624C6.05588 6.51563 6.04558 6.52631 6.03663 6.53809C6.01809 6.55783 5.99832 6.57636 5.97742 6.59358C5.94205 6.6268 5.90883 6.66237 5.87229 6.69422C5.84864 6.71435 5.92661 6.72607 5.94322 6.71083C5.96081 6.69422 5.97976 6.67761 5.99754 6.661C6.00712 6.661 6.01533 6.65865 6.01884 6.65865C6.05974 6.64145 6.09646 6.61566 6.12652 6.58303C6.13824 6.57248 6.12534 6.56408 6.10756 6.56056C6.12222 6.54943 6.13434 6.53531 6.14313 6.51913ZM5.88753 6.40091C6.00458 6.32763 6.1228 6.24829 6.25177 6.17853C6.21278 6.1559 6.16769 6.14599 6.1228 6.1502C6.05187 6.16446 5.96569 6.12186 5.89476 6.1502C5.71381 6.23422 5.4844 6.22836 5.34839 6.36085C5.34722 6.36085 5.34722 6.36183 5.34605 6.36183C5.33459 6.37256 5.3243 6.38448 5.31537 6.39739C5.31322 6.39964 5.31079 6.40161 5.30814 6.40325C5.29524 6.41517 5.28097 6.42455 5.26436 6.43764C5.23822 6.45987 5.21373 6.48397 5.19109 6.50975C5.19109 6.51092 5.19108 6.51092 5.18991 6.5121C5.17916 6.52148 5.16979 6.53222 5.15787 6.5416C5.13911 6.5547 5.16861 6.57365 5.18288 6.5629C5.20281 6.54766 5.2159 6.52988 5.23603 6.51679L5.24326 6.51327C5.22174 6.53686 5.20268 6.56259 5.1864 6.59006C5.18799 6.59299 5.18841 6.59642 5.18757 6.59964C5.1864 6.60668 5.18405 6.61391 5.18288 6.62094C5.18294 6.62158 5.18287 6.62222 5.18267 6.62282C5.18247 6.62343 5.18214 6.62399 5.18171 6.62446C5.18057 6.62972 5.179 6.63489 5.17702 6.6399C5.17672 6.64315 5.17586 6.64632 5.17448 6.64927C5.17403 6.64974 5.17369 6.65029 5.17349 6.6509C5.17329 6.65151 5.17322 6.65216 5.1733 6.65279C5.16971 6.66413 5.16541 6.67522 5.16041 6.68601C5.15923 6.68816 5.15923 6.68953 5.15787 6.69187C5.15689 6.69187 5.15689 6.69305 5.15689 6.69422L5.15435 6.69656C5.14977 6.70627 5.14468 6.71573 5.13911 6.7249C5.13324 6.73565 5.12601 6.74503 5.12015 6.75577C5.11848 6.7587 5.11652 6.76145 5.11429 6.76398C5.11312 6.76515 5.11312 6.76515 5.11312 6.76632C5.09885 6.78645 5.08361 6.80658 5.06817 6.82651C5.06583 6.83023 5.06212 6.83374 5.05997 6.83726C5.05156 6.84801 5.04335 6.85856 5.03515 6.86794C5.03001 6.87396 5.02524 6.88029 5.02088 6.88689C5.01971 6.88689 5.01971 6.88807 5.01854 6.88924C5.0031 6.90819 4.98766 6.9248 4.97242 6.94122C4.97359 6.94356 4.97457 6.9461 4.97594 6.94845V6.94962C4.97953 6.95749 4.98385 6.96502 4.98884 6.97209L4.99235 6.97913C4.99414 6.98209 4.99616 6.9849 4.99841 6.98753C5.00068 6.9874 5.0029 6.9868 5.00492 6.98575C5.00694 6.98471 5.00872 6.98325 5.01014 6.98147H5.01131C5.01483 6.97661 5.01803 6.97152 5.02088 6.96623L5.02206 6.96506C5.02323 6.96271 5.0244 6.96134 5.02557 6.959L5.03026 6.95431C5.03144 6.95314 5.03144 6.95079 5.03261 6.94962C5.03276 6.94962 5.03292 6.9496 5.03306 6.94954C5.0332 6.94948 5.03334 6.94939 5.03344 6.94929C5.03355 6.94918 5.03364 6.94904 5.0337 6.9489C5.03376 6.94876 5.03378 6.9486 5.03378 6.94845C5.05905 6.91675 5.08717 6.88745 5.11781 6.8609C5.13442 6.84566 5.1522 6.8314 5.16979 6.81713C5.17096 6.81479 5.17565 6.81362 5.17917 6.81362C5.1824 6.81334 5.18566 6.81374 5.18874 6.81479C5.19578 6.81127 5.20418 6.80658 5.21121 6.80306C5.21919 6.79817 5.22748 6.7938 5.23603 6.78997V6.79232C5.23368 6.80892 5.2585 6.80893 5.26788 6.80306C5.27477 6.79734 5.28112 6.791 5.28684 6.78411C5.29758 6.76984 5.30814 6.76046 5.31752 6.74972V6.74854C5.31888 6.74737 5.32006 6.74737 5.32006 6.7462C5.32709 6.73916 5.33413 6.73311 5.34116 6.72607L5.34253 6.7249L5.3437 6.72373C5.35074 6.71669 5.3566 6.71083 5.36383 6.70477C5.40667 6.6622 5.45473 6.62524 5.50687 6.59475C5.51085 6.59262 5.51549 6.59206 5.51987 6.59318C5.52425 6.5943 5.52805 6.59702 5.53051 6.60081C5.53169 6.60198 5.53286 6.60316 5.53286 6.60433C5.59676 6.57482 5.66046 6.54766 5.72084 6.5121C5.77751 6.47907 5.83086 6.44116 5.88401 6.40325C5.88518 6.40208 5.88655 6.40208 5.88753 6.40091ZM6.17967 5.40881C6.22227 5.45141 6.30727 5.43734 6.36531 5.40881C6.40841 5.3846 6.45808 5.37468 6.50717 5.38048C6.52144 5.38048 6.52144 5.35195 6.52144 5.3367C6.55826 5.34914 6.59715 5.35431 6.63595 5.35195C6.97599 5.29529 7.30715 5.19438 7.62101 5.0518C7.24856 4.76669 6.77918 4.66742 6.33697 4.53845C6.37938 4.53845 6.42197 4.58105 6.46457 4.53845C6.39364 4.48178 6.30727 4.51012 6.23653 4.46771C6.25177 4.46771 6.28011 4.48178 6.29437 4.45228C6.18341 4.41176 6.06845 4.3832 5.95143 4.36708C5.9843 4.36114 6.01391 4.3435 6.03478 4.31742C6.05565 4.29134 6.06637 4.25858 6.06496 4.22521C6.06496 4.20977 6.03663 4.20977 6.02236 4.20977C5.85384 4.30318 5.72646 4.45636 5.66535 4.63909C5.76579 4.69459 5.88049 4.65199 5.97976 4.66742C5.93716 4.71002 5.86506 4.71002 5.80956 4.72429C5.76462 4.73484 5.72319 4.76669 5.73745 4.79503C5.74507 4.80582 5.75642 4.8134 5.7693 4.81633C5.73561 4.82486 5.70492 4.8425 5.68059 4.86733C5.73745 4.90993 5.79412 4.8814 5.85216 4.8814C5.85216 4.90993 5.88049 4.90993 5.89476 4.924C5.83221 4.94626 5.78086 4.99214 5.75172 5.0518C5.72319 5.1239 5.65225 5.15224 5.60965 5.2091V5.2515C5.45829 5.35946 5.31947 5.48399 5.19578 5.62278C5.21004 5.62278 5.21004 5.63705 5.21004 5.65131C5.18053 5.69372 5.12367 5.70798 5.1094 5.75176C5.1094 5.76602 5.1094 5.77892 5.12367 5.77892C5.29524 5.72225 5.42284 5.59445 5.58015 5.53661C5.69485 5.50827 5.78005 5.43734 5.88049 5.40881C5.95143 5.39474 6.03663 5.36621 6.10756 5.35195C6.10756 5.36621 6.10756 5.38048 6.1228 5.38048H6.23653C6.22227 5.40881 6.1654 5.39474 6.17967 5.40881Z" fill="#000091"/>
<path d="M20.8507 0H12.7294C12.7566 0.00802287 12.7825 0.020006 12.8062 0.0355645C12.8725 0.0709338 12.9577 0.117051 13.0122 0.145385C13.1212 0.195862 13.2149 0.274183 13.284 0.372452C13.3123 0.416224 13.3551 0.501227 13.3266 0.558092C13.2983 0.630198 13.284 0.743732 13.2119 0.772066C13.117 0.810153 13.0131 0.820058 12.9127 0.800596C12.855 0.798156 12.7979 0.788573 12.7425 0.772066C12.9617 0.84312 13.155 0.97723 13.2983 1.15761C13.3123 1.18595 13.3692 1.20021 13.4272 1.20021C13.4401 1.20021 13.4401 1.22854 13.4401 1.24281C13.4118 1.27232 13.3845 1.28541 13.3975 1.32899H13.4401C13.5123 1.30065 13.4982 1.15761 13.5974 1.20021C13.6326 1.22176 13.6581 1.25601 13.6686 1.29585C13.6792 1.33569 13.674 1.37807 13.6541 1.41418C13.6009 1.46593 13.544 1.51373 13.4839 1.55722C13.477 1.57288 13.4734 1.58982 13.4734 1.60696C13.4734 1.62409 13.477 1.64103 13.4839 1.65669C13.5194 1.70814 13.5436 1.76655 13.5548 1.82806C13.5974 1.92733 13.6117 2.04204 13.6541 2.14267C13.7227 2.34932 13.7567 2.56589 13.7548 2.78362C13.7548 2.89833 13.6967 2.99759 13.7405 3.1123C13.7783 3.21885 13.8308 3.31956 13.8966 3.41147C13.9539 3.48403 14.0064 3.56021 14.0539 3.63952C14.1389 3.78275 14.2962 3.92462 14.2241 4.09599C14.1827 4.19663 14.0268 4.18237 13.9261 4.23904C13.84 4.31017 13.9119 4.42487 13.9545 4.4958C14.0268 4.62458 13.8693 4.70978 13.7688 4.75238C13.7972 4.79498 13.854 4.78071 13.8693 4.80905C13.8824 4.88115 13.9545 4.92375 13.9119 4.99469C13.854 5.08106 13.6825 5.12366 13.7688 5.25126C13.7893 5.3016 13.7987 5.3558 13.7963 5.41011C13.7939 5.46442 13.7797 5.51756 13.7548 5.56587C13.7332 5.62006 13.6984 5.66801 13.6536 5.70537C13.6088 5.74274 13.5554 5.76833 13.4982 5.77985C13.4103 5.80584 13.3175 5.81073 13.2273 5.79411C13.201 5.77847 13.1715 5.76874 13.141 5.76558C12.9007 5.71823 12.6579 5.68469 12.4138 5.66514C12.3451 5.6756 12.2779 5.6947 12.2139 5.722C12.1519 5.76793 12.0941 5.81933 12.0412 5.8756L12.0402 5.87696C12.0288 5.88807 12.0181 5.89988 12.0082 5.91233C12.0023 5.9182 11.9963 5.9266 11.9904 5.93363C11.9857 5.93832 11.9822 5.94321 11.9775 5.9477C11.9368 6.00022 11.8993 6.0551 11.8651 6.11204C11.8628 6.11583 11.8607 6.11982 11.8591 6.12396C11.8556 6.13002 11.852 6.13706 11.8485 6.14292C11.8035 6.22653 11.7671 6.31445 11.7397 6.40535C11.6428 6.73189 11.6854 7.0121 11.7539 7.0805C11.7729 7.09965 12.2245 7.23897 12.5391 7.3785C12.6553 7.42718 12.7679 7.48413 12.876 7.5489H20.8507V0Z" fill="#E1000F"/>
<path d="M13.2132 2.75404C13.2701 2.7683 13.3551 2.7683 13.3551 2.79664C13.3279 2.91134 13.1552 2.93968 13.0702 3.05321H13.0276C12.985 3.08155 12.9979 3.15365 12.9555 3.15365C12.9125 3.14428 12.8676 3.1493 12.8277 3.16792C12.8534 3.19857 12.8863 3.22238 12.9234 3.23725C12.9605 3.25211 13.0008 3.25757 13.0405 3.25312C13.053 3.25697 13.0641 3.26459 13.0721 3.27494C13.0802 3.28529 13.0848 3.29787 13.0854 3.31096C13.0908 3.3103 13.0959 3.30859 13.1006 3.30595C13.1052 3.3033 13.1093 3.29975 13.1126 3.29552C13.128 3.29552 13.1411 3.29552 13.1411 3.31096V3.36782C13.0985 3.42449 13.0276 3.39616 12.9707 3.41023C13.0781 3.43859 13.191 3.43859 13.2984 3.41023C13.3846 3.38189 13.2984 3.23885 13.3551 3.16792C13.3279 3.16792 13.3551 3.12415 13.3279 3.12415C13.3551 3.09698 13.3846 3.05321 13.413 3.03895C13.4295 3.03931 13.4459 3.03564 13.4608 3.02825C13.4756 3.02086 13.4884 3.00998 13.4982 2.99654C13.4982 2.96801 13.4403 2.95375 13.4556 2.92541C13.5408 2.86875 13.6129 2.78237 13.5834 2.69718C13.5703 2.65477 13.4556 2.65477 13.3846 2.62507C13.3036 2.60887 13.2197 2.61379 13.1411 2.63933C13.0684 2.65129 12.9971 2.67067 12.9283 2.69718C12.8308 2.73019 12.739 2.77811 12.6561 2.83924C12.7585 2.80232 12.8637 2.77382 12.9707 2.75404C13.0512 2.74339 13.1328 2.74339 13.2132 2.75404Z" fill="black"/>
<path d="M0 11.3291H1.43018L2.81198 13.7047L4.19379 11.3291H5.62397V16.9854H4.47659V12.929L3.21597 15.0461H2.40799L1.14737 12.929V16.9854H0V11.3291Z" fill="black"/>
<path d="M7.19958 11.3291H8.34696V16.9854H7.19958V11.3291Z" fill="black"/>
<path d="M9.93054 11.3291H11.4012L13.9303 15.4178V11.3291H15.0778V16.9854H13.6072L11.0779 12.8967V16.9854H9.93054V11.3291Z" fill="black"/>
<path d="M16.6615 11.3291H17.8089V16.9854H16.6615V11.3291Z" fill="black"/>
<path d="M19.7159 15.434C19.858 15.6375 20.0447 15.8058 20.2618 15.9263C20.4788 16.0467 20.7205 16.116 20.9684 16.1289C21.4208 16.1289 21.6956 15.8865 21.6956 15.4825C21.6956 14.44 19.126 14.7229 19.126 12.8079C19.126 11.9109 19.8694 11.1675 20.9521 11.1675C21.3328 11.1659 21.7089 11.2509 22.0519 11.4161C22.3949 11.5813 22.6958 11.8223 22.9319 12.121L22.0915 12.8806C21.7602 12.4523 21.3886 12.1695 20.9603 12.1695C20.8763 12.1613 20.7915 12.1707 20.7113 12.1969C20.6311 12.2231 20.5572 12.2656 20.4942 12.3218C20.4312 12.3779 20.3805 12.4465 20.3453 12.5232C20.3101 12.5999 20.2911 12.6831 20.2896 12.7674C20.2896 13.7936 22.8592 13.5028 22.8592 15.4421C22.843 16.5087 22.0188 17.1471 20.9765 17.1471C20.5778 17.1653 20.1805 17.0892 19.8168 16.9249C19.4531 16.7606 19.1334 16.5128 18.8835 16.2016L19.7159 15.434Z" fill="black"/>
<path d="M23.4812 11.3291H28.1194V12.3714H26.374V16.9854H25.2266V12.3714H23.4812V11.3291Z" fill="black"/>
<path d="M29.1295 11.3291H32.4263V12.2826H30.2769V13.6239H32.1031V14.5774H30.2769V16.0319H32.4263V16.9854H29.1295V11.3291ZM29.2265 9.75342H30.4062L31.3193 10.8442H30.2689L29.2265 9.75342Z" fill="black"/>
<path d="M33.7594 11.3291H35.4886C36.733 11.3291 37.5007 11.9674 37.5007 13.0179C37.5149 13.3255 37.4351 13.6302 37.272 13.8914C37.1089 14.1527 36.8701 14.3581 36.5875 14.4805L38.3572 16.9854H37.0077L35.4967 14.6986H34.9068V16.9854H33.7594L33.7594 11.3291ZM34.9068 12.2826V13.7451H35.5532C36.0381 13.7451 36.3209 13.4623 36.3209 13.0017C36.3209 12.5735 36.0381 12.2826 35.5532 12.2826H34.9068Z" fill="black"/>
<path d="M39.0842 11.3291H42.3812V12.2826H40.2317V13.6239H42.0579V14.5774H40.2317V16.0319H42.3812V16.9854H39.0842V11.3291Z" fill="black"/>
<path d="M0 19.5364H2.22212C4.01593 19.5364 5.22808 20.8373 5.22808 22.3645C5.22808 23.8917 4.01593 25.1927 2.22212 25.1927H0V19.5364ZM1.14737 20.5787V24.1503H2.23825C2.47479 24.1535 2.7096 24.1096 2.92906 24.0213C3.14852 23.933 3.34824 23.802 3.51664 23.6358C3.68503 23.4697 3.81875 23.2717 3.91001 23.0535C4.00127 22.8352 4.04827 22.601 4.04827 22.3645C4.04827 22.1279 4.00127 21.8937 3.91001 21.6755C3.81875 21.4572 3.68503 21.2593 3.51664 21.0931C3.34824 20.927 3.14852 20.796 2.92906 20.7077C2.7096 20.6193 2.47479 20.5755 2.23825 20.5787H1.14737Z" fill="black"/>
<path d="M6.33496 19.5364H9.63175V20.4899H7.48233V21.8312H9.30857V22.7847H7.48233V24.2392H9.63175V25.1927H6.33496V19.5364Z" fill="black"/>
<path d="M13.0658 19.5364H14.2132V24.1503H16.3626V25.1927H13.0658V19.5364Z" fill="black"/>
<path d="M18.8028 19.5364H20.3058L22.4472 25.1927H21.227L20.6856 23.7221H18.4231L17.8817 25.1927H16.6615L18.8028 19.5364ZM20.33 22.7443L19.5543 20.6192L18.7786 22.7443L20.33 22.7443Z" fill="black"/>
<path d="M24.8386 19.5364H29.4769V20.5787H27.7314V25.1927H26.5841V20.5787H24.8386V19.5364Z" fill="black"/>
<path d="M30.4868 19.5364H32.216C33.4604 19.5364 34.228 20.1747 34.228 21.2251C34.2422 21.5328 34.1625 21.8375 33.9994 22.0987C33.8363 22.36 33.5975 22.5654 33.3149 22.6877L35.0846 25.1927H33.7351L32.2241 22.9059H31.6342V25.1927H30.4868L30.4868 19.5364ZM31.6342 20.4899V21.9524H32.2806C32.7655 21.9524 33.0483 21.6696 33.0483 21.209C33.0483 20.7808 32.7655 20.4899 32.2806 20.4899H31.6342Z" fill="black"/>
<path d="M37.242 19.5364H38.745L40.8863 25.1927H39.6661L39.1247 23.7221H36.8623L36.3209 25.1927H35.1007L37.242 19.5364ZM38.7692 22.7443L37.9935 20.6192L37.2178 22.7443L38.7692 22.7443Z" fill="black"/>
<path d="M41.7588 19.5364H43.2295L45.7588 23.6251V19.5364H46.9061V25.1927H45.4355L42.9063 21.104V25.1927H41.7588L41.7588 19.5364Z" fill="black"/>
<path d="M48.8131 23.6413C48.9552 23.8447 49.1419 24.0131 49.3589 24.1335C49.576 24.2539 49.8176 24.3232 50.0655 24.3362C50.5181 24.3362 50.7927 24.0938 50.7927 23.6897C50.7927 22.6473 48.2232 22.9301 48.2232 21.0152C48.2232 20.1182 48.9667 19.3748 50.0494 19.3748C50.4301 19.3732 50.8062 19.4582 51.1491 19.6234C51.4921 19.7886 51.793 20.0296 52.0291 20.3283L51.1887 21.0879C50.8574 20.6595 50.4857 20.3767 50.0575 20.3767C49.9735 20.3686 49.8887 20.378 49.8085 20.4042C49.7283 20.4304 49.6544 20.4729 49.5914 20.5291C49.5284 20.5852 49.4777 20.6538 49.4425 20.7305C49.4074 20.8072 49.3884 20.8903 49.3869 20.9747C49.3869 22.0009 51.9564 21.7101 51.9564 23.6494C51.9402 24.7159 51.116 25.3543 50.0737 25.3543C49.675 25.3726 49.2777 25.2965 48.914 25.1322C48.5504 24.9679 48.2306 24.7201 47.9808 24.4089L48.8131 23.6413Z" fill="black"/>
<path d="M53.1602 19.5364H54.3076V25.1927H53.1602V19.5364Z" fill="black"/>
<path d="M55.3096 19.5364H59.9477V20.5787H58.2024V25.1927H57.0549V20.5787H55.3096V19.5364Z" fill="black"/>
<path d="M60.9576 19.5364H62.1051V25.1927H60.9576L60.9576 19.5364Z" fill="black"/>
<path d="M69.2078 22.3646C69.2102 22.959 69.0361 23.5407 68.7076 24.0361C68.379 24.5314 67.9108 24.9181 67.3622 25.147C66.8137 25.376 66.2095 25.4369 65.6263 25.3221C65.0431 25.2073 64.507 24.922 64.0862 24.5022C63.6653 24.0825 63.3785 23.5472 63.2622 22.9643C63.1458 22.3814 63.2051 21.7771 63.4326 21.2279C63.6601 20.6788 64.0455 20.2095 64.54 19.8796C65.0344 19.5497 65.6157 19.374 66.2101 19.3749C66.6053 19.3669 66.998 19.4388 67.3647 19.5861C67.7315 19.7335 68.0647 19.9533 68.3446 20.2324C68.6245 20.5115 68.8452 20.8442 68.9935 21.2105C69.1418 21.5769 69.2147 21.9694 69.2078 22.3646ZM68.0281 22.3646C68.0281 21.2818 67.2686 20.4495 66.2101 20.4495C65.1433 20.4495 64.3838 21.2818 64.3838 22.3646C64.3838 23.4474 65.1433 24.2797 66.2101 24.2797C67.2686 24.2797 68.0281 23.4474 68.0281 22.3646Z" fill="black"/>
<path d="M70.3065 19.5364H71.7772L74.3065 23.6251V19.5364H75.4538V25.1927H73.9832L71.454 21.104V25.1927H70.3065V19.5364Z" fill="black"/>
<path d="M0 27.7434H3.29678V28.6969H1.14737V30.0382H2.97361V30.9918H1.14737V32.4461H3.29678V33.3997H0V27.7434ZM1.11512 27.2586L2.02814 26.1677H3.20794L2.15742 27.2586L1.11512 27.2586Z" fill="black"/>
<path d="M8.62987 31.7108L9.53488 32.4058C9.2583 32.7743 8.89768 33.0714 8.48305 33.2724C8.06842 33.4734 7.61177 33.5724 7.15113 33.5613C6.6453 33.5564 6.14898 33.4232 5.70862 33.1743C5.26826 32.9254 4.89826 32.5688 4.63324 32.1379C4.36822 31.707 4.21685 31.216 4.19331 30.7107C4.16976 30.2054 4.2748 29.7023 4.49859 29.2487C4.72238 28.795 5.05762 28.4056 5.47292 28.1168C5.88821 27.828 6.37 27.6492 6.87318 27.5973C7.37636 27.5454 7.88449 27.622 8.35 27.82C8.81551 28.0179 9.22319 28.3307 9.53488 28.7291L8.62987 29.4321C8.46633 29.191 8.24578 28.994 7.98781 28.8587C7.72983 28.7234 7.44243 28.6539 7.15113 28.6563C6.08458 28.6563 5.32497 29.4887 5.32497 30.5715C5.32497 31.6543 6.08457 32.4865 7.15113 32.4865C7.44243 32.489 7.72984 32.4195 7.98782 32.2842C8.2458 32.1488 8.46635 31.9519 8.62987 31.7108Z" fill="black"/>
<path d="M16.0474 30.5717C16.0498 31.1661 15.8757 31.7478 15.5471 32.2432C15.2185 32.7385 14.7503 33.1251 14.2018 33.3541C13.6532 33.583 13.0491 33.6439 12.4659 33.5291C11.8826 33.4143 11.3466 33.129 10.9258 32.7093C10.5049 32.2895 10.2181 31.7543 10.1018 31.1714C9.98542 30.5885 10.0447 29.9842 10.2722 29.435C10.4997 28.8859 10.885 28.4166 11.3795 28.0867C11.8739 27.7568 12.4552 27.5811 13.0496 27.5819C13.4448 27.574 13.8375 27.6458 14.2043 27.7932C14.571 27.9405 14.9043 28.1603 15.1842 28.4394C15.4641 28.7185 15.6848 29.0512 15.8331 29.4176C15.9814 29.784 16.0543 30.1765 16.0474 30.5717ZM14.8677 30.5717C14.8677 29.4889 14.1081 28.6566 13.0496 28.6566C11.983 28.6566 11.2234 29.4889 11.2234 30.5717C11.2234 31.6545 11.983 32.4867 13.0496 32.4867C14.1081 32.4867 14.8677 31.6545 14.8677 30.5717Z" fill="black"/>
<path d="M17.1466 27.7434H18.294V32.3574H20.4434V33.3997H17.1466V27.7434Z" fill="black"/>
<path d="M26.9724 30.5717C26.9748 31.1661 26.8006 31.7478 26.472 32.2432C26.1435 32.7385 25.6752 33.1251 25.1267 33.3541C24.5782 33.583 23.974 33.6439 23.3908 33.5291C22.8076 33.4143 22.2716 33.129 21.8507 32.7093C21.4298 32.2895 21.1431 31.7543 21.0267 31.1714C20.9104 30.5885 20.9697 29.9842 21.1971 29.435C21.4246 28.8859 21.81 28.4166 22.3044 28.0867C22.7989 27.7568 23.3801 27.5811 23.9745 27.5819C24.3697 27.574 24.7624 27.6458 25.1292 27.7932C25.496 27.9405 25.8293 28.1603 26.1091 28.4394C26.389 28.7185 26.6097 29.0512 26.758 29.4176C26.9063 29.784 26.9792 30.1765 26.9724 30.5717ZM25.7927 30.5717C25.7927 29.4889 25.0331 28.6566 23.9745 28.6566C22.908 28.6566 22.1484 29.4889 22.1484 30.5717C22.1484 31.6545 22.908 32.4867 23.9745 32.4867C25.033 32.4867 25.7927 31.6545 25.7927 30.5717Z" fill="black"/>
<path d="M31.9901 31.994V31.0081H30.5518V30.0305H33.1376V32.4062C32.846 32.7784 32.4711 33.0769 32.043 33.2776C31.6149 33.4783 31.1456 33.5756 30.673 33.5616C28.8387 33.5616 27.5863 32.1878 27.5863 30.5719C27.5926 29.9472 27.7925 29.3397 28.1584 28.8333C28.5243 28.3269 29.0383 27.9465 29.6295 27.7444C30.2207 27.5423 30.86 27.5285 31.4593 27.705C32.0586 27.8814 32.5885 28.2394 32.9759 28.7295L32.0709 29.4325C31.9074 29.1914 31.6868 28.9944 31.4288 28.8591C31.1709 28.7238 30.8835 28.6542 30.5922 28.6567C29.5256 28.6567 28.766 29.489 28.766 30.5719C28.7588 30.8247 28.8032 31.0762 28.8964 31.3113C28.9896 31.5463 29.1296 31.76 29.308 31.9391C29.4865 32.1183 29.6995 32.2593 29.9342 32.3534C30.1688 32.4476 30.4202 32.493 30.673 32.4869C31.1591 32.4982 31.6309 32.3217 31.9901 31.994Z" fill="black"/>
<path d="M34.4142 27.7434H35.5616V33.3997H34.4142V27.7434Z" fill="black"/>
<path d="M43.0764 33.796C43.2138 33.7982 43.3505 33.7763 43.4803 33.7313V34.7009C43.2903 34.7765 43.0867 34.8123 42.8823 34.806C42.2206 34.7863 41.5899 34.5213 41.1127 34.0625L40.4421 33.4647C40.1889 33.5307 39.9281 33.5633 39.6664 33.5616C39.0754 33.56 38.4982 33.3834 38.0075 33.0539C37.5169 32.7244 37.1349 32.2569 36.9099 31.7104C36.6848 31.164 36.6267 30.5631 36.743 29.9837C36.8593 29.4042 37.1446 28.8722 37.5631 28.4549C37.9815 28.0376 38.5143 27.7536 39.094 27.6389C39.6738 27.5242 40.2745 27.5839 40.8204 27.8104C41.3662 28.0369 41.8327 28.4201 42.1609 28.9116C42.489 29.4032 42.6642 29.9809 42.6642 30.5719C42.6683 31.0238 42.5702 31.4708 42.3771 31.8794C42.184 32.288 41.9009 32.6476 41.5491 32.9313L41.8884 33.2546C42.3249 33.6505 42.7126 33.796 43.0764 33.796ZM41.4845 30.5719C41.4845 29.489 40.7249 28.6567 39.6664 28.6567C38.5997 28.6567 37.8402 29.489 37.8402 30.5719C37.8402 31.6546 38.5997 32.4869 39.6664 32.4869C40.7249 32.4869 41.4845 31.6547 41.4845 30.5719Z" fill="black"/>
<path d="M47.0357 27.7434H48.183V31.1857C48.183 32.6725 47.3104 33.5613 45.8883 33.5613C44.4742 33.5613 43.6016 32.6725 43.6016 31.1857V27.7434H44.7488V31.2826C44.7488 32.0421 45.1772 32.4866 45.8963 32.4866C46.5993 32.4866 47.0357 32.0421 47.0357 31.2826L47.0357 27.7434Z" fill="black"/>
<path d="M49.6051 27.7434H52.9021V28.6969H50.7526V30.0382H52.5788V30.9918H50.7526V32.4461H52.9021V33.3997H49.6051V27.7434Z" fill="black"/>
<path d="M0 35.9504H3.29678V36.904H1.14737V38.2454H2.97361V39.1989H1.14737V40.6533H3.29678V41.6068H0V35.9504Z" fill="black"/>
<path d="M4.04822 35.9504H8.68645V36.993H6.94101V41.6068H5.79365V36.9929H4.04822V35.9504Z" fill="black"/>
<path d="M11.7972 35.9504H14.0194C15.8133 35.9504 17.0253 37.2515 17.0253 38.7787C17.0253 40.306 15.8133 41.6068 14.0194 41.6068H11.7972V35.9504ZM12.9446 36.993V40.5645H14.0355C14.272 40.5677 14.5068 40.5239 14.7263 40.4356C14.9458 40.3473 15.1455 40.2162 15.3139 40.0501C15.4823 39.8839 15.616 39.686 15.7073 39.4678C15.7985 39.2495 15.8455 39.0153 15.8455 38.7787C15.8455 38.5422 15.7985 38.308 15.7073 38.0897C15.616 37.8715 15.4823 37.6735 15.3139 37.5074C15.1455 37.3413 14.9458 37.2102 14.7263 37.1219C14.5068 37.0336 14.272 36.9898 14.0355 36.993H12.9446Z" fill="black"/>
<path d="M18.1321 35.9504H21.4289V36.904H19.2794V38.2454H21.1057V39.1989H19.2794V40.6533H21.4289V41.6068H18.1321V35.9504Z" fill="black"/>
<path d="M24.8629 35.9504H26.0103V40.5645H28.1597V41.6068H24.8629V35.9504Z" fill="black"/>
<path d="M30.6001 35.9504H32.103L34.2444 41.6068H33.0243L32.4829 40.1361H30.2203L29.6789 41.6068H28.4587L30.6001 35.9504ZM32.1273 39.1585L31.3515 37.0332L30.5758 39.1585H32.1273Z" fill="black"/>
<path d="M41.2175 39.9181L42.1226 40.6131C41.846 40.9817 41.4854 41.2788 41.0707 41.4798C40.6561 41.6808 40.1994 41.7798 39.7387 41.7686C39.2329 41.7637 38.7366 41.6306 38.2962 41.3816C37.8559 41.1327 37.4859 40.7761 37.2209 40.3452C36.9559 39.9143 36.8045 39.4233 36.781 38.9179C36.7574 38.4126 36.8625 37.9096 37.0863 37.456C37.3101 37.0023 37.6453 36.6129 38.0606 36.324C38.4759 36.0352 38.9577 35.8565 39.4609 35.8046C39.964 35.7527 40.4722 35.8293 40.9377 36.0272C41.4032 36.2252 41.8109 36.538 42.1226 36.9364L41.2175 37.6394C41.0539 37.3984 40.8334 37.2014 40.5754 37.0661C40.3174 36.9308 40.03 36.8613 39.7387 36.8637C38.6722 36.8637 37.9125 37.6961 37.9125 38.7789C37.9125 39.8617 38.6722 40.6939 39.7387 40.6939C40.03 40.6964 40.3175 40.6269 40.5754 40.4915C40.8334 40.3562 41.054 40.1592 41.2175 39.9181Z" fill="black"/>
<path d="M48.6352 38.7789C48.6376 39.3732 48.4634 39.955 48.1348 40.4503C47.8062 40.9456 47.338 41.3322 46.7895 41.5611C46.2409 41.79 45.6367 41.851 45.0535 41.7362C44.4703 41.6213 43.9343 41.336 43.5135 40.9162C43.0926 40.4965 42.8059 39.9612 42.6895 39.3783C42.5732 38.7954 42.6325 38.1911 42.86 37.6419C43.0875 37.0928 43.4729 36.6235 43.9673 36.2937C44.4618 35.9638 45.0431 35.7881 45.6375 35.7889C46.0326 35.781 46.4254 35.8529 46.7921 36.0002C47.1589 36.1476 47.4922 36.3674 47.772 36.6465C48.0519 36.9257 48.2726 37.2584 48.4209 37.6247C48.5692 37.9911 48.6421 38.3836 48.6352 38.7789ZM47.4555 38.7789C47.4555 37.6961 46.696 36.8637 45.6375 36.8637C44.5707 36.8637 43.8112 37.6961 43.8112 38.7789C43.8112 39.8616 44.5707 40.6938 45.6375 40.6938C46.696 40.6938 47.4555 39.8616 47.4555 38.7789Z" fill="black"/>
<path d="M49.7341 35.9504H50.8816V38.2049H53.7341V35.9504H54.8814V41.6068H53.7341V39.2474H50.8816V41.6068H49.7341V35.9504Z" fill="black"/>
<path d="M56.4648 35.9504H59.7618V36.904H57.6123V38.2454H59.4386V39.1989H57.6123V40.6533H59.7618V41.6068H56.4648V35.9504ZM57.5801 35.4657L58.4932 34.3748H59.6729L58.6224 35.4657H57.5801Z" fill="black"/>
<path d="M61.4184 40.0557C61.5605 40.2592 61.7472 40.4275 61.9643 40.548C62.1813 40.6684 62.4229 40.7377 62.6708 40.7507C63.1235 40.7507 63.3981 40.5081 63.3981 40.1041C63.3981 39.0618 60.8285 39.3446 60.8285 37.4295C60.8285 36.5326 61.572 35.7891 62.6548 35.7891C63.0355 35.7876 63.4115 35.8726 63.7545 36.0378C64.0974 36.203 64.3984 36.444 64.6345 36.7427L63.794 37.5022C63.4628 37.0739 63.091 36.7911 62.6628 36.7911C62.5788 36.783 62.494 36.7924 62.4138 36.8186C62.3336 36.8448 62.2597 36.8873 62.1967 36.9435C62.1337 36.9997 62.0831 37.0683 62.0479 37.145C62.0127 37.2217 61.9937 37.3048 61.9922 37.3892C61.9922 38.4153 64.5618 38.1245 64.5618 40.0637C64.5455 41.1304 63.7213 41.7688 62.679 41.7688C62.2804 41.787 61.8831 41.7109 61.5194 41.5467C61.1557 41.3824 60.836 41.1346 60.5862 40.8234L61.4184 40.0557Z" fill="black"/>
<path d="M65.7654 35.9504H66.9128V41.6068H65.7654V35.9504Z" fill="black"/>
<path d="M74.0155 38.7789C74.0178 39.3732 73.8437 39.955 73.5151 40.4503C73.1865 40.9456 72.7183 41.3322 72.1697 41.5611C71.6211 41.79 71.017 41.851 70.4338 41.7362C69.8506 41.6213 69.3146 41.336 68.8937 40.9162C68.4729 40.4965 68.1861 39.9612 68.0698 39.3783C67.9534 38.7954 68.0128 38.1911 68.2403 37.6419C68.4677 37.0928 68.8531 36.6235 69.3476 36.2937C69.842 35.9638 70.4233 35.7881 71.0177 35.7889C71.4129 35.781 71.8056 35.8529 72.1724 36.0002C72.5391 36.1476 72.8724 36.3674 73.1523 36.6465C73.4321 36.9257 73.6528 37.2584 73.8011 37.6247C73.9495 37.9911 74.0223 38.3836 74.0155 38.7789ZM72.8357 38.7789C72.8357 37.6961 72.0762 36.8637 71.0177 36.8637C69.951 36.8637 69.1915 37.6961 69.1915 38.7789C69.1915 39.8616 69.951 40.6938 71.0177 40.6938C72.0762 40.6938 72.8357 39.8616 72.8357 38.7789Z" fill="black"/>
<path d="M75.1144 35.9504H76.5851L79.1144 40.0392V35.9504H80.2616V41.6068H78.7911L76.2618 37.5181V41.6068H75.1144V35.9504Z" fill="black"/>
<path d="M0 44.158H2.22212C4.01593 44.158 5.22808 45.459 5.22808 46.9863C5.22808 48.5135 4.01593 49.8144 2.22212 49.8144H0V44.158ZM1.14737 45.2005V48.7721H2.23825C2.47479 48.7752 2.7096 48.7314 2.92906 48.6431C3.14852 48.5548 3.34824 48.4237 3.51664 48.2576C3.68503 48.0915 3.81875 47.8935 3.91001 47.6753C4.00127 47.457 4.04827 47.2228 4.04827 46.9863C4.04827 46.7497 4.00127 46.5155 3.91001 46.2973C3.81875 46.079 3.68503 45.8811 3.51664 45.7149C3.34824 45.5488 3.14852 45.4178 2.92906 45.3294C2.7096 45.2411 2.47479 45.1973 2.23825 45.2005H1.14737Z" fill="black"/>
<path d="M6.33496 44.158H9.63175V45.1115H7.48233V46.4529H9.30857V47.4065H7.48233V48.8608H9.63175V49.8144H6.33496V44.158Z" fill="black"/>
<path d="M11.2882 48.2627C11.4304 48.4662 11.6171 48.6346 11.8341 48.755C12.0512 48.8755 12.2929 48.9448 12.5408 48.9577C12.9932 48.9577 13.268 48.7152 13.268 48.3112C13.268 47.2689 10.6984 47.5517 10.6984 45.6365C10.6984 44.7396 11.4418 43.9961 12.5245 43.9961C12.9052 43.9946 13.2813 44.0796 13.6243 44.2448C13.9673 44.41 14.2682 44.6511 14.5043 44.9497L13.6639 45.7092C13.3326 45.281 12.961 44.9982 12.5326 44.9982C12.4486 44.99 12.3639 44.9994 12.2837 45.0256C12.2034 45.0518 12.1295 45.0944 12.0665 45.1505C12.0035 45.2067 11.9529 45.2753 11.9176 45.352C11.8824 45.4287 11.8635 45.5118 11.862 45.5962C11.862 46.6223 14.4316 46.3315 14.4316 48.2707C14.4154 49.3375 13.5912 49.9758 12.5489 49.9758C12.1502 49.994 11.7529 49.9179 11.3892 49.7537C11.0255 49.5894 10.7058 49.3416 10.4559 49.0304L11.2882 48.2627Z" fill="black"/>
<path d="M17.1544 44.158H21.7926V45.2005H20.0472V49.8144H18.8998V45.2005H17.1544V44.158Z" fill="black"/>
<path d="M22.8026 44.158H26.0994V45.1115H23.95V46.4529H25.7762V47.4065H23.95V48.8608H26.0994V49.8144H22.8026V44.158Z" fill="black"/>
<path d="M27.4326 44.158H29.1618C30.4062 44.158 31.1738 44.7965 31.1738 45.8468C31.188 46.1544 31.1083 46.4591 30.9452 46.7203C30.7821 46.9816 30.5433 47.187 30.2607 47.3093L32.0304 49.8144H30.6809L29.1699 47.5276H28.58V49.8144H27.4326V44.158ZM28.58 45.1115V46.5741H29.2264C29.7113 46.5741 29.9941 46.2913 29.9941 45.8308C29.9941 45.4024 29.7113 45.1115 29.2264 45.1115H28.58Z" fill="black"/>
<path d="M32.7576 44.158H34.4868C35.7312 44.158 36.4988 44.7965 36.4988 45.8468C36.513 46.1544 36.4332 46.4591 36.2701 46.7203C36.107 46.9816 35.8683 47.187 35.5857 47.3093L37.3553 49.8144H36.0059L34.4949 47.5276H33.905V49.8144H32.7576V44.158ZM33.9049 45.1115V46.5741H34.5514C35.0363 46.5741 35.3191 46.2913 35.3191 45.8308C35.3191 45.4024 35.0363 45.1115 34.5514 45.1115H33.9049Z" fill="black"/>
<path d="M38.0824 44.158H39.2299V49.8144H38.0824V44.158Z" fill="black"/>
<path d="M40.2318 44.158H44.8699V45.2005H43.1246V49.8144H41.9771V45.2005H40.2318V44.158Z" fill="black"/>
<path d="M51.3989 46.9861C51.4012 47.5805 51.2271 48.1622 50.8985 48.6576C50.5699 49.1529 50.1017 49.5395 49.5531 49.7684C49.0046 49.9973 48.4004 50.0582 47.8172 49.9434C47.234 49.8286 46.698 49.5433 46.2771 49.1235C45.8563 48.7037 45.5695 48.1685 45.4532 47.5856C45.3369 47.0027 45.3962 46.3984 45.6237 45.8492C45.8512 45.3001 46.2366 44.8308 46.731 44.5009C47.2255 44.1711 47.8067 43.9954 48.4011 43.9962C48.7963 43.9883 49.189 44.0601 49.5558 44.2075C49.9226 44.3549 50.2558 44.5747 50.5357 44.8538C50.8156 45.1329 51.0362 45.4656 51.1846 45.832C51.3329 46.1984 51.4058 46.5909 51.3989 46.9861ZM50.2192 46.9861C50.2192 45.9034 49.4597 45.071 48.4011 45.071C47.3344 45.071 46.5749 45.9034 46.5749 46.9861C46.5749 48.0689 47.3344 48.9011 48.4011 48.9011C49.4597 48.9011 50.2192 48.0689 50.2192 46.9861Z" fill="black"/>
<path d="M52.4978 44.158H53.6452V49.8144H52.4978V44.158Z" fill="black"/>
<path d="M55.2286 44.158H56.9579C58.2023 44.158 58.9701 44.7965 58.9701 45.8468C58.9842 46.1544 58.9044 46.4591 58.7413 46.7203C58.5782 46.9815 58.3395 47.187 58.0569 47.3093L59.8265 49.8144H58.4771L56.966 47.5276H56.3761V49.8144H55.2286V44.158ZM56.3761 45.1115V46.5741H57.0226C57.5073 46.5741 57.7902 46.2913 57.7902 45.8308C57.7902 45.4024 57.5073 45.1115 57.0226 45.1115H56.3761Z" fill="black"/>
<path d="M60.5536 44.158H63.8506V45.1115H61.7011V46.4529H63.5273V47.4065H61.7011V48.8608H63.8506V49.8144H60.5536V44.158Z" fill="black"/>
<path d="M65.507 48.2627C65.6492 48.4662 65.8358 48.6346 66.0529 48.755C66.2699 48.8754 66.5116 48.9448 66.7594 48.9577C67.2121 48.9577 67.4867 48.7152 67.4867 48.3112C67.4867 47.2689 64.9172 47.5517 64.9172 45.6365C64.9172 44.7396 65.6606 43.9961 66.7434 43.9961C67.1241 43.9946 67.5001 44.0796 67.8431 44.2448C68.1861 44.41 68.487 44.6511 68.7231 44.9497L67.8827 45.7092C67.5514 45.281 67.1796 44.9982 66.7514 44.9982C66.6674 44.99 66.5827 44.9994 66.5025 45.0256C66.4222 45.0518 66.3483 45.0944 66.2853 45.1505C66.2224 45.2067 66.1717 45.2753 66.1365 45.352C66.1013 45.4287 66.0824 45.5119 66.0808 45.5962C66.0808 46.6223 68.6504 46.3315 68.6504 48.2707C68.6342 49.3375 67.81 49.9758 66.7676 49.9758C66.369 49.9941 65.9717 49.918 65.608 49.7537C65.2444 49.5894 64.9246 49.3416 64.6748 49.0304L65.507 48.2627Z" fill="black"/>
</svg>
