<svg width="61" height="50" viewBox="0 0 61 50" fill="none" xmlns="http://www.w3.org/2000/svg">
<g clip-path="url(#clip0_834_4761)">
<mask id="mask0_834_4761" style="mask-type:luminance" maskUnits="userSpaceOnUse" x="0" y="-1" width="61" height="51">
<path d="M0.00012207 49.9973H60.0432V-0.269015H0.00012207V49.9973Z" fill="white"/>
</mask>
<g mask="url(#mask0_834_4761)">
<path d="M55.6036 29.7618C53.2213 30.646 50.6518 30.5757 48.2974 29.5689L44.1667 27.804L44.1635 27.8024C41.6555 26.7297 38.8923 26.7297 36.3834 27.804L31.8092 29.7618C29.4269 30.646 26.8574 30.5757 24.503 29.5689L20.5846 27.8946L23.6559 35.8546L24.503 36.2165C26.8574 37.2237 29.4269 37.2936 31.8092 36.4093L36.3834 34.4516C38.8923 33.3777 41.6555 33.3773 44.1635 34.45L44.1667 34.4516L48.2974 36.2165C50.6518 37.2237 53.2213 37.2936 55.6036 36.4093L60.0448 34.5086V27.8606L55.6036 29.7618Z" fill="black"/>
</g>
<mask id="mask1_834_4761" style="mask-type:luminance" maskUnits="userSpaceOnUse" x="0" y="-1" width="61" height="52">
<path d="M0.00012207 50.001H60.0432V-0.265346H0.00012207V50.001Z" fill="white"/>
</mask>
<g mask="url(#mask1_834_4761)">
<path d="M55.6035 16.063C53.2212 16.9473 50.6517 16.8769 48.2973 15.8701L44.1667 14.1052L44.1634 14.1036C41.6554 13.0309 38.8922 13.0309 36.3833 14.1052L31.8091 16.063C29.4268 16.9473 26.8573 16.8769 24.5029 15.8701L22.7982 15.1415L17.8896 20.0501C18.7339 20.173 19.5692 20.4055 20.3779 20.7512L20.3722 20.7528L24.5029 22.5177C26.8573 23.5245 29.4268 23.5953 31.8091 22.7106L36.3833 20.7528C38.8922 19.6789 41.6554 19.6785 44.1634 20.7512L44.1667 20.7528L48.2973 22.5177C50.6517 23.5245 53.2212 23.5953 55.6035 22.7106L60.0447 20.8098V14.1618L55.6035 16.063Z" fill="black"/>
</g>
<mask id="mask2_834_4761" style="mask-type:luminance" maskUnits="userSpaceOnUse" x="0" y="-1" width="61" height="51">
<path d="M0.00012207 49.9985H60.0432V-0.267787H0.00012207V49.9985Z" fill="white"/>
</mask>
<g mask="url(#mask2_834_4761)">
<path d="M55.6036 2.76458C53.2213 3.64885 50.6517 3.5785 48.2973 2.57172L44.1667 0.806815L44.1634 0.805198C41.6554 -0.267894 38.8922 -0.26749 36.3833 0.806815L31.8091 2.76458C29.4268 3.64885 26.8573 3.5785 24.5029 2.57172L20.3723 0.806815L20.3779 0.805198C18.3882 -0.0459172 16.238 -0.218971 14.1812 0.281185L22.0866 8.18665L24.5029 9.21931C26.8573 10.2261 29.4268 10.2964 31.8091 9.41217L36.3833 7.45441C38.8922 6.38051 41.6554 6.3801 44.1634 7.45279L44.1667 7.45441L48.2973 9.21931C50.6517 10.2261 53.2213 10.2964 55.6036 9.41217L60.0447 7.51142V0.863421L55.6036 2.76458Z" fill="black"/>
</g>
<mask id="mask3_834_4761" style="mask-type:luminance" maskUnits="userSpaceOnUse" x="0" y="-1" width="61" height="51">
<path d="M0.00219727 49.9985H60.0452V-0.267787H0.00219727V49.9985Z" fill="white"/>
</mask>
<g mask="url(#mask3_834_4761)">
<path d="M6.32385 5.69602L10.057 1.96284L13.7902 5.69602L10.057 9.4292L6.32385 5.69602Z" fill="black"/>
</g>
<mask id="mask4_834_4761" style="mask-type:luminance" maskUnits="userSpaceOnUse" x="0" y="-1" width="61" height="52">
<path d="M0.00012207 50.0005H60.0432V-0.265834H0.00012207V50.0005Z" fill="white"/>
</mask>
<g mask="url(#mask4_834_4761)">
<path d="M12.6436 12.0197L16.3767 8.28657L20.1099 12.0197L16.3767 15.7529L12.6436 12.0197Z" fill="black"/>
</g>
<mask id="mask5_834_4761" style="mask-type:luminance" maskUnits="userSpaceOnUse" x="0" y="-1" width="61" height="52">
<path d="M0.00170898 50.0005H60.0447V-0.265834H0.00170898V50.0005Z" fill="white"/>
</mask>
<g mask="url(#mask5_834_4761)">
<path d="M7.46807 12.0197L3.73489 8.28657L0.00170898 12.0197L3.73489 15.7529L7.46807 12.0197Z" fill="black"/>
</g>
<mask id="mask6_834_4761" style="mask-type:luminance" maskUnits="userSpaceOnUse" x="0" y="-1" width="61" height="52">
<path d="M0.000976562 50.0005H60.044V-0.265834H0.000976562V50.0005Z" fill="white"/>
</mask>
<g mask="url(#mask6_834_4761)">
<path d="M10.0559 12.0197L1.65796 33.784C5.85693 32.195 8.84655 34.6096 10.0559 36.3794C11.2652 34.6096 14.2545 32.1954 18.453 33.7844L10.0559 12.0197Z" fill="black"/>
</g>
<mask id="mask7_834_4761" style="mask-type:luminance" maskUnits="userSpaceOnUse" x="-1" y="-1" width="62" height="51">
<path d="M-0.000366211 49.998H60.0427V-0.268275H-0.000366211V49.998Z" fill="white"/>
</mask>
<g mask="url(#mask7_834_4761)">
<path d="M7.75105 42.1625V49.8508H6.27848V45.9596L3.87029 48.8517L1.4722 45.9596V49.8508H-0.000366211V42.1625H0.0942467L3.87029 46.6008L7.65643 42.1625H7.75105Z" fill="black"/>
</g>
<mask id="mask8_834_4761" style="mask-type:luminance" maskUnits="userSpaceOnUse" x="0" y="-1" width="61" height="51">
<path d="M0.000854492 49.9988H60.0439V-0.267543H0.000854492V49.9988Z" fill="white"/>
</mask>
<g mask="url(#mask8_834_4761)">
<path d="M13.0478 43.3835C12.6981 43.3835 12.3706 43.4555 12.0665 43.599C11.7621 43.743 11.4964 43.9342 11.2688 44.1724C11.0415 44.4109 10.8612 44.6895 10.7282 45.0085C10.5952 45.3276 10.5288 45.6591 10.5288 46.0024C10.5288 46.3529 10.5952 46.6861 10.7282 47.0015C10.8612 47.3169 11.0415 47.5958 11.2688 47.8376C11.4964 48.0794 11.7621 48.2723 12.0665 48.4162C12.3706 48.5598 12.6981 48.6317 13.0478 48.6317C13.3976 48.6317 13.7247 48.5598 14.0291 48.4162C14.3332 48.2723 14.5992 48.0794 14.8265 47.8376C15.0541 47.5958 15.2344 47.3169 15.3671 47.0015C15.5001 46.6861 15.5668 46.3529 15.5668 46.0024C15.5668 45.6591 15.5001 45.3276 15.3671 45.0085C15.2344 44.6895 15.0541 44.4109 14.8265 44.1724C14.5992 43.9342 14.3332 43.743 14.0291 43.599C13.7247 43.4555 13.3976 43.3835 13.0478 43.3835ZM13.0426 49.9988C12.4955 49.9988 11.9804 49.8941 11.4964 49.6834C11.0128 49.4732 10.5903 49.1873 10.2292 48.8262C9.86776 48.4652 9.58231 48.0426 9.37206 47.5591C9.1618 47.0751 9.05627 46.5563 9.05627 46.0024C9.05627 45.4553 9.1618 44.9386 9.37206 44.451C9.58231 43.9637 9.86776 43.5396 10.2292 43.1785C10.5903 42.8175 11.0128 42.5316 11.4964 42.3214C11.9804 42.1107 12.4955 42.006 13.0426 42.006C13.5965 42.006 14.1153 42.1107 14.5988 42.3214C15.0828 42.5316 15.5053 42.8175 15.8664 43.1785C16.2275 43.5396 16.5133 43.9637 16.7236 44.451C16.9338 44.9386 17.0394 45.4553 17.0394 46.0024C17.0394 46.5563 16.9338 47.0751 16.7236 47.5591C16.5133 48.0426 16.2275 48.4652 15.8664 48.8262C15.5053 49.1873 15.0828 49.4732 14.5988 49.6834C14.1153 49.8941 13.5965 49.9988 13.0426 49.9988Z" fill="black"/>
</g>
<mask id="mask9_834_4761" style="mask-type:luminance" maskUnits="userSpaceOnUse" x="0" y="-1" width="61" height="51">
<path d="M0.00170898 49.9985H60.0447V-0.267787H0.00170898V49.9985Z" fill="white"/>
</mask>
<g mask="url(#mask9_834_4761)">
<path d="M19.8163 46.0967H21.8396C21.9722 46.0967 22.1101 46.0704 22.2536 46.0179C22.3968 45.9653 22.5241 45.8848 22.6361 45.7757C22.7477 45.6673 22.8403 45.5323 22.9139 45.3709C22.9875 45.2096 23.0243 45.0204 23.0243 44.8029C23.0243 44.6909 23.0101 44.5578 22.9822 44.4034C22.9543 44.2493 22.8981 44.1021 22.8144 43.9618C22.7307 43.8215 22.6119 43.7023 22.4582 43.604C22.3042 43.5058 22.098 43.4568 21.8396 43.4568H19.8163V46.0967ZM19.8163 49.8513H18.3438V42.1529H21.8416C22.235 42.1529 22.5949 42.2176 22.9216 42.3474C23.2483 42.4771 23.5273 42.6591 23.7589 42.894C23.9906 43.1293 24.1718 43.4095 24.3016 43.7354C24.4317 44.0617 24.4964 44.4175 24.4964 44.8029C24.4964 45.3851 24.3509 45.8933 24.0594 46.328C23.7678 46.763 23.3797 47.0748 22.8949 47.264C23.5418 48.1196 24.1811 48.982 24.8118 49.8513H23.0558C22.7481 49.4518 22.4477 49.0487 22.1542 48.642C21.8606 48.2352 21.5671 47.8216 21.2735 47.4011H19.8163V49.8513Z" fill="black"/>
</g>
<mask id="mask10_834_4761" style="mask-type:luminance" maskUnits="userSpaceOnUse" x="-1" y="-1" width="62" height="51">
<path d="M-0.00195312 49.999H60.0411V-0.267299H-0.00195312V49.999Z" fill="white"/>
</mask>
<g mask="url(#mask10_834_4761)">
<path d="M29.4677 48.5477C29.5939 48.5477 29.7131 48.5182 29.8255 48.4583C29.9375 48.3989 30.0358 48.318 30.1199 48.2165C30.204 48.115 30.2703 48.0026 30.3196 47.8797C30.3686 47.7572 30.3932 47.6327 30.3932 47.5065C30.3932 47.247 30.2966 47.0294 30.1041 46.8543C29.9113 46.6793 29.6464 46.5915 29.31 46.5915H27.3854V48.5477H29.4677ZM27.3854 45.2872H29.1944C29.3416 45.2872 29.4693 45.2593 29.5781 45.2027C29.6869 45.1465 29.7778 45.0721 29.8514 44.9803C29.9254 44.8889 29.9812 44.785 30.02 44.6685C30.0584 44.5521 30.0778 44.4377 30.0778 44.3245C30.0778 44.212 30.0568 44.1025 30.0148 43.9965C29.9727 43.891 29.9165 43.7992 29.8462 43.7216C29.7762 43.644 29.6937 43.5809 29.5991 43.5312C29.5045 43.4822 29.4046 43.4572 29.2995 43.4572H27.3854V45.2872ZM31.5504 44.2941C31.5504 44.449 31.5189 44.6144 31.4554 44.7902C31.3923 44.9661 31.3066 45.1279 31.1978 45.275C31.0891 45.4226 30.9577 45.548 30.8036 45.6494C30.6492 45.7517 30.481 45.8063 30.2986 45.8132C30.4878 45.8273 30.6754 45.8815 30.8614 45.9757C31.047 46.0704 31.2136 46.1977 31.3608 46.3586C31.508 46.5196 31.6289 46.7047 31.7239 46.9146C31.8185 47.1244 31.8658 47.3484 31.8658 47.5858C31.8658 48.0059 31.8027 48.3605 31.6766 48.6508C31.5504 48.9411 31.3782 49.1752 31.161 49.3535C30.9435 49.5322 30.6892 49.6596 30.3985 49.7364C30.1074 49.8132 29.7972 49.8521 29.4677 49.8521H25.9128V42.1532H29.2995C29.608 42.1532 29.8987 42.1831 30.1725 42.243C30.4458 42.3028 30.6839 42.4116 30.8877 42.5697C31.0907 42.7282 31.252 42.9461 31.3713 43.2239C31.4906 43.5016 31.5504 43.8583 31.5504 44.2941Z" fill="black"/>
</g>
<path d="M34.9059 49.8521H33.4333V42.1637H34.9059V49.8521Z" fill="black"/>
<mask id="mask11_834_4761" style="mask-type:luminance" maskUnits="userSpaceOnUse" x="0" y="-1" width="61" height="52">
<path d="M0.00012207 50.0005H60.0432V-0.265834H0.00012207V50.0005Z" fill="white"/>
</mask>
<g mask="url(#mask11_834_4761)">
<path d="M43.5424 42.1546V49.853H42.0699V46.7927H38.2732V49.853H36.801V42.1546H38.2732V45.4887H42.0699V42.1546H43.5424Z" fill="black"/>
</g>
<mask id="mask12_834_4761" style="mask-type:luminance" maskUnits="userSpaceOnUse" x="0" y="-1" width="61" height="51">
<path d="M0.00012207 49.9993H60.0432V-0.267055H0.00012207V49.9993Z" fill="white"/>
</mask>
<g mask="url(#mask12_834_4761)">
<path d="M47.3391 47.3594H49.537L48.4433 45.0349L47.3391 47.3594ZM44.4364 49.8521L48.3697 42.1637H48.5169L52.4506 49.8521H50.8519L50.2523 48.6423H46.6238L46.0347 49.8521H44.4364Z" fill="black"/>
</g>
<mask id="mask13_834_4761" style="mask-type:luminance" maskUnits="userSpaceOnUse" x="0" y="-1" width="61" height="51">
<path d="M0.00012207 49.9993H60.0432V-0.267055H0.00012207V49.9993Z" fill="white"/>
</mask>
<g mask="url(#mask13_834_4761)">
<path d="M59.8854 49.8521L54.8265 45.2771V49.8521H53.3539V42.1637H53.5116L58.5705 46.8123V42.1637H60.0427V49.8521H59.8854Z" fill="black"/>
</g>
</g>
<defs>
<clipPath id="clip0_834_4761">
<rect width="60.0442" height="50" fill="white"/>
</clipPath>
</defs>
</svg>
