<svg width="82" height="50" viewBox="0 0 82 50" fill="none" xmlns="http://www.w3.org/2000/svg">
<path d="M18.2619 32.3643C18.1083 30.9917 17.9118 29.6212 17.807 28.2446C17.2594 21.0597 18.4744 14.166 21.4958 7.63336C22.6329 5.17553 24.1012 2.87031 25.4149 0.494276C25.7132 -0.0453699 26.0424 -0.18502 26.5511 0.285799C26.8872 0.597018 27.2852 0.853374 27.6852 1.0828C28.2 1.37706 28.2498 1.64439 27.9246 2.18104C26.7526 4.1092 25.5147 6.01542 24.5481 8.04732C21.6883 14.0632 20.3576 20.4163 20.6988 27.0915C20.9452 31.9154 22.0464 36.5288 24.186 40.871C25.384 43.3019 26.9132 45.5233 28.7994 47.4774C29.2912 47.9871 29.2543 48.2843 28.7296 48.6943C28.3486 48.9916 28.0314 49.3756 27.7042 49.7377C27.3611 50.1177 27.0728 50.0639 26.7406 49.7108C24.7935 47.638 23.0878 45.3786 21.8698 42.8151C20.9272 40.8291 20.214 38.7353 19.3741 36.6994C19.2933 36.5039 19.0609 36.3044 18.8554 36.2356C14.6719 34.8381 11.2465 32.3104 8.30089 29.1115C6.53831 27.1973 5.11987 25.0207 3.89594 22.7225C3.81315 22.5669 3.7154 22.4183 3.49694 22.0522V36.869H0.577271V8.2548H3.49894C4.02163 18.9849 8.39764 27.3529 18.0345 32.5289C18.1103 32.474 18.1861 32.4192 18.2609 32.3643H18.2619Z" fill="black"/>
<path d="M66.9866 28.1208C66.9866 27.5752 66.9886 27.1423 66.9866 26.7083C66.9777 25.2999 66.46 24.7154 65.0275 24.5568C63.5074 24.3882 62.07 24.7662 60.6615 25.2859C60.474 25.3547 60.2894 25.4306 60.047 25.5253C59.7079 24.9538 59.3847 24.4101 59.0386 23.8276C60.1528 23.0834 61.3837 22.8401 62.6086 22.6096C63.9892 22.3503 65.3667 22.3523 66.7193 22.8201C68.1587 23.3179 69.0255 24.3453 69.1053 25.8206C69.228 28.0729 69.1781 30.3343 69.1941 32.5916C69.2021 33.6948 69.22 34.8 69.1731 35.9013C69.1632 36.1287 68.9268 36.4918 68.7283 36.5447C66.5218 37.1302 64.2874 37.4304 62.0241 36.8868C59.1603 36.1995 57.7069 33.5701 58.7154 30.9387C59.3608 29.255 61.0525 28.1607 63.1114 28.1258C64.3662 28.1048 65.6231 28.1218 66.9866 28.1218V28.1208ZM66.9477 30.2325C65.5921 30.2325 64.3094 30.2026 63.0286 30.2405C61.7059 30.2794 60.7224 31.0534 60.6017 32.0709C60.4341 33.4714 61.0605 34.4539 62.4381 34.8729C63.9333 35.3277 65.4256 35.1202 66.9487 34.828V30.2325H66.9477Z" fill="black"/>
<path d="M30.1919 22.7176H32.2577C32.3155 26.3125 33.3809 29.5354 35.9344 32.1309C36.6905 32.899 37.6013 33.5155 38.4412 34.2017C38.509 34.1499 38.5778 34.098 38.6456 34.0471V22.7355H40.7484V37.0177C35.7689 36.5518 29.8457 30.0093 30.1919 22.7166V22.7176Z" fill="black"/>
<path d="M80.8729 34.0091C81.218 34.5118 81.5781 35.0355 81.9352 35.5552C79.634 37.7816 75.5522 37.5692 73.3597 35.2161C70.9188 32.5957 70.7672 26.2097 74.0839 23.6651C75.1153 22.8741 76.2634 22.49 77.5103 22.4571C79.1422 22.4142 80.6305 22.9209 82 23.9603C81.599 24.5229 81.234 25.0356 80.8808 25.5314C80.2015 25.2441 79.5851 24.9329 78.9367 24.7164C77.0774 24.098 75.1732 24.9179 74.3552 26.6875C73.3926 28.7713 73.4285 30.876 74.3861 32.9438C75.1612 34.6176 77.1043 35.4465 78.8689 34.8779C79.5232 34.6665 80.1377 34.3323 80.8729 34.0091Z" fill="black"/>
<path d="M50.9889 36.8841H48.947V16.6838H50.9889V36.8841Z" fill="black"/>
<path d="M53.9843 16.6677H55.9693V36.8591H53.9843V16.6677Z" fill="black"/>
<path d="M28.2738 36.8879H26.2479V22.7434H28.2738V36.8879Z" fill="black"/>
<path d="M45.8706 36.8899H43.8337V22.7563H45.8706V36.8899Z" fill="black"/>
<path d="M46.2995 18.1392C46.2816 18.9212 45.5604 19.6245 44.8013 19.5985C44.0492 19.5726 43.335 18.8085 43.3639 18.0624C43.3958 17.2584 44.0851 16.606 44.8791 16.628C45.69 16.6509 46.3175 17.3192 46.2985 18.1392H46.2995Z" fill="black"/>
<path d="M28.6708 18.0842C28.6817 18.9281 28.0603 19.5904 27.2533 19.5954C26.5221 19.5994 25.8379 18.9171 25.8149 18.16C25.79 17.339 26.4274 16.6418 27.2174 16.6258C28.0573 16.6089 28.6598 17.2134 28.6708 18.0842Z" fill="black"/>
<path d="M66.9477 30.2336V34.8291C65.4256 35.1214 63.9333 35.3288 62.4371 34.874C61.0595 34.455 60.4331 33.4725 60.6007 32.072C60.7224 31.0556 61.7049 30.2815 63.0276 30.2416C64.3084 30.2037 65.5912 30.2336 66.9468 30.2336H66.9477Z" fill="white"/>
</svg>
