<svg width="70" height="50" viewBox="0 0 70 50" fill="none" xmlns="http://www.w3.org/2000/svg">
<mask id="mask0_817_4704" style="mask-type:luminance" maskUnits="userSpaceOnUse" x="0" y="0" width="70" height="50">
<path d="M0.974609 50H69.1851V0H0.974609V50Z" fill="white"/>
</mask>
<g mask="url(#mask0_817_4704)">
<path d="M55.1 27.296C62.3582 17.6542 51.2232 3.6028 39.6132 0.520985C34.0864 -0.945833 29.4114 0.884621 24.7414 3.40644C19.6018 6.17917 14.6596 10.0033 13.0596 16.1337C10.0009 27.8419 42.7964 43.641 55.1 27.296Z" fill="black"/>
</g>
<mask id="mask1_817_4704" style="mask-type:luminance" maskUnits="userSpaceOnUse" x="15" y="3" width="48" height="38">
<path d="M15.9419 40.9568H62.2883V3.53857H15.9419V40.9568Z" fill="white"/>
</mask>
<g mask="url(#mask1_817_4704)">
<path d="M49.4964 5.88086C56.2655 11.6772 60.1692 20.5627 55.0996 27.2959C51.3151 32.3236 45.5942 34.3095 39.571 34.3095C30.8474 34.3095 21.4942 30.139 16.4996 25.0068C16.1222 27.0041 16.0738 29.0497 16.3564 31.0627C17.1969 37.1013 25.8442 40.7245 35.4119 40.7245C46.5124 40.7245 58.8519 35.849 61.676 24.2131C63.6774 15.9618 57.496 9.15813 49.4964 5.88086Z" fill="#333333" fill-opacity="0.5"/>
</g>
<mask id="mask2_817_4704" style="mask-type:luminance" maskUnits="userSpaceOnUse" x="0" y="0" width="70" height="50">
<path d="M0.974609 50H69.1851V0H0.974609V50Z" fill="white"/>
</mask>
<g mask="url(#mask2_817_4704)">
<path d="M39.0742 3.77152C37.9549 3.76953 36.8369 3.85127 35.7297 4.01607C29.772 4.91652 25.6842 8.91152 22.187 13.4415C19.527 16.8847 17.307 20.7142 16.5006 25.007C21.4938 30.1392 30.8483 34.3097 39.572 34.3097C45.5942 34.3097 51.3152 32.3238 55.1002 27.2956C60.1702 20.562 56.2665 11.6779 49.4965 5.88107C46.19 4.51565 42.6515 3.79944 39.0742 3.77152Z" fill="#333333" fill-opacity="0.2"/>
<path d="M16.4948 25.2297C20.9361 26.9093 21.6861 26.9738 26.2893 27.2729C30.7703 27.2202 35.2279 26.6176 39.562 25.4788C46.9907 23.7652 54.5438 20.5024 61.2548 16.6306" stroke="white" stroke-width="0.496"/>
<path d="M15.7547 32.4901C15.0847 30.7365 11.8961 32.3947 9.79111 33.0001C9.79111 33.8615 9.47292 34.9774 8.57883 36.5079C7.7502 37.9756 6.85701 39.4424 5.90065 41.2283C13.0438 39.8874 16.6161 34.721 15.7547 32.4901ZM5.80474 31.8538C5.64474 31.5029 5.70929 31.311 6.12292 31.2797C8.77065 30.9901 11.1625 29.6506 13.3311 29.5547C14.957 29.491 16.3607 30.001 17.1261 32.202C17.7957 34.1147 17.2534 35.9651 16.1716 37.6565C14.5747 40.1429 11.1307 42.5356 6.95292 43.3315C6.27693 43.4618 5.57662 43.3491 4.97565 43.0133C4.08247 44.7674 3.12611 46.872 2.0102 49.5192C1.88292 49.8374 1.72292 49.8374 1.5002 49.6147C1.05383 49.1365 0.734742 48.1797 1.21292 46.4574C2.04247 43.5556 5.03974 37.5606 7.81429 33.1915C7.38991 33.1694 6.97934 33.0334 6.62577 32.7976C6.27221 32.5619 5.98874 32.2352 5.8052 31.852" fill="black"/>
<path d="M25.4165 33.8615C24.2688 34.402 22.5783 35.327 21.7488 35.5824C21.2166 35.7853 20.6304 35.7963 20.091 35.6133C19.8356 35.4861 19.8047 35.327 20.1229 35.1038C21.0832 34.4091 22.0964 33.7906 23.1533 33.2542C23.5134 33.0978 23.9043 33.0251 24.2966 33.0416C24.6888 33.0581 25.0722 33.1635 25.4179 33.3497C25.6733 33.5088 25.736 33.7006 25.4179 33.8597M21.4942 41.6729C22.5147 40.3333 23.216 38.6756 22.7701 38.3242C22.1001 37.7824 19.452 39.6956 17.952 42.7256C17.8565 42.9165 17.761 43.1079 17.6974 43.2674C19.2597 44.2561 20.5674 42.8847 21.4924 41.6724M18.847 49.0083C21.4942 49.1342 23.822 46.5838 25.1929 44.4792C25.3529 44.2247 25.6083 44.2247 25.7356 44.5111C25.8629 44.7665 25.7674 45.6597 25.1929 46.4888C24.4842 47.503 23.5521 48.3409 22.4684 48.938C21.3847 49.5351 20.1784 49.8753 18.9424 49.9324C14.8929 49.997 13.4879 46.0101 15.562 41.8965C17.636 37.7829 20.8883 36.1242 22.4824 37.0492C23.2206 37.4613 23.8621 38.0265 24.3638 38.707C24.9379 39.4724 24.682 41.4179 23.3433 43.0438C21.781 44.9574 19.6438 45.7865 17.4115 43.9688C16.391 46.9024 17.157 48.9124 18.8465 49.0079" fill="black"/>
<path d="M33.6114 38.4204C32.591 38.325 30.2633 40.3972 28.5087 43.2359C26.8183 45.9786 26.4042 48.785 27.6474 48.8168C28.9551 48.8486 30.6137 46.8077 32.2383 44.0013C34.2492 40.4932 34.5364 38.5159 33.6114 38.4204ZM36.1624 37.1127C36.4496 36.6988 36.7048 36.6351 36.9278 36.9218C37.406 37.4959 37.661 38.8672 36.896 40.4613C36.1942 41.8963 34.6001 44.2886 33.8346 45.9786C33.0369 47.7645 33.006 49.1372 34.0901 49.0722C35.3978 49.0077 37.1514 46.8395 38.2678 44.6391C38.4269 44.3518 38.6505 44.3209 38.7778 44.6072C38.9225 45.2795 38.8206 45.9813 38.4905 46.5845C37.661 48.3386 35.6524 50.0932 33.8996 49.9968C32.1778 49.9013 31.2851 48.8809 31.2851 47.3822C30.2646 48.69 28.8305 49.8695 27.2983 49.8695C24.3328 49.8695 23.7269 45.8191 26.3742 41.9604C28.9555 38.1977 31.4751 36.7622 33.0696 36.7622C34.4401 36.7622 35.0787 37.8145 35.0151 39.0586C35.4296 38.2932 35.8124 37.6227 36.1624 37.1127Z" fill="black"/>
<path d="M39.3197 49.8374C37.0551 49.6783 36.9915 47.3197 37.6924 45.216C38.7853 42.3206 40.2657 39.5867 42.0933 37.0892C42.1327 37.0149 42.1909 36.9523 42.262 36.9075C42.3332 36.8627 42.4149 36.8374 42.4989 36.8341C42.5829 36.8308 42.6663 36.8496 42.7408 36.8886C42.8153 36.9276 42.8782 36.9855 42.9233 37.0565C43.6247 38.1087 43.4651 39.5428 42.317 41.3597C41.362 42.8513 40.5302 44.4183 39.8297 46.0451C39.1597 47.606 39.2556 48.7537 39.9897 48.8178C41.2329 48.9133 42.987 46.6815 44.7088 43.9087C46.7179 40.6587 47.6424 38.4597 48.6633 37.0906C48.9815 36.6442 49.2051 36.5806 49.4606 36.8987C49.9388 37.4728 50.1942 38.876 49.4288 40.4687C48.7274 41.9033 47.1333 44.2933 46.3992 45.9187C45.5697 47.7369 45.6974 49.0747 46.8456 49.0097C48.1851 48.9456 49.812 46.8415 51.0556 44.611C51.2147 44.3237 51.5015 44.2928 51.6297 44.5783C51.791 45.2599 51.6884 45.9774 51.3424 46.5865C50.4174 48.371 48.4406 49.9956 46.5588 49.9956C44.486 49.9956 43.657 48.6892 43.9124 46.8406C42.7956 48.3406 41.106 49.9647 39.3215 49.8365" fill="black"/>
<path d="M59.9833 32.7757C59.5688 32.5211 57.2079 36.0607 55.0088 40.1429C54.728 40.6399 54.4725 41.1507 54.2433 41.6734C58.612 38.1334 60.3979 33.0293 59.9833 32.7757ZM53.4774 48.9443C55.0088 49.0725 57.2406 46.7752 58.4847 44.3197C58.7083 43.9057 59.0588 43.8734 59.186 44.3197C59.3158 44.9959 59.2031 45.6961 58.8679 46.2975C58.4215 47.252 56.0951 49.9007 53.5415 49.837C51.3415 49.7725 50.162 48.2429 50.8951 44.7979C52.0742 39.2497 55.7079 33.4779 58.9629 30.0975C59.441 29.5866 59.8897 29.5229 60.3342 29.9384C61.2592 30.7679 61.4501 31.9475 61.0674 33.4461C60.0788 37.3684 56.5074 41.1952 53.6692 43.0447C52.3942 46.1702 52.0424 48.8175 53.4774 48.9443Z" fill="black"/>
<path d="M64.8938 41.6728C65.9142 40.3333 66.6156 38.6751 66.1697 38.3242C65.4997 37.7819 62.8533 39.6956 61.3538 42.7256C61.2583 42.9165 61.1629 43.1078 61.0992 43.2674C62.6619 44.256 63.9692 42.8847 64.8938 41.6728ZM62.2474 49.0078C64.8938 49.1351 67.2219 46.5833 68.5933 44.4792C68.7524 44.2247 69.0079 44.2247 69.1351 44.511C69.2624 44.7665 69.1669 45.6588 68.5933 46.4888C67.8845 47.5028 66.9523 48.3405 65.8686 48.9375C64.785 49.5344 63.5787 49.8747 62.3429 49.9319C58.2924 49.9965 56.8883 46.0097 58.9624 41.896C61.0365 37.7824 64.2883 36.1242 65.8824 37.0492C66.6206 37.4612 67.2621 38.0265 67.7638 38.7069C68.3379 39.4724 68.0819 41.4178 66.7433 43.0438C65.181 44.9574 63.0438 45.7865 60.8115 43.9688C59.7915 46.9028 60.5547 48.9124 62.2474 49.0078Z" fill="black"/>
</g>
</svg>
