<svg width="108" height="21" viewBox="0 0 108 21" fill="none" xmlns="http://www.w3.org/2000/svg">
<path fill-rule="evenodd" clip-rule="evenodd" d="M13.2023 1.14197C12.7267 0.658198 11.8278 0.406797 11.1885 0.578333L8.72968 1.23563C8.08961 1.40784 7.43773 2.07457 7.26915 2.73073L6.97281 3.90645C6.80261 4.56147 6.14493 5.23019 5.5058 5.40239L2.64709 6.1704C1.36884 6.513 0.61911 7.85864 0.974939 9.18153L3.51657 18.6313C3.87107 19.9476 5.19453 20.7362 6.47258 20.3942L22.6039 16.0655C23.8828 15.7228 24.6318 14.3784 24.2773 13.062L21.7359 3.61144C21.3796 2.28903 20.0816 1.49332 18.8353 1.82697L16.0682 2.57033C15.4294 2.74234 14.5303 2.49094 14.0553 2.0086L13.2023 1.14197ZM7.38709 12.3107C6.59709 9.45044 8.27371 6.51957 11.126 5.77412C13.9785 5.02876 16.9396 6.74974 17.7294 9.60923C18.5215 12.4773 16.844 15.4003 13.9911 16.1457C11.1387 16.8902 8.17938 15.1784 7.38709 12.3107ZM15.3465 10.2361C14.9197 8.69605 13.3194 7.76649 11.7848 8.16668C10.2499 8.56697 9.34434 10.1504 9.77023 11.6908C10.1964 13.2293 11.7974 14.1594 13.3322 13.7598C14.8673 13.359 15.7724 11.7761 15.3465 10.2361ZM32.1329 11.0981C32.1329 12.9235 33.5572 14.3535 35.3753 14.3535C37.1843 14.3535 38.6011 12.9235 38.6011 11.0981C38.6011 9.27281 37.1843 7.84303 35.3753 7.84303C33.5572 7.84303 32.1329 9.27281 32.1329 11.0981ZM30.6167 10.7437C30.7945 8.26083 32.8178 6.36269 35.3745 6.36269C38.0427 6.36269 40.133 8.44264 40.133 11.0979C40.133 13.7533 38.0427 15.8335 35.3745 15.8335C34.1269 15.8335 33.0091 15.3779 32.1668 14.6271V20.0284H30.5993V11.1818L30.6167 10.7437ZM41.4938 15.6473H43.0099V10.8615C43.0099 8.97048 43.9887 7.84198 45.6279 7.84198C46.9913 7.84198 47.7733 8.65359 47.7733 10.0691V15.6473H49.3061V10.0691C49.3061 7.81695 47.8888 6.36174 45.6953 6.36174C44.59 6.36174 43.6788 6.72671 43.0099 7.42761V2.29446H41.4938V15.6473ZM58.6652 11.0984C58.6652 9.27301 57.2483 7.84303 55.4394 7.84303C53.6212 7.84303 52.197 9.27301 52.197 11.0984C52.197 12.9238 53.6212 14.3535 55.4394 14.3535C57.2483 14.3535 58.6652 12.9238 58.6652 11.0984ZM55.4389 6.36269C58.1071 6.36269 60.1973 8.44284 60.1973 11.0982C60.1973 13.7535 58.1071 15.8335 55.4389 15.8335C52.7613 15.8335 50.6637 13.7535 50.6637 11.0982C50.6637 8.44284 52.7613 6.36269 55.4389 6.36269ZM66.3155 15.6918L66.6011 15.6484V14.1873L66.2355 14.2196C65.8909 14.2499 65.5292 14.2781 65.2246 14.2781C64.3698 14.2781 64.0861 14.1205 64.0861 13.1881V8.04465H66.6011V6.54756H64.0861V2.31378L62.5535 3.11016V6.54756H60.6963V8.04465H62.5535V13.1881C62.5535 14.0641 62.7763 14.6994 63.2341 15.1305C63.672 15.5417 64.3012 15.7417 65.1589 15.7417C65.2122 15.7417 65.2665 15.742 65.3217 15.7424C65.6225 15.7445 65.9566 15.7468 66.3155 15.6918ZM75.3245 11.0984C75.3245 9.27301 73.9081 7.84303 72.0984 7.84303C70.2803 7.84303 68.8562 9.27301 68.8562 11.0984C68.8562 12.9238 70.2803 14.3535 72.0984 14.3535C73.9081 14.3535 75.3245 12.9238 75.3245 11.0984ZM72.0984 6.36269C74.7667 6.36269 76.8571 8.44283 76.8571 11.0981C76.8571 13.7535 74.7667 15.8334 72.0984 15.8334C69.4207 15.8334 67.3226 13.7535 67.3226 11.0981C67.3226 8.44283 69.4207 6.36269 72.0984 6.36269ZM94.0936 3.76623C94.0936 2.95014 93.452 2.31074 92.6314 2.31074C91.808 2.31074 91.1636 2.95014 91.1636 3.76623C91.1636 4.58212 91.808 5.22172 92.6314 5.22172C93.452 5.22172 94.0936 4.58212 94.0936 3.76623ZM83.5653 6.00724L81.8852 10.3867H85.2464L83.5653 6.00724ZM82.62 2.31226H84.5125L89.6833 15.6482H87.2588L86.0946 12.6033H81.0208L79.8557 15.6482H77.4311L82.62 2.31226ZM91.5196 15.6475H93.7385V6.62723H91.5196V15.6475ZM101.503 4.52843H98.5876V13.4313H101.503C103.867 13.4313 105.583 11.5591 105.583 8.97962C105.583 6.40058 103.867 4.52843 101.503 4.52843ZM101.503 2.31226C105.114 2.31226 107.837 5.17869 107.837 8.98001C107.837 12.7815 105.114 15.6482 101.503 15.6482H96.3163V2.31226H101.503Z" fill="#3E3E3E"/>
</svg>
