<svg width="92" height="50" viewBox="0 0 92 50" fill="none" xmlns="http://www.w3.org/2000/svg">
<path d="M45.7882 50C31.4455 50 17.1029 50 2.76126 50C1.97128 50 1.18131 50 0.391334 49.999C0.0438294 49.999 0.00521771 49.9624 0.00521771 49.6191C0.00313059 35.6219 0 21.6246 0 7.62632C0 5.30023 0.00939178 2.9731 0.0156531 0.647006C0.0156531 0.519692 0.0250453 0.392378 0.0219146 0.265064C0.0166968 0.0834847 0.104356 0.0187843 0.279674 0.0177407C1.61125 0.01461 2.94283 0 4.27441 0C28.678 0 53.0816 0 77.4842 0C82.0717 0 86.6592 0 91.2466 0C91.5253 0 91.5701 0.0354809 91.5712 0.320372C91.5764 1.93893 91.5774 3.55853 91.5774 5.17709C91.5774 14.5535 91.5774 23.9298 91.5743 33.3062C91.5743 37.3469 91.5681 41.3886 91.566 45.4292C91.566 46.8568 91.566 48.2844 91.568 49.712C91.568 49.9353 91.5242 49.9843 91.2811 49.9854C90.0643 49.9906 88.8475 49.9958 87.6307 49.9958C73.6836 49.9958 59.7354 49.9958 45.7882 49.9958V49.9979V50ZM45.7903 49.162C57.642 49.162 69.4926 49.162 81.3443 49.162C84.3644 49.162 87.3844 49.1631 90.4045 49.1641C90.7134 49.1641 90.7405 49.1412 90.7405 48.8907C90.7405 41.2289 90.7384 33.5671 90.7384 25.9053C90.7384 17.657 90.7416 9.40872 90.7426 1.16044C90.7426 0.856761 90.7217 0.83589 90.416 0.834846C89.5749 0.834846 88.7337 0.834846 87.8926 0.834846C60.1309 0.834846 32.3701 0.834847 4.60835 0.83589C3.4427 0.83589 2.276 0.834846 1.11035 0.834846C0.878676 0.834846 0.844238 0.869284 0.840064 1.09887C0.837977 1.2074 0.840064 1.31593 0.840064 1.42341C0.840064 16.5174 0.837977 31.6115 0.837977 46.7055C0.837977 47.4318 0.837977 48.1592 0.840064 48.8855C0.840064 49.1328 0.866153 49.1568 1.11765 49.1589C1.39837 49.161 1.67804 49.161 1.95876 49.161C16.5686 49.161 31.1794 49.161 45.7892 49.161L45.7903 49.162Z" fill="black"/>
<path d="M45.1163 16.9265C44.894 16.9265 44.6707 16.9192 44.4484 16.9286C44.2679 16.937 44.1458 16.8618 44.056 16.7116C43.8797 16.4173 43.6981 16.1251 43.5207 15.8308C43.0615 15.068 42.6013 14.3062 42.1442 13.5423C41.7664 12.9099 41.3949 12.2733 41.0182 11.6399C40.8064 11.2851 40.5924 10.9313 40.3733 10.5807C40.2105 10.3187 40.2105 10.2655 40.4662 10.11C41.0203 9.77398 41.5817 9.45048 42.139 9.11758C42.6086 8.83687 43.074 8.54989 43.5426 8.26813C43.9621 8.01559 44.3847 7.77035 44.8042 7.51677C45.5713 7.05343 46.3362 6.58696 47.1042 6.12466C47.6062 5.82203 48.1123 5.52775 48.6132 5.22511C49.1955 4.87343 49.7747 4.51445 50.356 4.16068C50.4645 4.09494 50.5762 4.03441 50.6878 3.9718C50.8005 3.90814 50.8903 3.93632 50.8819 4.06885C50.8506 4.55724 50.8089 5.04458 50.7619 5.53088C50.7442 5.7135 50.693 5.89195 50.6701 6.07457C50.549 7.0409 50.4332 8.00724 50.3132 8.97357C50.2819 9.22507 50.3466 9.33673 50.5876 9.42335C51.2983 9.68111 52.0121 9.93156 52.7196 10.1966C53.2905 10.4106 53.854 10.6443 54.4206 10.8676C54.6513 10.9584 54.885 11.0419 55.1125 11.139C55.1824 11.1692 55.2377 11.235 55.2993 11.284C55.245 11.3425 55.2012 11.4155 55.1355 11.4552C54.6085 11.7734 54.0752 12.0834 53.5472 12.4006C52.9857 12.7377 52.4306 13.0841 51.867 13.4181C51.2002 13.8136 50.5229 14.1935 49.8582 14.591C49.4877 14.8133 49.1371 15.068 48.7687 15.2934C48.4003 15.5188 48.0184 15.7233 47.6448 15.9425C47.1512 16.2315 46.6628 16.53 46.1661 16.8138C46.0659 16.8712 45.9396 16.9015 45.8238 16.9088C45.589 16.9234 45.3532 16.913 45.1173 16.913C45.1173 16.9171 45.1173 16.9203 45.1173 16.9244L45.1163 16.9265Z" fill="black"/>
<path d="M65.3948 20.9923C65.2977 20.9923 65.1986 21.0059 65.1036 20.9902C64.6779 20.9172 64.2542 20.8316 63.8284 20.7586C63.1449 20.6406 62.4603 20.5227 61.7747 20.4173C60.6174 20.2399 59.459 20.074 58.3017 19.8997C57.8551 19.8329 57.4105 19.7432 56.9628 19.69C55.7366 19.5449 54.5073 19.4207 53.2801 19.2767C51.5395 19.0743 49.7915 18.949 48.0414 18.9083C46.3164 18.8676 44.5883 18.8885 42.8623 18.9271C41.8323 18.9501 40.8023 19.0482 39.7754 19.1369C38.4814 19.2485 37.1884 19.3706 35.8976 19.5146C35.0638 19.6075 34.2341 19.7484 33.4035 19.8663C32.7919 19.9529 32.1783 20.0312 31.5678 20.1251C30.8833 20.2305 30.1997 20.3474 29.5162 20.4601C28.9506 20.553 28.385 20.6459 27.8204 20.7419C27.3759 20.817 26.9324 20.9026 26.4868 20.9735C26.3636 20.9934 26.2342 20.9767 26.1017 20.9391C26.1205 20.9266 26.1382 20.9067 26.1591 20.9026C26.8948 20.7293 27.6315 20.5603 28.3662 20.385C28.7367 20.2963 29.105 20.1929 29.4755 20.1053C29.9889 19.9842 30.5055 19.8726 31.02 19.7547C31.6273 19.6148 32.2326 19.4645 32.842 19.3351C33.7384 19.1452 34.6349 18.9553 35.5375 18.7935C36.364 18.6453 37.1957 18.5253 38.0285 18.4105C39.0491 18.2697 40.0697 18.11 41.0966 18.0244C42.3582 17.919 43.6251 17.8585 44.892 17.822C45.8782 17.7938 46.8674 17.799 47.8526 17.8491C49.0798 17.9117 50.3049 18.0213 51.528 18.1403C52.3253 18.2175 53.1204 18.3323 53.9125 18.4554C54.8496 18.6005 55.7847 18.7601 56.7165 18.9375C57.6098 19.1087 58.4989 19.3059 59.387 19.5C60.3492 19.7108 61.3103 19.9279 62.2704 20.1502C63.1063 20.3443 63.9401 20.5478 64.7749 20.7492C64.9523 20.7919 65.1276 20.841 65.3029 20.8921C65.3395 20.9026 65.3708 20.9339 65.4042 20.9558C65.401 20.9683 65.399 20.9798 65.3958 20.9923H65.3948Z" fill="black"/>
<path d="M43.8127 41.1547C43.7981 41.256 43.77 41.3572 43.77 41.4595C43.77 42.7723 43.7721 44.085 43.7741 45.3978C43.7741 45.4615 43.7721 45.5252 43.7689 45.5888C43.7637 45.7109 43.7 45.7767 43.5759 45.7777C43.3025 45.7808 43.028 45.786 42.7546 45.785C42.5949 45.785 42.5532 45.6754 42.5542 45.5398C42.5563 45.2277 42.5615 44.9157 42.5626 44.6027C42.5636 42.8943 42.5636 41.186 42.5647 39.4788C42.5647 39.1584 42.5782 39.148 42.8975 39.1501C43.2607 39.1532 43.6239 39.1605 43.987 39.1448C44.1592 39.1375 44.251 39.2022 44.3032 39.3525C44.4347 39.7313 44.5662 40.1101 44.6956 40.49C44.874 41.0139 45.0483 41.5388 45.2278 42.0626C45.4261 42.6408 45.6244 43.2189 45.8299 43.7939C45.854 43.8617 45.9239 43.9129 45.9719 43.9723C46.0136 43.9087 46.07 43.8513 46.094 43.7814C46.2296 43.3911 46.3549 42.9987 46.4874 42.6074C46.717 41.9259 46.9466 41.2455 47.1793 40.5651C47.3233 40.1446 47.4642 39.7219 47.6249 39.3087C47.653 39.2356 47.7762 39.1563 47.8576 39.1542C48.2907 39.1407 48.7237 39.148 49.1568 39.1532C49.3133 39.1553 49.3363 39.2701 49.3363 39.3943C49.3363 39.7386 49.3342 40.083 49.3342 40.4263C49.3342 42.1023 49.3342 43.7782 49.3342 45.4552C49.3342 45.76 49.3133 45.7787 49.0097 45.786C48.8312 45.7902 48.6528 45.7902 48.4743 45.7923C48.1915 45.7954 48.1331 45.7422 48.132 45.4636C48.1289 45.043 48.132 44.6225 48.132 44.2019C48.132 43.2711 48.1341 42.3413 48.1352 41.4104C48.1352 41.3781 48.1435 41.3426 48.132 41.3154C48.1091 41.2633 48.0757 41.2153 48.0465 41.1662C48.012 41.208 47.9619 41.2434 47.9473 41.2914C47.7741 41.8237 47.6113 42.36 47.4349 42.8923C47.2575 43.4297 47.0687 43.963 46.8871 44.4983C46.7702 44.8416 46.6554 45.185 46.5417 45.5283C46.4634 45.7641 46.4112 45.7996 46.1701 45.7892C45.999 45.7819 45.8268 45.7819 45.6546 45.7829C45.4981 45.7829 45.4073 45.7099 45.3614 45.5617C45.2508 45.21 45.136 44.8583 45.0191 44.5087C44.7019 43.5612 44.3815 42.6147 44.0642 41.6671C44.0298 41.5649 44.0089 41.4574 43.9766 41.3551C43.9547 41.2862 43.9213 41.2215 43.8931 41.1547C43.867 41.1558 43.8409 41.1568 43.8148 41.1589L43.8127 41.1547Z" fill="black"/>
<path d="M86.2878 43.7963C86.2993 43.719 86.3202 43.6418 86.3202 43.5656C86.3202 42.2017 86.3171 40.8388 86.3139 39.4749C86.3139 39.1629 86.3275 39.1472 86.6301 39.1483C86.8472 39.1483 87.0632 39.1535 87.2803 39.1451C87.4441 39.1389 87.5182 39.2161 87.5203 39.3705C87.5224 39.6001 87.5192 39.8297 87.5192 40.0582C87.5192 41.849 87.5192 43.6397 87.5192 45.4305C87.5192 45.7665 87.5046 45.7769 87.1769 45.7759C86.9286 45.7759 86.6792 45.7686 86.4318 45.7832C86.245 45.7947 86.1344 45.7122 86.0489 45.5588C85.5313 44.6311 85.0116 43.7044 84.4919 42.7778C84.2268 42.3061 83.9638 41.8333 83.6946 41.3648C83.656 41.298 83.5892 41.2479 83.4942 41.1446C83.4765 41.2719 83.4577 41.3408 83.4577 41.4097C83.4577 42.7736 83.4598 44.1375 83.4598 45.5004C83.4598 45.7143 83.4024 45.7696 83.1864 45.7749C82.9631 45.7811 82.7408 45.7853 82.5175 45.7895C82.3129 45.7936 82.2524 45.7362 82.2524 45.5327C82.2524 43.7357 82.2534 41.9387 82.2534 40.1417C82.2534 39.9121 82.2482 39.6836 82.242 39.454C82.2357 39.215 82.3056 39.143 82.5404 39.1462C82.8138 39.1493 83.0883 39.1524 83.3617 39.1451C83.5328 39.141 83.6497 39.2004 83.7353 39.3538C84.3708 40.5007 85.0105 41.6445 85.6471 42.7892C85.8172 43.095 85.9789 43.4039 86.147 43.7107C86.1668 43.7462 86.2012 43.7733 86.2284 43.8046C86.2482 43.8015 86.2691 43.7994 86.2889 43.7963H86.2878Z" fill="black"/>
<path d="M7.84124 42.3531C7.8235 41.4839 8.16683 40.673 8.82427 40.0187C9.71129 39.1369 10.8029 38.7998 12.0144 39.1191C13.3053 39.4583 14.1475 40.3057 14.4804 41.6258C14.6849 42.4356 14.6306 43.2308 14.2643 43.9727C13.7655 44.9819 12.9588 45.6216 11.8328 45.847C11.045 46.0045 10.3134 45.8689 9.61633 45.5047C9.06846 45.2177 8.64895 44.7919 8.32023 44.266C7.96542 43.7004 7.82871 43.0847 7.84124 42.3531ZM9.04759 42.4314C9.02985 42.4356 9.01211 42.4398 8.99437 42.4439C9.06846 42.7559 9.11229 43.0805 9.22395 43.379C9.49319 44.0927 10.0358 44.553 10.7632 44.7074C12.0697 44.985 13.1081 44.1053 13.3481 42.9146C13.5599 41.8637 13.0632 40.8348 12.0729 40.362C11.5114 40.0949 10.925 40.0844 10.3729 40.3485C9.51406 40.7607 9.05907 41.463 9.04655 42.4314H9.04759Z" fill="black"/>
<path d="M56.8573 42.4977C56.8333 44.4084 55.3463 45.9258 53.4459 45.9122C51.5696 45.8997 50.1013 44.375 50.0878 42.5206C50.0721 40.5159 51.602 39.0153 53.4522 39.0164C55.3619 39.0164 56.8458 40.5107 56.8573 42.4977ZM53.4919 44.7966C53.734 44.7319 53.9823 44.6839 54.2182 44.5994C54.9434 44.3416 55.3661 43.7875 55.5727 43.08C55.7679 42.4131 55.652 41.764 55.2722 41.1786C54.6784 40.2645 53.6327 39.9169 52.6549 40.3365C51.6782 40.756 51.1418 41.8329 51.3306 42.8869C51.5289 43.9962 52.4973 44.7893 53.4919 44.7966Z" fill="black"/>
<path d="M62.6572 42.4669C62.6572 41.4599 62.6572 40.4528 62.6572 39.4468C62.6572 39.1891 62.7 39.1411 62.9578 39.1484C63.6256 39.1682 64.2956 39.162 64.9593 39.2277C66.0279 39.3331 66.701 40.3767 66.4109 41.3774C66.3472 41.5955 66.1625 41.7865 66.006 41.967C65.8557 42.1413 65.8495 42.2018 66.053 42.3072C66.5455 42.5598 66.7866 42.9929 66.8492 43.5146C66.9619 44.4455 66.5779 45.1666 65.7305 45.5475C65.4091 45.6915 65.0313 45.7405 64.6744 45.7646C64.0838 45.8032 63.49 45.7865 62.8983 45.7906C62.7094 45.7917 62.6583 45.7322 62.6583 45.5078C62.6572 44.6219 62.6583 43.7359 62.6593 42.8509C62.6593 42.7236 62.6593 42.5963 62.6593 42.469H62.6572V42.4669ZM63.849 43.7442H63.8469C63.8469 43.9602 63.849 44.1773 63.8469 44.3933C63.8458 44.5091 63.8824 44.6093 64.0086 44.6104C64.4073 44.6135 64.8132 44.6688 65.1941 44.4925C65.5061 44.3484 65.6752 44.1084 65.6669 43.7557C65.6595 43.4072 65.4759 43.1797 65.1785 43.02C64.808 42.8217 64.4062 42.9062 64.017 42.8864C63.8991 42.8802 63.8448 42.9699 63.849 43.0941C63.8552 43.3101 63.8511 43.5272 63.8511 43.7432L63.849 43.7442ZM63.8594 41.0049H63.8531C63.8531 41.176 63.8375 41.3503 63.8604 41.5183C63.8709 41.5903 63.9638 41.7051 64.0191 41.7051C64.2831 41.7082 64.5544 41.7072 64.8111 41.6519C65.0939 41.5903 65.263 41.3336 65.2776 41.0498C65.2922 40.7607 65.143 40.5436 64.8675 40.4038C64.5889 40.2629 64.2967 40.3026 64.0086 40.314C63.9565 40.3161 63.874 40.4247 63.8657 40.4915C63.8448 40.6605 63.8584 40.8337 63.8584 41.0049H63.8594Z" fill="black"/>
<path d="M58.8514 43.3623C58.8336 43.4625 58.8169 43.5136 58.8169 43.5658C58.8169 44.1961 58.8201 44.8264 58.8222 45.4578C58.8222 45.7312 58.77 45.7823 58.5007 45.7792C58.3035 45.7771 58.1063 45.7823 57.9091 45.7844C57.6659 45.7875 57.6148 45.7406 57.6148 45.4985C57.6148 44.3328 57.6169 43.1672 57.6169 42.0015C57.6169 41.1479 57.6137 40.2942 57.6106 39.4406C57.6106 39.2058 57.6711 39.1442 57.9007 39.1453C58.4486 39.1474 58.9975 39.1234 59.5433 39.1557C59.9461 39.1787 60.3656 39.2142 60.7392 39.3498C61.3351 39.5658 61.692 40.048 61.8621 40.6584C62.0781 41.4349 61.8652 42.1173 61.3716 42.7226C61.1587 42.9835 60.8801 43.1588 60.5493 43.2517C60.2904 43.3247 60.2842 43.3727 60.4355 43.5835C60.8404 44.146 61.2401 44.7137 61.6429 45.2783C61.717 45.3816 61.8005 45.4786 61.8683 45.5851C61.9403 45.6978 61.9278 45.7802 61.7671 45.7813C61.4175 45.7834 61.0669 45.798 60.7183 45.7834C60.6275 45.7792 60.5096 45.7093 60.4564 45.6331C60.1016 45.128 59.7614 44.6135 59.4149 44.1022C59.2865 43.9123 59.1592 43.7223 59.0267 43.5355C58.9891 43.4834 58.9338 43.4437 58.8514 43.3644V43.3623ZM58.8201 41.3002C58.8201 41.3002 58.8169 41.3002 58.8159 41.3002C58.8159 41.4589 58.8117 41.6185 58.8159 41.7771C58.8326 42.3198 58.6938 42.325 59.3606 42.3177C59.6716 42.3146 59.9784 42.3219 60.2675 42.1591C60.83 41.8439 60.9103 40.9569 60.4011 40.5645C59.9576 40.2222 59.4431 40.288 58.938 40.3193C58.8952 40.3224 58.8274 40.4341 58.8243 40.4988C58.8117 40.7649 58.819 41.0331 58.819 41.3002H58.8201Z" fill="black"/>
<path d="M15.3549 42.4638C15.3549 41.464 15.3559 40.4633 15.3549 39.4635C15.3549 39.1515 15.4039 39.1327 15.6742 39.1421C16.3097 39.1651 16.9484 39.1358 17.5839 39.1672C17.8949 39.1828 18.2215 39.2433 18.5074 39.3623C19.2672 39.6785 19.7075 40.4747 19.6627 41.2971C19.6261 41.9701 19.3976 42.5431 18.8591 42.9574C18.6828 43.093 18.4574 43.1692 18.2476 43.2558C18.0671 43.3309 18.0358 43.4155 18.1485 43.5678C18.5555 44.1209 18.9583 44.6782 19.3621 45.2334C19.4404 45.3408 19.527 45.4442 19.5959 45.5579C19.6251 45.6059 19.6418 45.6831 19.6241 45.7322C19.6115 45.7656 19.5301 45.7917 19.479 45.7917C19.1419 45.7948 18.8028 45.8084 18.4678 45.777C18.3509 45.7666 18.2121 45.6623 18.1401 45.56C17.7164 44.9641 17.3084 44.3568 16.8983 43.7505C16.8419 43.667 16.8023 43.571 16.748 43.4854C16.7271 43.452 16.6854 43.4322 16.653 43.4061C16.6238 43.4437 16.5842 43.477 16.5685 43.5188C16.5539 43.5584 16.5612 43.6064 16.5612 43.6513C16.5612 44.2628 16.5612 44.8744 16.5591 45.4859C16.5581 45.753 16.5236 45.7875 16.2638 45.7875C16.054 45.7875 15.8432 45.7823 15.6335 45.7781C15.3903 45.7739 15.359 45.7426 15.359 45.5005C15.359 44.4872 15.359 43.475 15.359 42.4617H15.3569L15.3549 42.4638ZM16.5706 41.2856C16.5706 41.2856 16.5654 41.2856 16.5633 41.2856C16.5633 41.559 16.5633 41.8334 16.5633 42.1069C16.5633 42.2363 16.6134 42.3156 16.7532 42.3124C17.0579 42.3041 17.3668 42.3197 17.6674 42.277C18.0149 42.2279 18.2873 42.0265 18.4031 41.6863C18.6504 40.9621 18.1683 40.3078 17.4034 40.3036C17.1999 40.3036 16.9964 40.3067 16.7929 40.2984C16.6405 40.2911 16.5664 40.3432 16.5706 40.5039C16.5758 40.7648 16.5716 41.0257 16.5716 41.2866L16.5706 41.2856Z" fill="black"/>
<path d="M74.7292 42.4637C74.7292 43.4645 74.7292 44.4653 74.7292 45.466C74.7292 45.7394 74.6927 45.777 74.4235 45.7781C74.2064 45.7781 73.9904 45.777 73.7733 45.7822C73.5949 45.7875 73.5187 45.7071 73.5198 45.5307C73.5229 44.7783 73.5208 44.027 73.5239 43.2746C73.5239 43.0638 73.4822 43.0137 73.2714 43.0137C72.6786 43.0137 72.0859 43.0137 71.4942 43.0158C71.2166 43.0168 71.1978 43.0492 71.1999 43.3257C71.2041 44.0645 71.1989 44.8044 71.1999 45.5433C71.1999 45.7217 71.1217 45.7979 70.9432 45.7916C70.7272 45.7833 70.5101 45.7864 70.2941 45.7801C70.0322 45.7728 69.9998 45.7384 69.9998 45.4744C69.9977 44.4287 69.9967 43.3841 69.9967 42.3385C69.9967 41.3701 69.9988 40.4006 69.9998 39.4322C69.9998 39.1943 70.0437 39.1504 70.2764 39.1504C70.4934 39.1504 70.7095 39.1546 70.9265 39.1504C71.1446 39.1473 71.2031 39.1922 71.2031 39.4071C71.2031 40.0959 71.2031 40.7836 71.1958 41.4723C71.1926 41.8073 71.2385 41.8532 71.5798 41.8491C72.1276 41.8418 72.6755 41.8407 73.2234 41.8438C73.477 41.8449 73.5177 41.8178 73.5177 41.5704C73.5177 40.8692 73.5177 40.1679 73.5177 39.4666C73.5177 39.1859 73.5573 39.1452 73.837 39.1473C74.0342 39.1483 74.2325 39.1494 74.4297 39.1473C74.6885 39.1452 74.7303 39.1849 74.7303 39.4416C74.7303 40.4361 74.7282 41.4306 74.7282 42.4241C74.7282 42.4366 74.7282 42.4491 74.7282 42.4627H74.7303L74.7292 42.4637Z" fill="black"/>
<path d="M59.6468 29.0008C59.5466 29.0718 59.4798 29.0999 59.4391 29.149C58.8339 29.8962 58.0335 30.133 57.1193 29.9911C56.2438 29.8544 55.5863 29.3629 55.1397 28.6032C54.6586 27.7861 54.5626 26.9095 54.8381 26.0068C55.0948 25.1657 55.6051 24.5104 56.4055 24.1253C57.088 23.7976 57.7914 23.7465 58.5093 24.0533C58.8714 24.2077 59.1678 24.4279 59.4089 24.7337C59.4496 24.7859 59.531 24.8078 59.5925 24.8433C59.6155 24.7765 59.6531 24.7107 59.6583 24.6418C59.6677 24.502 59.6583 24.3622 59.6562 24.2213C59.6562 24.0909 59.7251 24.022 59.8503 24.0032C59.8566 24.0032 59.8628 24.0021 59.8691 24.0011C60.3126 23.9896 60.3596 23.9625 60.3564 24.4342C60.3449 26.1237 60.3512 27.8122 60.3449 29.5017C60.3418 30.2218 60.1248 30.8667 59.6332 31.4062C59.173 31.9102 58.5772 32.1356 57.9187 32.1836C57.0003 32.2504 56.1791 31.9885 55.5728 31.2716C55.3233 30.9773 55.1678 30.6006 54.9904 30.2499C54.9184 30.107 54.9978 30.0266 55.1658 30.0297C55.1783 30.0297 55.1919 30.035 55.2033 30.0329C55.5665 29.9556 55.722 30.1654 55.8785 30.4566C56.3137 31.2664 57.1631 31.6306 58.0564 31.4761C58.717 31.3624 59.1949 31.018 59.4652 30.4054C59.6531 29.9776 59.6708 29.5215 59.6468 28.9997V29.0008ZM55.4037 27.1464C55.435 27.2841 55.4684 27.5242 55.5435 27.7506C55.8201 28.5823 56.3429 29.1625 57.2424 29.3149C57.8185 29.412 58.3549 29.2899 58.7973 28.9048C60.3084 27.592 59.8013 25.1761 58.1399 24.6398C57.6359 24.477 57.1496 24.4999 56.7019 24.7431C55.8002 25.2325 55.4079 26.0319 55.4037 27.1464Z" fill="black"/>
<path d="M80.9594 45.784C80.8384 45.784 80.7163 45.7735 80.5963 45.786C80.4126 45.8059 80.3093 45.7203 80.2446 45.5596C80.0787 45.1463 79.9044 44.7373 79.7468 44.3209C79.6811 44.1466 79.5819 44.0683 79.393 44.0704C78.7878 44.0767 78.1825 44.0767 77.5783 44.0704C77.4082 44.0683 77.308 44.1289 77.2433 44.2896C77.0722 44.7206 76.8843 45.1453 76.7121 45.5763C76.6568 45.713 76.5754 45.7798 76.4273 45.7787C76.1476 45.7767 75.8669 45.7913 75.5872 45.785C75.3827 45.7798 75.3367 45.7005 75.414 45.5137C75.7208 44.7727 76.0338 44.035 76.3344 43.2919C76.6704 42.4602 76.9939 41.6233 77.3268 40.7905C77.523 40.3001 77.7171 39.8096 77.9342 39.3285C77.9728 39.2419 78.1105 39.1678 78.2128 39.1501C78.3797 39.1219 78.5561 39.1563 78.7273 39.1448C78.8984 39.1334 78.9902 39.2221 79.0466 39.3619C79.3722 40.1696 79.6915 40.9805 80.0213 41.7871C80.3072 42.4874 80.6046 43.1834 80.8947 43.8836C81.1233 44.4367 81.3497 44.9898 81.5741 45.545C81.6377 45.7026 81.5897 45.7725 81.4165 45.7777C81.2641 45.7829 81.1107 45.7787 80.9584 45.7787V45.7829L80.9594 45.784ZM78.4758 42.9142C78.4758 42.9142 78.4758 42.909 78.4758 42.9069C78.5832 42.9069 78.6918 42.9037 78.7993 42.9069C79.1812 42.9215 79.2021 42.9027 79.0768 42.5427C78.9203 42.0929 78.7513 41.6473 78.5801 41.2027C78.5592 41.1495 78.4883 41.1151 78.4403 41.0723C78.409 41.1151 78.3641 41.1537 78.3474 41.2027C78.171 41.6911 78.002 42.1826 77.8246 42.671C77.7641 42.839 77.7995 42.9079 77.9801 42.9131C78.145 42.9173 78.3098 42.9131 78.4758 42.9131V42.9142Z" fill="black"/>
<path d="M29.7269 26.9492C29.7269 26.0757 29.7269 25.2033 29.7269 24.3298C29.7269 24.0199 29.7436 24.0032 30.0463 24.0074C30.0776 24.0074 30.1099 24.0053 30.1423 24.0053C30.3593 24.0021 30.4032 24.0481 30.4209 24.2703C30.4251 24.3277 30.4595 24.382 30.4804 24.4384C30.5367 24.4154 30.6066 24.407 30.6463 24.3674C31.4958 23.5273 32.8847 23.7976 33.5265 24.6512C33.5568 24.6919 33.585 24.7358 33.6215 24.7713C33.706 24.8558 33.7885 24.861 33.8552 24.7493C34.0848 24.3622 34.448 24.1211 34.8466 23.9792C35.3517 23.7987 35.8714 23.8028 36.389 24.0282C37.324 24.4352 37.683 25.1981 37.707 26.1446C37.7373 27.3165 37.7175 28.4894 37.7216 29.6624C37.7216 29.8315 37.6507 29.9003 37.4764 29.8962C37.0308 29.8847 37.0329 29.8899 37.0329 29.4495C37.0329 28.4613 37.0391 27.4741 37.0277 26.4858C37.0214 25.9807 36.9797 25.4777 36.6457 25.0541C36.2909 24.6043 35.815 24.4718 35.2807 24.5636C34.8205 24.6429 34.4949 24.932 34.2883 25.3515C34.1109 25.7105 34.0827 26.0997 34.0807 26.4879C34.0744 27.5137 34.0807 28.5406 34.0796 29.5664C34.0796 29.6833 34.1151 29.8482 33.9627 29.8732C33.7947 29.9014 33.6131 29.8753 33.442 29.8429C33.4076 29.8367 33.3783 29.7 33.3783 29.6238C33.3742 28.5343 33.3856 27.4438 33.37 26.3543C33.3648 25.9745 33.3157 25.5884 33.1195 25.2482C32.8054 24.7013 32.315 24.4801 31.7045 24.5542C31.1597 24.621 30.7663 24.9288 30.6014 25.4537C30.5002 25.7762 30.4418 26.1237 30.4345 26.4618C30.4136 27.5002 30.4272 28.5395 30.4282 29.5779C30.4282 29.8596 30.3927 29.8972 30.1078 29.8899C30.0692 29.8899 30.0316 29.8889 29.993 29.8889C29.7614 29.8899 29.728 29.8607 29.728 29.6259C29.7269 28.7336 29.728 27.8414 29.728 26.9492H29.7269Z" fill="black"/>
<path d="M27.2505 40.9095C27.2181 40.9095 27.1858 40.9053 27.1555 40.9095C26.8226 40.9606 26.6108 40.8625 26.5033 40.5056C26.4188 40.2239 26.04 40.1018 25.7217 40.1905C25.4483 40.2677 25.2479 40.5995 25.2688 40.9304C25.2876 41.2215 25.4639 41.3958 25.7071 41.5054C25.9617 41.6201 26.2247 41.7161 26.4887 41.809C27.0439 42.0063 27.5281 42.2964 27.8025 42.8432C27.8933 43.0227 27.9747 43.2178 28.0039 43.414C28.1563 44.4419 27.7274 45.3947 26.7016 45.7787C25.7822 46.1231 24.6468 45.7745 24.1397 44.9501C23.9862 44.7007 23.9163 44.3981 23.8276 44.1142C23.7807 43.9661 23.8568 43.8648 24.0238 43.8638C24.3045 43.8627 24.5842 43.8638 24.8649 43.8659C25.0037 43.8659 25.0956 43.9337 25.1237 44.0735C25.2218 44.5713 25.6747 44.8301 26.1569 44.7373C26.5012 44.6705 26.8101 44.3261 26.8206 43.9755C26.8362 43.4526 26.6202 43.2627 26.1683 43.0561C25.8219 42.8975 25.4608 42.7701 25.1143 42.6105C24.4705 42.3131 24.1157 41.8111 24.0697 41.0942C24.0217 40.3397 24.2805 39.7376 24.9192 39.3118C25.801 38.7253 27.1232 39.053 27.6137 39.9943C27.7211 40.2009 27.7911 40.4294 27.8537 40.6548C27.9038 40.8354 27.8391 40.9001 27.6523 40.9105C27.6397 40.9105 27.6272 40.9105 27.6137 40.9105C27.4926 40.9105 27.3716 40.9105 27.2505 40.9105V40.9095Z" fill="black"/>
<path d="M3.3468 42.4647C3.3468 41.465 3.3468 40.4652 3.3468 39.4655C3.3468 39.1848 3.38959 39.1462 3.66613 39.1483C4.25783 39.1524 4.85057 39.1431 5.44227 39.1587C5.83256 39.1691 6.21659 39.238 6.55783 39.4436C7.08796 39.7619 7.39685 40.2325 7.46677 40.8472C7.53251 41.4232 7.47929 41.9774 7.11196 42.4626C6.71749 42.9833 6.18111 43.2129 5.54558 43.2422C5.31078 43.2526 5.07493 43.2474 4.83909 43.2484C4.59698 43.2495 4.53541 43.3215 4.5375 43.5563C4.54376 44.2252 4.54272 44.8931 4.54689 45.562C4.54794 45.7342 4.46445 45.8041 4.30061 45.801C4.05851 45.7957 3.81745 45.7957 3.57534 45.7895C3.38854 45.7853 3.34993 45.6643 3.35098 45.5035C3.35306 44.4913 3.35202 43.478 3.35202 42.4657H3.34785L3.3468 42.4647ZM4.53646 41.1916C4.53646 41.1916 4.53855 41.1916 4.53959 41.1916C4.53959 41.4076 4.53855 41.6246 4.53959 41.8407C4.54063 41.9961 4.60951 42.1099 4.77543 42.1015C5.06032 42.0869 5.34835 42.0775 5.62698 42.0222C6.06423 41.9346 6.24685 41.6831 6.27503 41.203C6.29694 40.8326 6.1091 40.5706 5.74177 40.4089C5.41096 40.2628 5.06763 40.3087 4.72639 40.3077C4.57298 40.3077 4.53228 40.4256 4.53333 40.5623C4.53541 40.772 4.53333 40.9818 4.53333 41.1916H4.53646Z" fill="black"/>
<path d="M39.839 27.9761C39.839 26.9377 39.839 25.9004 39.839 24.8621C39.839 24.6586 39.8328 24.4541 39.8244 24.2506C39.8181 24.0784 39.8797 23.9793 40.0686 24.0001C40.0811 24.0012 40.0936 24.0001 40.1072 24.0001C40.4965 23.996 40.5538 24.0648 40.5413 24.4572C40.5372 24.5793 40.5831 24.7035 40.6071 24.8266C40.6958 24.7557 40.7928 24.692 40.8732 24.6117C41.4941 23.9887 42.2402 23.7497 43.1033 23.8895C44.1103 24.0523 44.8251 24.6231 45.2551 25.5321C45.5629 26.1822 45.6704 26.8626 45.5097 27.5921C45.3135 28.4833 44.8669 29.1762 44.0915 29.6479C43.1513 30.2197 41.8312 30.1822 40.9514 29.364C40.8867 29.3035 40.8377 29.2263 40.772 29.1678C40.7198 29.1219 40.653 29.0916 40.5925 29.0551C40.5685 29.1209 40.5246 29.1877 40.5236 29.2534C40.5173 29.6228 40.5215 29.9922 40.5225 30.3617C40.5225 30.7947 40.5236 31.2289 40.5246 31.6619C40.5246 31.8999 40.4672 31.9583 40.2356 31.9573C39.8307 31.9552 39.8275 31.9552 39.8275 31.5482C39.8265 30.3564 39.8275 29.1657 39.8275 27.974C39.8317 27.974 39.8369 27.974 39.8411 27.974L39.839 27.9761ZM44.871 27.2226C44.8825 25.9474 44.3148 24.9216 43.2097 24.6148C42.3655 24.38 41.4993 24.7244 41.0203 25.3641C40.5622 25.9766 40.3754 26.6706 40.5403 27.4512C40.6499 27.9688 40.8627 28.4081 41.2405 28.7755C41.9668 29.483 43.0532 29.4778 43.7346 29.0687C44.5131 28.6012 44.8262 27.8665 44.871 27.2226Z" fill="black"/>
<path d="M17.1394 30.0337C15.7859 29.9774 14.735 29.3836 13.9836 28.2524C13.5099 27.5386 13.3022 26.7402 13.3105 25.8991C13.322 24.7637 13.6633 23.7254 14.4919 22.9208C15.5751 21.8689 16.8722 21.511 18.3238 21.9931C19.2275 22.2936 19.9246 22.8968 20.4109 23.7254C20.5069 23.8892 20.4777 23.9404 20.2961 23.955C20.2711 23.9571 20.245 23.955 20.2199 23.9592C19.8808 24.0072 19.647 23.9018 19.4091 23.6179C18.6577 22.7194 17.6643 22.3656 16.5174 22.6025C15.7859 22.7538 15.2015 23.1963 14.7632 23.8078C14.2132 24.5749 13.9722 25.4254 14.1005 26.3677C14.2654 27.5688 14.8811 28.4548 15.9654 29.0121C17.0486 29.5683 18.3614 29.2803 19.2035 28.4058C19.287 28.3181 19.3976 28.244 19.4488 28.1407C19.6429 27.7556 19.982 27.7598 20.3326 27.7807C20.484 27.7901 20.5226 27.86 20.4443 27.9977C20.006 28.7668 19.3987 29.3533 18.5868 29.7206C18.1276 29.9283 17.6486 30.041 17.1404 30.0337H17.1394Z" fill="black"/>
<path d="M75.009 27.2453C74.2826 27.2453 73.5574 27.2453 72.831 27.2453C72.5743 27.2453 72.5441 27.3089 72.6077 27.5625C72.7309 28.0603 72.9625 28.4861 73.3539 28.8211C74.2002 29.5474 75.3178 29.5192 76.1078 28.7324C76.28 28.5612 76.4063 28.341 76.5336 28.1313C76.6046 28.0144 76.6786 27.9445 76.8174 27.9486C76.9124 27.9518 77.0084 27.9486 77.1034 27.9507C77.2797 27.9539 77.3455 28.0353 77.2735 28.1918C76.9615 28.867 76.5211 29.4263 75.8323 29.7582C75.0716 30.1245 74.3077 30.1297 73.5511 29.7686C72.8373 29.4274 72.3207 28.8878 72.0724 28.1292C71.9597 27.7879 71.8522 27.4269 71.8438 27.0721C71.8178 25.969 72.2206 25.034 73.1232 24.3765C73.8214 23.8683 74.6166 23.6982 75.4577 23.9727C76.1976 24.2137 76.7371 24.7073 77.1159 25.3877C77.3632 25.8323 77.4613 26.3144 77.5104 26.8112C77.5469 27.1774 77.4926 27.2401 77.1305 27.2411C76.424 27.2432 75.7165 27.2411 75.01 27.2411V27.2432L75.009 27.2453ZM74.6468 26.5482C75.2396 26.5482 75.8313 26.5482 76.424 26.5482C76.5002 26.5482 76.5858 26.5555 76.6484 26.5242C76.6985 26.4981 76.7611 26.4083 76.7507 26.3614C76.5691 25.5412 76.1162 24.9526 75.3043 24.6583C74.6072 24.4058 73.9925 24.5654 73.4248 24.9933C73.0241 25.2949 72.7768 25.6998 72.6505 26.1861C72.5576 26.5482 72.5493 26.5482 72.9271 26.5482C73.5 26.5492 74.0739 26.5482 74.6468 26.5482Z" fill="black"/>
<path d="M52.9377 26.9584C52.9377 27.8506 52.9356 28.7429 52.9398 29.6341C52.9398 29.8083 52.8782 29.8887 52.6956 29.8939C52.2416 29.9064 52.227 29.897 52.2207 29.4368C52.2207 29.3481 52.228 29.2573 52.2176 29.1697C52.2124 29.1248 52.1748 29.0851 52.1529 29.0424C52.1122 29.0664 52.059 29.082 52.0319 29.1165C51.7282 29.5161 51.3295 29.7739 50.8526 29.9137C49.9677 30.1736 49.1495 30.016 48.4065 29.4827C47.8482 29.0831 47.5112 28.531 47.3056 27.8757C47.1563 27.3977 47.1271 26.9166 47.2085 26.4418C47.3661 25.512 47.8013 24.7377 48.6392 24.2441C49.3311 23.8371 50.0773 23.738 50.8474 23.9571C51.3076 24.0886 51.699 24.3505 52.0058 24.7293C52.0433 24.7763 52.1112 24.7993 52.1654 24.8326C52.1842 24.7752 52.2145 24.7179 52.2176 24.6594C52.226 24.5196 52.2249 24.3797 52.2218 24.2389C52.2187 24.0855 52.2781 24.0051 52.4441 23.9968C52.9147 23.9748 52.9366 23.9947 52.9356 24.4716C52.9335 25.3002 52.9356 26.1287 52.9356 26.9563H52.9387L52.9377 26.9584ZM52.251 26.9041C52.2781 26.494 52.1539 26.0244 51.8941 25.6091C51.4996 24.9787 50.9424 24.5749 50.1691 24.5446C49.8946 24.5342 49.6317 24.5718 49.3666 24.6667C48.9701 24.8107 48.634 25.0351 48.3909 25.369C47.8242 26.1465 47.7261 27.0032 48.0559 27.8997C48.3763 28.7721 49.0087 29.2667 49.9385 29.3387C50.4696 29.3794 50.9559 29.2302 51.3755 28.8837C51.9703 28.3922 52.2395 27.7546 52.251 26.9041Z" fill="black"/>
<path d="M31.9696 40.5099C32.4235 40.5673 32.8827 40.5955 33.3294 40.6883C33.9878 40.8251 34.4501 41.2435 34.7538 41.8331C35.141 42.5855 35.2036 43.3776 34.9051 44.1644C34.5743 45.0369 33.9471 45.6108 32.9954 45.7152C32.3964 45.7809 31.788 45.7611 31.1828 45.7799C31.0335 45.7851 30.9761 45.7016 30.9761 45.5659C30.9761 45.2915 30.9782 45.0181 30.9782 44.7436C30.9751 43.4246 30.972 42.1055 30.9657 40.7864C30.9657 40.6278 31.0137 40.5475 31.1828 40.5506C31.4436 40.5569 31.7045 40.5516 31.9665 40.5516C31.9675 40.537 31.9696 40.5224 31.9706 40.5078L31.9696 40.5099ZM31.931 43.1605C31.931 43.1605 31.9258 43.1605 31.9237 43.1605C31.9237 43.651 31.9247 44.1415 31.9237 44.632C31.9237 44.7603 31.9487 44.8688 32.1 44.8751C32.5592 44.8918 33.0038 44.8292 33.4014 44.5808C33.7864 44.3398 33.9785 43.9756 34.0797 43.5394C34.2174 42.9414 34.0515 42.4311 33.6643 41.9855C33.2574 41.5169 32.697 41.4616 32.1261 41.4616C31.9853 41.4616 31.931 41.5524 31.932 41.6912C31.9352 42.1817 31.9331 42.6722 31.9331 43.1626L31.931 43.1605Z" fill="black"/>
<path d="M27.8724 26.9707C27.7994 28.0935 27.3715 29.0254 26.3948 29.6307C25.4869 30.1921 24.555 30.1827 23.6356 29.6307C22.9155 29.1966 22.4501 28.5579 22.2717 27.7502C22.0181 26.5991 22.2466 25.5462 23.0992 24.6832C23.6679 24.1071 24.365 23.8045 25.178 23.8588C26.041 23.9172 26.7193 24.3388 27.2327 25.0296C27.6616 25.6067 27.8432 26.2642 27.8735 26.9717L27.8724 26.9707ZM27.1524 26.9571C27.1628 26.5125 27.0564 26.1003 26.8602 25.7038C26.4449 24.8648 25.1592 24.152 24.1042 24.7927C23.5584 25.1236 23.1754 25.5504 23.0053 26.1462C22.7006 27.2107 22.9135 28.153 23.7775 28.8918C24.4339 29.4533 25.3324 29.4846 26.0243 29.0609C26.8017 28.585 27.1284 27.8452 27.1534 26.956L27.1524 26.9571Z" fill="black"/>
<path d="M22.5856 43.0357C22.5856 43.8455 22.5856 44.6543 22.5856 45.4641C22.5856 45.7573 22.546 45.7949 22.2548 45.7938C22.0576 45.7928 21.8604 45.7886 21.6631 45.7896C21.4106 45.7907 21.3605 45.7448 21.3595 45.4912C21.3595 43.9874 21.3595 42.4826 21.3595 40.9788C21.3595 40.8192 21.3553 40.6606 21.3574 40.5009C21.3595 40.3548 21.2895 40.2953 21.1455 40.2974C20.9034 40.3016 20.6613 40.2974 20.4192 40.2995C20.2439 40.3016 20.1635 40.2264 20.1708 40.0449C20.1792 39.8288 20.1698 39.6118 20.1667 39.3947C20.1646 39.2215 20.2428 39.1411 20.4223 39.1411C21.4607 39.1432 22.499 39.1422 23.5374 39.137C23.7085 39.137 23.7868 39.2079 23.7889 39.3728C23.7909 39.6087 23.7868 39.8445 23.7951 40.0803C23.8003 40.24 23.7221 40.2984 23.576 40.2995C23.3276 40.2995 23.0792 40.3057 22.8309 40.2995C22.6545 40.2964 22.5815 40.3642 22.5825 40.5489C22.5888 41.3775 22.5856 42.2061 22.5856 43.0347V43.0357Z" fill="black"/>
<path d="M39.3422 42.4927C39.3422 43.0145 39.3359 43.5363 39.3432 44.0581C39.3599 45.1642 38.4332 46.0012 37.3344 45.8718C36.8668 45.8165 36.4713 45.6338 36.1405 45.2947C35.8316 44.9785 35.7022 44.5934 35.696 44.1687C35.6803 43.1178 35.6751 42.067 35.6782 41.0161C35.6793 40.5517 35.6939 40.5517 36.1583 40.5538C36.2157 40.5538 36.2731 40.5569 36.3305 40.5548C36.6101 40.5465 36.6258 40.5632 36.6247 40.8523C36.6227 41.8457 36.6112 42.8402 36.6279 43.8327C36.632 44.08 36.6999 44.3357 36.7823 44.5715C36.8867 44.8731 37.3354 45.039 37.7153 44.9597C38.069 44.8856 38.2704 44.6665 38.3362 44.321C38.3664 44.1593 38.3852 43.9923 38.3852 43.8285C38.3873 42.8225 38.3831 41.8155 38.38 40.8095C38.38 40.6112 38.4437 40.5434 38.6399 40.5455C38.812 40.5475 38.9832 40.5517 39.1554 40.5548C39.2858 40.5569 39.3536 40.6143 39.3526 40.7531C39.3495 41.3323 39.3516 41.9115 39.3516 42.4917H39.3422V42.4927Z" fill="black"/>
<path d="M62.4663 26.9305C62.4663 26.0257 62.4674 25.1209 62.4663 24.2162C62.4663 24.0628 62.53 23.9897 62.6855 24.0022C62.7168 24.0043 62.7491 24.0054 62.7804 24.0054C63.1571 24.0074 63.154 24.0074 63.1895 24.3894C63.1947 24.4447 63.2385 24.4969 63.2636 24.5501C63.3116 24.5251 63.37 24.5115 63.4055 24.475C63.9148 23.9448 64.5357 23.7789 65.2505 23.8749C66.3734 24.0252 67.0694 24.9686 67.1988 25.9391C67.2437 26.2782 67.2437 26.6257 67.2458 26.9691C67.2521 27.8425 67.2479 28.7149 67.25 29.5884C67.25 29.8649 67.2197 29.8973 66.9453 29.8921C66.9004 29.8921 66.8566 29.8942 66.8117 29.8931C66.5925 29.891 66.5477 29.8399 66.5477 29.6187C66.5477 28.5803 66.555 27.5409 66.5435 26.5026C66.5372 26.0048 66.4256 25.5342 66.1062 25.1272C65.7149 24.6284 64.927 24.4071 64.3322 24.6336C63.6455 24.8945 63.2824 25.4048 63.2271 26.0987C63.1665 26.8595 63.1905 27.6265 63.1811 28.3904C63.1759 28.8047 63.1801 29.219 63.1791 29.6333C63.1791 29.8441 63.1342 29.8879 62.9203 29.891C62.4914 29.8962 62.4799 29.8962 62.4757 29.4726C62.4674 28.6252 62.4736 27.7778 62.4736 26.9305C62.4715 26.9305 62.4684 26.9305 62.4663 26.9305Z" fill="black"/>
<path d="M67.6539 42.4581C67.6539 41.4385 67.6539 40.419 67.6539 39.3994C67.6539 39.2063 67.7134 39.1448 67.9033 39.1448C68.1579 39.1448 68.4125 39.1542 68.6672 39.1458C68.8143 39.1406 68.8592 39.2084 68.8581 39.3399C68.8571 39.6519 68.8592 39.964 68.8602 40.277C68.8634 41.9916 68.8665 43.7062 68.8696 45.4197C68.8696 45.7463 68.8394 45.7766 68.5106 45.7797C68.3322 45.7818 68.1537 45.7849 67.9763 45.787C67.68 45.7912 67.6528 45.7662 67.6528 45.4614C67.6528 44.6015 67.6528 43.7406 67.6528 42.8807C67.6528 42.7409 67.6528 42.6 67.6528 42.4602L67.6539 42.4581Z" fill="black"/>
<path d="M43.7565 36.2264C43.6615 36.2859 43.6041 36.3099 43.5613 36.3506C42.7641 37.0968 41.4805 36.8348 40.9305 35.9217C40.5277 35.2528 40.5611 33.9588 41.6589 33.4161C42.3216 33.0895 43.0103 33.1698 43.5499 33.6499C43.5937 33.6895 43.6573 33.7073 43.7116 33.7355C43.7335 33.6739 43.7721 33.6123 43.7732 33.5507C43.7794 33.1563 43.7774 32.7608 43.7763 32.3663C43.7763 32.2212 43.7941 32.0908 43.9808 32.0856C44.1343 32.0814 44.2146 32.1722 44.2146 32.3663C44.2146 33.7292 44.2146 35.0931 44.2052 36.456C44.2052 36.5374 44.1363 36.6512 44.0654 36.6919C43.9099 36.7816 43.7951 36.7044 43.7763 36.5238C43.768 36.4435 43.7638 36.3631 43.7544 36.2264H43.7565ZM43.793 35.019C43.7982 34.251 43.2107 33.5967 42.4771 33.6207C41.708 33.6447 41.1382 34.1038 41.1309 35.019C41.1246 35.7787 41.6454 36.3924 42.522 36.3798C43.1658 36.3704 43.8201 35.738 43.793 35.0201V35.019Z" fill="black"/>
<path d="M47.2023 35.143C46.7891 35.143 46.3748 35.143 45.9616 35.143C45.7727 35.143 45.6819 35.2661 45.7476 35.4487C45.9229 35.9308 46.2464 36.2731 46.7641 36.3535C47.3224 36.4401 47.7763 36.2408 48.0894 35.7524C48.1259 35.696 48.177 35.622 48.2323 35.6115C48.3221 35.5948 48.4202 35.624 48.5151 35.6334C48.5016 35.7211 48.5099 35.8213 48.4692 35.8933C48.2636 36.2617 47.9641 36.5215 47.5665 36.676C47.2107 36.8147 46.8496 36.8168 46.5011 36.7073C45.8217 36.4933 45.4387 36.0008 45.2812 35.3151C45.1309 34.6608 45.5556 33.7613 46.1515 33.4399C46.5866 33.204 47.0385 33.156 47.4987 33.2948C47.865 33.4054 48.1676 33.6402 48.3795 33.9648C48.5611 34.2424 48.703 34.5387 48.7051 34.8873C48.7061 35.0991 48.6738 35.1565 48.464 35.1586C48.0435 35.1628 47.6239 35.1597 47.2034 35.1597C47.2034 35.1534 47.2034 35.1482 47.2034 35.1419L47.2023 35.143ZM46.955 34.7871C47.2984 34.7871 47.6417 34.7871 47.9861 34.7871C48.224 34.7871 48.2856 34.7036 48.2115 34.4813C48.0487 33.9971 47.4549 33.5839 46.9477 33.6267C46.379 33.6747 45.9657 33.947 45.7716 34.5064C45.6955 34.7266 45.7361 34.7871 45.9636 34.7871C46.2945 34.7871 46.6253 34.7871 46.9561 34.7871H46.955Z" fill="black"/>
<path d="M69.335 26.9491C69.335 26.0641 69.335 25.1792 69.335 24.2953C69.335 24.0323 69.3684 24 69.6324 24.001C69.6637 24.001 69.696 24.001 69.7273 24.001C69.9705 24.001 70.0216 24.049 70.0216 24.289C70.0227 25.3013 70.0237 26.3135 70.0237 27.3258C70.0237 28.0897 70.0258 28.8535 70.0237 29.6174C70.0237 29.8533 69.9778 29.8929 69.743 29.894C69.3381 29.8961 69.336 29.8961 69.336 29.4912C69.335 28.6448 69.336 27.7975 69.336 26.9511L69.335 26.9491Z" fill="black"/>
<path d="M50.5678 36.7749C50.044 36.8103 49.6005 36.3773 49.5577 35.9484C49.5451 35.8294 49.542 35.7219 49.6819 35.6927C49.8113 35.6656 49.924 35.701 49.9761 35.8398C49.9918 35.8816 50.0043 35.9244 50.02 35.9661C50.1922 36.4305 50.7087 36.5307 51.0385 36.1644C51.2868 35.8878 51.1752 35.4078 50.8225 35.2513C50.6075 35.1553 50.3873 35.0728 50.1744 34.9737C49.7476 34.7765 49.5587 34.3862 49.6579 33.9186C49.7393 33.5336 50.1076 33.2372 50.5334 33.2163C50.931 33.1965 51.3223 33.473 51.4486 33.8654C51.4841 33.976 51.5279 34.0961 51.3693 34.1514C51.2201 34.2035 51.0583 34.1336 51.0134 33.9927C50.954 33.8101 50.8517 33.6849 50.6513 33.6463C50.4332 33.6045 50.2287 33.7005 50.1128 33.9155C50.0262 34.0773 50.0544 34.3183 50.2214 34.4321C50.4176 34.5657 50.6357 34.6763 50.859 34.7598C51.5415 35.0144 51.8003 35.6395 51.4695 36.2854C51.2827 36.6496 50.9665 36.7895 50.5699 36.7738L50.5678 36.7749Z" fill="black"/>
<path d="M69.333 22.6014C69.333 22.4428 69.333 22.2831 69.333 22.1245C69.333 21.9836 69.3956 21.9179 69.5449 21.9221C70.027 21.9356 70.027 21.9325 70.0249 22.4209C70.0249 22.6369 70.0249 22.854 70.027 23.07C70.027 23.2296 69.9466 23.3006 69.7911 23.3037C69.4857 23.31 69.3334 23.159 69.3341 22.8508C69.3341 22.7684 69.3341 22.6849 69.3341 22.6025L69.333 22.6014Z" fill="black"/>
</svg>
