<svg width="109" height="20" viewBox="0 0 109 20" fill="none" xmlns="http://www.w3.org/2000/svg">
<path d="M6.23762 7.56106C4.72568 7.56106 3.50389 8.83274 3.50389 10.3985C3.50389 12.0026 4.72568 13.2943 6.23762 13.2943C7.74975 13.2943 8.97193 12.0421 8.97193 10.3985C8.97193 8.7742 7.74975 7.56106 6.23762 7.56106ZM6.61049 15.6813C5.36785 15.6813 4.31169 15.2897 3.50389 14.507V19.9467H0.749023V10.3985C0.749023 7.50233 3.00689 5.13461 6.23762 5.13461C9.44827 5.13461 11.7057 7.50233 11.7057 10.3985C11.7057 13.3136 9.42761 15.6813 6.61049 15.6813Z" fill="#3E3E3E"/>
<path d="M15.5754 13.0102L15.5756 15.4663H12.8415L12.8413 13.0102H15.5754ZM15.5756 9.63528L15.5754 11.9342H12.8413L12.8415 9.63528C12.8415 9.5397 12.8438 9.44508 12.8484 9.35151L15.5915 9.35141C15.581 9.44346 15.5756 9.53808 15.5756 9.63528Z" fill="#3E3E3E"/>
<path d="M18.472 5.19421V7.62029C17.3953 7.43875 16.5408 7.70682 16.0458 8.27607L13.0125 8.27616C13.5822 6.17641 15.5253 4.85247 18.472 5.19421Z" fill="#3E3E3E"/>
<path d="M26.6743 10.4569C26.6743 8.71575 25.494 7.50233 24.0441 7.50233C22.5943 7.50233 21.4136 8.71575 21.4136 10.4569C21.4136 12.1592 22.5943 13.3332 24.0441 13.3332C25.494 13.3332 26.6743 12.1592 26.6743 10.4569ZM29.4289 10.4374C29.4289 13.4506 27.006 15.7008 24.0441 15.7008C21.0823 15.7008 18.6797 13.4506 18.6797 10.4374C18.6797 7.42399 21.0823 5.13461 24.0441 5.13461C27.006 5.13461 29.4289 7.42399 29.4289 10.4374Z" fill="#3E3E3E"/>
<path d="M46.9128 15.466H44.1791V9.57657C44.1791 9.00904 43.972 7.65902 42.1701 7.65902C40.9686 7.65902 40.0986 8.4415 40.0986 9.57657V15.466H37.3647V9.57657C37.3647 9.00904 37.1783 7.65902 35.3764 7.65902C34.1541 7.65902 33.3054 8.4415 33.3054 9.57657V15.466H30.5713V9.63502C30.5713 7.07187 32.4561 5.13461 35.3764 5.13461C36.8264 5.13461 38.0069 5.68273 38.773 6.56317C39.581 5.68273 40.782 5.13461 42.1701 5.13461C45.1523 5.13461 46.9128 6.99353 46.9128 9.63502V15.466Z" fill="#3E3E3E"/>
<path d="M56.0425 10.4569C56.0425 8.71575 54.8621 7.50233 53.412 7.50233C51.9624 7.50233 50.7815 8.71575 50.7815 10.4569C50.7815 12.1592 51.9624 13.3332 53.412 13.3332C54.8621 13.3332 56.0425 12.1592 56.0425 10.4569ZM58.797 10.4374C58.797 13.4506 56.3739 15.7008 53.412 15.7008C50.4503 15.7008 48.0479 13.4506 48.0479 10.4374C48.0479 7.42399 50.4503 5.13461 53.412 5.13461C56.3739 5.13461 58.797 7.42399 58.797 10.4374Z" fill="#3E3E3E"/>
<path d="M64.5596 15.4475C61.4324 15.7605 59.7756 13.98 59.7756 11.2211V2.82678H62.5094V5.39041H64.4359V7.67959H62.5094V11.2407C62.5094 12.6493 63.1929 13.1776 64.5596 13.0995V15.4475Z" fill="#3E3E3E"/>
<path d="M73.3611 9.32212C73.0289 8.14821 71.9942 7.40438 70.6891 7.40438C69.4468 7.40438 68.4521 8.14821 68.0589 9.32212H73.3611ZM68.017 11.4353C68.3693 12.668 69.4049 13.431 70.6891 13.431C71.601 13.431 72.4911 13.0591 72.9471 12.2573H75.8666C75.246 14.3114 73.3611 15.7008 70.71 15.7008C67.7067 15.7008 65.2422 13.3529 65.2422 10.4374C65.2422 7.52194 67.7067 5.13461 70.71 5.13461C73.858 5.13461 76.4673 7.44379 76.0741 11.4353H68.017Z" fill="#3E3E3E"/>
<path d="M82.1978 7.56183C80.6861 7.56183 79.4639 8.79457 79.4639 10.4578C79.4639 12.0623 80.6861 13.2951 82.1978 13.2951C83.7095 13.2951 84.9317 12.0232 84.9317 10.4578C84.9317 8.85311 83.7095 7.56183 82.1978 7.56183ZM87.6656 10.4382C87.6656 13.3536 85.4086 15.7015 82.1978 15.7015C78.967 15.7015 76.71 13.3536 76.71 10.4382C76.71 7.54231 79.0079 5.17469 81.8047 5.17469C83.0688 5.17469 84.1035 5.54642 84.9317 6.3487V0.909027H87.6656V10.4382Z" fill="#3E3E3E"/>
<path d="M99.0013 6.66102C97.0118 6.66102 95.3963 8.32422 95.3963 10.4374C95.3963 12.5506 97.0118 14.1747 99.0013 14.1747C100.968 14.1747 102.604 12.5116 102.604 10.4374C102.604 8.34383 100.947 6.66102 99.0013 6.66102ZM104.344 15.466H102.646V13.9006C101.817 14.9964 100.471 15.7204 98.9584 15.7204C96.0179 15.7204 93.6362 13.4506 93.6362 10.4374C93.6362 7.40438 96.0389 5.13461 99.0013 5.13461C102.025 5.13461 104.344 7.4634 104.344 10.4374V15.466Z" fill="#3E3E3E"/>
<path d="M106.39 15.4694H108.156V5.39258H106.39V15.4694Z" fill="#3E3E3E"/>
<path d="M90.7697 15.7215C89.9082 15.7215 89.2104 15.0619 89.2104 14.2484C89.2104 13.4349 89.9082 12.7752 90.7697 12.7752C91.6312 12.7752 92.3289 13.4349 92.3289 14.2484C92.3289 15.0619 91.6312 15.7215 90.7697 15.7215Z" fill="#3E3E3E"/>
<path d="M108.513 2.77194C108.513 3.41686 107.96 3.93966 107.276 3.93966C106.594 3.93966 106.041 3.41686 106.041 2.77194C106.041 2.1271 106.594 1.6044 107.276 1.6044C107.96 1.6044 108.513 2.1271 108.513 2.77194Z" fill="#3E3E3E"/>
</svg>
