<svg width="243" height="50" viewBox="0 0 243 50" fill="none" xmlns="http://www.w3.org/2000/svg">
<path d="M10.9314 0.88232C5.44119 2.8431 2.25492 6.17644 0.637269 11.7157C-0.196064 14.7058 1.44094e-05 18.3823 1.27452 21.5196L2.05884 23.4804L3.67649 21.9117C5.00001 20.6372 5.19609 20.196 4.80394 19.4607C4.55884 18.9215 4.31374 17.2058 4.31374 15.6372C4.31374 9.01957 9.01962 4.31369 15.7353 4.31369C20.2941 4.31369 24.1177 6.81369 26.0294 11.0294C27.2059 13.5784 27.2059 17.7941 26.0294 20.3431C23.6275 25.6862 16.2255 28.7745 11.6177 26.3725C10.6373 25.8823 7.84315 27.549 7.84315 28.6764C7.84315 29.8529 12.2059 31.1274 16.0294 31.0784C19.0196 31.0294 20.0981 30.7843 22.5 29.5588L25.3922 28.0392L26.0294 29.6078C26.3726 30.4411 26.6667 31.1764 26.7157 31.2255C26.7157 31.2745 27.6471 31.0784 28.7745 30.7353L30.7843 30.147L29.5588 27.549L28.3333 25L29.3628 22.8921C32.402 16.5686 31.3726 9.46075 26.6177 4.70585C22.6961 0.73526 15.9804 -0.931404 10.9314 0.88232Z" fill="black"/>
<path d="M83.9216 0.588326C81.0784 1.07852 79.0686 2.59813 78.3824 4.80401C77.2549 8.72558 79.2647 10.5393 86.6667 12.255C89.902 12.9903 91.6667 13.6766 92.5 14.5099C94.6079 16.6668 93.6275 19.853 90.3922 21.0785C87.2059 22.304 81.4216 20.9805 79.8039 18.6766C79.3137 17.9903 78.7745 17.7452 78.2353 17.9413C77.1569 18.3334 77.2549 18.7256 78.8235 20.2452C80.7843 22.157 83.3824 23.0393 86.8628 23.0393C92.6961 22.9903 96.1765 20.0981 95.2941 15.9805C94.6569 12.8922 92.6471 11.7648 85.1961 10.2942C81.7157 9.60793 79.902 8.2844 79.902 6.32362C79.902 3.67656 82.5981 1.96087 86.8137 1.96087C89.3628 1.96087 90.7353 2.45107 92.402 3.97068C93.0883 4.55891 93.6275 4.70597 94.1177 4.41186C94.7059 4.06872 94.6569 3.82362 93.8726 2.94127C91.8628 0.686365 88.1373 -0.195988 83.9216 0.588326Z" fill="black"/>
<path d="M35.4901 1.22547C35.294 1.61763 35.294 5.34312 35.392 9.41175C35.5391 16.3235 35.6371 17.1078 36.7646 19.0686C39.8528 24.4608 47.745 24.5098 51.3234 19.1667C52.4018 17.598 52.4509 17.0098 52.4509 9.01959C52.4509 1.76469 52.3528 0.490179 51.7156 0.490179C51.0783 0.490179 50.9803 1.66665 50.9803 8.18626C50.9803 16.9117 50.5391 18.4804 47.5979 20.4412C45.5881 21.8137 43.1862 21.8627 40.7842 20.6372C37.745 19.0686 37.2548 17.4019 37.2548 8.33332C37.2548 1.61763 37.1567 0.490179 36.5195 0.490179C36.0783 0.490179 35.6371 0.833317 35.4901 1.22547Z" fill="black"/>
<path d="M58.8235 11.7648V23.0393H66.6666C74.1666 23.0393 74.5098 22.9903 74.5098 22.0589C74.5098 21.1275 74.1666 21.0785 67.4019 21.0785H60.2941V16.6668V12.255H66.9117C72.4509 12.255 73.5294 12.157 73.5294 11.5197C73.5294 10.8824 72.4509 10.7844 66.9117 10.7844H60.2941V6.61774V2.45107H67.1568C73.6764 2.45107 74.0196 2.40205 74.0196 1.47068C74.0196 0.539307 73.6764 0.490286 66.4215 0.490286H58.8235V11.7648Z" fill="black"/>
<path d="M97.0588 1.22558C97.0588 1.81382 97.7941 1.96087 100.735 1.96087H104.412V12.5001C104.412 22.6962 104.461 23.0393 105.392 23.0393C106.324 23.0393 106.373 22.6962 106.373 12.5001V1.96087H110.049C112.99 1.96087 113.726 1.81382 113.726 1.22558C113.726 0.588326 112.451 0.490286 105.392 0.490286C98.3333 0.490286 97.0588 0.588326 97.0588 1.22558Z" fill="black"/>
<path d="M118.137 11.7648V23.0884L125.882 22.9413C132.353 22.7943 133.578 22.6962 133.578 22.059C133.578 21.4217 132.402 21.3237 126.618 21.1766L119.608 21.0296V16.6668V12.255H125.98C131.323 12.255 132.353 12.157 132.353 11.5198C132.353 10.8825 131.323 10.7845 125.98 10.7845H119.608V6.61779V2.45112H126.471C132.99 2.45112 133.333 2.4021 133.333 1.47073C133.333 0.539358 132.99 0.490339 125.735 0.490339H118.137V11.7648Z" fill="black"/>
<path d="M137.745 11.7648C137.745 21.4707 137.843 23.0393 138.48 23.0393C139.118 23.0393 139.216 21.6668 139.216 13.4805C139.216 8.23538 139.363 3.92166 139.608 3.92166C139.804 3.92166 141.716 6.66676 143.873 10.0491C146.029 13.3824 147.941 16.1275 148.186 16.1766C148.382 16.1766 150.343 13.3824 152.598 9.95107L156.618 3.67656L156.765 13.3824C156.863 22.6471 156.912 23.0393 157.843 23.0393C158.775 23.0393 158.824 22.6962 158.824 11.7648V0.490286H157.745C156.863 0.490286 155.784 1.81382 152.5 6.86283C150.245 10.3922 148.333 13.2354 148.186 13.2354C148.088 13.2354 146.127 10.3432 143.824 6.86283C137.745 -2.45089 137.745 -2.40187 137.745 11.7648Z" fill="black"/>
<path d="M163.235 11.7647V23.1372L169.755 22.9411C177.304 22.696 179.02 22.1078 180.245 19.2156C181.177 16.9117 180.49 14.3137 178.431 12.549C177.01 11.4215 177.01 11.3235 177.843 10.6862C180.833 8.57838 180.441 3.92152 177.108 1.66662C175.98 0.931324 174.608 0.735247 169.51 0.588186L163.235 0.392109V11.7647ZM175.49 2.84309C178.922 4.55877 179.167 8.28427 175.931 9.90191C174.706 10.5392 173.088 10.7843 169.755 10.7843H165.196V6.3725V1.96074H169.51C172.598 1.96074 174.265 2.20583 175.49 2.84309ZM175.833 12.9901C178.039 13.9215 178.873 15 178.922 16.9117C178.922 18.6274 178.628 19.1176 176.961 20.2451C176.029 20.8823 174.657 21.0784 170.49 21.0784H165.196V16.6666V12.2549H169.608C172.451 12.2549 174.706 12.5 175.833 12.9901Z" fill="black"/>
<path d="M185.294 11.7648V23.0393H193.137C200.637 23.0393 200.98 22.9903 200.98 22.0589C200.98 21.1275 200.637 21.0785 194.118 21.0785H187.255V16.6668V12.255H193.627C198.971 12.255 200 12.157 200 11.5197C200 10.8824 198.971 10.7844 193.627 10.7844H187.255V6.61774V2.45107H193.872C200.147 2.45107 200.49 2.40205 200.49 1.47068C200.49 0.539307 200.147 0.490286 192.892 0.490286H185.294V11.7648Z" fill="black"/>
<path d="M205.882 11.7648C205.882 22.6962 205.931 23.0393 206.863 23.0393C207.794 23.0393 207.843 22.6962 207.843 18.6275V14.2158H210.686H213.48L217.647 18.6766C220.637 21.9119 222.108 23.0883 222.794 22.9903C223.578 22.8432 223.088 22.0589 219.951 18.6275L216.127 14.4609L217.696 14.1668C219.608 13.7256 221.618 12.304 222.402 10.7354C223.382 8.82362 223.186 5.73538 221.912 3.87264C220.098 1.07852 218.235 0.490286 211.667 0.490286H205.882V11.7648ZM219.657 3.87264C221.569 5.7844 221.667 9.06872 219.902 11.1275C218.774 12.4511 218.529 12.5001 213.284 12.6472L207.843 12.8432V7.64715V2.45107H213.039C218.088 2.45107 218.235 2.50009 219.657 3.87264Z" fill="black"/>
<path d="M225.98 1.22558C225.98 1.81382 226.716 1.96087 229.657 1.96087H233.333V12.5001C233.333 21.4707 233.431 23.0393 234.069 23.0393C234.657 23.0393 234.804 21.4217 234.902 12.5981L235.049 2.20597L238.873 2.05891C241.765 1.96087 242.647 1.7648 242.647 1.22558C242.647 0.588326 241.274 0.490286 234.314 0.490286C227.255 0.490286 225.98 0.588326 225.98 1.22558Z" fill="black"/>
<path d="M10.9313 19.5098C7.35291 20.7843 4.70585 22.647 3.03918 25.147C-2.59807 33.2843 0.0980039 44.1666 8.72546 48.3823C11.1274 49.5588 12.1078 49.7549 15.6862 49.7549C19.2647 49.7549 20.196 49.5588 22.3529 48.4314C26.1274 46.4706 27.7451 44.8529 29.4117 41.5196C31.0784 38.2353 31.1274 38.3823 27.8921 37.598C26.7647 37.3039 26.5196 37.451 26.2745 38.4804C26.0784 39.1666 25.147 40.6372 24.1176 41.7647C19.6078 46.7647 12.3529 47.0098 7.64702 42.3529C0.5882 35.2451 5.53918 23.0882 15.5392 23.0392C16.9117 23.0392 18.6764 23.2843 19.4117 23.5294C20.5392 23.9706 21.0294 23.8725 22.0098 23.1372C23.9706 21.6666 23.8235 20.8333 21.4706 19.8529C18.2843 18.5784 13.9706 18.4314 10.9313 19.5098Z" fill="black"/>
<path d="M40.245 27.2058C35.8332 28.5784 32.892 32.8921 32.843 38.0392C32.843 45.5392 36.7156 49.6078 43.9214 49.7058C50.6371 49.7549 54.9018 45.9313 55.294 39.5098C55.5881 34.9999 54.7548 32.5 51.9607 29.8529C50.1469 28.0882 49.0685 27.4509 47.1077 27.0098C43.9214 26.3235 42.9411 26.3725 40.245 27.2058ZM47.4509 31.3235C49.9509 32.598 51.1764 34.9019 51.1764 38.2352C51.1764 42.7941 49.1175 45.3921 45.196 45.9313C40.6862 46.5196 37.4018 43.7745 36.9607 39.1176C36.3234 32.745 42.0097 28.5294 47.4509 31.3235Z" fill="black"/>
<path d="M58.8235 38.2353V49.5098H60.7843H62.7451L62.8431 41.5196L62.9902 33.5784L66.5686 38.3823C68.5294 41.0294 70.3431 43.0392 70.5882 42.8921C70.8333 42.7451 72.549 40.5882 74.3627 38.1372L77.696 33.6274L77.8431 41.5686L77.9411 49.5098H80.147H82.3529V38.1862V26.9117L79.8039 27.0588L77.2549 27.2058L74.0686 31.7156C72.3039 34.2156 70.6862 36.2255 70.4902 36.2255C70.3431 36.2745 68.6764 34.1666 66.8137 31.6176L63.4803 26.9607H61.1764H58.8235V38.2353Z" fill="black"/>
<path d="M86.2744 38.2353V49.5098H88.2352H90.196L90.294 41.3725L90.4411 33.2843L94.0195 38.1862C95.9803 40.9313 97.745 43.1372 97.9411 43.1372C98.1372 43.1372 99.8528 40.9804 101.716 38.4313L105.147 33.7745L105.294 41.6176L105.392 49.5098H107.598H109.804V38.2353V26.9607H107.353H104.951L101.618 31.6176C99.8038 34.1666 98.1372 36.2745 97.9901 36.2745C97.794 36.2745 96.1274 34.1666 94.3136 31.6176L91.0293 26.9607H88.6274H86.2744V38.2353Z" fill="black"/>
<path d="M113.725 34.5589C113.725 42.6961 114.117 44.6079 116.323 46.9608C119.657 50.5393 126.716 50.7844 130.245 47.451C132.745 45.0981 133.039 43.9706 133.235 35.1471L133.431 26.9608H131.176H128.921V34.853V42.7452L127.206 44.4608C125.588 46.0785 125.294 46.1765 123.235 45.9314C121.667 45.7844 120.539 45.2942 119.657 44.4118C118.431 43.1373 118.382 42.9412 118.137 35.1471L117.892 27.2059L115.833 27.0589L113.725 26.9118V34.5589Z" fill="black"/>
<path d="M137.745 38.2353V49.5098H139.706H141.618L141.765 42.0098L141.912 34.5588L147.745 42.0098C152.304 47.8921 153.824 49.5098 154.706 49.5098H155.882V38.2353V26.9607H153.922H151.961V33.5784C151.961 37.2058 151.814 40.196 151.618 40.147C151.373 40.147 148.922 37.1568 146.127 33.5294C141.373 27.4019 140.931 26.9607 139.412 26.9607H137.745V38.2353Z" fill="black"/>
<path d="M167.157 28.2843C165.294 32.3529 157.843 49.0686 157.843 49.2647C157.843 49.4117 158.823 49.5098 160.049 49.5098C162.255 49.5098 162.304 49.4607 163.235 47.3039L164.167 45.098H170H175.833L176.667 47.3039C177.549 49.5098 177.549 49.5098 179.951 49.5098H182.353L181.078 46.7156C176.274 35.7353 172.794 28.0882 172.402 27.549C172.157 27.2549 171.029 26.9607 169.853 26.9607C168.088 26.9607 167.696 27.1568 167.157 28.2843ZM172.255 37.0098L173.97 40.9313L170.245 41.0784C168.235 41.1764 166.47 41.1274 166.323 40.9804C166.225 40.8823 166.912 38.8725 167.941 36.5196C168.921 34.2156 169.902 32.4509 170.147 32.696C170.343 32.8921 171.274 34.8529 172.255 37.0098Z" fill="black"/>
<path d="M182.353 33.9706C182.353 44.4608 183.725 47.6961 188.774 49.2157C193.431 50.6373 198.186 49.2647 200.392 45.9314C201.667 44.0196 201.716 43.6765 201.863 35.4412L202.059 26.9608H200.098H198.137L197.941 34.6569C197.843 41.1275 197.647 42.5981 196.912 43.6765C195.049 46.4216 190.686 46.7647 188.284 44.3628C187.059 43.1373 187.01 42.9412 186.863 35.049L186.716 26.9608H184.51H182.353V33.9706Z" fill="black"/>
<path d="M204.902 28.9215V30.8823H208.333H211.765V40.196V49.5098H213.971H216.176V40.196V30.8823H219.608H223.039V28.9215V26.9607H213.971H204.902V28.9215Z" fill="black"/>
<path d="M225.98 29.0196V30.8823H234.314H242.647V29.1666V27.5L234.314 27.3529L225.98 27.2059V29.0196Z" fill="black"/>
<path d="M225.98 42.8921V49.5098H234.314H242.647V47.549V45.6372L236.422 45.4902L230.147 45.3431L230 42.7451L229.853 40.196H235.98H242.157V38.2353V36.2745H234.069H225.98V42.8921Z" fill="black"/>
</svg>
