<svg width="92" height="50" viewBox="0 0 92 50" fill="none" xmlns="http://www.w3.org/2000/svg">
<path d="M10.7344 41.4977C12.2976 42.2586 13.5819 42.9233 14.9006 43.5144C15.9665 43.9915 17.0395 44.5625 18.1695 44.7654C20.1648 45.1251 22.2052 45.2379 24.2266 45.4479C24.4711 45.4729 24.7228 45.4325 24.9685 45.4586C28.0878 45.7862 31.206 46.121 34.3253 46.4533C34.6945 46.4925 35.0648 46.5673 35.4316 46.553C43.5824 46.2278 51.7701 46.5032 59.8617 45.1797C64.8255 44.3678 69.6731 43.1156 74.1314 40.725C75.3017 40.0971 76.408 39.2283 77.3089 38.2561C78.478 36.9944 78.3463 36.2229 76.8471 35.284C75.7136 34.5753 74.4471 33.9783 73.158 33.64C71.1912 33.1249 69.1485 32.9065 67.1484 32.5053C65.0333 32.0815 62.9418 31.5379 60.8207 31.1498C59.4913 30.9064 58.1299 30.7889 56.7779 30.7284C53.1363 30.5646 49.4923 30.4803 45.8507 30.3284C43.478 30.2287 42.0228 28.8447 41.0661 26.8067C40.6198 25.8559 40.8643 25.1034 41.7723 24.6369C42.3694 24.3295 43.0317 24.1336 43.6798 23.9413C49.6858 22.1633 54.9215 18.911 60.0504 15.4617C60.6593 15.0522 61.2089 14.5311 61.7026 13.9863C61.9483 13.7156 62.0018 13.2741 62.143 12.9097C61.6445 12.8266 61.108 12.5845 60.6569 12.6937C59.7821 12.9061 58.9738 13.3785 58.105 13.6337C55.9993 14.2521 53.9055 15.0106 51.7499 15.337C49.3238 15.705 46.8229 15.8783 44.3777 15.7358C41.8044 15.5863 39.2571 14.9762 36.704 14.5311C36.3075 14.4622 35.9443 14.2047 35.4351 13.9756C35.993 13.3607 36.5105 12.6782 37.0803 13.5471C37.6061 14.3507 38.2696 14.5655 39.0779 14.613C43.0815 14.8456 47.1338 15.483 51.0591 14.34C54.6687 13.2883 58.1643 11.8497 61.7288 10.6355C63.2789 10.1073 64.86 9.64197 66.4576 9.28707C67.26 9.10902 67.5579 9.8117 67.4499 10.4728C67.3787 10.9085 67.076 11.3844 66.7366 11.6847C64.5383 13.6302 62.4279 15.7085 60.0409 17.3988C57.6349 19.1033 54.9334 20.3923 52.3802 21.8962C51.7464 22.2701 51.1505 22.7306 50.6033 23.2232C49.9244 23.8333 50.0087 24.4743 50.8775 24.7746C53.3061 25.6114 55.8414 25.9627 58.3613 25.5069C59.648 25.2743 60.5014 24.2345 60.9501 22.8636C61.4617 21.3003 62.1549 19.7834 62.9039 18.3139C63.4297 17.2825 64.3816 16.6759 65.59 16.5762C66.809 16.4753 67.3289 16.9774 66.8505 18.0801C66.3461 19.2433 65.5627 20.2973 64.8315 21.3502C64.4849 21.8487 63.9876 22.2463 63.5365 22.6665C62.6819 23.463 62.5679 24.3069 63.2374 25.2921C63.895 26.2618 64.714 26.5254 65.7917 26.0696C66.2464 25.8773 66.7057 25.6304 67.1829 25.5758C68.2618 25.4523 68.5289 24.8292 68.701 23.8511C69.1152 21.495 71.6387 18.7217 74.4126 17.384C73.831 18.1603 73.6554 18.1412 72.8983 18.8984C71.9036 20.21 70.2678 22.5099 70.5491 24.0885C70.7473 25.2007 71.507 25.7538 72.5515 25.4179C74.5504 24.7758 76.2477 23.6054 77.2436 21.7454C77.6068 21.0665 77.4865 19.7328 77.4414 18.8984C77.4117 18.3607 76.5547 17.5265 77.4414 17.384C78.1892 17.2641 79.2341 18.0409 79.3516 18.9513C79.5475 20.473 79.8312 21.9852 79.9878 23.5105C80.1303 24.8909 80.3237 26.2072 81.8478 27.0132C80.626 27.2102 79.2871 25.9331 77.8311 23.1817C76.5136 24.0541 75.2305 24.9633 73.888 25.7752C72.3117 26.7283 70.6773 27.3052 68.8529 26.2797C68.2001 25.9129 68.0197 26.0707 66.5455 27.5924C67.603 27.8999 68.4945 28.199 69.406 28.4162C72.1681 29.0761 74.9729 29.5854 77.6887 30.3925C79.0751 30.8056 80.4235 31.5806 81.5879 32.4554C84.4615 34.6157 84.6514 38.325 82.0413 40.7879C79.5771 43.1132 76.5326 44.5197 73.4026 45.7115C65.2588 48.8106 56.7304 49.6925 48.1 49.9608C40.2649 50.2041 32.552 49.3103 24.9424 47.5014C20.6811 46.4889 16.4401 45.391 12.2027 44.2835C10.5623 43.855 10.5635 43.772 10.7308 41.4977H10.7344ZM62.9478 21.241C63.0914 21.3395 63.2338 21.4392 63.3775 21.5377C64.1525 20.714 65.0095 19.9496 65.6612 19.0392C65.933 18.6593 65.7644 17.9685 65.7965 17.4178C65.2588 17.5626 64.5965 17.559 64.206 17.8819C63.1662 18.7377 62.7294 19.8985 62.9478 21.241Z" fill="black"/>
<path d="M3.49618 19.7914C1.86292 21.5861 1.22908 23.674 1.40949 26.0729C1.59941 28.5964 3.53416 30.6047 6.06952 30.7198C9.7859 30.8896 13.3563 30.2082 16.5955 28.3566C17.6875 27.7322 18.7071 26.8064 19.4549 25.7951C21.9416 22.4313 21.2211 18.4347 17.5237 16.5119C14.6453 15.0151 11.4572 14.1094 8.41021 12.9332C7.49032 12.5783 6.54786 12.2649 5.67188 11.8222C3.67304 10.8097 3.27303 9.91234 3.87126 7.78292C4.38996 5.93719 5.4796 4.47841 7.10811 3.43151C9.96988 1.59171 13.164 1.07301 16.4887 1.15728C16.8923 1.16797 17.3314 1.52287 17.6555 1.82317C17.7576 1.91813 17.5688 2.58283 17.4573 2.59826C17.0145 2.66117 16.3558 2.75257 16.1243 2.50805C14.4922 0.77983 12.7248 1.53593 11.0002 2.16502C8.15858 3.20243 5.85705 4.85824 4.97276 7.93604C4.44219 9.78414 4.68077 10.3693 6.52057 11.0376C8.83989 11.8803 11.2293 12.5296 13.5474 13.3723C15.0501 13.9183 16.548 14.5474 17.9332 15.3368C23.0253 18.2377 23.6425 24.1927 19.3386 28.2225C17.9059 29.5637 16.205 30.3946 14.3415 30.9335C11.45 31.7703 8.50754 31.9994 5.54013 31.489C3.10329 31.07 1.254 29.7655 0.577432 27.331C-0.134747 24.7708 0.448053 22.4514 2.50744 20.6188C2.82792 20.3339 3.16502 20.0668 3.49499 19.7926L3.49618 19.7914Z" fill="black"/>
<path d="M34.8842 29.1151C32.2148 29.2457 32.4249 26.4646 31.1109 25.0165C30.0379 25.7358 29.023 26.5216 27.9108 27.1305C26.8983 27.6848 25.817 28.2486 24.7013 28.4492C22.5137 28.8421 21.652 27.9448 21.9843 25.7904C22.4104 23.0319 23.6651 20.7992 26.3108 19.541C26.7417 19.3369 27.1654 19.1185 27.6283 18.8894C26.655 19.8532 25.5108 20.6366 24.8758 21.7156C24.2597 22.7625 23.9096 24.1132 23.9084 25.3311C23.906 26.8254 24.9161 27.4462 26.3262 26.9869C28.331 26.334 29.9168 25.0367 30.8509 23.147C31.1358 22.5702 30.94 21.7369 30.8925 21.0271C30.8581 20.5108 30.4308 19.8948 31.3269 19.7262C32.1329 19.5743 32.5934 19.8461 32.6943 20.7529C32.8842 22.4562 33.0634 24.1726 33.454 25.8355C33.7032 26.8955 34.3228 27.8688 34.8831 29.1163L34.8842 29.1151Z" fill="black"/>
<path d="M91.9265 26.3646C89.1574 26.4999 89.6179 24.1331 88.5069 23.1266C87.7366 23.9314 87.0244 24.7682 86.2113 25.4934C85.5775 26.0584 84.8653 26.5842 84.1009 26.9474C83.1418 27.402 82.5934 27.0899 82.4118 26.018C82.2813 25.2501 82.2658 24.4346 82.3655 23.6619C82.5388 22.3266 82.8403 21.0079 83.0884 19.6832C83.2605 19.7046 83.4338 19.7259 83.6059 19.7473C83.6059 20.1153 83.6237 20.4832 83.6024 20.85C83.5501 21.764 83.3626 22.6874 83.4457 23.5883C83.5881 25.1373 84.8795 25.6774 86.0748 24.6922C87.4469 23.561 88.3918 22.1521 88.3241 20.2636C88.311 19.8992 88.2731 19.5194 88.3585 19.174C88.406 18.9829 88.6719 18.7419 88.863 18.7194C89.0422 18.698 89.3212 18.8927 89.4304 19.0695C89.5858 19.3188 89.7093 19.6417 89.7045 19.9301C89.6654 22.1948 90.2731 24.259 91.9254 26.3682L91.9265 26.3646Z" fill="black"/>
<path d="M35.8718 17.6503C37.2356 17.2989 37.1514 18.6319 37.7733 19.3571C39.466 17.9245 40.8606 15.3511 43.7663 17.7476C40.9841 17.1945 39.6879 18.6616 38.9627 20.8527C38.425 22.4765 38.0072 24.1406 37.4814 25.7691C37.2796 26.3946 36.927 26.9727 36.4784 27.508C35.1786 24.2225 37.4742 20.8598 35.873 17.6503H35.8718Z" fill="black"/>
<path d="M78.834 12.6497C77.7847 12.7185 76.8826 12.8977 76.0066 12.8087C74.5538 12.6615 73.108 12.3909 71.6849 12.0645C71.2671 11.9683 70.8196 11.5767 70.5881 11.198C70.1917 10.5476 70.6249 9.82232 71.3395 9.99918C73.7146 10.5843 76.0588 11.2977 78.4078 11.9838C78.5325 12.0206 78.5954 12.2639 78.8351 12.6497H78.834Z" fill="black"/>
<path d="M60.6414 1.52026C63.3537 1.79445 65.8095 2.59921 67.5104 4.97789C67.9258 5.55832 68.2914 6.18147 67.6065 6.75478C66.9098 7.33758 66.5323 6.60166 66.0837 6.24557C64.7471 5.18442 63.4201 4.11141 62.0717 3.06569C61.5542 2.6645 60.9892 2.32503 60.4468 1.95707C60.5121 1.81226 60.5773 1.66626 60.6414 1.52145V1.52026Z" fill="black"/>
<path d="M74.059 0C75.202 2.99353 74.2524 5.98705 72.1634 7.4209C71.4892 7.88382 70.853 8.2862 70.2666 7.47788C69.7301 6.7384 70.6037 6.50813 70.9183 6.03928C71.8263 4.68495 72.65 3.27128 73.4346 1.84217C73.742 1.28192 73.8572 0.617222 74.0601 0H74.059Z" fill="black"/>
</svg>
