<svg width="80" height="28" viewBox="0 0 80 28" fill="none" xmlns="http://www.w3.org/2000/svg">
<path d="M21.9847 17.4097L24.9205 16.2604C25.4488 17.3209 26.4005 17.8736 27.6587 17.8736C28.8967 17.8736 29.5581 17.2767 29.5581 16.5713C29.5581 15.7083 28.2757 15.5109 26.751 15.2002C24.7427 14.7808 22.5086 14.1638 22.5086 11.6433C22.5086 9.63506 24.4524 7.88885 27.3882 7.90903C29.9046 7.90903 31.4089 8.86077 32.5139 10.4496L29.7316 11.5744C29.2436 10.7799 28.4935 10.3162 27.3885 10.3162C26.1949 10.3162 25.6222 10.8001 25.6222 11.4654C25.6222 12.2155 26.5941 12.4172 28.3403 12.7922C30.3286 13.1914 32.6673 13.8729 32.6673 16.4378C32.6673 18.2928 31.0098 20.3899 27.5418 20.3696C24.7229 20.3696 22.9324 19.3093 21.9847 17.4097ZM33.4659 8.1988H35.6758V5.61404L38.6801 3.84775V8.1988H41.8176V10.8928H38.6801V15.7967C38.6801 17.0549 39.2085 17.4985 39.9824 17.4985C40.4018 17.4985 40.7324 17.3653 41.0874 17.0549L42.4786 19.4422C41.6513 20.0449 40.6509 20.3632 39.6275 20.3496C37.1312 20.3496 35.6754 19.1559 35.6754 15.9096V10.8928H33.4659V8.1988ZM51.4917 15.6876V15.0464H48.6854C46.8743 15.0464 46.1444 15.619 46.1444 16.5466C46.1444 17.4096 46.7412 17.8487 47.9994 17.8487C49.4593 17.8487 50.8948 16.9659 51.4917 15.6876ZM42.9666 16.8124C42.9666 14.3405 45.0192 12.8159 48.3342 12.8159H51.4717V12.6627C51.4717 11.3803 50.6083 10.4971 48.8863 10.4971C47.5397 10.4971 46.6323 11.0698 46.0794 12.0659L43.2723 10.6747C44.4862 9.0857 46.2323 7.95663 48.9063 7.95663C52.4189 7.95663 54.4265 9.79146 54.4265 12.7918V20.1233H51.4907V18.2889C50.6283 19.527 48.9948 20.3657 47.1195 20.3657C44.5104 20.3698 42.9658 18.9099 42.9658 16.8129L42.9666 16.8124ZM55.7534 17.4097L62.3998 10.8485H55.8877V8.1988H66.1551V10.917L59.5297 17.4541H66.2436V20.1237H55.7544L55.7534 17.4097Z" fill="#3E3E3E"/>
<path d="M70.2198 12.8364H76.5796C76.1808 11.3563 75.0346 10.5377 73.4421 10.5377C71.8981 10.5377 70.7082 11.445 70.2198 12.8364ZM67.1956 14.1831C67.1956 10.7149 69.8895 7.95282 73.4459 7.95282C77.0232 7.95282 79.6086 10.5378 79.6086 14.0704V15.2197H70.1313C70.5301 16.7643 71.7886 17.7361 73.5554 17.7361C74.9709 17.7361 75.918 17.1192 76.5149 16.1473L79.0118 17.603C77.8181 19.2806 76.1398 20.3654 73.5106 20.3654C69.6677 20.3695 67.1956 17.6512 67.1956 14.1831Z" fill="#3E3E3E"/>
<path d="M17.1384 0.569183L3.27795 8.73944L3.78209 14.5829L10.9523 15.0386L1.04788 19.0388L0.596191 25.0842L4.07242 27.3384L8.85917 24.4469L6.16132 22.5196L19.6508 17.6561L18.9693 11.7078L10.7707 10.441L17.7231 6.32765L17.1384 0.569183Z" fill="#3E3E3E"/>
</svg>
