<svg width="92" height="20" viewBox="0 0 92 20" fill="none" xmlns="http://www.w3.org/2000/svg">
<path d="M32.3667 6.70972H34.3221L35.4592 11.3117L37.861 6.70972H38.6581L39.8165 11.3117L42.2076 6.70972H44.3544L39.8696 15.3052H38.8919L37.776 10.7696L35.4273 15.3052H34.4709L32.3667 6.70972Z" fill="#3E3E3E"/>
<path d="M51.6176 6.70924H53.6475L52.4997 15.2937H50.4911L50.608 14.3755C50.1723 14.807 49.7578 15.0945 49.3753 15.2715C48.9927 15.4375 48.5676 15.5259 48.0893 15.5259C46.9947 15.5259 46.1233 15.1056 45.4856 14.2648C44.848 13.4241 44.5186 12.4506 44.5186 11.3443C44.5186 10.4926 44.7205 9.69608 45.1349 8.92169C45.5494 8.15835 46.102 7.56102 46.7928 7.12961C47.4836 6.6981 48.2169 6.48792 48.982 6.48792C49.4922 6.48792 49.9597 6.60967 50.3954 6.85298C50.8312 7.09638 51.1819 7.4504 51.4688 7.91504L51.6176 6.70924ZM48.5782 13.6453C49.0777 13.6453 49.5134 13.5347 49.8854 13.3024C50.2573 13.0701 50.5656 12.705 50.8206 12.2183C51.0756 11.7205 51.1925 11.2227 51.1925 10.7027C51.1925 10.0279 51.0012 9.47486 50.6293 9.06553C50.2467 8.6562 49.7472 8.44602 49.1308 8.44602C48.4082 8.44602 47.7917 8.72255 47.2923 9.27572C46.7928 9.82878 46.5378 10.5368 46.5378 11.4218C46.5378 12.0966 46.729 12.6387 47.1116 13.048C47.4836 13.4351 47.9831 13.6453 48.5782 13.6453Z" fill="#3E3E3E"/>
<path d="M54.9291 6.70972H56.9168L58.5208 11.8095L61.348 6.70972H63.5269L57.0548 18.4469H54.9082L57.2566 14.1326L54.9291 6.70972Z" fill="#3E3E3E"/>
<path d="M71.2139 3.4021H73.2443L71.6603 15.3052H69.6518L69.7689 14.3871C69.3329 14.8185 68.9188 15.1061 68.5361 15.2831C68.1535 15.4491 67.7279 15.5376 67.2501 15.5376C66.1554 15.5376 65.2844 15.1172 64.6361 14.2764C63.9878 13.4357 63.6689 12.4622 63.6689 11.356C63.6689 10.5041 63.8708 9.70764 64.2848 8.93325C64.6999 8.16999 65.252 7.57257 65.9536 7.14116C66.6447 6.70975 67.3776 6.49956 68.143 6.49956C68.6532 6.49956 69.1206 6.62122 69.5566 6.86462C69.9916 7.10793 70.3429 7.46195 70.6189 7.92659L71.2139 3.4021ZM67.7394 13.6458C68.2382 13.6458 68.6742 13.5352 69.0464 13.303C69.4176 13.0706 69.726 12.7055 69.9811 12.2188C70.2363 11.721 70.3638 11.2232 70.3638 10.7033C70.3638 10.0284 70.1725 9.47537 69.8003 9.06604C69.429 8.65671 68.9293 8.44653 68.302 8.44653C67.5794 8.44653 66.974 8.72306 66.4638 9.27623C65.964 9.82929 65.7089 10.5373 65.7089 11.4223C65.7089 12.0972 65.9003 12.6392 66.2829 13.0485C66.6656 13.4578 67.133 13.6458 67.7394 13.6458Z" fill="#3E3E3E"/>
<path d="M80.1152 12.7933L81.901 13.7557C81.4974 14.2978 80.9767 14.7292 80.317 15.05C79.6583 15.3708 78.9253 15.5257 78.1171 15.5257C76.8634 15.5257 75.8649 15.1606 75.1414 14.4194C74.4189 13.6783 74.0581 12.7047 74.0581 11.4879C74.0581 10.094 74.515 8.91038 75.4184 7.94789C76.3218 6.9855 77.427 6.49878 78.7016 6.49878C79.4774 6.49878 80.1685 6.67574 80.7635 7.02976C81.3584 7.38378 81.8477 7.89258 82.198 8.5674C82.5493 9.24222 82.7187 9.97234 82.7187 10.7578C82.7187 11.0012 82.6978 11.2888 82.6444 11.6207H76.0667C76.0876 12.218 76.2789 12.6937 76.6292 13.0477C76.991 13.4017 77.4803 13.5787 78.1066 13.5787C78.851 13.5787 79.5202 13.3243 80.1152 12.7933ZM80.6254 10.0719C80.4769 9.54094 80.2218 9.14265 79.8715 8.87716C79.5202 8.61167 79.0957 8.46783 78.5854 8.46783C78.0857 8.46783 77.6392 8.61167 77.2461 8.8882C76.853 9.16483 76.5445 9.56302 76.3322 10.0719H80.6254Z" fill="#3E3E3E"/>
<path d="M83.689 6.70972H85.6766L86.9617 11.4887L89.608 6.70972H91.8184L87.0255 15.3052H86.0478L83.689 6.70972Z" fill="#3E3E3E"/>
<path fill-rule="evenodd" clip-rule="evenodd" d="M7.44946 19.9842L7.44556 19.9952H21.3249C22.3026 19.9952 23.1315 19.3757 23.4929 18.5129V18.5018L23.5672 18.2916V18.2695L24.1517 16.6212L24.8851 14.5525L26.1709 10.9351L27.2868 7.7934L29.7311 0.956787H21.3858L18.9416 7.78236L17.8256 10.9241L16.5398 14.5415L15.8065 16.6101L15.2219 18.2585V18.2806L15.1476 18.4907V18.5018C14.7862 19.3647 13.9573 19.9842 12.9796 19.9842H7.44946Z" fill="#3E3E3E"/>
<path d="M8.84952 0.956787C7.8718 0.956787 7.04287 1.5763 6.68152 2.45026C6.67085 2.47234 6.67085 2.48339 6.66029 2.50556L6.6284 2.60514L0.432617 19.9842H11.7614C12.7391 19.9842 13.568 19.3647 13.9294 18.5018V18.4907L14.0037 18.2806C14.0037 18.2695 14.0037 18.2695 14.0037 18.2585L14.5883 16.6101L15.3216 14.5415L16.6074 10.9241L17.7234 7.78236L20.1676 0.956787H8.84952Z" fill="#3E3E3E"/>
</svg>
